<svg viewBox="0 0 16 16" fill="none" xmlns="http://www.w3.org/2000/svg"><g clip-path="url(#clip0_8874_15385)" fill="currentColor"><path d="M4 8.2313a.6667.6667 0 0 0 .6667.6667h6.6666a.6666.6666 0 1 0 0-1.3333H8.92l4-3.5467a.666.666 0 0 0 .2346-.4672.6669.6669 0 0 0-.1746-.4928L10.5667.3447A.6673.6673 0 0 0 9.8352.147a.6666.6666 0 0 0-.2285.1377l-4.58 4.06a.6664.6664 0 0 0-.2002.7369.6666.6666 0 0 0 .1402.2297l2 2.2534h-2.3A.6668.6668 0 0 0 4 8.2313Z"/><path d="M16 11.1713a.0872.0872 0 0 1 0-.04v-.08a.4321.4321 0 0 0 0-.0866l-2.14-4.9934a.6672.6672 0 0 0-.62-.4066h-.7067a.6668.6668 0 0 0 0 1.3333H12.8l1.5333 3.66H1.6667L3.2 6.898h.4333a.6667.6667 0 0 0 0-1.3333H2.76a.6667.6667 0 0 0-.62.4066L.0533 10.958a.4337.4337 0 0 0 0 .0867H0v.08a.0867.0867 0 0 1 0 .04v4.06a.6668.6668 0 0 0 .6667.6666h14.6666A.6667.6667 0 0 0 16 15.2247v-4.0534Z"/></g><defs><clipPath id="clip0_8874_15385"><path fill="white" d="M0 0h16v16H0z"/></clipPath></defs></svg>