<svg xmlns="http://www.w3.org/2000/svg" fill="none" viewBox="0 0 16 16"><g clip-path="url(#a)"><path fill="currentColor" fill-rule="evenodd" d="M7.366.01a7.4 7.4 0 0 1-.134.028c-.14.029-.31.101-.446.192-.178.12-3.062 3.014-3.15 3.163a1.43 1.43 0 0 0 .018 1.48c.042.066.695.733 1.888 1.927l1.823 1.825h-1.47a50.06 50.06 0 0 0-1.596.017.79.79 0 0 0-.464.233c-.177.18-.24.35-.227.612a.58.58 0 0 0 .076.303.87.87 0 0 0 .345.363c.187.095 0 .09 3.971.09s3.784.005 3.97-.09a.87.87 0 0 0 .346-.364.574.574 0 0 0 .076-.306.808.808 0 0 0-.023-.271.822.822 0 0 0-.668-.57 25.058 25.058 0 0 0-1.144-.016h-1.02l1.354-1.357c1.425-1.428 1.482-1.492 1.579-1.748a1.484 1.484 0 0 0-.051-1.135 1.856 1.856 0 0 0-.126-.202C12.197 4.048 8.466.32 8.35.244a1.33 1.33 0 0 0-.744-.235 1.907 1.907 0 0 0-.24.001ZM6.345 2.915 5.14 4.119 6.79 5.77l1.651 1.65 1.21-1.209 1.209-1.209-1.646-1.646c-.905-.905-1.65-1.646-1.655-1.646-.006 0-.552.542-1.214 1.205ZM1.655 6.19A2.024 2.024 0 0 0 .092 7.573c-.094.3-.092.212-.092 4.07 0 2.371.006 3.632.019 3.697.08.423.493.715.913.645a.794.794 0 0 0 .454-.242.76.76 0 0 0 .215-.428c.01-.063.017-.672.017-1.352v-1.237h12.764v1.246c0 .728.007 1.292.018 1.357.04.24.229.49.45.59a.808.808 0 0 0 1.131-.58c.013-.064.02-1.325.019-3.696 0-3.858.002-3.77-.091-4.07a2.02 2.02 0 0 0-1.254-1.3c-.283-.099-.419-.112-1.122-.112-.583 0-.647.003-.755.036a.805.805 0 0 0-.465 1.164c.068.121.22.264.347.326.158.077.296.091.9.092.574 0 .6.004.7.103a.51.51 0 0 1 .087.127c.032.07.034.158.034 1.586v1.513H1.619V9.595c.001-1.428.003-1.516.035-1.586a.422.422 0 0 1 .2-.205c.047-.02.253-.025 1.03-.025.533 0 1.026-.008 1.094-.017a.824.824 0 0 0 .623-.451.806.806 0 0 0-.526-1.125c-.133-.036-2.219-.032-2.419.004Z" clip-rule="evenodd"/></g><defs><clipPath id="a"><path fill="#fff" d="M0 0h16v16H0z"/></clipPath></defs></svg>