<svg xmlns="http://www.w3.org/2000/svg" fill="none" viewBox="0 0 16 16"><g clip-path="url(#a)"><path fill="currentColor" fill-rule="evenodd" d="M4.09.017a2.795 2.795 0 0 0-.992.33 2.606 2.606 0 0 0 .404 4.7c.558.21 1.243.21 1.799 0A2.608 2.608 0 0 0 6.797 1.58 2.654 2.654 0 0 0 5.313.162 2.712 2.712 0 0 0 4.09.017Zm7.195 0C10 .164 8.995 1.293 8.994 2.592c0 1.098.672 2.066 1.705 2.455a2.65 2.65 0 0 0 1.8 0A2.606 2.606 0 0 0 14.2 2.608c0-.697-.269-1.352-.757-1.84a2.604 2.604 0 0 0-2.159-.752ZM4.161 1.641a.957.957 0 0 0-.44.252.89.89 0 0 0-.303.706c0 .44.255.8.667.943.144.05.395.061.553.025.332-.077.633-.374.72-.71a1.233 1.233 0 0 0 0-.515c-.042-.165-.113-.281-.265-.434a.891.891 0 0 0-.705-.292 1.22 1.22 0 0 0-.227.025Zm7.195 0a.891.891 0 0 0-.449.267c-.152.153-.223.269-.266.434a1.232 1.232 0 0 0 0 .514c.087.332.373.62.708.71.144.038.42.027.566-.024a.973.973 0 0 0 .667-.933.881.881 0 0 0-.292-.701.899.899 0 0 0-.707-.292 1.22 1.22 0 0 0-.227.025ZM4.074 5.407A4.412 4.412 0 0 0 .003 9.592c-.018.37.035.562.205.744.17.182.355.263.597.263a.774.774 0 0 0 .603-.27c.144-.164.206-.355.207-.636a2.77 2.77 0 0 1 .808-1.854A2.733 2.733 0 0 1 4.2 7.024c.469-.036.584-.074.765-.255A.722.722 0 0 0 5.2 6.24a.66.66 0 0 0-.033-.29.837.837 0 0 0-.428-.48 1.176 1.176 0 0 0-.4-.08l-.265.017Zm3.714 0a2.601 2.601 0 0 0-2.27 1.81 2.69 2.69 0 0 0 0 1.568 2.613 2.613 0 0 0 2.056 1.784c.212.034.598.038.803.008a2.615 2.615 0 0 0 2.012-1.546c.15-.355.21-.653.21-1.04a2.565 2.565 0 0 0-.637-1.702 2.615 2.615 0 0 0-2.174-.883Zm3.683 0a.815.815 0 0 0-.638.543.658.658 0 0 0-.033.29c.01.22.076.37.235.529.18.18.296.22.765.255 1.012.076 1.857.65 2.314 1.574.152.307.242.674.271 1.099.02.294.045.399.127.526a.786.786 0 0 0 .683.376.763.763 0 0 0 .598-.263c.184-.198.23-.391.197-.845a4.408 4.408 0 0 0-1.234-2.765 4.55 4.55 0 0 0-2.25-1.236c-.38-.077-.832-.113-1.035-.083ZM7.785 7.034a.884.884 0 0 0-.38.177.986.986 0 0 0-.2 1.376.995.995 0 0 0 1.165.334c.217-.082.47-.334.55-.55a.996.996 0 0 0-1.135-1.337Zm-.208 3.775c-.873.104-1.58.384-2.258.893a5.522 5.522 0 0 0-.76.742c-.623.79-.978 1.8-.954 2.718.006.231.01.252.066.37a.807.807 0 0 0 .86.456.762.762 0 0 0 .436-.226c.173-.173.226-.31.245-.631.023-.41.08-.673.21-.994.261-.636.79-1.192 1.392-1.464.409-.184.755-.26 1.186-.26.428 0 .783.078 1.186.26a2.817 2.817 0 0 1 1.39 1.46c.133.326.189.59.212.998.019.321.075.467.247.634.057.056.15.124.204.152a.85.85 0 0 0 .713.004.915.915 0 0 0 .377-.388l.06-.126v-.34a3.432 3.432 0 0 0-.131-.994 4.327 4.327 0 0 0-1.148-1.988 4.364 4.364 0 0 0-2.383-1.234c-.175-.032-.31-.04-.653-.045a9.08 9.08 0 0 0-.497.003Z" clip-rule="evenodd"/></g><defs><clipPath id="a"><path fill="#fff" d="M0 0h16v16H0z"/></clipPath></defs></svg>