<svg viewBox="0 0 16 16" fill="none" xmlns="http://www.w3.org/2000/svg"><g clip-path="url(#clip0_8874_15383)" fill="currentColor"><path d="M8.6753 3.544c-.0267.0866.02.18.1067.2133l-.062-.0507c.9133.3267 1.52 1.1934 1.5266 2.1667V6.86c0 .18-.1466.3333-.3266.3333h-.54c-.08 0-.1534.06-.16.1467l-.28 2.5266c-.02.1667-.16.2867-.3267.2934H7.3c-.1734 0-.3134-.12-.3267-.2867l-.28-2.52c-.0067-.08-.08-.1467-.16-.14h-.54a.3272.3272 0 0 1-.3267-.3267V5.9c0-.9734.6067-1.84 1.528-2.1627.0467-.02.08-.0467.1-.0867.0334-.0866 0-.1866-.08-.22-.3866-.18-.7-.4933-.8733-.8733-.42-.9067-.0267-1.9866.88-2.4066.9067-.42 1.9867-.0267 2.4133.88.42.9066.0267 1.9866-.8733 2.4133-.0467.02-.0727.0533-.086.1ZM14.1086 7.6927c-.0332.0863.013.1792.1056.2129l-.0663-.0656c1.0667.36 1.78 1.36 1.7867 2.4933v1.984c0 .18-.1467.3327-.3267.3333l-.5866.0007c-.0867 0-.1534.0667-.16.1533l-.2334 2.8393c-.0133.1734-.16.3067-.3266.3067h-1.9734a.327.327 0 0 1-.3266-.3l-.2334-2.8393c-.0066-.0867-.08-.1467-.16-.1467l-.5866.0007c-.1867 0-.3334-.1467-.3267-.3267v-1.9733c0-1.1267.72-2.1266 1.7867-2.4866.0466-.0134.0873-.0467.1073-.0867.0333-.08-.0067-.18-.0867-.2134a2.1165 2.1165 0 0 1-1.1266-1.126c-.4667-1.0933.04-2.3466 1.1333-2.8066 1.0933-.4667 2.3467.04 2.8133 1.1333.4667 1.0934-.04 2.3467-1.1266 2.8133-.04.0134-.0734.0534-.0867.1ZM3.482 7.9066c-.0667-.0266-.1133-.0866-.1133-.1533-.0067-.0733.0333-.1333.1-.16 1.0866-.4667 1.5926-1.72 1.126-2.8133-.4667-1.0934-1.72-1.6-2.8134-1.1334C.688 4.1066.1813 5.36.648 6.4533c.2133.5067.62.9133 1.1267 1.1267.08.0333.12.1333.0866.2133-.02.04-.06.0733-.1.0867-1.0666.36-1.7866 1.36-1.7866 2.4866v1.9733c0 .18.1466.3267.3293.3267h.5873c.08 0 .1534.06.16.1467l.2334 2.8393c.0133.1667.1533.3.328.3H3.586c.1667-.0067.3067-.1333.3267-.3067l.2333-2.8393c.0067-.0867.0733-.1533.16-.1533h.5866c.18 0 .3267-.1534.3267-.3334 0-.0066-.0066-.0066-.0066-.0066v-1.98C5.206 9.1999 4.4927 8.1999 3.426 7.84l.056.0666Z"/></g><defs><clipPath id="clip0_8874_15383"><path fill="white" d="M0 0h16v16H0z"/></clipPath></defs></svg>