<svg viewBox="0 0 16 16" fill="none" xmlns="http://www.w3.org/2000/svg"><g clip-path="url(#clip0_8874_15386)" fill="currentColor"><path d="M1.1429 0h4.5714C6.3455 0 6.857.5117 6.857 1.1429V8c0 .6312-.5116 1.1429-1.1428 1.1429H1.1429C.5117 9.1429 0 8.6312 0 8V1.1429C0 .5117.5117 0 1.1429 0ZM1.1429 11.4286h4.5714c.6312 0 1.1428.5117 1.1428 1.1428v2.2858c0 .6311-.5116 1.1428-1.1428 1.1428H1.1429C.5117 16 0 15.4883 0 14.8572v-2.2858c0-.6311.5117-1.1428 1.1429-1.1428ZM14.8571 6.8571h-4.5714c-.6312 0-1.1428.5117-1.1428 1.1429v6.8571c0 .6312.5116 1.1429 1.1428 1.1429h4.5714C15.4883 16 16 15.4883 16 14.8571V8c0-.6312-.5117-1.1429-1.1429-1.1429ZM10.2857 0h4.5714C15.4883 0 16 .5117 16 1.1429v2.2857c0 .6312-.5117 1.1428-1.1429 1.1428h-4.5714c-.6312 0-1.1428-.5116-1.1428-1.1428V1.1429C9.1429.5117 9.6545 0 10.2857 0Z"/></g><defs><clipPath id="clip0_8874_15386"><path fill="white" d="M0 0h16v16H0z"/></clipPath></defs></svg>