<svg xmlns="http://www.w3.org/2000/svg" fill="none" viewBox="0 0 16 16"><g clip-path="url(#a)"><path fill="currentColor" fill-rule="evenodd" d="M11.111 1.16a.727.727 0 0 0-.296.185.694.694 0 0 0-.217.526c0 .257.064.377.364.687l.221.227-4.775.006c-4.532.005-4.782.006-4.904.036-.592.142-1.042.488-1.297.997a1.725 1.725 0 0 0-.19.69c-.023.259-.023 6.744 0 6.921a.76.76 0 0 0 .523.625.992.992 0 0 0 .437 0 .813.813 0 0 0 .464-.416l.054-.114.009-3.479c.008-3.15.011-3.484.036-3.538a.446.446 0 0 1 .177-.186c.048-.026.414-.028 4.769-.032l4.716-.005-.243.248c-.319.326-.352.39-.352.675 0 .187.003.203.055.314a.848.848 0 0 0 .35.359c.128.064.307.09.454.066.234-.04.22-.028 1.232-1.036.871-.868.932-.932.99-1.05a.531.531 0 0 0 .07-.285.685.685 0 0 0-.096-.419c-.06-.106-1.83-1.876-1.94-1.938a.967.967 0 0 0-.162-.071.972.972 0 0 0-.449.006Zm3.906 2.78a.81.81 0 0 0-.458.414l-.054.116-.009 3.479c-.008 3.15-.011 3.484-.036 3.538a.447.447 0 0 1-.177.186c-.048.026-.414.028-4.769.032l-4.716.005.243-.248c.319-.326.352-.39.352-.676 0-.186-.003-.202-.055-.313a.76.76 0 0 0-.8-.425c-.238.04-.223.026-1.236 1.036-.871.868-.932.932-.99 1.05a.53.53 0 0 0-.07.285.684.684 0 0 0 .096.419c.06.106 1.83 1.876 1.94 1.938.12.069.227.096.381.096.213 0 .38-.069.527-.219a.693.693 0 0 0 .216-.525c0-.257-.064-.377-.365-.686l-.221-.228h4.64c3.079 0 4.702-.006 4.826-.018a1.81 1.81 0 0 0 1.16-.537 1.8 1.8 0 0 0 .54-1.173c.024-.259.024-6.744 0-6.921a.757.757 0 0 0-.521-.625 1.07 1.07 0 0 0-.444 0Zm-7.3 1.377a2.703 2.703 0 0 0-2.27 1.811c-.12.357-.166.727-.133 1.09.024.27.055.423.133.654a2.695 2.695 0 0 0 2.771 1.814c.27-.024.423-.055.654-.133a2.695 2.695 0 0 0 1.814-2.771 2.652 2.652 0 0 0-.78-1.688 2.682 2.682 0 0 0-2.188-.777Zm.018 1.514a1.321 1.321 0 0 0-.487.236 1.2 1.2 0 0 0 .23 2.01A1.2 1.2 0 0 0 9.198 8c0-.765-.705-1.328-1.462-1.169Zm-4.699.17a1.09 1.09 0 0 0-.663.537.92.92 0 0 0-.104.462c0 .297.089.513.294.718.211.21.44.307.727.307.292 0 .51-.09.72-.298a.989.989 0 0 0 .289-.94.963.963 0 0 0-.289-.514A.94.94 0 0 0 3.534 7a1.314 1.314 0 0 0-.498 0Zm9.419 0a.938.938 0 0 0-.465.272.883.883 0 0 0-.201.265 1.017 1.017 0 0 0 0 .924.881.881 0 0 0 .2.264.949.949 0 0 0 .72.3.969.969 0 0 0 .728-.308A.935.935 0 0 0 13.73 8c0-.083-.01-.192-.021-.242A1.07 1.07 0 0 0 12.956 7a1.312 1.312 0 0 0-.501 0Z" clip-rule="evenodd"/></g><defs><clipPath id="a"><path fill="#fff" d="M0 0h16v16H0z"/></clipPath></defs></svg>