<svg xmlns="http://www.w3.org/2000/svg" fill="none" viewBox="0 0 16 16"><g clip-path="url(#a)"><path fill="currentColor" fill-rule="evenodd" d="M7.646.004a7.994 7.994 0 0 0-5.958 3.073A7.947 7.947 0 0 0 .007 7.659c-.054 1.484.255 2.846.932 4.113a7.993 7.993 0 0 0 6.717 4.222c2.098.083 4.054-.605 5.619-1.974a7.966 7.966 0 0 0 2.72-5.679 7.97 7.97 0 0 0-.383-2.824A8.023 8.023 0 0 0 10.484.39 7.835 7.835 0 0 0 8.463.012a124.58 124.58 0 0 1-.377-.015c-.07-.003-.269 0-.44.007Zm-.727 1.583a6.513 6.513 0 0 0-3.165 1.492 10.26 10.26 0 0 0-.663.657c-.106.12-.296.361-.296.377 0 .007.245.155.544.327.724.418.74.43.844.64.071.145.098.32.07.458-.1.482-.607.752-1.04.554a17.76 17.76 0 0 1-.633-.354c-.299-.172-.547-.304-.554-.296-.02.022-.096.219-.185.476a6.67 6.67 0 0 0-.315 1.476 8.988 8.988 0 0 0 0 1.212 6.523 6.523 0 0 0 1.522 3.607c.157.184.516.544.706.709a6.454 6.454 0 0 0 2.711 1.396c.244.059.674.138.752.138.025 0 .029-.068.034-.715.007-.799.008-.803.13-.98a.752.752 0 0 1 1.283.077c.08.15.08.157.086.903.006.682.008.715.038.715.018 0 .146-.02.285-.043a6.473 6.473 0 0 0 3.175-1.491c.156-.136.52-.497.663-.658.106-.12.296-.361.296-.377a8.67 8.67 0 0 0-.544-.327c-.561-.323-.694-.408-.756-.488a.968.968 0 0 1-.16-.382c-.088-.567.52-1.021 1.044-.781.052.024.33.18.617.345.287.166.533.303.547.304.07.006.342-.846.441-1.385a6.777 6.777 0 0 0 0-2.346 6.51 6.51 0 0 0-1.443-3.04 9.075 9.075 0 0 0-.705-.708 6.466 6.466 0 0 0-2.65-1.382 7.261 7.261 0 0 0-.812-.153c-.027 0-.03.053-.036.715-.006.746-.007.753-.086.903a.747.747 0 0 1-1.393-.179c-.017-.084-.023-.277-.024-.775v-.664l-.047.002c-.026 0-.153.019-.281.04Zm4.138 2.395c-.18.07-4.636 2.102-4.703 2.144a.814.814 0 0 0-.227.228 377.52 377.52 0 0 0-2.146 4.711.793.793 0 0 0-.016.457.75.75 0 0 0 .824.536c.135-.02-.035.055 2.677-1.178 1.476-.671 2.174-.997 2.236-1.044a.825.825 0 0 0 .153-.16c.054-.079 2.11-4.573 2.168-4.741a.752.752 0 0 0-.383-.926c-.11-.054-.133-.059-.3-.063-.155-.004-.194.001-.283.036ZM8.558 6.765l-1.232.56-.56 1.232a89.606 89.606 0 0 0-.556 1.237c.002.002.558-.249 1.235-.557l1.232-.56.56-1.232c.309-.678.56-1.234.557-1.236-.002-.002-.558.248-1.236.556Z" clip-rule="evenodd"/></g><defs><clipPath id="a"><path fill="#fff" d="M0 0h16v16H0z"/></clipPath></defs></svg>