<svg xmlns="http://www.w3.org/2000/svg" fill="none" viewBox="0 0 16 16"><g clip-path="url(#a)"><path fill="currentColor" fill-rule="evenodd" d="M5.88.01C4.724.028 3.812.14 2.97.367 1.47.77.418 1.513.116 2.38 0 2.714.01 2.424.002 6.17c-.004 2.215 0 3.472.011 3.617.03.375.129.651.347.97.29.423.747.79 1.382 1.107.443.222.637.272.85.217a.747.747 0 0 0 .574-.618.75.75 0 0 0-.431-.79c-.606-.287-.79-.398-1.003-.612-.23-.228-.22-.186-.226-.986L1.5 8.398l.167.086c.386.2.587.272.757.272a.74.74 0 0 0 .721-.547.73.73 0 0 0-.079-.582c-.087-.148-.205-.243-.418-.337a4.303 4.303 0 0 1-.63-.336c-.174-.117-.397-.334-.458-.445l-.05-.09-.005-.682a8.214 8.214 0 0 1 .008-.674c.522.261.689.33.837.347.476.054.895-.387.814-.858-.046-.271-.195-.456-.472-.584-.51-.236-.75-.384-.96-.593-.298-.295-.294-.478.016-.775.583-.558 1.852-.958 3.382-1.064.383-.027 1.397-.028 1.638-.002.923.099 1.682.318 2.443.704.128.065.328.172.445.238.281.158.421.186.642.129.19-.05.341-.16.454-.33a.753.753 0 0 0-.116-.93c-.207-.193-.975-.59-1.577-.813-1.021-.38-2-.54-3.18-.522Zm3.685 3.357c-1.94.11-3.597.678-4.44 1.52a2.296 2.296 0 0 0-.469.641 1.68 1.68 0 0 0-.178.6c-.025.222-.024 6.89.001 7.096.045.361.162.636.413.97.725.963 2.426 1.626 4.548 1.774.346.024 1.216.024 1.565 0 2.68-.184 4.591-1.16 4.937-2.524.059-.233.062-.496.056-3.94-.006-3.724.001-3.455-.107-3.771-.294-.856-1.271-1.573-2.718-1.992a10.53 10.53 0 0 0-2.052-.358 18.598 18.598 0 0 0-1.556-.016ZM9.462 4.88c-1.26.099-2.324.398-3 .843-.281.185-.497.448-.497.606 0 .22.352.557.834.798.96.479 2.398.728 3.843.667 1.05-.044 1.9-.208 2.676-.515.418-.166.746-.363.958-.577.284-.286.282-.468-.01-.756-.49-.483-1.534-.863-2.812-1.023a11.836 11.836 0 0 0-1.992-.043ZM5.965 9.06v.668l.045.096c.096.201.401.45.789.644.879.439 2.085.677 3.433.677 1.336 0 2.568-.243 3.442-.682.348-.175.657-.425.765-.62l.05-.091.005-.68c.003-.374 0-.68-.004-.68-.006 0-.095.043-.2.096-1.048.525-2.476.81-4.058.81-1.312 0-2.477-.186-3.478-.557a6.422 6.422 0 0 1-.78-.349c-.004 0-.009.301-.009.668Zm0 3.342v.667l.043.092c.057.121.25.319.435.444 1.223.83 3.754 1.123 5.832.677.672-.144 1.299-.385 1.718-.66.173-.113.4-.337.454-.45l.042-.086.005-.68.005-.679-.201.101c-1.52.76-3.88 1.02-6.007.659a7.885 7.885 0 0 1-2.104-.644l-.222-.108v.667Z" clip-rule="evenodd"/></g><defs><clipPath id="a"><path fill="#fff" d="M0 0h16v16H0z"/></clipPath></defs></svg>