<svg viewBox="0 0 16 16" fill="none" xmlns="http://www.w3.org/2000/svg"><g clip-path="url(#clip0_8874_15384)" fill="currentColor"><path d="M4.0571 4.2746a3.4286 3.4286 0 0 0-.6285 2.0114v1.1314a.3313.3313 0 0 1-.1029.2743.3199.3199 0 0 1-.2514 0C1.3486 7.2917 0 6.4117 0 5.0974V2.8117C0-.2969 7.4743-.834 10.0229 1.2231a.2979.2979 0 0 1 .0838.3081.2971.2971 0 0 1-.2438.2062c-.65.0272-1.2963.1113-1.9315.2514a.3199.3199 0 0 1-.1485 0 8.0574 8.0574 0 0 0-2.3543-.32c-2.4343 0-3.7143.9143-3.7143 1.1429 0 .2286.7314.7657 2.1257 1.0171a.2972.2972 0 0 1 .2171.1715.2971.2971 0 0 1 0 .2743ZM3.365 8.9634a.2742.2742 0 0 1 .0636.1795v2.8914a.3315.3315 0 0 1-.1029.2286.3213.3213 0 0 1-.2514 0C1.3486 11.8629 0 10.9829 0 9.6686V8.0572a.2857.2857 0 0 1 .1486-.2286.2743.2743 0 0 1 .2971 0A7.4627 7.4627 0 0 0 3.2 8.8686a.2743.2743 0 0 1 .165.0948ZM10.3429 12.5714a9.509 9.509 0 0 1-5.1886-1.28.3087.3087 0 0 0-.2972 0 .2741.2741 0 0 0-.16.2514v1.6C4.6971 15.0171 7.5314 16 10.343 16 13.1543 16 16 15.0171 16 13.1428v-1.6114a.274.274 0 0 0-.16-.2514.3317.3317 0 0 0-.3086 0 9.474 9.474 0 0 1-5.1885 1.2914Z"/><path fill-rule="evenodd" clip-rule="evenodd" d="M4.6971 8.5715V6.2857c0-3.7485 11.3029-3.7485 11.3029 0v2.2858c0 1.8742-2.8457 2.8571-5.6571 2.8571-2.8115 0-5.6458-.9829-5.6458-2.8571ZM6.48 6.2857c0 .2972 1.3257 1.1429 3.8629 1.1429 2.5371 0 3.8742-.8457 3.8742-1.1429 0-.2971-1.3371-1.1428-3.8742-1.1428-2.5372 0-3.8629.8457-3.8629 1.1428Z"/></g><defs><clipPath id="clip0_8874_15384"><path fill="white" d="M0 0h16v16H0z"/></clipPath></defs></svg>