<svg viewBox="0 0 16 16" fill="none" xmlns="http://www.w3.org/2000/svg"><path d="M7.9993 2.7774c.721 0 1.3054-.5845 1.3054-1.3054 0-.7209-.5845-1.3053-1.3054-1.3053-.7209 0-1.3053.5844-1.3053 1.3053 0 .721.5844 1.3054 1.3053 1.3054Z" fill="currentColor"/><path fill-rule="evenodd" clip-rule="evenodd" d="M8.3529 3.5988a.5.5 0 0 0-.7072 0l-.9791.9792a.5.5 0 1 0 .707.707l.1257-.1256v.936a1.9662 1.9662 0 0 0-.882.5025L5.546 5.8897l.0928-.037a.5.5 0 1 0-.3714-.9286l-.9791.3917a.5.5 0 0 0-.311.5228l.131 1.11a.5.5 0 1 0 .993-.117l-.0047-.0402 1.0092.6673A1.9698 1.9698 0 0 0 6.0305 8c0 .202.0305.3969.087.5803l-1.0236.6518.0076-.064a.5.5 0 0 0-.9931-.1171l-.131 1.1101a.5001.5001 0 0 0 .311.5228l.9791.3916a.5.5 0 0 0 .3714-.9285l-.0737-.0295 1.0805-.688c.2366.224.5287.39.8536.4751v.936l-.1256-.1256a.5.5 0 1 0-.707.7071l.979.9792a.5001.5001 0 0 0 .7072 0l.9791-.9792a.5.5 0 0 0-.707-.7071l-.1257.1256v-.936a1.9654 1.9654 0 0 0 .8576-.4788l1.0791.6907-.0763.0305a.5.5 0 0 0 .3714.9285l.9792-.3916a.5001.5001 0 0 0 .3108-.5228l-.1308-1.1101a.5001.5001 0 0 0-.9932.1171l.0072.0608-1.0216-.6538c.0555-.182.0854-.375.0854-.5751 0-.1967-.0289-.3866-.0826-.5657l1.0184-.6578-.0064.055a.5.5 0 1 0 .993.1172l.131-1.11a.5.5 0 0 0-.3109-.5228l-.9792-.3917a.5.5 0 1 0-.3714.9285l.0809.0324-1.0771.6957a1.9657 1.9657 0 0 0-.8645-.4855v-.936l.1256.1257a.5.5 0 1 0 .7071-.7071l-.9791-.9792ZM7.9995 9c.5522 0 1-.4477 1-1s-.4478-1-1-1c-.5523 0-1 .4477-1 1s.4477 1 1 1Z" fill="currentColor"/><path d="M13.548 5.7147c.7209 0 1.3053-.5844 1.3053-1.3053 0-.721-.5844-1.3054-1.3053-1.3054-.7209 0-1.3053.5844-1.3053 1.3053 0 .721.5844 1.3054 1.3053 1.3054ZM2.4513 5.7147c.721 0 1.3054-.5844 1.3054-1.3053 0-.721-.5844-1.3054-1.3054-1.3054-.7209 0-1.3053.5844-1.3053 1.3053 0 .721.5844 1.3054 1.3053 1.3054ZM13.548 12.896c.7209 0 1.3053-.5844 1.3053-1.3053 0-.7209-.5844-1.3053-1.3053-1.3053-.7209 0-1.3053.5844-1.3053 1.3053 0 .7209.5844 1.3053 1.3053 1.3053ZM2.4513 12.896c.721 0 1.3054-.5844 1.3054-1.3053 0-.7209-.5844-1.3053-1.3054-1.3053-.7209 0-1.3053.5844-1.3053 1.3053 0 .7209.5844 1.3053 1.3053 1.3053ZM7.9993 15.8334c.721 0 1.3054-.5845 1.3054-1.3054 0-.7209-.5845-1.3053-1.3054-1.3053-.7209 0-1.3053.5844-1.3053 1.3053 0 .7209.5844 1.3054 1.3053 1.3054Z" fill="currentColor"/></svg>