<svg xmlns="http://www.w3.org/2000/svg" width="16" height="16" fill="none">
  <g clip-path="url(#a)">
    <path fill="currentColor" fill-rule="evenodd" d="M7.871.046a7.22 7.22 0 0 0-.147.028C7.596.1.89 2.675.68 2.78c-.29.143-.512.411-.628.76l-.044.128-.005 4.176c-.005 4.257-.004 4.367.063 4.569.109.327.359.63.646.78.068.036 1.622.642 3.454 1.347 1.83.705 3.404 1.311 3.495 1.348a.68.68 0 0 0 .34.065c.16 0 .19-.006.35-.07.096-.037 1.668-.644 3.495-1.347a222.353 222.353 0 0 0 3.448-1.345 1.48 1.48 0 0 0 .6-.666c.106-.263.098.072.104-4.515.006-4.739.017-4.367-.134-4.673a1.408 1.408 0 0 0-.606-.626C15.107 2.638 8.418.106 8.294.076a1.816 1.816 0 0 0-.423-.03ZM5.53 2.625c-1.445.557-2.451.955-2.437.963.013.007 1.122.436 2.465.953l2.441.94 2.47-.95c1.359-.523 2.476-.956 2.484-.963.01-.01-4.808-1.848-4.944-1.887-.01-.003-1.126.422-2.48.944ZM1.622 8.297l.004 3.538 2.778 1.07 2.777 1.069.005-3.533a229.81 229.81 0 0 0-.01-3.545A929.609 929.609 0 0 0 1.65 4.767c-.03-.008-.032.166-.027 3.53Zm9.956-2.468-2.76 1.064-.004 3.542c-.004 2.832 0 3.54.018 3.534l2.783-1.072 2.759-1.063.004-3.535c.004-2.824 0-3.536-.018-3.535-.013 0-1.265.48-2.782 1.065Z" clip-rule="evenodd"/>
  </g>
  <defs>
    <clipPath id="a">
      <path fill="#fff" d="M0 0h16v16H0z"/>
    </clipPath>
  </defs>
</svg>
