<svg xmlns="http://www.w3.org/2000/svg" width="16" height="16" fill="none">
  <g clip-path="url(#a)">
    <path fill="currentColor" fill-rule="evenodd" d="M2.53.295C1.196.503.112 1.482-.21 2.768c-.099.397-.092.009-.1 5.964-.004 4.03 0 5.563.016 5.693.03.253.082.422.2.663.25.514.675.887 1.22 1.07.323.108.21.105 4.069.105 2.409 0 3.597-.006 3.698-.02a2.081 2.081 0 0 0 1.744-1.536c.02-.075.042-.176.049-.225l.012-.09 1.351-.008c1.438-.008 1.4-.006 1.791-.106.984-.253 1.836-1 2.218-1.946.19-.47.246-.776.246-1.344 0-.4-.017-.57-.086-.85a3.197 3.197 0 0 0-1.427-1.939 3.264 3.264 0 0 0-.861-.364 3.604 3.604 0 0 0-.634-.096H13.2v-.82l.77-.006c.744-.006.772-.008.874-.049a.95.95 0 0 0 .493-.506c.03-.075.033-.241.038-2.03l.005-1.95.398-.402c.437-.442.485-.51.521-.747a.84.84 0 0 0-.593-.937.926.926 0 0 0-.635.069c-.059.03-.578.535-1.741 1.698-1.56 1.56-1.66 1.663-1.717 1.784a1.096 1.096 0 0 0-.078.262c-.011.08-.016.881-.012 2.031l.005 1.899.043.153c.139.493.462.877.91 1.08.181.082.33.114.67.143.506.042.745.146 1.053.457.19.192.294.364.375.623.04.129.045.18.045.497 0 .38-.013.463-.106.694-.08.195-.165.327-.323.495a1.653 1.653 0 0 1-.75.478c-.138.042-.156.043-1.434.049l-1.295.006-.006-4.727-.006-4.727-.042-.22A3.357 3.357 0 0 0 8.197.362C7.804.263 7.848.265 5.18.267 3.183.27 2.664.274 2.53.295Zm.315 1.653a1.627 1.627 0 0 0-1.304.907c-.138.279-.156.363-.167.779l-.01.358h7.669v-.265c0-.568-.126-.919-.458-1.27a1.576 1.576 0 0 0-1.034-.51c-.225-.022-4.476-.023-4.696 0Zm10.598 2.365-.243.244v.678h.497v-.583c0-.321-.002-.583-.005-.583s-.115.11-.248.244ZM1.369 6.706v1.032h7.665V5.675H1.368v1.032Zm0 5.123c0 2.152.004 2.437.03 2.5a.42.42 0 0 0 .21.216c.073.034.21.036 3.593.036 3.38 0 3.52-.002 3.595-.036a.44.44 0 0 0 .215-.249c.016-.053.022-.732.022-2.484v-2.41H1.368v2.428Zm1.527-1.28c-.35.043-.66.358-.706.721a15.54 15.54 0 0 0 .002 1.467.83.83 0 0 0 .828.716.825.825 0 0 0 .796-.588c.035-.113.038-.18.038-.861 0-.556-.007-.763-.026-.835a.835.835 0 0 0-.932-.62Z" clip-rule="evenodd"/>
  </g>
  <defs>
    <clipPath id="a">
      <path fill="#fff" d="M0 0h16v16H0z"/>
    </clipPath>
  </defs>
</svg>
