<svg xmlns="http://www.w3.org/2000/svg" fill="none" viewBox="0 0 16 16"><g clip-path="url(#a)"><path fill="currentColor" fill-rule="evenodd" d="M3.705 1.132A4.13 4.13 0 0 0 .698 2.926a4.109 4.109 0 0 0-.676 1.84C.005 4.909 0 5.78 0 9.078c0 3.907.002 4.14.03 4.284.077.372.247.697.504.957.274.279.587.45.962.526.17.034.194.034 5.729.03l5.558-.005.16-.046a1.883 1.883 0 0 0 1.347-1.434c.025-.108.03-.249.037-.917l.008-.79.302-.009c.186-.005.335-.018.388-.034.476-.138.842-.518.946-.984.026-.118.029-.264.029-1.407 0-1.446.003-1.412-.138-1.69a1.325 1.325 0 0 0-.598-.594c-.204-.1-.352-.129-.675-.129h-.258v-.682c0-.746-.013-.955-.077-1.175a1.89 1.89 0 0 0-1.317-1.292 2.93 2.93 0 0 0-.66-.068h-.187v-.947c0-.885-.002-.953-.033-1.041a.77.77 0 0 0-.49-.482c-.075-.026-.398-.028-3.942-.025-2.123.001-3.887.005-3.92.008Zm.274 1.489a2.638 2.638 0 0 0-1.438.516c-.17.127-.43.392-.553.564a2.77 2.77 0 0 0-.43.988c-.051.248-.06.468-.06 1.561v1.083H3.55l.74-.618c.407-.34.774-.637.815-.662.185-.109.155-.106 1.36-.106 1.19 0 1.168-.002 1.347.096a.825.825 0 0 1 .311.344.762.762 0 0 1-.029.673.925.925 0 0 1-.278.282c-.157.092-.165.093-1.14.093h-.905l-.77.641c-.48.401-.803.657-.858.683-.165.077-.206.08-1.458.08H1.497v.838l1.255.004 1.254.005.128.063c.098.05.296.205.874.688l.748.624.92.006c.968.006.955.005 1.11.086.369.193.51.644.318 1.02a.964.964 0 0 1-.297.3c-.158.09-.22.095-1.331.096-1.076 0-1.153-.005-1.31-.08-.055-.025-.385-.287-.86-.682l-.77-.641H1.498v.938c0 1.078-.001 1.066.13 1.182a.34.34 0 0 0 .167.087c.062.012 1.69.017 5.419.013 4.858-.004 5.336-.007 5.39-.032a.408.408 0 0 0 .19-.195c.03-.063.032-.126.032-.773v-.705l-1.142-.006c-1.23-.007-1.182-.003-1.407-.1a1.382 1.382 0 0 1-.685-.674c-.11-.243-.11-.243-.11-1.652 0-1.446-.004-1.412.137-1.69.13-.259.34-.466.598-.594.26-.128.267-.129 1.514-.129h1.097l-.005-.734-.005-.734-.051-.075a.387.387 0 0 0-.145-.12l-.092-.048H8.275c-3.608 0-4.27-.004-4.356-.025a.75.75 0 0 1-.498-1.045.775.775 0 0 1 .558-.418c.072-.011 1.238-.018 3.367-.018h3.256l-.005-.5-.005-.5-3.26-.002c-1.792 0-3.302.001-3.353.004Zm6.998 6.628v.924h3.526V8.326H12.74l-1.763-.001v.924Zm-5.593-.735a.765.765 0 0 0-.618.544c-.027.101-.023.32.007.418.06.195.207.36.403.456l.129.062 1.104.005c1.177.006 1.214.004 1.376-.078a.94.94 0 0 0 .317-.311.765.765 0 0 0-.007-.722.956.956 0 0 0-.276-.282c-.17-.1-.148-.098-1.282-.103a26.281 26.281 0 0 0-1.153.011Z" clip-rule="evenodd"/></g><defs><clipPath id="a"><path fill="#fff" d="M0 0h16v16H0z"/></clipPath></defs></svg>