<svg xmlns="http://www.w3.org/2000/svg" fill="none" viewBox="0 0 16 16"><g clip-path="url(#a)"><path fill="currentColor" fill-rule="evenodd" d="M7.816.053a2.016 2.016 0 0 0-.148.034C7.528.127.684 2.771.58 2.826c-.17.09-.357.287-.45.474-.14.286-.13-.068-.13 4.638 0 4.54-.004 4.355.091 4.596.098.248.332.51.563.63.071.038 1.664.658 3.54 1.38 1.875.721 3.464 1.334 3.53 1.36.17.07.383.07.553 0 .065-.027 1.654-.639 3.53-1.36a235.711 235.711 0 0 0 3.539-1.38 1.33 1.33 0 0 0 .563-.63c.093-.234.09-.079.09-4.599 0-3.626-.003-4.24-.026-4.35a1.337 1.337 0 0 0-.633-.836A636.693 636.693 0 0 0 8.313.084a1.466 1.466 0 0 0-.497-.03Zm-2.47 2.408a937.08 937.08 0 0 0-2.677 1.036C2.633 3.513 7.92 5.557 8 5.557c.074 0 5.406-2.06 5.376-2.077-.023-.013-5.288-2.008-5.358-2.03-.015-.005-1.218.45-2.673 1.011ZM1.381 8.243v3.731l2.936 1.13 2.958 1.14c.019.007.024-.744.024-3.721v-3.73L4.356 5.658l-2.958-1.14c-.009-.003-.016 1.673-.016 3.724Zm10.264-2.587L8.7 6.792v3.73c0 2.192.006 3.728.016 3.724l2.959-1.14 2.942-1.132v-3.73c0-2.05-.006-3.727-.014-3.726-.007 0-1.339.513-2.958 1.138Z" clip-rule="evenodd"/></g><defs><clipPath id="a"><path fill="#fff" d="M0 0h16v16H0z"/></clipPath></defs></svg>