<svg xmlns="http://www.w3.org/2000/svg" fill="none" viewBox="0 0 16 16"><g clip-path="url(#a)"><path fill="currentColor" fill-rule="evenodd" d="M3.678.019a1.013 1.013 0 0 0-.62.466c-.093.177-.105.265-.105.8v.492h-.53c-.577 0-.738.017-.992.104A2.12 2.12 0 0 0 .185 3.018c-.069.16-.102.257-.143.43-.032.13-.034.398-.04 5.313-.004 3.654 0 5.23.014 5.36.1.92.762 1.64 1.69 1.839.148.032.427.033 6.295.033 5.867 0 6.146-.001 6.295-.033a2.17 2.17 0 0 0 .57-.2c.57-.303.936-.787 1.094-1.446.031-.13.033-.412.04-5.296.003-3.621 0-5.216-.015-5.355a2.1 2.1 0 0 0-1.414-1.782c-.255-.087-.415-.104-.993-.104h-.53v-.491c0-.536-.011-.624-.105-.801a1.124 1.124 0 0 0-.414-.394.943.943 0 0 0-.797 0c-.143.068-.34.256-.413.394-.095.177-.106.265-.106.8v.492H4.789v-.491c0-.536-.012-.624-.106-.801a1.123 1.123 0 0 0-.41-.393.942.942 0 0 0-.595-.073Zm-1.71 3.63c-.13.078-.125.039-.125 1.203v1.046h12.316V4.852c0-1.164.004-1.125-.125-1.203-.054-.033-.095-.036-.522-.036h-.464v.482c0 .482-.01.583-.068.72a1.03 1.03 0 0 1-.395.445.952.952 0 0 1-.909 0 1.03 1.03 0 0 1-.395-.445c-.058-.137-.067-.238-.068-.72v-.482H4.789v.482c-.001.482-.01.583-.069.72a1.03 1.03 0 0 1-.395.445.952.952 0 0 1-.908 0 1.03 1.03 0 0 1-.396-.445c-.057-.137-.067-.238-.067-.72v-.482H2.49c-.428 0-.468.003-.522.036Zm-.13 7.213c.005 3.117.005 3.119.043 3.17.02.027.06.067.088.088l.05.038h11.962l.051-.038a.522.522 0 0 0 .089-.089c.038-.05.038-.052.043-3.17l.004-3.118H1.833l.005 3.119Z" clip-rule="evenodd"/></g><defs><clipPath id="a"><path fill="#fff" d="M0 0h16v16H0z"/></clipPath></defs></svg>