<svg viewBox="0 0 16 16" fill="none" xmlns="http://www.w3.org/2000/svg"><g clip-path="url(#clip0_8874_15277)"><path d="M14.3325 2h-1.8333c-.0933 0-.1667-.08-.1667-.1667V.6667c0-.3734-.3-.6667-.6666-.6667-.3734 0-.6667.2933-.6667.6667v3.1666c0 .2733-.2267.5-.5.5-.28 0-.5-.2267-.5-.5v-1.5C9.9992 2.1467 9.846 2 9.666 2H5.4993v-.0007c-.0934 0-.1667-.08-.1667-.1667V.66c0-.3733-.3-.6667-.6667-.6667-.3733 0-.6666.2934-.6666.6667v3.1666c0 .2734-.2267.5-.5.5-.28 0-.5-.2266-.5-.5v-1.5c0-.1866-.1533-.3333-.3333-.3333h-1c-.74 0-1.3334.5933-1.3334 1.3333V14.66c0 .7333.5934 1.3333 1.3334 1.3333h12.6665c.7333 0 1.3333-.6 1.3333-1.3333V3.3266c0-.74-.6-1.3333-1.3333-1.3333V2Zm-.3333 12.6665h-12c-.1866 0-.3332-.1533-.3332-.3333v-8A.3301.3301 0 0 1 1.9993 6h11.9999c.18 0 .3333.1467.3333.3334v7.9999c0 .18-.1533.3333-.3333.3333Z" fill="currentColor"/></g><defs><clipPath id="clip0_8874_15277"><path fill="white" d="M-.0007 0h16v16h-16z"/></clipPath></defs></svg>