<svg xmlns="http://www.w3.org/2000/svg" fill="none" viewBox="0 0 16 16"><g clip-path="url(#a)"><path fill="currentColor" fill-rule="evenodd" d="M1.845.02C1.056.108.363.681.109 1.455-.004 1.798 0 1.446 0 7.999c0 5.057.004 6.02.026 6.183a2.098 2.098 0 0 0 1.85 1.798c.247.026 12 .026 12.248 0a2.1 2.1 0 0 0 1.856-1.857c.027-.247.027-12 0-12.248A2.1 2.1 0 0 0 14.125.018C13.901-.006 2.061-.004 1.845.02Zm.193 1.833c-.1.023-.179.122-.193.24-.006.055-.009 2.75-.006 5.992l.006 5.893.038.05c.02.028.06.068.088.09l.05.037H13.98l.05-.038a.522.522 0 0 0 .089-.088l.038-.051V2.02l-.038-.05a.523.523 0 0 0-.089-.089l-.05-.038-5.94-.003a610.21 610.21 0 0 0-6.002.013Z" clip-rule="evenodd"/></g><defs><clipPath id="a"><path fill="#fff" d="M0 0h16v16H0z"/></clipPath></defs></svg>