<svg xmlns="http://www.w3.org/2000/svg" fill="none" viewBox="0 0 16 16"><path fill="currentColor" d="M4.56 7.082a.917.917 0 0 0 0 1.834h6.881a.917.917 0 1 0 0-1.834h-6.88Z"/><path fill="currentColor" fill-rule="evenodd" d="M.109 1.455C.363.68 1.056.108 1.845.02 2.06-.004 13.9-.006 14.125.018a2.1 2.1 0 0 1 1.856 1.857c.027.247.027 12 0 12.248a2.1 2.1 0 0 1-1.856 1.857c-.248.026-12.001.026-12.249 0a2.098 2.098 0 0 1-1.849-1.798C.005 14.02.001 13.056.001 8c0-5.923-.004-6.205.078-6.458l.03-.086Zm1.736.638c.014-.118.093-.217.193-.24A610.21 610.21 0 0 1 8.04 1.84l5.938.003.051.038c.028.02.068.06.089.088l.038.051v11.958l-.038.05a.522.522 0 0 1-.089.09l-.05.037H2.021l-.05-.038a.523.523 0 0 1-.09-.088l-.037-.051-.006-5.893c-.003-3.241 0-5.937.006-5.992Z" clip-rule="evenodd"/></svg>