<svg xmlns="http://www.w3.org/2000/svg" fill="none" viewBox="0 0 16 16"><g clip-path="url(#a)"><path fill="currentColor" fill-rule="evenodd" d="M14.966 1.128a.82.82 0 0 0-.358.173c-.041.035-2.135 2.583-4.653 5.661-2.518 3.079-4.61 5.63-4.648 5.67-.082.085-.163.114-.251.09-.042-.012-.57-.464-1.83-1.568C1.453 9.604 1.332 9.5 1.224 9.445a.913.913 0 0 0-.756 0 .95.95 0 0 0-.437.496 1.13 1.13 0 0 0 .006.56c.079.216.05.188 1.991 1.888 1.013.886 1.898 1.652 1.968 1.702a1.946 1.946 0 0 0 2.525-.242c.118-.122 9.258-11.29 9.344-11.417A.704.704 0 0 0 16 1.974c0-.189-.026-.304-.098-.427a.872.872 0 0 0-.62-.427.653.653 0 0 0-.316.008Z" clip-rule="evenodd"/></g><defs><clipPath id="a"><path fill="#fff" d="M0 0h16v16H0z"/></clipPath></defs></svg>