<svg viewBox="0 0 16 16" fill="none" xmlns="http://www.w3.org/2000/svg"><path d="M4.9993 7c-.5523 0-1 .4477-1 1s.4477 1 1 1h6c.5523 0 1-.4477 1-1s-.4477-1-1-1h-6Z" fill="currentColor"/><path fill-rule="evenodd" clip-rule="evenodd" d="M14.8277 1.1716A4.0002 4.0002 0 0 1 15.9993 4v8a4 4 0 0 1-4 4h-8a3.9998 3.9998 0 0 1-4-4V4a4 4 0 0 1 4-4h8a4.0002 4.0002 0 0 1 2.8284 1.1716Zm-1.4142 1.4142c.3751.375.5858.8838.5858 1.4142v8a2 2 0 0 1-2 2h-8a2 2 0 0 1-2-2V4a2 2 0 0 1 2-2h8a2 2 0 0 1 1.4142.5858Z" fill="currentColor"/></svg>