<svg viewBox="0 0 16 16" fill="none" xmlns="http://www.w3.org/2000/svg"><g clip-path="url(#clip0_8874_15313)"><path d="M15.9993 4a4.0002 4.0002 0 0 0-4-4h-8a4 4 0 0 0-4 4v8a3.9998 3.9998 0 0 0 4 4h8a4 4 0 0 0 4-4V4Zm-3.7543.4709a.8545.8545 0 0 1 .2933.9059.8544.8544 0 0 1-.1527.2975L7.8918 11.352a1.4276 1.4276 0 0 1-2.088.3314l-2.0422-1.576a.8571.8571 0 1 1 1.0468-1.3577l1.6114 1.2446a.287.287 0 0 0 .3989-.0514l4.2286-5.3338a.8548.8548 0 0 1 1.1977-.1382Z" fill="currentColor"/></g><defs><clipPath id="clip0_8874_15313"><path fill="white" d="M-.0007 0h16v16h-16z"/></clipPath></defs></svg>