<svg viewBox="0 0 16 16" fill="none" xmlns="http://www.w3.org/2000/svg"><path fill-rule="evenodd" clip-rule="evenodd" d="M5.304 3.2924a.9992.9992 0 0 0 0 1.4123l3.2863 3.289-3.2864 3.2891a.9979.9979 0 0 0-.3046.7097.9995.9995 0 0 0 .2922.715A.9987.9987 0 0 0 6.006 13a.9973.9973 0 0 0 .7092-.3049l3.9919-3.9952a.9992.9992 0 0 0 0-1.4123L6.715 3.2924a.9976.9976 0 0 0-1.411 0Z" fill="currentColor"/></svg><svg width="16" height="16" viewBox="0 0 16 16" fill="none" xmlns="http://www.w3.org/2000/svg">
<path fill-rule="evenodd" clip-rule="evenodd" d="M5.02396 2.29289C5.41449 1.90237 6.04765 1.90237 6.43817 2.2929L11.1661 7.02086C11.1661 7.02088 11.1661 7.02091 11.1662 7.02094C11.7069 7.56166 11.7069 8.43834 11.1662 8.97907C11.1661 8.97909 11.1661 8.97912 11.1661 8.97914L6.43817 13.7071C6.04765 14.0976 5.41449 14.0976 5.02396 13.7071C4.63343 13.3166 4.63343 12.6834 5.02395 12.2929L9.31682 8L5.02395 3.7071C4.63343 3.31658 4.63343 2.68341 5.02396 2.29289Z" fill="currentColor"/>
</svg>
