<svg viewBox="0 0 16 16" fill="none" xmlns="http://www.w3.org/2000/svg"><g clip-path="url(#clip0_8874_15296)"><path fill-rule="evenodd" clip-rule="evenodd" d="M3.5547 14.6518A8.0004 8.0004 0 0 0 7.9993 16a8.0095 8.0095 0 0 0 8-8A7.9997 7.9997 0 0 0 11.0607.609 7.9998 7.9998 0 0 0 .6082 11.0615a8.0004 8.0004 0 0 0 2.9465 3.5903Zm1.3334-11.308a5.6 5.6 0 1 1 6.2224 9.3125A5.6 5.6 0 0 1 4.888 3.3438Zm4.956 7.0882a.9984.9984 0 0 0 .5552.168.9996.9996 0 0 0 .9574-.71.9996.9996 0 0 0-.4022-1.122L8.9993 7.4656V5.6a1 1 0 0 0-2 0V8a.9983.9983 0 0 0 .4448.832l2.4 1.6Z" fill="currentColor"/></g><defs><clipPath id="clip0_8874_15296"><path fill="white" d="M-.0007 0h16v16h-16z"/></clipPath></defs></svg>