<svg xmlns="http://www.w3.org/2000/svg" fill="none" viewBox="0 0 16 16"><g clip-path="url(#a)"><path fill="currentColor" fill-rule="evenodd" d="M7.462.016C5.76.13 4.192.764 2.846 1.879c-.22.183-.783.745-.965.965C.86 4.075.246 5.485.059 7.024a8 8 0 0 0 1.538 5.771c.25.33.418.523.752.857.333.333.525.502.856.75a7.998 7.998 0 0 0 9.951-.283c.22-.182.782-.744.965-.964a8.006 8.006 0 0 0 .283-9.951 7.03 7.03 0 0 0-.751-.857 7.026 7.026 0 0 0-.856-.751A8.014 8.014 0 0 0 7.462.016Zm.158 1.71a6.299 6.299 0 0 0-3.564 1.376c-.216.172-.78.737-.952.953a6.321 6.321 0 0 0-1.336 3.121 6.3 6.3 0 0 0 .625 3.662 5.868 5.868 0 0 0 1.169 1.6 6.018 6.018 0 0 0 2.447 1.521c1.6.536 3.31.41 4.837-.355a5.88 5.88 0 0 0 1.593-1.166 6.015 6.015 0 0 0 1.522-2.447c.535-1.6.41-3.31-.355-4.837a5.887 5.887 0 0 0-1.167-1.594 6.014 6.014 0 0 0-2.446-1.52 5.945 5.945 0 0 0-1.65-.316 4.57 4.57 0 0 0-.723.001Zm.163 1.598a.88.88 0 0 0-.611.615c-.039.15-.04 4.121 0 4.27a.87.87 0 0 0 .616.619c.15.04 3.028.04 3.179 0a.794.794 0 0 0 .388-.232.84.84 0 0 0 .166-.968 1.047 1.047 0 0 0-.367-.385c-.183-.098-.198-.099-1.293-.099H8.856V5.592c0-1.688.002-1.643-.096-1.837a1.01 1.01 0 0 0-.347-.353.898.898 0 0 0-.63-.078Z" clip-rule="evenodd"/></g><defs><clipPath id="a"><path fill="#fff" d="M0 0h16v16H0z"/></clipPath></defs></svg>