<svg xmlns="http://www.w3.org/2000/svg" fill="none" viewBox="0 0 16 16"><g clip-path="url(#a)"><path fill="currentColor" fill-rule="evenodd" d="M.79.026a.932.932 0 0 0-.457.24.96.96 0 0 0-.31.918c.067.314-.169.062 3.358 3.592L6.604 8l-3.223 3.225C-.146 14.756.09 14.504.023 14.818a.99.99 0 0 0 .13.713c.085.131.272.301.402.365.287.14.654.132.927-.022.057-.032 1.251-1.212 3.304-3.263l3.215-3.213 3.216 3.213c2.052 2.051 3.247 3.231 3.304 3.263.273.154.64.163.927.022.13-.064.316-.234.401-.365a1.03 1.03 0 0 0 .025-1.01c-.032-.057-1.212-1.252-3.263-3.305L9.4 8.001l3.212-3.215c2.051-2.053 3.231-3.248 3.263-3.305a1.03 1.03 0 0 0-.025-1.01 1.229 1.229 0 0 0-.401-.365 1.373 1.373 0 0 0-.442-.11 1.41 1.41 0 0 0-.445.11c-.094.045-.563.505-3.335 3.275L8.001 6.604 4.776 3.38C1.258-.134 1.496.09 1.194.025a.776.776 0 0 0-.405.001Z" clip-rule="evenodd"/></g><defs><clipPath id="a"><path fill="#fff" d="M0 0h16v16H0z"/></clipPath></defs></svg>