<svg xmlns="http://www.w3.org/2000/svg" fill="none" viewBox="0 0 16 16"><g clip-path="url(#a)"><path fill="currentColor" fill-rule="evenodd" d="M2.748.024c-.49.076-.954.354-1.247.749a1.87 1.87 0 0 0-.39 1c-.024.241-.025 9.506 0 9.663a.857.857 0 0 0 1.631.201c.023-.053.05-.16.06-.238.012-.095.018-1.693.018-4.838V1.864l.046-.055c.091-.109-.107-.102 2.985-.102 2.488 0 2.839-.003 2.928-.026a.875.875 0 0 0 .598-.598 1.07 1.07 0 0 0 .002-.447.895.895 0 0 0-.658-.621C8.66.003 7.648-.002 5.763-.001 3.44 0 2.869.005 2.748.024ZM8.112 2.75c-2.86.01-2.633.001-2.95.105-.49.16-.948.584-1.153 1.07a2.02 2.02 0 0 0-.146.534c-.013.102-.017 1.592-.013 5.001.005 4.62.007 4.862.036 4.984.095.393.252.684.514.955a1.97 1.97 0 0 0 1.002.56c.121.03.33.032 3.873.037 2.76.005 3.787 0 3.906-.014a1.943 1.943 0 0 0 1.32-.757c.236-.317.35-.609.39-1 .011-.119.017-1.461.017-4.053 0-4.224.005-3.997-.096-4.208-.038-.08-.268-.318-1.509-1.561a73.726 73.726 0 0 0-1.539-1.518c-.168-.112-.23-.125-.651-.135-.212-.005-1.562-.005-3.001 0ZM5.699 4.484a.277.277 0 0 0-.094.08l-.04.058L5.56 9.35l-.004 4.726.035.073a.209.209 0 0 0 .108.108l.073.035h3.603c3.94 0 3.669.008 3.76-.101l.046-.055V7.76H11.93c-1.365 0-1.397-.003-1.572-.098a1.112 1.112 0 0 1-.339-.313.936.936 0 0 1-.087-.19c-.03-.097-.032-.175-.032-1.401V4.46H7.826c-1.703.001-2.083.005-2.127.024Zm5.91 1.1v.466h.453c.249 0 .453-.006.453-.013 0-.007-.204-.217-.453-.466l-.454-.453v.466Z" clip-rule="evenodd"/></g><defs><clipPath id="a"><path fill="#fff" d="M0 0h16v16H0z"/></clipPath></defs></svg>