<svg viewBox="0 0 16 16" fill="none" xmlns="http://www.w3.org/2000/svg"><g clip-path="url(#clip0_8874_15279)" fill="currentColor"><path d="M8.9326 3.1534a.16.16 0 0 0 .1334.1733.7267.7267 0 0 1 .5466.74V5a.8267.8267 0 0 0 .8334.8267A.82.82 0 0 0 11.2726 5V2.6667a1 1 0 0 0-.9933-1H9.126a.1933.1933 0 0 0-.12.0466.1733.1733 0 0 0-.0467.12c0 .3 0 .98-.0267 1.32ZM5.9993 14.1733a.82.82 0 0 0-.86-.84h-2.82a.7134.7134 0 0 1-.6667-.76V4.0667a.72.72 0 0 1 .5667-.7334.1667.1667 0 0 0 .1333-.1733V1.8267A.1667.1667 0 0 0 2.186 1.66H.9993a.9999.9999 0 0 0-1 1.0067V14a1.0001 1.0001 0 0 0 .9933 1h4.1467a.827.827 0 0 0 .794-.5024.8266.8266 0 0 0 .066-.3243ZM7.9593 2.98V1.6467A.3333.3333 0 0 0 7.626 1.32h-.5067a.1734.1734 0 0 1-.1667-.1467 1.3333 1.3333 0 0 0-2.6333 0 .1667.1667 0 0 1-.1667.16H3.646a.3267.3267 0 0 0-.3134.32v1.3334a.3268.3268 0 0 0 .3267.3333h4a.3334.3334 0 0 0 .3-.34ZM12.666 11.5133H9.9993a.5.5 0 0 0 0 1h2.6667a.4998.4998 0 0 0 .5-.5.4999.4999 0 0 0-.5-.5ZM9.526 9.6934a.5067.5067 0 0 0 .5.4999h1.66a.4998.4998 0 0 0 .5-.5.5.5 0 0 0-.5-.5H9.9993a.5067.5067 0 0 0-.4733.5Z"/><path d="M15.666 8.9733a1.3339 1.3339 0 0 0-.3867-.94l-.94-.9333a1.3334 1.3334 0 0 0-.94-.3933H8.326A1.3333 1.3333 0 0 0 6.9926 8.04v6.6267A1.3334 1.3334 0 0 0 8.326 16h6a1.3336 1.3336 0 0 0 1.3333-1.3333l.0067-5.6934Zm-7.3334-.2666a.6667.6667 0 0 1 .6667-.6667h4.1267a.6666.6666 0 0 1 .4733.1934l.5467.5466a.6668.6668 0 0 1 .1933.4667V14a.6668.6668 0 0 1-.6667.6667H9.006A.6668.6668 0 0 1 8.3393 14l-.0067-5.2933Z"/></g><defs><clipPath id="clip0_8874_15279"><path fill="white" d="M-.0007 0h16v16h-16z"/></clipPath></defs></svg>