<svg xmlns="http://www.w3.org/2000/svg" fill="none" viewBox="0 0 16 16"><g clip-path="url(#a)"><path fill="currentColor" fill-rule="evenodd" d="M5.58.015c-.432.051-.81.226-1.164.539C4.166.774.522 4.437.433 4.557a2.126 2.126 0 0 0-.396.874c-.03.144-.033.308-.033 2.568 0 2.26.002 2.424.033 2.568.074.339.191.599.396.874.089.12 3.734 3.783 3.983 4.003.306.27.594.42.995.515.127.03.307.034 2.45.04 1.593.004 2.375 0 2.511-.014a2.1 2.1 0 0 0 1.07-.42c.143-.106 4.017-3.98 4.124-4.124.237-.319.376-.666.418-1.043.027-.242.027-4.556 0-4.798a2.114 2.114 0 0 0-.418-1.043c-.09-.12-3.734-3.783-3.983-4.003a2.143 2.143 0 0 0-.995-.515C10.46.008 10.286.006 8.082.002 6.779 0 5.654.006 5.581.015Zm.171 1.843c-.058.02-.459.413-1.976 1.931C2.125 5.44 1.868 5.705 1.85 5.77c-.028.102-.028 4.358 0 4.46.017.064.274.329 1.932 1.986 1.658 1.658 1.922 1.915 1.986 1.933.102.027 4.358.027 4.46 0 .065-.018.329-.275 1.987-1.933 1.658-1.658 1.915-1.922 1.932-1.986.027-.102.027-4.358 0-4.46-.017-.064-.274-.329-1.932-1.986-1.658-1.658-1.922-1.916-1.986-1.933-.05-.013-.755-.02-2.24-.019-1.816.001-2.178.005-2.239.027ZM7.76 3.571a.939.939 0 0 0-.65.659c-.042.16-.041 4.131 0 4.291a.96.96 0 0 0 .505.61.96.96 0 0 0 .797-.013c.127-.06.323-.251.393-.381.118-.223.113-.119.113-2.363 0-2.212.004-2.135-.1-2.34a1.103 1.103 0 0 0-.35-.367A.956.956 0 0 0 8 3.54c-.065 0-.173.014-.24.031Zm.085 6.467a1.243 1.243 0 0 0-.872.558 1.214 1.214 0 0 0 1.785 1.598 1.223 1.223 0 0 0 .253-1.624 1.496 1.496 0 0 0-.429-.394 1.299 1.299 0 0 0-.737-.138Z" clip-rule="evenodd"/></g><defs><clipPath id="a"><path fill="#fff" d="M0 0h16v16H0z"/></clipPath></defs></svg>