<svg xmlns="http://www.w3.org/2000/svg" fill="none" viewBox="0 0 16 16"><g clip-path="url(#a)"><path fill="currentColor" fill-rule="evenodd" d="M8.978.027a.94.94 0 0 0-.705.759.915.915 0 0 0 .513.962l.157.077 1.964.005 1.964.005L10.64 4.07C8.534 6.177 8.405 6.31 8.35 6.426a.912.912 0 0 0 .185 1.041.914.914 0 0 0 1.043.182c.112-.053.265-.201 2.354-2.288l2.233-2.231.005 1.964.005 1.964.078.157c.183.37.57.576.961.513a.935.935 0 0 0 .76-.714c.022-.104.026-.593.026-3.155 0-2.143-.005-3.06-.02-3.128a.95.95 0 0 0-.71-.71c-.156-.033-6.14-.026-6.292.007ZM.721 8.284a.939.939 0 0 0-.693.701c-.022.105-.026.593-.027 3.155 0 2.144.006 3.06.02 3.129a.95.95 0 0 0 .71.71c.069.014.985.02 3.129.02 2.562 0 3.05-.005 3.155-.027a.927.927 0 0 0 .713-1.039.928.928 0 0 0-.513-.682l-.156-.077-1.965-.005-1.964-.005 2.232-2.234C7.458 9.832 7.596 9.69 7.65 9.575c.365-.778-.447-1.589-1.226-1.224-.113.052-.265.201-2.354 2.287L1.836 12.87l-.004-1.964-.005-1.965-.078-.156a.937.937 0 0 0-.655-.509.832.832 0 0 0-.373.008Z" clip-rule="evenodd"/></g><defs><clipPath id="a"><path fill="#fff" d="M0 0h16v16H0z"/></clipPath></defs></svg>