<svg viewBox="0 0 16 16" fill="none" xmlns="http://www.w3.org/2000/svg"><g clip-path="url(#clip0_8874_15308)"><path fill-rule="evenodd" clip-rule="evenodd" d="M10.7992 0h4.4a.8.8 0 0 1 .8.8v4.4a.7999.7999 0 0 1-.4944.7392.789.789 0 0 1-.3056.0608.8006.8006 0 0 1-.5696-.2336l-1.3504-1.352-2.432 2.4336a1.1992 1.1992 0 0 1-.8567.3818 1.2001 1.2001 0 0 1-.8393-2.0778l2.44-2.4352-1.352-1.3504A.8.8 0 0 1 10.7992 0Zm-8.08 11.5856 2.432-2.4336a1.2 1.2 0 0 1 1.696 1.696L4.4138 13.28l1.3456 1.3536A.8.8 0 0 1 5.1993 16h-4.4a.8001.8001 0 0 1-.8-.8v-4.4a.8001.8001 0 0 1 1.3664-.56l1.3536 1.3456Z" fill="currentColor"/></g><defs><clipPath id="clip0_8874_15308"><path fill="white" d="M-.0007 0h16v16h-16z"/></clipPath></defs></svg>