<svg viewBox="0 0 16 16" fill="none" xmlns="http://www.w3.org/2000/svg"><g clip-path="url(#clip0_8874_15270)" fill="currentColor"><path d="M9.1659 8c0 .6443-.5224 1.1667-1.1667 1.1667-.6444 0-1.1667-.5224-1.1667-1.1667 0-.6444.5224-1.1667 1.1667-1.1667.6443 0 1.1667.5223 1.1667 1.1667Z"/><path fill-rule="evenodd" clip-rule="evenodd" d="M3.5547 1.3482a8 8 0 1 1 8.8891 13.3036 8 8 0 0 1-8.889-13.3036Zm4.091-.2018a.5.5 0 0 0-.1464.3536v1a.5.5 0 1 0 1 0v-1a.5.5 0 0 0-.8536-.3536ZM1.4993 8.5h1a.5.5 0 1 0 0-1h-1a.5.5 0 0 0 0 1Zm1.4374-4.9023a.5.5 0 0 0 .1159.1623l.7067.7067a.5.5 0 0 0 .3533.1466.5267.5267 0 0 0 .3533-.1466.5.5 0 0 0 0-.7067l-.7066-.7067a.5.5 0 0 0-.8226.5444Zm5.4161 11.2559a.5002.5002 0 0 0 .1465-.3536v-1a.5002.5002 0 0 0-.5-.5.5002.5002 0 0 0-.5.5v1a.5002.5002 0 0 0 .8535.3536ZM4.8326 12.04l4.4533-1.86a1.6665 1.6665 0 0 0 .9-.8933l1.8534-4.4534a.667.667 0 0 0-.46-.908.6664.6664 0 0 0-.38.0214L6.6059 5.6a1.7066 1.7066 0 0 0-1.0066 1.0067l-1.6534 4.5866a.6668.6668 0 0 0 .1734.7134.6667.6667 0 0 0 .46.18.6674.6674 0 0 0 .2533-.0467Zm7.9521 1.0173a.4728.4728 0 0 0 .1612-.1106.4933.4933 0 0 0 0-.7067l-.7066-.7067a.5004.5004 0 0 0-.7194-.0127.4996.4996 0 0 0-.1464.3624.5004.5004 0 0 0 .1591.357l.7067.7067a.4923.4923 0 0 0 .3533.1466.4735.4735 0 0 0 .1921-.036ZM13.4993 8.5h1a.4998.4998 0 0 0 .5-.5.5.5 0 0 0-.5-.5h-1a.5002.5002 0 0 0-.3536.8536.5002.5002 0 0 0 .3536.1464Z"/></g><defs><clipPath id="clip0_8874_15270"><path fill="white" d="M-.0007 0h16v16h-16z"/></clipPath></defs></svg>