<svg xmlns="http://www.w3.org/2000/svg" fill="none" viewBox="0 0 16 16"><g clip-path="url(#a)"><path fill="currentColor" fill-rule="evenodd" d="M7.69.317A1.527 1.527 0 0 0 6.887.8c-.093.11-.18.276-.766 1.454-.363.731-.764 1.539-.89 1.796-.186.381-.234.468-.267.475-.022.005-.9.137-1.952.292a80.859 80.859 0 0 0-2.006.31 1.5 1.5 0 0 0-.59.36 1.46 1.46 0 0 0-.158 1.89c.042.056.71.714 1.484 1.462.774.747 1.408 1.361 1.408 1.364l-.327 1.915c-.18 1.05-.33 1.973-.336 2.054-.036.494.23 1.016.661 1.294.409.265.937.314 1.366.127.047-.02.85-.441 1.786-.936l1.702-.899 1.702.9c.936.494 1.74.915 1.786.935.283.123.643.145.962.058.647-.176 1.113-.823 1.066-1.48-.006-.08-.158-.997-.338-2.038l-.327-1.893 1.398-1.387c.89-.883 1.427-1.429 1.478-1.502.184-.262.253-.489.254-.827 0-.14-.008-.269-.023-.326a1.478 1.478 0 0 0-1.064-1.09c-.052-.013-.932-.148-1.955-.298-1.024-.151-1.879-.28-1.9-.288-.034-.01-.2-.333-.897-1.743A68.396 68.396 0 0 0 9.212.935c-.11-.165-.2-.262-.34-.363a1.478 1.478 0 0 0-1.18-.256Z" clip-rule="evenodd"/></g><defs><clipPath id="a"><path fill="#fff" d="M0 0h16v16H0z"/></clipPath></defs></svg>