<svg viewBox="0 0 16 16" fill="none" xmlns="http://www.w3.org/2000/svg"><g clip-path="url(#clip0_8874_15298)"><path d="M15.9352 5.7735a1.079 1.079 0 0 0-.396-.5031 1.0918 1.0918 0 0 0-.6132-.1926h-4.3524L9.0106.6952a1.0655 1.0655 0 0 0-.393-.5043A1.0779 1.0779 0 0 0 8.005 0c-.2191 0-.433.0666-.6128.191a1.0655 1.0655 0 0 0-.393.5042L5.4432 5.0708H1.0908a1.078 1.078 0 0 0-.624.1858 1.0656 1.0656 0 0 0-.4005.51 1.0568 1.0568 0 0 0-.0292.646c.058.213.1813.403.3528.5435l3.6936 3.033-1.5419 4.6053a1.0567 1.0567 0 0 0-.0064.6632c.0691.2161.206.4047.3905.5382.1846.1336.4074.2051.6358.2042a1.0776 1.0776 0 0 0 .6342-.2091l3.8127-2.7826 3.8127 2.7826c.1836.135.4058.2082.6342.2091a1.0774 1.0774 0 0 0 .6358-.2042 1.0646 1.0646 0 0 0 .3905-.5382 1.057 1.057 0 0 0-.0064-.6632l-1.5489-4.6053 3.7006-3.04a1.071 1.071 0 0 0 .3383-.5402 1.064 1.064 0 0 0-.03-.6354ZM10.6086 9.189a.6957.6957 0 0 0-.2406.357.6901.6901 0 0 0 .0164.4291l1.1284 3.3809a.1731.1731 0 0 1-.0631.2017.1829.1829 0 0 1-.2173 0l-2.8035-2.0313a.768.768 0 0 0-.4345-.1391.7535.7535 0 0 0-.4346.1391l-2.7754 2.0383a.1835.1835 0 0 1-.2173 0 .1728.1728 0 0 1-.063-.2087l1.1284-3.3809a.6907.6907 0 0 0 .0163-.4292.6954.6954 0 0 0-.2406-.3569L2.6047 6.8517a.1728.1728 0 0 1-.056-.2017.1809.1809 0 0 1 .064-.0891.183.183 0 0 1 .1041-.0361h3.245a.7398.7398 0 0 0 .4275-.1292.7311.7311 0 0 0 .2734-.3509l1.1775-3.3252a.1882.1882 0 0 1 .0696-.085.1903.1903 0 0 1 .2112 0 .1882.1882 0 0 1 .0696.085l1.1775 3.3252a.7311.7311 0 0 0 .2734.3509.7399.7399 0 0 0 .4275.1292h3.273a.1901.1901 0 0 1 .1074.0353.1876.1876 0 0 1 .0678.0899.1727.1727 0 0 1-.056.2017l-2.8526 2.3374Z" fill="currentColor"/></g><defs><clipPath id="clip0_8874_15298"><path fill="white" d="M0 0h16v16H0z"/></clipPath></defs></svg>