<svg xmlns="http://www.w3.org/2000/svg" fill="none" viewBox="0 0 16 16"><g clip-path="url(#a)"><path fill="currentColor" fill-rule="evenodd" d="M7.69.317A1.527 1.527 0 0 0 6.887.8c-.093.11-.18.276-.766 1.454-.363.731-.764 1.539-.89 1.796-.186.381-.234.468-.267.475-.022.005-.9.137-1.952.292a80.859 80.859 0 0 0-2.006.31 1.5 1.5 0 0 0-.59.36 1.46 1.46 0 0 0-.158 1.89c.042.056.71.714 1.484 1.462.774.747 1.408 1.361 1.408 1.364l-.327 1.915c-.18 1.05-.33 1.973-.336 2.054-.036.494.23 1.016.661 1.294.409.265.937.314 1.366.127.047-.02.85-.441 1.786-.936l1.702-.899 1.702.9c.936.494 1.74.915 1.786.935.283.123.643.145.962.058.647-.176 1.113-.823 1.066-1.48-.006-.08-.158-.997-.338-2.038l-.327-1.893 1.398-1.387c.89-.883 1.427-1.429 1.478-1.502.184-.262.253-.489.254-.827 0-.14-.008-.269-.023-.326a1.478 1.478 0 0 0-1.064-1.09c-.052-.013-.932-.148-1.955-.298-1.024-.151-1.879-.28-1.9-.288-.034-.01-.2-.333-.897-1.743A68.396 68.396 0 0 0 9.212.935c-.11-.165-.2-.262-.34-.363a1.478 1.478 0 0 0-1.18-.256Zm-.469 3.589c-.424.86-.81 1.62-.856 1.689a1.458 1.458 0 0 1-.67.528c-.153.058-.263.076-2.13.352a51.1 51.1 0 0 0-1.544.239c.002.005.563.549 1.245 1.207a59.58 59.58 0 0 1 1.316 1.294c.133.17.242.41.282.625.01.048.017.169.017.268 0 .157-.038.407-.298 1.921-.164.957-.296 1.744-.296 1.744s.666-.349 1.477-.778c.81-.43 1.53-.807 1.6-.84.218-.1.374-.133.637-.133.247 0 .378.024.57.104.054.022.76.39 1.57.818.808.428 1.494.79 1.524.805.05.026.053.026.047-.001a1329.641 1329.641 0 0 0-.566-3.279 1.993 1.993 0 0 1 .004-.638c.037-.166.11-.336.206-.482.061-.094.383-.424 1.348-1.383A57.573 57.573 0 0 0 13.958 6.7a367.1 367.1 0 0 0-1.687-.252c-.92-.137-1.71-.256-1.758-.265a1.46 1.46 0 0 1-.856-.56c-.045-.061-.422-.801-.866-1.696-.433-.873-.79-1.587-.793-1.586-.003 0-.353.704-.777 1.564Z" clip-rule="evenodd"/></g><defs><clipPath id="a"><path fill="#fff" d="M0 0h16v16H0z"/></clipPath></defs></svg>