<svg viewBox="0 0 16 16" fill="none" xmlns="http://www.w3.org/2000/svg"><g clip-path="url(#clip0_8874_15311)"><path d="M15.9301 5.7596a1.0264 1.0264 0 0 0-.376-.4902 1.0447 1.0447 0 0 0-.592-.189h-4.1812a.3456.3456 0 0 1-.1971-.0616.3398.3398 0 0 1-.1256-.1625L8.9615.6453a1.0347 1.0347 0 0 0-.3843-.4691A1.0516 1.0516 0 0 0 7.9934 0a1.0305 1.0305 0 0 0-.5897.1885 1.013 1.013 0 0 0-.3714.4907L5.5287 4.8699a.34.34 0 0 1-.1256.1624.3458.3458 0 0 1-.1971.0617H1.0248a1.0375 1.0375 0 0 0-.5929.1878 1.02 1.02 0 0 0-.3752.4914 1.0219 1.0219 0 0 0-.02.6074c.0552.1999.1698.3788.329.5133l3.5564 2.9206a.3395.3395 0 0 1 .1121.1666.3363.3363 0 0 1-.0022.2002l-1.4968 4.4352a1.0085 1.0085 0 0 0-.0068.6344c.066.2068.197.3874.374.5154.1768.1281.3905.1969.6097.1966a1.0372 1.0372 0 0 0 .6091-.1986l3.6663-2.6624a.3384.3384 0 0 1 .2025-.0671c.073 0 .1442.0235.2025.0671l3.6732 2.6624a1.036 1.036 0 0 0 .6213.235 1.0375 1.0375 0 0 0 .6369-.1898 1.0187 1.0187 0 0 0 .3868-.5354 1.0089 1.0089 0 0 0-.0247-.6576l-1.4967-4.4352a.3358.3358 0 0 1-.0023-.2002.3397.3397 0 0 1 .1121-.1666l3.5633-2.9274a1.0238 1.0238 0 0 0 .3101-.5228 1.015 1.015 0 0 0-.0424-.6047Z" fill="currentColor"/></g><defs><clipPath id="clip0_8874_15311"><path fill="white" d="M0 0h16v16H0z"/></clipPath></defs></svg>