<svg viewBox="0 0 16 16" fill="none" xmlns="http://www.w3.org/2000/svg"><g clip-path="url(#clip0_9554_13631)"><path fill-rule="evenodd" clip-rule="evenodd" d="M7.9295 0a7.9315 7.9315 0 1 1-3.3051 15.1383l-3.952.7154a.5712.5712 0 0 1-.6651-.4669.5715.5715 0 0 1 .0285-.2965l1.1326-3.0172A7.9312 7.9312 0 0 1 3.9206 1.0895 7.9315 7.9315 0 0 1 7.9296 0ZM4.8484 8.8834a.7142.7142 0 0 0-1.376.3818c.6789 2.4468 3.3657 3.9142 5.7943 3.2399a.6945.6945 0 0 0 .0526-.0171c1.448-.5257 2.6628-1.7189 3.0731-3.2263a.714.714 0 0 0-.4984-.8887.714.714 0 0 0-.7582.2597.7151.7151 0 0 0-.1217.2542c-.272.9988-1.104 1.8571-2.1577 2.2491-1.68.4503-3.5474-.5943-4.008-2.2526Zm1.2983-3.2731a.8572.8572 0 1 1-1.7143 0 .8572.8572 0 0 1 1.7143 0Zm4.4286.8571a.8573.8573 0 0 0 .6061-1.4632.8573.8573 0 0 0-1.4633.606.8571.8571 0 0 0 .8572.8572Z" fill="currentColor"/></g><defs><clipPath id="clip0_9554_13631"><path fill="white" d="M-.0007 0h16v16h-16z"/></clipPath></defs></svg>