<svg viewBox="0 0 16 16" fill="none" xmlns="http://www.w3.org/2000/svg"><g clip-path="url(#clip0_8874_15314)"><path d="M15.8857.9143a.571.571 0 0 0 .054-.5984A.5716.5716 0 0 0 15.4286 0H.5714a.5714.5714 0 0 0-.4571.9143l5.936 7.7634c.1525.1991.2352.443.2354.6937v6.0572a.5717.5717 0 0 0 .7903.5282.5699.5699 0 0 0 .1857-.1237l2.2857-2.2857a.57.57 0 0 0 .1669-.4045V9.3714a1.143 1.143 0 0 1 .2354-.6937l5.936-7.7634Z" fill="currentColor"/></g><defs><clipPath id="clip0_8874_15314"><path fill="white" d="M0 0h16v16H0z"/></clipPath></defs></svg>