<svg viewBox="0 0 16 16" fill="none" xmlns="http://www.w3.org/2000/svg"><g clip-path="url(#clip0_8874_15271)"><path d="M10.9821 4.4686a.2741.2741 0 0 1 0-.3657l2.2857-2.6972a.88.88 0 0 0 .1143-.9143A.857.857 0 0 0 12.5707 0H3.4278a.8686.8686 0 0 0-.8571.8571V15.143A.8569.8569 0 0 0 3.4278 16a.857.857 0 0 0 .8572-.8571V8.8571a.2857.2857 0 0 1 .2857-.2857h8a.857.857 0 0 0 .7771-.4914.8798.8798 0 0 0-.1143-.9143l-2.2514-2.6971Z" fill="currentColor"/></g><defs><clipPath id="clip0_8874_15271"><path fill="white" d="M-.0007 0h16v16h-16z"/></clipPath></defs></svg>