<svg xmlns="http://www.w3.org/2000/svg" fill="none" viewBox="0 0 16 16"><g clip-path="url(#a)"><path fill="currentColor" fill-rule="evenodd" d="M1.728.024a.808.808 0 0 0-.38.232.81.81 0 0 0-.236.433c-.025.137-.026 14.433-.001 14.594a.856.856 0 0 0 1.631.201c.024-.053.05-.16.06-.238.012-.092.018-.952.018-2.437v-2.296l5.681-.005c6.249-.005 5.728.004 5.945-.106.111-.056.279-.211.338-.313.144-.245.155-.593.027-.827a116.71 116.71 0 0 0-1.515-2.045c-.807-1.076-1.463-1.967-1.459-1.98.005-.012.668-.901 1.474-1.976.934-1.245 1.483-1.992 1.514-2.057a.9.9 0 0 0 .067-.482.88.88 0 0 0-.664-.706c-.065-.013-1.826-.018-6.25-.018-5.325.001-6.17.005-6.25.026ZM2.82 5.246v3.54h9.507l-1.13-1.505a117.009 117.009 0 0 1-1.181-1.592.798.798 0 0 1-.117-.431.78.78 0 0 1 .102-.415c.03-.052.56-.77 1.178-1.594.618-.824 1.13-1.509 1.137-1.52.01-.018-.943-.022-4.741-.022H2.82v3.54Z" clip-rule="evenodd"/></g><defs><clipPath id="a"><path fill="#fff" d="M0 0h16v16H0z"/></clipPath></defs></svg>