<svg viewBox="0 0 16 16" fill="none" xmlns="http://www.w3.org/2000/svg"><g clip-path="url(#clip0_9724_326)"><path fill-rule="evenodd" clip-rule="evenodd" d="M15.6823.982a.714.714 0 0 1 0 1.009l-.906.906v2.48a.714.714 0 0 1-.541.693l-1.69.423v1.128a.4007.4007 0 0 0 .2474.3707.3998.3998 0 0 0 .1536.0303 2.9451 2.9451 0 0 1 2.7208 4.072 2.9437 2.9437 0 0 1-1.5938 1.5938 2.9452 2.9452 0 0 1-1.127.2242h-2.774v.374A1.7141 1.7141 0 0 1 8.4583 16h-6.637a1.7141 1.7141 0 0 1-1.714-1.714V4.329a2.857 2.857 0 0 1 2.857-2.857h4.349a2.857 2.857 0 0 1 2.857 2.857v8.154h2.775a1.517 1.517 0 1 0 0-3.033 1.829 1.829 0 0 1-1.829-1.829v-2.79c0-.189.074-.37.208-.505l3.349-3.343a.7135.7135 0 0 1 .7783-.1549.7135.7135 0 0 1 .2317.1549l-.001-.001ZM1.2483 8.165V5.578h7.781v2.586h-7.78l-.001.001Zm5.566 2.647c.394 0 .714.32.714.714v1.115a.7145.7145 0 0 1-1.429 0v-1.115c0-.394.321-.714.715-.714Z" fill="currentColor"/></g><defs><clipPath id="clip0_9724_326"><path fill="white" d="M-.0007 0h16v16h-16z"/></clipPath></defs></svg>