<svg xmlns="http://www.w3.org/2000/svg" fill="none" viewBox="0 0 16 16"><g fill="currentColor" clip-path="url(#a)"><path d="M7.552 3.225c-.43.071-.848.259-1.2.539-.15.12-.37.35-.487.512-.337.462-.542 1.099-.525 1.632.006.167.012.198.062.304a.698.698 0 0 0 .305.316c.112.059.34.073.465.03a.657.657 0 0 0 .322-.247c.09-.128.106-.18.127-.438.009-.111.028-.252.043-.312a1.41 1.41 0 0 1 .922-.977c.196-.058.54-.058.735 0 .437.13.805.522.926.983.043.165.043.556 0 .704a1.415 1.415 0 0 1-.478.747c-.214.177-.458.268-.788.294-.172.013-.215.023-.31.071a.666.666 0 0 0-.35.504c-.021.146-.02 1.219 0 1.366a.678.678 0 0 0 .373.515c.084.042.12.048.26.048s.175-.006.26-.048a.678.678 0 0 0 .373-.515 4.04 4.04 0 0 0 .016-.399V8.57l.159-.052a3 3 0 0 0 .705-.37c.19-.14.48-.439.612-.633.322-.472.49-1.017.49-1.595.002-1.346-.945-2.49-2.23-2.696a3.403 3.403 0 0 0-.787.002Zm.184 7.053a.973.973 0 0 0-.68.707.97.97 0 0 0 .224.886.844.844 0 0 0 .674.307.844.844 0 0 0 .673-.307.97.97 0 0 0 .224-.886c-.077-.34-.376-.642-.706-.713a1.048 1.048 0 0 0-.409.006Z"/><path fill-rule="evenodd" d="M2.841 14.116c1.346 1.116 2.914 1.748 4.617 1.864a8.014 8.014 0 0 0 5.334-1.58c.33-.25.523-.418.857-.752.333-.333.502-.525.75-.856a8.006 8.006 0 0 0-.283-9.951c-.182-.22-.744-.782-.964-.965C11.796.754 10.23.126 8.502.012A7.998 7.998 0 0 0 3.2 1.592c-.33.25-.522.418-.856.752a7.027 7.027 0 0 0-.751.856 8 8 0 0 0 .283 9.952c.183.22.745.782.965.964Zm1.21-1.223a6.299 6.299 0 0 0 3.565 1.377c.323.02.412.02.722.001a5.945 5.945 0 0 0 1.65-.315 6.014 6.014 0 0 0 2.447-1.521 5.887 5.887 0 0 0 1.166-1.593 6.266 6.266 0 0 0 .355-4.838 6.015 6.015 0 0 0-1.521-2.446 5.88 5.88 0 0 0-1.593-1.167 6.266 6.266 0 0 0-4.838-.355 6.017 6.017 0 0 0-2.447 1.522 5.868 5.868 0 0 0-1.169 1.6 6.3 6.3 0 0 0-.624 3.661 6.32 6.32 0 0 0 1.335 3.122c.172.216.737.78.953.952Z" clip-rule="evenodd"/></g><defs><clipPath id="a"><path fill="#fff" d="M0 0h16v16H0z"/></clipPath></defs></svg>