<svg xmlns="http://www.w3.org/2000/svg" fill="none" viewBox="0 0 16 16"><g clip-path="url(#a)"><path fill="currentColor" fill-rule="evenodd" d="M7.462 15.982c-1.703-.115-3.27-.748-4.617-1.863-.22-.183-.782-.745-.964-.965C.86 11.923.246 10.513.059 8.974a8 8 0 0 1 1.538-5.771c.25-.33.418-.522.752-.856.333-.334.525-.503.856-.751A7.998 7.998 0 0 1 8.507.015c1.728.113 3.294.741 4.649 1.864.22.183.782.744.965.965a8.002 8.002 0 0 1 .283 9.951 7.02 7.02 0 0 1-.751.856 7.028 7.028 0 0 1-.856.751 8.014 8.014 0 0 1-5.335 1.58Zm.158-1.709a6.299 6.299 0 0 1-3.564-1.377 9.71 9.71 0 0 1-.952-.953 6.321 6.321 0 0 1-1.336-3.12 6.3 6.3 0 0 1 .625-3.663 5.868 5.868 0 0 1 1.169-1.6 6.017 6.017 0 0 1 2.447-1.52 6.266 6.266 0 0 1 4.837.355A5.88 5.88 0 0 1 12.44 3.56a6.015 6.015 0 0 1 1.522 2.447c.535 1.6.41 3.311-.355 4.837a5.883 5.883 0 0 1-1.167 1.594 6.013 6.013 0 0 1-2.446 1.521 5.941 5.941 0 0 1-1.65.315c-.31.019-.4.019-.723-.001Zm.157-2.15a.874.874 0 0 1-.606-.614c-.039-.149-.038-3.847.001-3.997a.894.894 0 0 1 .47-.567.894.894 0 0 1 .743.012c.117.056.3.234.365.355.11.207.106.11.106 2.2 0 2.06.003 1.989-.094 2.179-.058.114-.207.27-.326.343a.89.89 0 0 1-.435.118c-.061 0-.162-.013-.224-.03Zm.042-6.03a1.048 1.048 0 0 1-.587-.293 1.037 1.037 0 0 1-.355-.76c-.01-.22.022-.386.105-.555a1.13 1.13 0 0 1 1.724-.394 1.14 1.14 0 0 1 .236 1.513 1.394 1.394 0 0 1-.4.368 1.179 1.179 0 0 1-.723.122Z" clip-rule="evenodd"/></g><defs><clipPath id="a"><path fill="#fff" d="M0 0h16v16H0z"/></clipPath></defs></svg>