<svg xmlns="http://www.w3.org/2000/svg" fill="none" viewBox="0 0 16 16"><g clip-path="url(#a)"><path fill="currentColor" fill-rule="evenodd" d="M3.108.016a.93.93 0 0 0-.714.659 1.083 1.083 0 0 0 0 .487.943.943 0 0 0 .61.634c.115.036.199.036 4.994.036h4.876L6.511 8.198C.438 14.272.145 14.568.09 14.686a.913.913 0 0 0 .184 1.042.916.916 0 0 0 1.042.182c.116-.054.44-.374 6.487-6.42l6.365-6.363v4.876c0 4.795.001 4.878.037 4.993.117.378.473.64.872.64a.925.925 0 0 0 .877-.616l.041-.11L16 6.88c.004-4.424 0-6.06-.015-6.14a.944.944 0 0 0-.711-.723C15.157-.007 3.227-.01 3.108.016Z" clip-rule="evenodd"/></g><defs><clipPath id="a"><path fill="#fff" d="M0 0h16v16H0z"/></clipPath></defs></svg>