<svg xmlns="http://www.w3.org/2000/svg" fill="none" viewBox="0 0 16 16"><g clip-path="url(#a)"><path fill="currentColor" fill-rule="evenodd" d="M.728 1.659c-.327.038-.64.33-.709.662a.86.86 0 0 0 .663 1.022c.17.036 14.467.036 14.637 0a.86.86 0 0 0 .663-1.022.861.861 0 0 0-.733-.663c-.178-.02-14.345-.02-14.52.001Zm-.09 5.513a.912.912 0 0 0-.554.46.843.843 0 0 0 .169.966.803.803 0 0 0 .392.231c.086.023.977.026 7.356.026 7.934 0 7.338.007 7.543-.097a1.01 1.01 0 0 0 .374-.39.843.843 0 0 0-.17-.966.803.803 0 0 0-.391-.231c-.144-.038-14.58-.037-14.72 0Zm.036 5.486a.854.854 0 0 0 .078 1.684c.199.023 14.299.023 14.497 0a.856.856 0 0 0 .752-.851.86.86 0 0 0-.682-.834c-.164-.035-14.485-.034-14.645 0Z" clip-rule="evenodd"/></g><defs><clipPath id="a"><path fill="#fff" d="M0 0h16v16H0z"/></clipPath></defs></svg>