<svg viewBox="0 0 16 16" fill="none" xmlns="http://www.w3.org/2000/svg"><g clip-path="url(#clip0_8874_15293)" fill="currentColor"><path d="M.6949 4h14.6087c.3842 0 .6956.2985.6956.6667v.6666c0 .3682-.3114.6667-.6956.6667H.6949c-.3842 0-.6957-.2985-.6957-.6667v-.6666C-.0008 4.2985.3107 4 .695 4ZM.521 10h10.9565c.2881 0 .5217.2985.5217.6667v.6666c0 .3682-.2336.6667-.5217.6667H.521c-.2882 0-.5218-.2985-.5218-.6667v-.6666c0-.3682.2336-.6667.5218-.6667Z"/></g><defs><clipPath id="clip0_8874_15293"><path fill="white" d="M-.0008 0h16v16h-16z"/></clipPath></defs></svg>