<svg viewBox="0 0 16 16" fill="none" xmlns="http://www.w3.org/2000/svg"><g clip-path="url(#clip0_8874_15283)"><path fill-rule="evenodd" clip-rule="evenodd" d="M5.1708 6.8284a4 4 0 1 1 5.6569-5.6568 4 4 0 0 1-5.6569 5.6568Zm7.4491 4.236a7.9998 7.9998 0 0 1 2.9233 3.8684.799.799 0 0 1-.1005.7286.8004.8004 0 0 1-.6531.3386H1.2088a.8005.8005 0 0 1-.792-.6907.7996.7996 0 0 1 .0384-.3765 8.0003 8.0003 0 0 1 7.544-5.3377 8.0004 8.0004 0 0 1 4.6207 1.4693Z" fill="currentColor"/></g><defs><clipPath id="clip0_8874_15283"><path fill="white" d="M-.0007 0h16v16h-16z"/></clipPath></defs></svg>