<svg xmlns="http://www.w3.org/2000/svg" fill="none" viewBox="0 0 16 16"><g clip-path="url(#a)"><path fill="currentColor" fill-rule="evenodd" d="M7.784.025a.984.984 0 0 0-.21.076 1.24 1.24 0 0 0-.386.384c-.112.21-.106.016-.106 3.426v3.116H3.966c-3.428 0-3.254-.005-3.478.114a.956.956 0 0 0-.477.674.92.92 0 0 0 .794 1.048c.094.01 1.357.018 3.216.018h3.061v3.163c0 3.46-.006 3.261.106 3.471.074.138.267.324.408.393.247.12.56.12.808 0a1.12 1.12 0 0 0 .408-.393c.112-.21.106-.011.106-3.471V8.88h3.06c1.86 0 3.123-.007 3.217-.018a.924.924 0 0 0 .793-.766.927.927 0 0 0-.714-1.043c-.105-.022-.605-.026-3.24-.027H8.918V3.911c0-3.41.006-3.216-.106-3.426A1.241 1.241 0 0 0 8.427.1a.969.969 0 0 0-.643-.076Z" clip-rule="evenodd"/></g><defs><clipPath id="a"><path fill="#fff" d="M0 0h16v16H0z"/></clipPath></defs></svg>