<svg viewBox="0 0 16 16" fill="none" xmlns="http://www.w3.org/2000/svg"><g clip-path="url(#clip0_8874_15275)"><path d="M7.9993 0a8 8 0 1 0 8 8 8.0097 8.0097 0 0 0-8-8Zm0 13.4a1.4002 1.4002 0 0 1-1.2935-.8642 1.4002 1.4002 0 0 1 1.0203-1.9089 1.3999 1.3999 0 0 1 1.2631 2.363 1.3998 1.3998 0 0 1-.99.4101Zm0-4.8a1 1 0 0 1 0-2 1 1 0 1 0-.8-1.6.9998.9998 0 0 1-1.6605-.0905A1 1 0 0 1 5.5993 3.8a3 3 0 1 1 2.4 4.8Z" fill="currentColor"/></g><defs><clipPath id="clip0_8874_15275"><path fill="white" d="M-.0007 0h16v16h-16z"/></clipPath></defs></svg>