<svg viewBox="0 0 16 16" fill="none" xmlns="http://www.w3.org/2000/svg"><g clip-path="url(#clip0_8874_15299)"><path d="M7.9993 0a8 8 0 1 0 8 8 8.0097 8.0097 0 0 0-8-8Zm3.648 9.952a1.2003 1.2003 0 0 1 .0304 1.7265 1.201 1.201 0 0 1-.8697.3512 1.199 1.199 0 0 1-.8567-.3817l-1.952-1.9504-1.952 1.9504a1.1998 1.1998 0 0 1-2.018-.8568 1.2001 1.2001 0 0 1 .322-.8392L6.3017 8 4.3513 6.048a1.2 1.2 0 0 1 1.696-1.696l1.952 1.9504 1.952-1.9504a1.2 1.2 0 0 1 1.696 1.696L9.6969 8l1.9504 1.952Z" fill="currentColor"/></g><defs><clipPath id="clip0_8874_15299"><path fill="white" d="M-.0007 0h16v16h-16z"/></clipPath></defs></svg>