<svg viewBox="0 0 16 16" fill="none" xmlns="http://www.w3.org/2000/svg"><g clip-path="url(#clip0_8874_15288)" fill="currentColor"><path d="M7.9993 12c2.2091 0 4-1.7909 4-4 0-2.2091-1.7909-4-4-4-2.2092 0-4 1.7909-4 4 0 2.2091 1.7908 4 4 4Z"/><path fill-rule="evenodd" clip-rule="evenodd" d="M15.9993 8c0 4.4183-3.5818 8-8 8-4.4183 0-8-3.5817-8-8s3.5817-8 8-8c4.4182 0 8 3.5817 8 8Zm-2 0c0 3.3137-2.6863 6-6 6s-6-2.6863-6-6 2.6863-6 6-6 6 2.6863 6 6Z"/></g><defs><clipPath id="clip0_8874_15288"><path fill="white" d="M-.0007 0h16v16h-16z"/></clipPath></defs></svg>