<svg viewBox="0 0 16 16" fill="none" xmlns="http://www.w3.org/2000/svg"><g clip-path="url(#clip0_8874_15287)"><path d="M7.9993 0a8 8 0 1 0 8 8 8.0097 8.0097 0 0 0-8-8Zm3.9072 6.7072-4.4 4.4a.9995.9995 0 0 1-1.4144 0l-2-2a1.0001 1.0001 0 0 1 1.4144-1.4144l1.2928 1.2928 3.6928-3.6928a.9995.9995 0 0 1 1.0899-.2168 1.001 1.001 0 0 1 .5413.5413 1.0012 1.0012 0 0 1 0 .7654 1.0018 1.0018 0 0 1-.2168.3245Z" fill="currentColor"/></g><defs><clipPath id="clip0_8874_15287"><path fill="white" d="M-.0007 0h16v16h-16z"/></clipPath></defs></svg>