<svg xmlns="http://www.w3.org/2000/svg" fill="none" viewBox="0 0 16 16"><g clip-path="url(#a)"><path fill="currentColor" fill-rule="evenodd" d="M2.845 1.88C4.191.763 5.76.13 7.462.015a8.014 8.014 0 0 1 5.335 1.58c.33.249.522.417.856.751.334.334.502.526.751.856a8.007 8.007 0 0 1-.283 9.951c-.183.22-.745.783-.965.965-1.355 1.123-2.921 1.751-4.65 1.865a7.998 7.998 0 0 1-5.301-1.581 7.03 7.03 0 0 1-.856-.752 7.025 7.025 0 0 1-.752-.856 8 8 0 0 1 .284-9.951c.182-.22.744-.782.964-.965Zm1.211 1.222A6.299 6.299 0 0 1 7.62 1.725c.324-.02.413-.02.723 0 .62.037 1.087.126 1.65.314.957.32 1.72.795 2.446 1.521a5.9 5.9 0 0 1 1.167 1.594 6.266 6.266 0 0 1 .355 4.837 6.015 6.015 0 0 1-1.522 2.447 5.883 5.883 0 0 1-1.593 1.166 6.266 6.266 0 0 1-4.837.355 6.018 6.018 0 0 1-2.447-1.521 5.868 5.868 0 0 1-1.17-1.6 6.3 6.3 0 0 1-.624-3.662 6.321 6.321 0 0 1 1.336-3.121c.172-.216.736-.78.952-.953Z" clip-rule="evenodd"/></g><defs><clipPath id="a"><path fill="#fff" d="M0 0h16v16H0z"/></clipPath></defs></svg>