<svg xmlns="http://www.w3.org/2000/svg" fill="none" viewBox="0 0 16 16"><g clip-path="url(#a)"><path fill="currentColor" fill-rule="evenodd" d="M7.445.016A7.94 7.94 0 0 0 3.057 1.71l-.232.181-.01-.318c-.007-.256-.015-.34-.044-.43A.866.866 0 0 0 1.812.56a.875.875 0 0 0-.701.703c-.01.068-.017.655-.017 1.53 0 1.544 0 1.548.096 1.747.059.12.236.303.358.368.188.101.151.1 1.776.099.917 0 1.518-.007 1.565-.018a.899.899 0 0 0 .56-.414.887.887 0 0 0 0-.846.96.96 0 0 0-.415-.368c-.129-.055-.223-.063-.713-.063H3.83l.072-.066c.33-.299.875-.655 1.368-.892.807-.388 1.51-.566 2.43-.616a6.24 6.24 0 0 1 3.146.67 5.88 5.88 0 0 1 1.593 1.167 6.013 6.013 0 0 1 1.522 2.446c.202.605.28 1.037.322 1.79.026.47.04.532.168.7a.857.857 0 0 0 1.089.264c.114-.058.27-.208.343-.327.117-.196.137-.373.102-.93a7.973 7.973 0 0 0-1.581-4.3 7.02 7.02 0 0 0-.751-.857 7.024 7.024 0 0 0-.856-.75A8.023 8.023 0 0 0 7.445.016ZM.636 7.171a.88.88 0 0 0-.606.605c-.035.133-.038.345-.013.73.113 1.728.74 3.293 1.864 4.648.183.22.744.782.965.965 1.21 1.004 2.603 1.617 4.112 1.812 2.174.281 4.28-.302 6.016-1.664l.207-.163v.227c0 .418.04.588.182.775a.849.849 0 0 0 1.288.09.865.865 0 0 0 .24-.469c.012-.078.017-.621.014-1.581l-.005-1.462-.04-.11a.877.877 0 0 0-.593-.556c-.087-.023-.307-.027-1.584-.027-1.041 0-1.51.006-1.574.02a.904.904 0 0 0-.614.528 1.063 1.063 0 0 0-.025.53.882.882 0 0 0 .643.614c.042.01.298.018.568.018h.49l-.071.066a6.502 6.502 0 0 1-1.25.835 6.052 6.052 0 0 1-2.549.672 6.231 6.231 0 0 1-3.145-.67 5.886 5.886 0 0 1-1.594-1.166A6.014 6.014 0 0 1 2.041 9.99c-.203-.607-.28-1.034-.322-1.79-.025-.451-.04-.516-.143-.665a.886.886 0 0 0-.534-.374 1.06 1.06 0 0 0-.406.009Z" clip-rule="evenodd"/></g><defs><clipPath id="a"><path fill="#fff" d="M0 0h16v16H0z"/></clipPath></defs></svg>