<svg viewBox="0 0 16 16" fill="none" xmlns="http://www.w3.org/2000/svg"><g clip-path="url(#clip0_8874_15292)"><path d="M13.5993 8a1.1998 1.1998 0 0 0-1.2 1.2 4.4 4.4 0 1 1-4.4-4.4h.4v1.6a.8.8 0 0 0 .4944.7392.7886.7886 0 0 0 .3056.0608.8.8 0 0 0 .56-.2352L12.5657 4.16a.7999.7999 0 0 0 0-1.1312L9.7593.2336A.8.8 0 0 0 8.3993.8v1.6h-.4a6.8 6.8 0 1 0 6.8 6.8 1.1998 1.1998 0 0 0-1.2-1.2Z" fill="currentColor"/></g><defs><clipPath id="clip0_8874_15292"><path fill="white" d="M-.0007 0h16v16h-16z"/></clipPath></defs></svg>