<svg xmlns="http://www.w3.org/2000/svg" fill="none" viewBox="0 0 16 16"><g fill="currentColor" clip-path="url(#a)"><path d="M2.833 3.419h.171l-.007-.013a.511.511 0 1 1 0 1.024H1.291a.511.511 0 0 1-.512-.512c0-.287.225-.512.512-.512h.17c.09 0 .171-.082.171-.17V1.188h.007c0-.089-.082-.17-.17-.164h-.171A.511.511 0 0 1 .786.512C.786.225 1.01 0 1.298 0h.426c.516 0 .932.423.939.942v2.306c0 .089.075.17.17.17Zm.342 3.748a1.365 1.365 0 1 0-2.73 0 .511.511 0 1 0 1.023 0 .342.342 0 0 1 .683 0 .774.774 0 0 1-.157.437L.554 9.4a.51.51 0 0 0 .075.716.51.51 0 0 0 .314.11h1.706a.511.511 0 1 0 0-1.024h-.287a.18.18 0 0 1-.177-.171.126.126 0 0 1 .034-.11l.553-.695c.239-.315.375-.69.375-1.086l.028.027Zm-1.393 4.437a1.359 1.359 0 0 0-1.324 1.01.502.502 0 0 0 .361.622.513.513 0 0 0 .621-.363.34.34 0 0 1 .417-.246.341.341 0 0 1 .238.416.346.346 0 0 1-.334.246.507.507 0 0 0-.512.512c0 .28.225.512.512.512.184 0 .335.15.335.341a.347.347 0 0 1-.349.335.352.352 0 0 1-.334-.253h-.006a.51.51 0 0 0-.621-.375.5.5 0 0 0-.369.641 1.365 1.365 0 0 0 1.68.95 1.375 1.375 0 0 0 .948-1.687 1.317 1.317 0 0 0-.184-.396.164.164 0 0 1 0-.19 1.372 1.372 0 0 0-1.14-2.13l.061.055Z"/><path fill-rule="evenodd" d="M6.204 1.427c-.32.052-.608.354-.657.688a.772.772 0 0 0 .235.694c.15.15.276.213.471.237.183.023 8.434.024 8.634.001a.824.824 0 0 0 .708-.684.827.827 0 0 0-.638-.93c-.095-.02-.73-.023-4.387-.022-2.394.001-4.315.008-4.366.016ZM6.14 7.234a.846.846 0 0 0-.559.523.636.636 0 0 0-.037.27c0 .14.007.19.037.27a.84.84 0 0 0 .566.525c.086.022.59.025 4.423.025 4.74 0 4.413.006 4.603-.095a1 1 0 0 0 .35-.364.847.847 0 0 0 0-.72 1 1 0 0 0-.35-.365c-.19-.101.139-.095-4.61-.093-3.734 0-4.346.004-4.423.024Zm.094 5.775a.75.75 0 0 0-.452.237.776.776 0 0 0-.235.697.84.84 0 0 0 .674.686c.147.023 8.552.023 8.699 0a.829.829 0 0 0 .675-.937.825.825 0 0 0-.708-.684c-.167-.02-8.489-.018-8.653 0Z" clip-rule="evenodd"/></g><defs><clipPath id="a"><path fill="#fff" d="M0 0h16v16H0z"/></clipPath></defs></svg>