<svg xmlns="http://www.w3.org/2000/svg" fill="none" viewBox="0 0 16 16"><g clip-path="url(#a)"><path fill="currentColor" fill-rule="evenodd" d="M1.844.022A2.098 2.098 0 0 0 .027 1.817C-.005 2.06-.01 3.876.02 4.047a.95.95 0 0 0 .71.725c.138.029.372.013.505-.034a.978.978 0 0 0 .559-.556c.028-.072.032-.19.041-1.12.01-1.014.01-1.041.047-1.09a.525.525 0 0 1 .089-.09c.05-.037.058-.037 2.581-.042l2.53-.005v12.33H5.984c-1.027 0-1.106.003-1.21.035a.885.885 0 0 0-.399.264.865.865 0 0 0-.228.458.916.916 0 0 0 .607 1.025l.119.044h6.256l.12-.044a.894.894 0 0 0 .457-.35.903.903 0 0 0-.083-1.137.88.88 0 0 0-.394-.26c-.105-.032-.184-.035-1.211-.035h-1.1V1.835l2.531.005c2.524.005 2.53.005 2.581.043.028.02.068.06.089.088.037.05.038.076.047 1.09.009 1.035.01 1.041.052 1.146.093.231.319.45.548.53.133.048.367.064.505.035a.95.95 0 0 0 .71-.724c.026-.143.026-1.93 0-2.172A2.1 2.1 0 0 0 14.124.02C13.9-.004 2.061-.002 1.844.022Z" clip-rule="evenodd"/></g><defs><clipPath id="a"><path fill="#fff" d="M0 0h16v16H0z"/></clipPath></defs></svg>