<svg xmlns="http://www.w3.org/2000/svg" fill="none" viewBox="0 0 16 16"><g clip-path="url(#a)"><path fill="currentColor" fill-rule="evenodd" d="M10.83.017a4.81 4.81 0 0 0-2.548 1.03c-.1.08-.579.544-1.148 1.112-.934.933-.98.982-1.039 1.104a.844.844 0 0 0 .124.942.87.87 0 0 0 1.053.191c.063-.033.348-.305 1.061-1.013.543-.539 1.032-1.01 1.103-1.063a3.04 3.04 0 0 1 2.037-.596 3.001 3.001 0 0 1 1.986.94c.434.46.685.978.794 1.634.03.187.035.647.007.838a3.105 3.105 0 0 1-.614 1.47 36.71 36.71 0 0 1-1.03 1.06c-.595.6-.97.989-.999 1.04a.865.865 0 0 0 .1.999.848.848 0 0 0 1.02.2c.123-.06.168-.102 1.104-1.04.565-.565 1.033-1.048 1.111-1.147a4.754 4.754 0 0 0 1.045-2.813 4.714 4.714 0 0 0-1.387-3.516A4.738 4.738 0 0 0 10.83.017Zm-.793 4.941a.976.976 0 0 0-.205.069c-.107.05-.25.189-2.433 2.372-2.182 2.182-2.323 2.326-2.372 2.433-.339.723.418 1.48 1.142 1.14.105-.048.256-.195 2.432-2.371s2.323-2.327 2.372-2.432a.862.862 0 0 0-.936-1.21Zm-6.551 1.06a1.016 1.016 0 0 0-.223.077c-.123.06-.17.103-1.104 1.04-.565.565-1.033 1.048-1.111 1.147a4.887 4.887 0 0 0-.896 1.776 4.794 4.794 0 0 0 .045 2.559 4.752 4.752 0 0 0 3.793 3.324 4.757 4.757 0 0 0 3.728-.989c.099-.078.582-.546 1.148-1.111.937-.936.98-.981 1.038-1.104a.859.859 0 0 0-.03-.82.87.87 0 0 0-1.146-.313c-.063.033-.352.309-1.07 1.021-.983.975-1.075 1.059-1.377 1.242a3.127 3.127 0 0 1-1.145.393 3.91 3.91 0 0 1-.855-.01 2.976 2.976 0 0 1-1.427-.626 2.995 2.995 0 0 1-1.13-2.152 3.027 3.027 0 0 1 .604-2.044c.058-.077.52-.557 1.063-1.103 1.01-1.016 1.023-1.032 1.077-1.24a.86.86 0 0 0-.65-1.06.741.741 0 0 0-.332-.007Z" clip-rule="evenodd"/></g><defs><clipPath id="a"><path fill="#fff" d="M0 0h16v16H0z"/></clipPath></defs></svg>