<svg xmlns="http://www.w3.org/2000/svg" fill="none" viewBox="0 0 16 16"><g clip-path="url(#a)"><path fill="currentColor" fill-rule="evenodd" d="M6.708.571a.778.778 0 0 0-.376.2c-.213.195-.291.387-.278.688.008.164.014.191.07.306a.861.861 0 0 0 .522.456c.106.033.162.034 1.69.034h1.579L7.043 8 4.17 13.745H2.437c-1.678 0-1.737 0-1.842.033a.875.875 0 0 0-.503.437c-.23.466-.013 1.004.484 1.193l.098.038 4.231.005c2.943.003 4.266-.001 4.343-.014a.889.889 0 0 0 .669-.583 1.007 1.007 0 0 0-.002-.514.854.854 0 0 0-.56-.562c-.107-.032-.163-.034-1.69-.034h-1.58L8.957 8l2.873-5.745h1.733c1.678 0 1.737 0 1.842-.033a.875.875 0 0 0 .503-.437c.23-.467.013-1.004-.484-1.193l-.098-.038-4.257-.003C7.577.55 6.793.552 6.708.571Z" clip-rule="evenodd"/></g><defs><clipPath id="a"><path fill="#fff" d="M0 0h16v16H0z"/></clipPath></defs></svg>