<svg viewBox="0 0 16 16" fill="none" xmlns="http://www.w3.org/2000/svg"><g clip-path="url(#clip0_8874_15274)"><path d="M15.6473 15.648a1.1973 1.1973 0 0 0 .3516-.848 1.199 1.199 0 0 0-.3516-.848l-3.04-3.04a.4016.4016 0 0 1-.0544-.496A6.8065 6.8065 0 0 0 1.9723 1.9872a6.8064 6.8064 0 0 0 8.4446 10.568.4004.4004 0 0 1 .496.056l3.04 3.04a1.1962 1.1962 0 0 0 .848.3523 1.1956 1.1956 0 0 0 .848-.3523l-.0016-.0032ZM2.3993 6.8a4.4 4.4 0 1 1 4.4 4.4 4.403 4.403 0 0 1-4.4-4.4Z" fill="currentColor"/></g><defs><clipPath id="clip0_8874_15274"><path fill="white" d="M-.0007 0h16v16h-16z"/></clipPath></defs></svg>