<svg xmlns="http://www.w3.org/2000/svg" fill="none" viewBox="0 0 16 16"><g clip-path="url(#a)"><path fill="currentColor" fill-rule="evenodd" d="M6.394.015a7.811 7.811 0 0 0-.727.096 6.895 6.895 0 0 0-4.51 2.967 6.894 6.894 0 0 0-.96 5.462 6.848 6.848 0 0 0 1.751 3.16 6.68 6.68 0 0 0 1.71 1.292 6.88 6.88 0 0 0 2.428.764c.362.048 1.313.044 1.684-.007a7.035 7.035 0 0 0 2.51-.826c.18-.103.71-.451.798-.527l.06-.051 1.77 1.766c1.647 1.643 1.776 1.768 1.874 1.81a.859.859 0 0 0 1.14-1.14c-.042-.097-.168-.227-1.81-1.874l-1.766-1.77.05-.06c.076-.088.425-.617.527-.798a7.035 7.035 0 0 0 .827-2.51c.05-.37.055-1.321.007-1.684a6.89 6.89 0 0 0-.673-2.248 6.688 6.688 0 0 0-1.384-1.89A6.77 6.77 0 0 0 9.895.683 6.824 6.824 0 0 0 7.659.04 10.284 10.284 0 0 0 6.394.015Zm.159 1.71a4.98 4.98 0 0 0-1.963.538 4.708 4.708 0 0 0-1.35.975c-.439.438-.71.814-.975 1.35a4.973 4.973 0 0 0-.516 1.71c-.037.303-.037.917.001 1.214.144 1.123.604 2.117 1.349 2.911a5.153 5.153 0 0 0 3.396 1.647c.28.024.82.01 1.095-.028a5.197 5.197 0 0 0 4.454-4.454c.038-.275.051-.814.028-1.094a5.155 5.155 0 0 0-1.647-3.397 5.136 5.136 0 0 0-2.903-1.346 6.301 6.301 0 0 0-.97-.027Z" clip-rule="evenodd"/></g><defs><clipPath id="a"><path fill="#fff" d="M0 0h16v16H0z"/></clipPath></defs></svg>