<svg viewBox="0 0 16 16" fill="none" xmlns="http://www.w3.org/2000/svg"><g clip-path="url(#clip0_8874_15282)"><path d="M14.9993 6.3333h-1.2414a5.9717 5.9717 0 0 0-.5086-1.2266l.878-.8774a1.0003 1.0003 0 0 0 0-1.4146l-.9434-.942a.9999.9999 0 0 0-1.414 0l-.8786.878a5.9388 5.9388 0 0 0-1.2254-.5087V1a1 1 0 0 0-1-1H7.3326a1 1 0 0 0-1 1v1.242a5.9792 5.9792 0 0 0-1.226.5087l-.8787-.878a1 1 0 0 0-1.414 0l-.9433.9426a1 1 0 0 0 0 1.4147l.8787.878a5.9186 5.9186 0 0 0-.5087 1.2253H.9993a1 1 0 0 0-1 1v1.3334a1 1 0 0 0 1 1h1.2413c.123.4264.2937.8377.5087 1.226l-.8794.8793a.9999.9999 0 0 0 0 1.414l.9427.9427a1.0301 1.0301 0 0 0 1.4147 0l.8786-.878a5.9863 5.9863 0 0 0 1.2267.5093V15a1 1 0 0 0 1 1h1.3333a1.0002 1.0002 0 0 0 1-1v-1.24a5.9733 5.9733 0 0 0 1.226-.5087l.8787.878a.9998.9998 0 0 0 1.414 0l.9427-.9426a1.0002 1.0002 0 0 0 0-1.414l-.878-.878a5.9406 5.9406 0 0 0 .5086-1.2267h1.2414a1.0005 1.0005 0 0 0 .7075-.2934 1.001 1.001 0 0 0 .2925-.708V7.3334a1.0001 1.0001 0 0 0-1-1Zm-7 5a3.3338 3.3338 0 0 1-3.0796-2.0577A3.3334 3.3334 0 1 1 11.3326 8a3.3373 3.3373 0 0 1-3.3333 3.3333Z" fill="currentColor"/></g><defs><clipPath id="clip0_8874_15282"><path fill="white" d="M-.0007 0h16v16h-16z"/></clipPath></defs></svg>