<svg xmlns="http://www.w3.org/2000/svg" fill="none" viewBox="0 0 16 16"><g fill="currentColor" clip-path="url(#a)"><path fill-rule="evenodd" d="M7.324.003a1.958 1.958 0 0 0-1.172.588c-.271.276-.312.356-.708 1.38l-.08.21-.546.308c-.3.17-.56.31-.577.31-.018 0-.26-.036-.537-.079-.71-.11-.975-.106-1.351.02a1.95 1.95 0 0 0-.945.688 16.294 16.294 0 0 0-.685 1.199c-.231.54-.181 1.215.129 1.739.039.066.23.319.427.562l.356.443-.001 1.27-.318.403c-.37.468-.422.543-.515.728a1.854 1.854 0 0 0-.194.871c0 .254.044.493.129.704.057.141.517.966.647 1.159.238.354.602.627 1.016.762.371.12.617.123 1.322.013.277-.044.52-.08.539-.079.02 0 .274.138.566.306l.53.305.088.22a181 181 0 0 1 .218.556c.165.42.269.595.49.82a1.93 1.93 0 0 0 1.001.558c.122.029.216.032.847.032.756 0 .818-.005 1.077-.089a1.987 1.987 0 0 0 1.143-.991c.036-.074.15-.352.252-.618l.187-.484.535-.308c.295-.169.55-.307.567-.307.017 0 .258.035.535.078.566.088.834.1 1.085.051a1.953 1.953 0 0 0 1.188-.729c.11-.146.634-1.054.708-1.228.231-.54.181-1.216-.129-1.74a8.887 8.887 0 0 0-.427-.562l-.356-.443.001-1.27.291-.368c.364-.46.456-.59.542-.762a2.01 2.01 0 0 0 .065-1.576 15.351 15.351 0 0 0-.647-1.159 1.964 1.964 0 0 0-1.016-.762c-.37-.12-.616-.123-1.326-.012-.278.043-.52.079-.539.078-.017 0-.27-.137-.562-.305l-.53-.305-.091-.23-.22-.559c-.152-.384-.263-.576-.453-.78a2.013 2.013 0 0 0-.99-.577C8.753.006 8.702.004 8.06 0c-.377-.002-.708 0-.736.003Zm.157 1.718a.24.24 0 0 0-.14.12c-.013.025-.132.325-.264.667-.133.342-.261.657-.286.7a.891.891 0 0 1-.266.278c-.12.08-1.618.93-1.752.992a.95.95 0 0 1-.24.068c-.128.018-.168.014-.815-.086a17.08 17.08 0 0 0-.746-.104c-.126 0-.161.042-.426.505-.214.376-.244.437-.244.504 0 .045.014.098.032.129.018.028.221.285.453.572.231.286.443.563.47.616.097.183.098.192.098 1.327 0 1.029-.001 1.045-.038 1.163-.051.162-.077.2-.552.805-.228.29-.422.546-.43.568-.041.108-.034.127.228.586.285.5.297.514.435.514.035 0 .375-.048.756-.106.657-.1.699-.105.811-.085.065.01.159.037.207.058.1.043 1.615.909 1.753 1.002a.894.894 0 0 1 .266.279c.024.042.156.363.292.714.135.35.259.656.274.679.065.1.077.102.611.107.533.006.597-.001.67-.077.03-.033.121-.245.287-.672.133-.344.265-.668.293-.722a.802.802 0 0 1 .244-.287c.11-.076 1.645-.957 1.765-1.013a.947.947 0 0 1 .24-.068c.128-.017.168-.013.815.086.374.058.71.105.746.105.125 0 .161-.043.426-.505.214-.376.244-.437.244-.505a.272.272 0 0 0-.032-.128 20.518 20.518 0 0 0-.453-.572 9.112 9.112 0 0 1-.47-.616c-.097-.184-.098-.193-.098-1.319 0-1.125.001-1.136.097-1.317.027-.052.243-.34.479-.641.236-.3.436-.565.444-.587.041-.108.033-.127-.228-.586-.285-.5-.296-.513-.435-.513-.035 0-.373.047-.75.105-.647.099-.691.103-.81.085a1.083 1.083 0 0 1-.213-.057 53.518 53.518 0 0 1-1.754-1.003.895.895 0 0 1-.266-.279 12.888 12.888 0 0 1-.292-.713c-.135-.35-.259-.656-.274-.68-.066-.1-.076-.102-.617-.105a5.688 5.688 0 0 0-.545.012Z" clip-rule="evenodd"/><path d="M10.139 8A2.139 2.139 0 1 1 5.86 8a2.139 2.139 0 0 1 4.278 0Z"/></g><defs><clipPath id="a"><path fill="#fff" d="M0 0h16v16H0z"/></clipPath></defs></svg>