<svg xmlns="http://www.w3.org/2000/svg" fill="none" viewBox="0 0 16 16"><g clip-path="url(#a)"><path fill="currentColor" fill-rule="evenodd" d="M8.978.024a.939.939 0 0 0-.693.701c-.023.105-.027.594-.027 3.157 0 2.144.006 3.061.02 3.13a.952.952 0 0 0 .71.71c.069.014.986.02 3.13.02 2.563 0 3.052-.004 3.157-.027a.928.928 0 0 0 .713-1.039.928.928 0 0 0-.513-.682l-.156-.078-1.966-.005-1.964-.005 2.232-2.235c2.097-2.099 2.236-2.241 2.29-2.356.364-.779-.448-1.59-1.227-1.224-.113.052-.266.2-2.355 2.288l-2.235 2.233-.005-1.965L10.084.68l-.078-.156a.937.937 0 0 0-.655-.51.832.832 0 0 0-.373.009Zm-8.26 8.26a.94.94 0 0 0-.705.759.916.916 0 0 0 .513.962l.157.078 1.965.005 1.965.005-2.232 2.234C.274 14.436.145 14.57.09 14.685a.912.912 0 0 0 .184 1.042.914.914 0 0 0 1.043.181c.112-.052.265-.201 2.355-2.288l2.234-2.233.005 1.965.005 1.965.078.157c.183.37.57.576.962.513a.936.936 0 0 0 .76-.713c.022-.105.026-.594.026-3.157 0-2.144-.005-3.061-.02-3.13a.951.951 0 0 0-.71-.71C6.857 8.244.87 8.25.718 8.284Z" clip-rule="evenodd"/></g><defs><clipPath id="a"><path fill="#fff" d="M0 0h16v16H0z"/></clipPath></defs></svg>