<svg viewBox="0 0 16 16" fill="none" xmlns="http://www.w3.org/2000/svg"><g clip-path="url(#clip0_8874_15278)"><path fill-rule="evenodd" clip-rule="evenodd" d="M15.2583.0918c.1455.0603.2777.1487.389.2602a1.1972 1.1972 0 0 1 .3516.848 1.1971 1.1971 0 0 1-.3516.848L13.2137 4.48l1.3456 1.3536a.8.8 0 0 1-.56 1.3664h-4.4a.8.8 0 0 1-.8-.8V2a.8.8 0 0 1 1.3664-.56l1.3536 1.3456L13.9513.352a1.1985 1.1985 0 0 1 1.307-.2602ZM1.9993 8.8h4.4a.8.8 0 0 1 .8.8V14a.7999.7999 0 0 1-.4944.7392.7895.7895 0 0 1-.3056.0608.8001.8001 0 0 1-.5696-.2336l-1.3504-1.352-2.432 2.4336a1.199 1.199 0 0 1-1.3274.2946 1.2001 1.2001 0 0 1-.3686-1.9906l2.44-2.4352-1.352-1.3504a.8.8 0 0 1 .56-1.3664Z" fill="currentColor"/></g><defs><clipPath id="clip0_8874_15278"><path fill="white" d="M-.0007 0h16v16h-16z"/></clipPath></defs></svg>