<svg viewBox="0 0 16 16" fill="none" xmlns="http://www.w3.org/2000/svg"><path fill-rule="evenodd" clip-rule="evenodd" d="M6 .0004a.8571.8571 0 1 0 0 1.7143h2.2857a.8571.8571 0 1 0 0-1.7143H6ZM3.7143 3.4289a.8571.8571 0 1 0 0 1.7143h4.5714a.8571.8571 0 1 0 0-1.7143H3.7143ZM0 7.7148a.8572.8572 0 0 1 .8571-.8572h7.4286a.8572.8572 0 0 1 0 1.7143H.8571A.8572.8572 0 0 1 0 7.7147ZM12.2857.0004a1.1428 1.1428 0 0 1 1.1429 1.1428V11.429h1.7143a.8574.8574 0 0 1 .6057 1.4629l-2.8572 2.8571a.8567.8567 0 0 1-1.2114 0l-2.8571-2.8571a.8571.8571 0 0 1 .6057-1.4629h1.7143V1.1432A1.143 1.143 0 0 1 12.2857.0004Z" fill="currentColor"/></svg>