<svg xmlns="http://www.w3.org/2000/svg" fill="none" viewBox="0 0 16 16"><path fill="currentColor" fill-rule="evenodd" d="M.654.023a.888.888 0 0 0-.637.656c-.039.186-.01.4.078.572.057.113.245.302.357.359.209.106-.143.098 4.521.098 4.676 0 4.348.008 4.54-.103.107-.06.252-.2.32-.306a.887.887 0 0 0-.005-.892c-.07-.11-.231-.26-.337-.313-.2-.101.08-.095-4.526-.094C1.65.001.723.006.655.023Zm11.54 0a.888.888 0 0 0-.636.656c-.014.065-.019 1.819-.019 6.248v6.158l-.714-.71c-.659-.656-.722-.714-.824-.759a.854.854 0 0 0-.953.178.837.837 0 0 0-.165.98c.057.12.115.18 1.516 1.583.801.802 1.49 1.48 1.532 1.508.148.1.247.126.463.126.216 0 .33-.031.47-.128.038-.026.727-.707 1.533-1.514 1.57-1.573 1.524-1.523 1.579-1.754a.826.826 0 0 0-.23-.8.826.826 0 0 0-.8-.23c-.22.052-.24.067-.98.805-.38.38-.698.69-.705.69-.007 0-.012-2.775-.012-6.168 0-5.624-.003-6.178-.028-6.262a1.29 1.29 0 0 0-.07-.178 1.105 1.105 0 0 0-.36-.357.913.913 0 0 0-.596-.072ZM3.393 3.049a.75.75 0 0 0-.385.231.767.767 0 0 0-.256.6c0 .24.092.45.271.618a.848.848 0 0 0 .411.219c.06.011 1.072.017 2.933.017 3.096 0 2.926.006 3.125-.096.107-.054.267-.203.34-.316a.889.889 0 0 0 .001-.888 1.06 1.06 0 0 0-.334-.314c-.2-.1-.023-.095-3.148-.094-2.239.001-2.891.006-2.958.023Zm2.193 3.02a.956.956 0 0 0-.55.45.836.836 0 0 0 .153.967c.064.067.156.14.214.17.196.106.164.104 2.043.104 1.157 0 1.744-.005 1.813-.018a.873.873 0 0 0 .61-.474l.073-.146v-.215c-.001-.184-.007-.23-.04-.313a.939.939 0 0 0-.495-.495l-.098-.04-1.83-.002a61.018 61.018 0 0 0-1.893.012Z" clip-rule="evenodd"/></svg>