<svg xmlns="http://www.w3.org/2000/svg" fill="none" viewBox="0 0 16 16"><g clip-path="url(#a)"><path fill="currentColor" fill-rule="evenodd" d="M5.625.017c-.332.065-.62.374-.67.72a.863.863 0 0 0 .626.945c.152.04 3.592.04 3.744 0a.925.925 0 0 0 .508-.383.887.887 0 0 0-.005-.892 1.088 1.088 0 0 0-.337-.313C9.299-.003 9.341 0 7.444.001c-.959 0-1.778.008-1.82.016Zm6.57.006a.888.888 0 0 0-.637.656c-.014.065-.02 1.819-.02 6.248v6.158l-.713-.71c-.659-.656-.722-.715-.824-.76a.854.854 0 0 0-.953.178.837.837 0 0 0-.165.98c.057.12.115.18 1.516 1.583.8.802 1.49 1.48 1.531 1.508.15.1.248.126.464.126.216 0 .33-.03.47-.127.037-.027.727-.708 1.533-1.515 1.569-1.572 1.524-1.523 1.578-1.754a.825.825 0 0 0-.23-.8.826.826 0 0 0-.8-.23c-.22.052-.239.068-.979.805-.381.38-.698.691-.705.691-.007 0-.012-2.776-.012-6.169 0-5.623-.003-6.176-.028-6.261a1.29 1.29 0 0 0-.07-.178 1.104 1.104 0 0 0-.36-.357.913.913 0 0 0-.597-.072ZM3.393 3.049a.75.75 0 0 0-.386.23.767.767 0 0 0-.255.601c0 .24.091.45.27.618a.848.848 0 0 0 .411.219c.06.011 1.072.017 2.933.017 3.096 0 2.925.005 3.125-.096a1.09 1.09 0 0 0 .34-.317.889.889 0 0 0 .001-.888 1.06 1.06 0 0 0-.334-.313c-.2-.1-.023-.095-3.148-.094-2.238.001-2.89.006-2.957.023ZM.578 6.09a.863.863 0 0 0-.553 1.012.868.868 0 0 0 .645.631c.093.022.663.026 4.297.026 2.936 0 4.22-.005 4.29-.018a.873.873 0 0 0 .611-.474l.072-.146v-.215c0-.184-.006-.23-.04-.313a.939.939 0 0 0-.494-.495l-.098-.04L5 6.055.69 6.051l-.113.04Z" clip-rule="evenodd"/></g><defs><clipPath id="a"><path fill="#fff" d="M0 0h16v16H0z"/></clipPath></defs></svg>