<svg xmlns="http://www.w3.org/2000/svg" fill="none" viewBox="0 0 16 16"><g clip-path="url(#a)"><path fill="currentColor" fill-rule="evenodd" d="M7.462.016C5.76.13 4.192.764 2.845 1.879c-.22.183-.782.745-.964.965C.86 4.075.246 5.485.059 7.024a8 8 0 0 0 1.538 5.771c.25.33.418.523.752.857.333.333.525.502.856.75a7.998 7.998 0 0 0 9.951-.283c.22-.182.782-.744.965-.964a8.002 8.002 0 0 0 .283-9.952 7.02 7.02 0 0 0-.751-.856 7.026 7.026 0 0 0-.856-.751A8.014 8.014 0 0 0 7.462.016Zm.158 1.71a6.299 6.299 0 0 0-3.564 1.376c-.216.172-.78.737-.952.953a6.32 6.32 0 0 0-1.336 3.121 6.3 6.3 0 0 0 .625 3.662 5.868 5.868 0 0 0 1.169 1.6 6.018 6.018 0 0 0 2.447 1.521c1.6.536 3.31.41 4.837-.355a5.88 5.88 0 0 0 1.593-1.166 6.015 6.015 0 0 0 1.522-2.447c.535-1.6.41-3.31-.355-4.837a5.885 5.885 0 0 0-1.167-1.594 6.014 6.014 0 0 0-2.446-1.52 5.945 5.945 0 0 0-1.65-.316 4.57 4.57 0 0 0-.723.001Zm3.395 2.964a.895.895 0 0 0-.374.193c-.038.035-.948 1.163-2.022 2.505a375.238 375.238 0 0 1-1.96 2.44c-.005 0-.365-.266-.8-.592-.457-.343-.834-.613-.894-.641a.83.83 0 0 0-.511-.06 1.19 1.19 0 0 0-.231.074.977.977 0 0 0-.385.403.561.561 0 0 0-.074.29c-.013.257.05.457.196.628.074.087 2.34 1.792 2.466 1.856a.984.984 0 0 0 .386.094c.195 0 .427-.09.566-.218.076-.07 4.49-5.581 4.565-5.698a.72.72 0 0 0 .114-.435.793.793 0 0 0-.114-.445.969.969 0 0 0-.477-.376 1.046 1.046 0 0 0-.451-.018Z" clip-rule="evenodd"/></g><defs><clipPath id="a"><path fill="#fff" d="M0 0h16v16H0z"/></clipPath></defs></svg>