<svg viewBox="0 0 16 16" fill="none" xmlns="http://www.w3.org/2000/svg"><g clip-path="url(#clip0_8874_15281)"><path fill-rule="evenodd" clip-rule="evenodd" d="M9.3046 4.3133 4.5399 9.0799l-.0413-.06c-.3933.3933-1.0267.3933-1.4133.0067-.3934-.3934-.3934-1.0267 0-1.4134l4.7653-4.7666h.0066c.06-.0666.06-.1733 0-.2333l-.5866-.5867a.6451.6451 0 0 1-.1734-.3066C7.004 1.36 7.224 1 7.584.9133V.9127l3.7733-.94c.1-.02.2133-.02.32.0066.3533.0934.5733.4534.4867.8134l.0006.0006-.94 3.7733c-.06.2333-.24.42-.4666.4867-.06.0133-.1134.02-.1734.0266a.6724.6724 0 0 1-.4666-.1933L9.5312 4.3c-.06-.06-.1667-.06-.2266.0066v.0067Zm-2.6107 7.3599 4.7646-4.76-.0666-.0666a1.002 1.002 0 0 1 1.42 0 1.008 1.008 0 0 1 .0066 1.42l-4.7652 4.7666v.0067a.1755.1755 0 0 0 .0066.24l.5933.5866c.0867.0867.1467.1934.18.3134.0934.36-.1266.72-.48.8133l-3.7666.9466c-.0533.0134-.1067.0267-.16.0267a1.2055 1.2055 0 0 1-.16-.0133c-.3533-.0934-.5733-.4534-.48-.8067l.9467-3.7666c.0333-.12.0933-.2267.18-.3067.26-.26.68-.26.9466.0067h.0007l.5933.5933c.0667.06.1734.06.24 0Z" fill="currentColor"/></g><defs><clipPath id="clip0_8874_15281"><path fill="white" d="M-.0007 0h16v16h-16z"/></clipPath></defs></svg>