<svg viewBox="0 0 16 16" fill="none" xmlns="http://www.w3.org/2000/svg"><g clip-path="url(#clip0_8874_15300)" fill="currentColor"><path d="M7.2922 7.9838a1 1 0 0 1-.293-.7071V1a1 1 0 1 1 2 0v6.2767a1 1 0 0 1-1.707.707Z"/><path d="M1.556 12.0948a7.2778 7.2778 0 0 1-.7567-4.4061A7.3433 7.3433 0 0 1 4.612 2.27a1 1 0 1 1 .9607 1.754 5.3613 5.3613 0 0 0-2.798 3.948 5.2359 5.2359 0 0 0 1.4913 4.484 5.2762 5.2762 0 0 0 6.0953.9875 5.276 5.276 0 0 0 2.858-5.4735 5.3643 5.3643 0 0 0-2.8-3.95.9998.9998 0 0 1-.438-1.3777 1.0004 1.0004 0 0 1 1.396-.3757 7.3466 7.3466 0 0 1 3.822 5.418A7.2167 7.2167 0 0 1 13.146 13.87a7.2778 7.2778 0 0 1-11.59-1.7752Z"/></g><defs><clipPath id="clip0_8874_15300"><path fill="white" d="M-.0007 0h16v16h-16z"/></clipPath></defs></svg>