<svg viewBox="0 0 16 16" fill="none" xmlns="http://www.w3.org/2000/svg"><g clip-path="url(#clip0_8874_15280)"><path fill-rule="evenodd" clip-rule="evenodd" d="m7.2953 11.2-3.2-3.2a1.008 1.008 0 0 1 .704-1.6h2.208V1.104a.992.992 0 1 1 1.984 0V6.4h2.208a1.072 1.072 0 0 1 .704.176.9914.9914 0 0 1 .3013.712.9913.9913 0 0 1-.3013.712l-3.2 3.2a1.0082 1.0082 0 0 1-1.408 0Zm6.6554-.9445a1.2 1.2 0 0 1 2.0486.8485v2a2.816 2.816 0 0 1-2.8 2.8h-10.4a2.816 2.816 0 0 1-2.8-2.8v-2a1.1998 1.1998 0 0 1 1.2-1.2 1.1998 1.1998 0 0 1 1.2 1.2v2a.3999.3999 0 0 0 .4.4h10.4a.4.4 0 0 0 .4-.4v-2c0-.3183.1264-.6235.3514-.8485Z" fill="currentColor"/></g><defs><clipPath id="clip0_8874_15280"><path fill="white" d="M-.0007 0h16v16h-16z"/></clipPath></defs></svg>