<svg viewBox="0 0 16 16" fill="none" xmlns="http://www.w3.org/2000/svg"><g clip-path="url(#clip0_8874_15285)"><path d="M4.8456 0a.8.8 0 0 0-.744.5056L1.8248 7.1472A.616.616 0 0 0 2.3992 8H4.812a.4.4 0 0 1 .3856.504L3.4488 15.04a.8.8 0 0 0 1.3504.7248l9.2304-10.2576a.6164.6164 0 0 0-.0827-.959.616.616 0 0 0-.3477-.1034h-3.232a.3998.3998 0 0 1-.3976-.3574.4.4 0 0 1 .0264-.1914l1.12-2.7984A.7998.7998 0 0 0 10.3736 0h-5.528Z" fill="currentColor"/></g><defs><clipPath id="clip0_8874_15285"><path fill="white" d="M-.0007 0h16v16h-16z"/></clipPath></defs></svg>