<svg viewBox="0 0 16 16" fill="none" xmlns="http://www.w3.org/2000/svg"><g clip-path="url(#clip0_8874_15302)" fill="currentColor"><path d="M10.3992 2.8c0 1.3255-1.0745 2.4-2.4 2.4-1.3254 0-2.4-1.0745-2.4-2.4S6.6738.4 7.9992.4c1.3255 0 2.4 1.0745 2.4 2.4ZM11.6633 9.856a.992.992 0 0 1-.88-.528l-1.024-1.872a1.008 1.008 0 1 1 1.76-.96l1.024 1.872a1.0079 1.0079 0 0 1-.4 1.36 1.0721 1.0721 0 0 1-.48.128ZM3.8553 9.728a1.072 1.072 0 0 0 .48.128.992.992 0 0 0 .88-.528l1.024-1.872a1.008 1.008 0 0 0-1.76-.96l-1.024 1.872a1.008 1.008 0 0 0 .4 1.36ZM7.1993 14.208h1.6a1.0081 1.0081 0 0 0 1.008-1.008 1.0078 1.0078 0 0 0-1.008-1.008h-1.6a1.0078 1.0078 0 0 0-1.008 1.008 1.008 1.008 0 0 0 1.008 1.008ZM2.3993 15.6c1.3254 0 2.4-1.0745 2.4-2.4s-1.0745-2.4-2.4-2.4-2.4 1.0745-2.4 2.4 1.0745 2.4 2.4 2.4ZM15.9992 13.2c0 1.3255-1.0745 2.4-2.4 2.4s-2.4-1.0745-2.4-2.4 1.0745-2.4 2.4-2.4 2.4 1.0745 2.4 2.4Z"/></g><defs><clipPath id="clip0_8874_15302"><path fill="white" d="M-.0007 0h16v16h-16z"/></clipPath></defs></svg>