<svg viewBox="0 0 16 16" fill="none" xmlns="http://www.w3.org/2000/svg"><g clip-path="url(#clip0_8874_15310)"><path fill-rule="evenodd" clip-rule="evenodd" d="m8.7033.4 3.1999 3.2a.9752.9752 0 0 1 0 1.408.9907.9907 0 0 1-.704.288h-2.208v5.264a.9918.9918 0 0 1-1.6934.7014.9918.9918 0 0 1-.2905-.7014V5.296h-2.208a.992.992 0 0 1-.704-1.696l3.2-3.2a.976.976 0 0 1 1.408 0Zm5.2474 9.8555a1.2 1.2 0 0 1 2.0486.8485v2a2.816 2.816 0 0 1-2.8 2.8h-10.4a2.816 2.816 0 0 1-2.8-2.8v-2a1.1998 1.1998 0 0 1 1.2-1.2 1.1998 1.1998 0 0 1 1.2 1.2v2a.3999.3999 0 0 0 .4.4h10.4a.4.4 0 0 0 .4-.4v-2c0-.3183.1264-.6235.3514-.8485Z" fill="currentColor"/></g><defs><clipPath id="clip0_8874_15310"><path fill="white" d="M-.0007 0h16v16h-16z"/></clipPath></defs></svg>