<svg viewBox="0 0 16 16" fill="none" xmlns="http://www.w3.org/2000/svg"><path fill-rule="evenodd" clip-rule="evenodd" d="M8.9991 1.001a.9999.9999 0 0 0 0 1.9996h1.4998a.5002.5002 0 0 1 .5.5v5.9992H9.4991a.5.5 0 0 0-.354.8539l2.4997 2.4997a.5006.5006 0 0 0 .354.1468.5003.5003 0 0 0 .3539-.1468l2.4997-2.4997a.5001.5001 0 0 0-.354-.8539h-1.4998V3.5006a2.4995 2.4995 0 0 0-2.4997-2.4997H8.9991ZM4.3537 3.1465a.4998.4998 0 0 0-.7079 0L1.1461 5.6463a.5.5 0 0 0 .354.8539h1.4998v5.9992a2.4998 2.4998 0 0 0 2.4997 2.4997h1.4998a1 1 0 0 0 0-1.9997H5.4996a.4998.4998 0 0 1-.5-.5V6.5002h1.4999a.5.5 0 0 0 .354-.8539L4.3536 3.1466Z" fill="currentColor"/></svg>