<svg xmlns="http://www.w3.org/2000/svg" fill="none" viewBox="0 0 16 16"><g clip-path="url(#a)"><path fill="currentColor" fill-rule="evenodd" d="M7.462.016C5.76.13 4.192.764 2.845 1.879c-.22.183-.782.745-.964.965C.86 4.075.246 5.485.059 7.024a8 8 0 0 0 1.538 5.771c.25.33.418.523.752.857.333.333.525.502.856.75a7.998 7.998 0 0 0 9.951-.283c.22-.182.782-.744.965-.964a8.002 8.002 0 0 0 .283-9.952 7.02 7.02 0 0 0-.751-.856 7.026 7.026 0 0 0-.856-.751A8.014 8.014 0 0 0 7.462.016Zm.158 1.71a6.299 6.299 0 0 0-3.564 1.376c-.216.172-.78.737-.952.953a6.32 6.32 0 0 0-1.336 3.121 6.3 6.3 0 0 0 .625 3.662 5.868 5.868 0 0 0 1.169 1.6 6.018 6.018 0 0 0 2.447 1.521c1.6.536 3.31.41 4.837-.355a5.88 5.88 0 0 0 1.593-1.166 6.015 6.015 0 0 0 1.522-2.447c.535-1.6.41-3.31-.355-4.837a5.885 5.885 0 0 0-1.167-1.594 6.014 6.014 0 0 0-2.446-1.52 5.945 5.945 0 0 0-1.65-.316 4.57 4.57 0 0 0-.723.001Zm.157 2.15a.874.874 0 0 0-.606.613c-.039.149-.038 3.847.001 3.997.063.242.252.47.47.567.232.104.507.1.743-.012.117-.055.3-.233.365-.355.11-.207.106-.11.106-2.2 0-2.06.003-1.988-.094-2.179a1.027 1.027 0 0 0-.326-.343A.89.89 0 0 0 8 3.846c-.061 0-.162.013-.224.03Zm.042 6.028c-.252.048-.41.127-.587.294a1.04 1.04 0 0 0-.355.76c-.01.22.022.386.105.555a1.13 1.13 0 0 0 1.724.394 1.14 1.14 0 0 0 .236-1.513 1.393 1.393 0 0 0-.4-.367 1.179 1.179 0 0 0-.723-.123Z" clip-rule="evenodd"/></g><defs><clipPath id="a"><path fill="#fff" d="M0 0h16v16H0z"/></clipPath></defs></svg>