<svg xmlns="http://www.w3.org/2000/svg" fill="none" viewBox="0 0 16 16"><g clip-path="url(#a)"><path fill="currentColor" fill-rule="evenodd" d="M7.78.025c-.218.06-.196.039-1.765 1.61C4.654 3 4.53 3.128 4.482 3.23a.859.859 0 0 0 .94 1.213c.05-.009.15-.045.22-.08.12-.058.173-.106.816-.746l.688-.685v3.966c0 4.343-.007 4.056.099 4.254.068.128.252.304.384.367.23.11.513.11.743 0 .133-.063.317-.239.385-.367.105-.198.099.089.099-4.254V2.932l.688.685c.643.64.696.688.816.747.07.034.17.07.22.08a.859.859 0 0 0 .94-1.214c-.049-.103-.172-.23-1.533-1.594C8.409.056 8.44.083 8.214.025a.972.972 0 0 0-.433 0ZM1.756 12.112a.878.878 0 0 0-.644.696c-.04.262.038.798.17 1.166a3.052 3.052 0 0 0 2.591 2.008c.26.025 7.998.025 8.258 0a3.06 3.06 0 0 0 2.728-2.53c.032-.19.05-.535.032-.649a.874.874 0 0 0-.702-.702.863.863 0 0 0-.91.468c-.066.135-.072.167-.097.46a1.33 1.33 0 0 1-.159.563c-.178.317-.52.579-.861.659-.128.03-.317.03-4.16.03-3.813 0-4.033 0-4.157-.03a1.378 1.378 0 0 1-.966-.895 1.718 1.718 0 0 1-.058-.345c-.022-.267-.054-.387-.137-.515a.856.856 0 0 0-.928-.384Z" clip-rule="evenodd"/></g><defs><clipPath id="a"><path fill="#fff" d="M0 0h16v16H0z"/></clipPath></defs></svg>