<svg viewBox="0 0 16 16" fill="none" xmlns="http://www.w3.org/2000/svg"><g clip-path="url(#clip0_8874_15348)"><path fill-rule="evenodd" clip-rule="evenodd" d="M11.8512 8.8257a1.1972 1.1972 0 0 1-.3516-.848 1.199 1.199 0 0 1 .3516-.848l1.12-1.128a2.1247 2.1247 0 0 0 0-3.0016 2.1712 2.1712 0 0 0-3.0016 0 1.2 1.2 0 0 1-1.6912-1.6976 4.64 4.64 0 0 1 6.4 0 4.5296 4.5296 0 0 1 0 6.4l-1.12 1.12a1.1986 1.1986 0 0 1-1.7072.0032ZM1.3248 14.6528a4.5295 4.5295 0 0 1 0-6.4l.784-.7824a1.2 1.2 0 0 1 1.696 1.696l-.7824.784a2.1195 2.1195 0 0 0-.6227 1.5008 2.12 2.12 0 0 0 .6227 1.5008 2.173 2.173 0 0 0 3.0016 0 1.2002 1.2002 0 0 1 .85-.3511 1.2008 1.2008 0 0 1 1.1094.7427 1.2018 1.2018 0 0 1-.2618 1.3092 4.521 4.521 0 0 1-3.1984 1.3261 4.521 4.521 0 0 1-3.1984-1.3261ZM2.6832 3.552l8.8 10.4a1.1999 1.1999 0 0 0 1.6912.1424 1.2001 1.2001 0 0 0 .1424-1.6912l-8.8-10.4A1.2 1.2 0 0 0 2.6832 3.552Z" fill="currentColor"/></g><defs><clipPath id="clip0_8874_15348"><path fill="white" d="M0 0h16v16H0z"/></clipPath></defs></svg>