<svg viewBox="0 0 16 16" fill="none" xmlns="http://www.w3.org/2000/svg"><path fill-rule="evenodd" clip-rule="evenodd" d="M2.3333 1H1c-.5533 0-1 .4467-1 1v1.3333c0 .5467.4467 1 1 1h1.3333c.5467 0 1-.4533 1-1V2c0-.5533-.4533-1-1-1Zm12.9999 2.3333H5.6666A.6644.6644 0 0 1 5 2.6667C5 2.2933 5.2933 2 5.6665 2h9.6666a.6643.6643 0 0 1 .6666.6667c0 .3666-.3.6666-.6666.6666Zm-9.6666 4h9.6666a.6643.6643 0 0 1 .6666.6666c0 .3667-.3.6667-.6666.6667H5.6666A.6643.6643 0 0 1 5 7.9999c0-.3733.2933-.6667.6666-.6667Zm9.6666 5.3332H5.6666c-.3733 0-.6666.2933-.6666.6667 0 .3666.2933.6666.6666.6666h9.6666c.3666 0 .6666-.3.6666-.6666 0-.3734-.3-.6667-.6666-.6667ZM2.3333 6.3333H1c-.5533 0-1 .4466-1 1v1.3333c0 .5466.4467 1 1 1h1.3333c.5467 0 1-.4534 1-1V7.3332c0-.5533-.4533-1-1-1Zm0 5.3332H1c-.5533 0-1 .4467-1 1v1.3333c0 .5467.4467 1 1 1h1.3333c.5467 0 1-.4533 1-1v-1.3333c0-.5533-.4533-1-1-1Z" fill="currentColor"/></svg>