<svg viewBox="0 0 16 16" fill="none" xmlns="http://www.w3.org/2000/svg"><g clip-path="url(#clip0_8874_15346)"><path d="M14.8 0H6a1.2 1.2 0 0 0 0 2.4h2.704L4.752 13.6H1.2A1.1998 1.1998 0 0 0 0 14.8 1.1998 1.1998 0 0 0 1.2 16H10c.3183 0 .6235-.1264.8485-.3515a1.1996 1.1996 0 0 0 0-1.697A1.1996 1.1996 0 0 0 10 13.6H7.296l3.952-11.2H14.8A1.1998 1.1998 0 0 0 16 1.2 1.1998 1.1998 0 0 0 14.8 0Z" fill="currentColor"/></g><defs><clipPath id="clip0_8874_15346"><path fill="white" d="M0 0h16v16H0z"/></clipPath></defs></svg>