<svg viewBox="0 0 16 16" fill="none" xmlns="http://www.w3.org/2000/svg"><g clip-path="url(#clip0_8874_15349)"><path fill-rule="evenodd" clip-rule="evenodd" d="M2.5 3.4987h.1666l-.0066-.012c.2733 0 .5.22.5.5 0 .2733-.2267.5-.5.5H.9933c-.28 0-.5-.2267-.5-.5 0-.28.22-.5.5-.5H1.16c.0867 0 .1667-.08.1667-.1667v-2h.0066c0-.0866-.08-.1666-.1666-.16H1C.72 1.16.5.9334.5.66c0-.28.22-.5.5-.5h.4167c.5033 0 .91.4134.9166.92v2.252c0 .0867.0734.1667.1667.1667ZM15.1665 3H5.1666A.6644.6644 0 0 1 4.5 2.3333c0-.3733.2933-.6667.6666-.6667h9.9999a.6644.6644 0 0 1 .6667.6667c0 .3666-.3.6667-.6667.6667ZM5.1666 7.3331h9.9999A.6644.6644 0 0 1 15.8332 8c0 .3667-.3.6667-.6667.6667H5.1666A.6643.6643 0 0 1 4.5 7.9999c0-.3733.2933-.6667.6666-.6667ZM15.1665 13H5.1666c-.3733 0-.6666.2933-.6666.6666 0 .3667.2933.6667.6666.6667h9.9999c.3667 0 .6667-.3.6667-.6667 0-.3733-.3-.6666-.6667-.6666ZM.18 12.4799c.16-.5866.6867-.9933 1.2933-.9866l-.06-.0547c.26 0 .52.08.74.2267.6133.4066.78 1.2399.3733 1.8533-.04.0533-.04.1266 0 .1866.08.1134.14.2467.18.3867.1934.7133-.22 1.4467-.9266 1.6467-.7133.1933-1.4467-.22-1.64-.9267-.0067-.0133-.0067-.02-.0067-.0267-.0666-.2666.0934-.54.3667-.6a.4987.4987 0 0 1 .6066.3667h.006c.04.1467.1734.24.3267.2467a.3389.3389 0 0 0 .34-.3267c0-.1867-.1467-.3333-.3267-.3333-.28 0-.5-.2267-.5-.5 0-.28.22-.5.5-.5.1534 0 .2867-.1.3267-.24.0467-.18-.06-.36-.2333-.4067a.332.332 0 0 0-.4067.24c-.0666.2613-.34.4213-.6066.3547a.4905.4905 0 0 1-.3534-.6067H.18Zm2.6533-5.32c0-.74-.6-1.3332-1.3333-1.3332C.76 5.8267.1667 6.42.1667 7.16c0 .2733.22.5.5.5.2733 0 .5-.2267.5-.5A.3301.3301 0 0 1 1.5 6.8266c.18 0 .3333.1467.3333.3334-.0066.1533-.06.3066-.1533.4266L.2733 9.34c-.1733.2133-.14.5266.0734.7a.5037.5037 0 0 0 .3066.1066H2.32c.2733 0 .5-.2266.5-.5 0-.28-.2267-.5-.5-.5h-.28c-.0934 0-.1667-.0733-.1734-.1666A.123.123 0 0 1 1.9 8.8733l.54-.68c.2333-.3067.3666-.6733.3666-1.06l.0267.0267Z" fill="currentColor"/></g><defs><clipPath id="clip0_8874_15349"><path fill="white" d="M0 0h16v16H0z"/></clipPath></defs></svg>