<svg viewBox="0 0 16 16" fill="none" xmlns="http://www.w3.org/2000/svg"><g clip-path="url(#clip0_8874_15350)"><path fill-rule="evenodd" clip-rule="evenodd" d="M11.552 9.2352a1.1993 1.1993 0 0 1-.3517-.8488 1.1991 1.1991 0 0 1 .3517-.8488l1.928-1.928a.4112.4112 0 0 0 0-.5808l-2.5232-2.5232a.347.347 0 0 0-.5792 0L8.448 4.4352a1.2 1.2 0 0 1-1.696-1.6976L8.68.8096a2.88 2.88 0 0 1 3.9728 0l2.5248 2.5232a2.8142 2.8142 0 0 1 0 3.9728L13.248 9.2352a1.1985 1.1985 0 0 1-1.696 0Zm-8.2048 5.928L.8224 12.64a2.8162 2.8162 0 0 1 0-3.9745l1.9296-1.92a1.2 1.2 0 1 1 1.696 1.6897l-1.92 1.928a.4094.4094 0 0 0 0 .5792l2.5152 2.5232a.3454.3454 0 0 0 .4543.1152.3454.3454 0 0 0 .1249-.1152l1.9296-1.92a1.1997 1.1997 0 0 1 1.635.0548 1.1999 1.1999 0 0 1 .061 1.6348l-1.92 1.928a2.8082 2.8082 0 0 1-3.9808 0Zm2.3445-5.5175c.0603.1457.1488.278.2603.3894a1.199 1.199 0 0 0 1.696 0l2.4-2.4a1.2 1.2 0 0 0-1.696-1.6976l-2.4 2.4a1.2 1.2 0 0 0-.2603 1.3082Z" fill="currentColor"/></g><defs><clipPath id="clip0_8874_15350"><path fill="white" d="M0 0h16v16H0z"/></clipPath></defs></svg>