<svg viewBox="0 0 16 16" fill="none" xmlns="http://www.w3.org/2000/svg"><g clip-path="url(#clip0_8874_15347)"><path d="M11.9776 7.4288a4.3895 4.3895 0 0 0 1.1521-2.2521A4.3894 4.3894 0 0 0 11.2244.7223 4.3888 4.3888 0 0 0 8.8 0h-4A2.8032 2.8032 0 0 0 2 2.8v10.56a2.7204 2.7204 0 0 0 1.7528 2.4639c.3341.1269.69.1868 1.0472.1761h4a5.0174 5.0174 0 0 0 5.2-4.8 4.6596 4.6596 0 0 0-2.0224-3.7712ZM4.4 2.8a.4.4 0 0 1 .4-.4h4a2 2 0 0 1 0 4h-4a.4.4 0 0 1-.4-.4V2.8Zm4.4 10.8h-4c-.24 0-.4-.144-.4-.24V9.2a.4.4 0 0 1 .4-.4h4a2.6256 2.6256 0 0 1 2.8 2.4 2.6253 2.6253 0 0 1-2.8 2.4Z" fill="currentColor"/></g><defs><clipPath id="clip0_8874_15347"><path fill="white" d="M0 0h16v16H0z"/></clipPath></defs></svg>