<svg xmlns="http://www.w3.org/2000/svg" fill="none" viewBox="0 0 16 16"><g clip-path="url(#a)"><path fill="currentColor" fill-rule="evenodd" d="M8.818.571a1.885 1.885 0 0 0-1.54 1.51c-.017.089-.022.708-.022 2.84 0 3.043-.008 2.83.119 3.168A1.885 1.885 0 0 0 8.82 9.263c.094.015.849.019 2.88.015l2.753-.006.159-.047a1.887 1.887 0 0 0 1.342-1.423c.035-.151.036-.189.042-2.718.006-2.617.002-2.874-.058-3.116a1.879 1.879 0 0 0-1.57-1.405C14.157.533 9.01.541 8.817.571Zm.148 1.51a.397.397 0 0 0-.197.22c-.013.046-.017.82-.013 2.656l.005 2.591.046.07a.462.462 0 0 0 .129.12l.081.047 2.564.005c2.887.005 2.684.014 2.81-.123a.425.425 0 0 0 .084-.124c.007-.027.013-1.214.013-2.638v-2.59l-.043-.077a.466.466 0 0 0-.117-.128l-.074-.052-2.61-.004c-2.495-.004-2.613-.003-2.678.027ZM1.558 3.36c-.5.084-.963.388-1.243.818a1.812 1.812 0 0 0-.298.883c-.023.255-.023 2.222 0 2.5a1.866 1.866 0 0 0 1.37 1.665l.16.046 1.373.006c1.206.005 1.392.002 1.52-.022a1.859 1.859 0 0 0 1.5-1.562c.037-.242.037-2.533 0-2.776a1.862 1.862 0 0 0-1.549-1.559c-.226-.037-2.614-.036-2.833.001Zm.168 1.504a.35.35 0 0 0-.177.17c-.037.068-.037.072-.037 1.282 0 1.358-.009 1.259.125 1.38a.33.33 0 0 0 .16.081c.066.015.414.019 1.245.015l1.154-.006.082-.048a.463.463 0 0 0 .128-.118l.047-.07.005-1.199c.003-.834 0-1.217-.014-1.262a.397.397 0 0 0-.196-.22c-.065-.03-.144-.031-1.266-.03-1.03 0-1.205.003-1.256.025Zm-.104 5.172a1.882 1.882 0 0 0-1.468 1.13c-.144.356-.155.483-.155 1.82 0 1.137.012 1.395.078 1.626a1.894 1.894 0 0 0 1.294 1.294c.23.066.489.078 1.627.078 1.336 0 1.463-.011 1.818-.155a1.853 1.853 0 0 0 1.125-1.452c.036-.24.036-2.533 0-2.774a1.867 1.867 0 0 0-1.561-1.56c-.136-.02-.395-.025-1.406-.023-.682 0-1.29.008-1.352.016Zm7.196.008a1.844 1.844 0 0 0-1.002.51c-.309.3-.497.677-.55 1.104-.025.2-.024 2.472 0 2.676.095.77.654 1.4 1.41 1.59.195.048.495.06 1.54.06 1.138 0 1.396-.012 1.626-.078a1.871 1.871 0 0 0 1.354-1.644c.022-.249.023-2.29.002-2.529a1.826 1.826 0 0 0-.317-.895 1.858 1.858 0 0 0-1.312-.803c-.221-.028-2.565-.02-2.751.009ZM1.743 11.54a.41.41 0 0 0-.193.174l-.038.072V13c0 1.335-.006 1.254.105 1.365.111.111.03.105 1.365.105h1.214l.076-.043a.467.467 0 0 0 .129-.117l.052-.074.005-1.2c.003-.832 0-1.218-.014-1.263a.397.397 0 0 0-.196-.22c-.065-.03-.144-.031-1.266-.03-.744 0-1.212.006-1.239.017Zm7.223.013a.398.398 0 0 0-.197.22c-.013.045-.017.428-.013 1.264l.005 1.2.052.073a.459.459 0 0 0 .128.117l.076.043h1.214c1.336 0 1.254.006 1.366-.105.11-.111.104-.03.104-1.365v-1.214l-.042-.076a.467.467 0 0 0-.117-.129l-.074-.052-1.217-.004c-1.148-.004-1.22-.002-1.285.028Z" clip-rule="evenodd"/></g><defs><clipPath id="a"><path fill="#fff" d="M0 0h16v16H0z"/></clipPath></defs></svg>