<svg xmlns="http://www.w3.org/2000/svg" fill="none" viewBox="0 0 16 16"><g clip-path="url(#a)"><path fill="currentColor" fill-rule="evenodd" d="M1.691.03A2.007 2.007 0 0 0 .03 1.707c-.04.266-.04 4.23 0 4.496A2 2 0 0 0 1.706 7.88c.158.025.46.028 2.332.022 2.399-.007 2.242.002 2.593-.136A1.985 1.985 0 0 0 7.767 6.63c.122-.308.128-.363.137-1.154l.007-.712h.932l.008.354c.007.307.015.378.057.538a2.02 2.02 0 0 0 1.437 1.436c.16.043.23.05.538.058l.354.008v.934h-.64c-.473 0-.681.007-.805.027A1.995 1.995 0 0 0 8.12 9.791c-.02.124-.027.332-.027.806v.639H7.008v-.126c0-.24-.091-.626-.197-.84a2.078 2.078 0 0 0-1.213-1.038c-.274-.085-.394-.092-1.486-.092-1.122 0-1.258.01-1.531.103-.319.11-.586.278-.808.51-.32.334-.505.726-.556 1.177-.026.232-.026 1.998 0 2.23a2.005 2.005 0 0 0 1.745 1.77c.254.032 2.12.026 2.34-.007a2 2 0 0 0 1.7-1.871l.011-.198h1.08v.639c0 .695.015.864.103 1.124a2.003 2.003 0 0 0 1.602 1.354c.266.04 4.23.04 4.495 0a2.006 2.006 0 0 0 1.679-1.678c.04-.267.04-4.23 0-4.496a2.001 2.001 0 0 0-1.666-1.677c-.132-.021-.327-.028-.812-.028h-.64v-.934l.355-.008c.422-.01.606-.05.906-.197.536-.262.91-.715 1.072-1.303l.049-.178V2.438l-.05-.179a2.038 2.038 0 0 0-1.44-1.444l-.183-.05h-3.034l-.179.05a2.007 2.007 0 0 0-1.303 1.07c-.146.3-.186.485-.196.907l-.008.354h-.934v-.64c0-.484-.007-.68-.028-.811A2.001 2.001 0 0 0 6.203.029C5.95-.009 1.937-.008 1.691.03Zm.16 1.625a.474.474 0 0 0-.124.087c-.112.12-.106-.003-.106 2.217 0 1.934.002 2.03.034 2.101.02.04.058.096.087.123.12.113-.002.107 2.218.107 1.934 0 2.03-.002 2.1-.035a.474.474 0 0 0 .124-.087c.113-.12.107.002.107-2.213s.006-2.093-.107-2.213a.474.474 0 0 0-.123-.087c-.07-.033-.167-.034-2.105-.034-1.94 0-2.035.001-2.106.034Zm8.824.753a.382.382 0 0 0-.195.218c-.02.055-.025.325-.025 1.329 0 1.172.003 1.265.034 1.346.038.1.125.183.227.22.057.02.318.024 1.34.024h1.269l.09-.047a.438.438 0 0 0 .148-.125l.055-.08V2.616l-.055-.078a.463.463 0 0 0-.137-.12l-.08-.043h-1.299c-1.22 0-1.302.002-1.372.034Zm-6.11 1.2c-.323.04-.609.22-.794.504-.126.193-.153.294-.154.578-.002.285.02.381.131.567.303.51.925.695 1.458.433a1.18 1.18 0 0 0 .484-.485A1.098 1.098 0 0 0 5.5 3.94a1.08 1.08 0 0 0-.935-.332ZM9.94 9.745a.474.474 0 0 0-.123.087c-.112.12-.106-.003-.106 2.217 0 1.934.002 2.031.035 2.101.018.04.057.096.086.123.12.113-.002.107 2.218.107 1.934 0 2.03-.002 2.101-.035a.473.473 0 0 0 .123-.087c.113-.12.107.002.107-2.213s.006-2.093-.107-2.213a.474.474 0 0 0-.123-.087c-.07-.033-.166-.034-2.105-.034-1.94 0-2.035.001-2.106.034Zm-6.895 1.047a.42.42 0 0 0-.21.237c-.026.094-.026 1.938 0 2.032a.42.42 0 0 0 .21.237c.069.03.146.033 1.058.033s.989-.002 1.057-.033a.502.502 0 0 0 .213-.217c.022-.06.022-2.012 0-2.072a.502.502 0 0 0-.213-.217c-.068-.03-.145-.033-1.057-.033-.912 0-.99.002-1.058.033Z" clip-rule="evenodd"/></g><defs><clipPath id="a"><path fill="#fff" d="M0 0h16v16H0z"/></clipPath></defs></svg>