<svg xmlns="http://www.w3.org/2000/svg" fill="none" viewBox="0 0 16 16"><g clip-path="url(#a)"><path fill="currentColor" fill-rule="evenodd" d="M3.923.015C3.2.075 2.556.592 2.325 1.297c-.087.265-.088.274-.088 2.148 0 1.643.002 1.753.031 1.847a.75.75 0 0 0 .832.52c.276-.043.501-.236.607-.523.02-.058.026-.335.034-1.804.009-1.602.012-1.74.04-1.79a.404.404 0 0 1 .227-.175C4.06 1.507 5.11 1.5 7.56 1.5h3.477l1.732 1.732 1.73 1.731v4.593c0 5.105.01 4.704-.116 4.827-.125.123.157.114-3.783.114-3.39 0-3.558.002-3.653.032a.75.75 0 0 0-.52.83c.05.324.32.585.647.627.169.022 6.959.02 7.209-.002a1.85 1.85 0 0 0 1.518-1.034c.114-.232.165-.422.187-.697.013-.155.017-1.71.013-4.98-.005-4.461-.007-4.76-.035-4.838a1.206 1.206 0 0 0-.074-.163C15.835 4.175 11.875.206 11.757.13a1.1 1.1 0 0 0-.18-.09L11.48.006 7.787.003C5.755.002 4.017.007 3.923.015Zm-.07 6.346a.76.76 0 0 0-.465.254c-.119.138-3.183 4.053-3.25 4.152a.698.698 0 0 0-.127.43.68.68 0 0 0 .125.405c.115.168 3.203 4.071 3.296 4.167a.745.745 0 0 0 1.026.033c.104-.093 3.308-4.163 3.368-4.277a.731.731 0 0 0-.057-.776c-.036-.05-.788-1.012-1.672-2.14C5.09 7.327 4.464 6.542 4.42 6.51a.788.788 0 0 0-.567-.148Zm-.851 3.177a76.637 76.637 0 0 0-.957 1.233c-.004.017 1.862.683 1.914.683.02 0 1.921-.66 1.929-.67a235.12 235.12 0 0 0-1.91-2.436c-.02-.02-.161.15-.976 1.19Zm-.087 3.169a57.226 57.226 0 0 0 1.046 1.312c.014 0 1.052-1.317 1.044-1.324a6.512 6.512 0 0 0-.39.13c-.452.16-.586.193-.723.178-.116-.013-.132-.018-.617-.187-.205-.071-.367-.12-.36-.109Z" clip-rule="evenodd"/></g><defs><clipPath id="a"><path fill="#fff" d="M0 0h16v16H0z"/></clipPath></defs></svg>