<svg xmlns="http://www.w3.org/2000/svg" fill="none" viewBox="0 0 16 16"><path fill="currentColor" fill-rule="evenodd" d="M2.734.593C1.45.793.408 1.735.097 2.973c-.095.382-.09.009-.096 5.742-.004 3.88 0 5.354.015 5.48.03.243.078.406.191.638.242.495.651.854 1.175 1.03.312.104.203.101 3.917.101 2.32 0 3.463-.006 3.56-.02a2.003 2.003 0 0 0 1.68-1.478c.019-.071.04-.169.047-.216l.011-.087 1.301-.007c1.384-.008 1.348-.006 1.724-.103a3.212 3.212 0 0 0 2.135-1.873c.183-.453.237-.746.237-1.294 0-.385-.017-.549-.083-.819a3.077 3.077 0 0 0-1.374-1.865c-.244-.15-.55-.28-.829-.351a3.47 3.47 0 0 0-.61-.093h-.092V6.97l.74-.006c.717-.005.744-.007.842-.047a.915.915 0 0 0 .475-.487c.029-.072.032-.232.036-1.955l.005-1.876.383-.387c.421-.426.467-.491.502-.72a.81.81 0 0 0-.57-.901.892.892 0 0 0-.612.066c-.057.028-.556.515-1.676 1.635-1.502 1.5-1.599 1.601-1.653 1.717-.032.07-.065.18-.075.252-.01.077-.016.849-.012 1.956l.006 1.827.04.148c.134.474.445.844.876 1.04.175.079.319.11.646.137.487.04.716.14 1.013.44.184.185.284.35.362.6.038.124.043.173.043.478 0 .366-.013.446-.103.668a1.408 1.408 0 0 1-.31.477 1.592 1.592 0 0 1-.722.46c-.133.04-.15.04-1.381.047l-1.246.006-.006-4.55-.006-4.55-.04-.212A3.232 3.232 0 0 0 8.19.658C7.81.562 7.852.563 5.285.566 3.363.567 2.863.573 2.734.593Zm.304 1.59a1.567 1.567 0 0 0-1.256.874c-.132.269-.15.35-.16.75l-.01.345h7.383v-.256c0-.546-.122-.884-.442-1.223a1.517 1.517 0 0 0-.995-.49c-.216-.022-4.31-.022-4.52 0ZM13.24 4.46l-.234.235v.653h.479v-.562c0-.308-.003-.56-.006-.56-.002 0-.11.105-.239.234ZM1.616 6.764v.994h7.379V5.771H1.616v.994Zm0 4.932c0 2.072.003 2.345.029 2.406.038.09.11.167.201.208.07.033.203.035 3.46.035 3.253 0 3.388-.002 3.46-.035a.423.423 0 0 0 .208-.24c.015-.05.02-.704.02-2.39V9.359H1.617v2.337Zm1.47-1.233c-.338.042-.635.345-.68.695-.022.17-.02 1.253.002 1.412a.8.8 0 0 0 .797.69.795.795 0 0 0 .767-.567c.033-.109.036-.172.036-.829 0-.535-.006-.734-.025-.803a.804.804 0 0 0-.898-.598Z" clip-rule="evenodd"/></svg>