<svg xmlns="http://www.w3.org/2000/svg" fill="none" viewBox="0 0 16 16"><g clip-path="url(#a)"><path fill="currentColor" fill-rule="evenodd" d="M1.845.02C1.056.108.363.681.109 1.455-.004 1.798 0 1.446 0 7.999c0 5.057.004 6.02.026 6.183a2.098 2.098 0 0 0 1.85 1.798c.247.026 12 .026 12.248 0a2.1 2.1 0 0 0 1.856-1.857c.027-.247.027-12 0-12.248A2.1 2.1 0 0 0 14.125.018C13.901-.006 2.061-.004 1.845.02Zm.193 1.833c-.1.023-.179.122-.193.24-.006.055-.009 2.75-.006 5.992l.006 5.893.038.05c.02.028.06.068.088.09l.05.037H13.98l.05-.038a.522.522 0 0 0 .089-.088l.038-.051V2.02l-.038-.05a.523.523 0 0 0-.089-.089l-.05-.038-5.94-.003a610.21 610.21 0 0 0-6.002.013Zm9.197 2.595a.96.96 0 0 0-.401.207 206.92 206.92 0 0 0-2.17 2.688 402.32 402.32 0 0 1-2.104 2.62c-.005 0-.39-.287-.857-.637-.49-.368-.896-.658-.96-.688a.89.89 0 0 0-.548-.064c-.08.016-.192.052-.248.08-.15.072-.328.258-.414.432a.602.602 0 0 0-.078.312c-.015.275.052.49.21.673.08.094 2.51 1.923 2.646 1.992.114.057.292.1.414.1a.97.97 0 0 0 .608-.233c.081-.075 4.818-5.99 4.898-6.115a.772.772 0 0 0 .122-.467.85.85 0 0 0-.122-.477 1.04 1.04 0 0 0-.511-.404 1.122 1.122 0 0 0-.485-.02Z" clip-rule="evenodd"/></g><defs><clipPath id="a"><path fill="#fff" d="M0 0h16v16H0z"/></clipPath></defs></svg>