<svg xmlns="http://www.w3.org/2000/svg" fill="none" viewBox="0 0 16 16"><g clip-path="url(#a)"><path fill="currentColor" fill-rule="evenodd" d="M7.777.03a.874.874 0 0 0-.605.613c-.023.085-.026.604-.026 4.064v3.967l-.67-.67c-.728-.724-.804-.787-1.005-.833a.827.827 0 0 0-.823.232.843.843 0 0 0-.167.97c.05.106.153.213 1.523 1.585 1.03 1.032 1.497 1.489 1.565 1.53a.87.87 0 0 0 .864 0c.067-.041.535-.498 1.565-1.53 1.37-1.372 1.473-1.48 1.522-1.585a.883.883 0 0 0 0-.745 1.047 1.047 0 0 0-.366-.385.898.898 0 0 0-.827.007c-.069.039-.287.244-.783.738l-.688.685V4.707c0-4.317.006-4.05-.094-4.246A1.027 1.027 0 0 0 8.436.12.89.89 0 0 0 8 0c-.061 0-.162.014-.224.03ZM1.755 12.112a.878.878 0 0 0-.644.696c-.04.262.038.798.17 1.166a3.051 3.051 0 0 0 2.591 2.008c.26.025 7.998.025 8.257 0a3.06 3.06 0 0 0 2.729-2.53c.032-.19.05-.535.032-.649a.874.874 0 0 0-.702-.702.863.863 0 0 0-.91.468c-.066.135-.072.167-.097.46-.02.229-.069.402-.16.563a1.417 1.417 0 0 1-.86.659c-.128.03-.317.03-4.16.03-3.813 0-4.033 0-4.157-.03a1.379 1.379 0 0 1-.966-.895 1.72 1.72 0 0 1-.058-.345c-.022-.267-.054-.387-.136-.515a.856.856 0 0 0-.93-.384Z" clip-rule="evenodd"/></g><defs><clipPath id="a"><path fill="#fff" d="M0 0h16v16H0z"/></clipPath></defs></svg>