<svg xmlns="http://www.w3.org/2000/svg" fill="none" viewBox="0 0 16 16"><g clip-path="url(#a)"><path fill="currentColor" fill-rule="evenodd" d="M2.742.023A1.965 1.965 0 0 0 1.43.87a1.978 1.978 0 0 0-.297.7c-.029.122-.03.393-.036 5.14l-.005 5.01-.54 1.618c-.427 1.286-.54 1.644-.549 1.74a.84.84 0 0 0 .256.678.832.832 0 0 0 .645.242c.088-.006.814-.18 2.287-.55l2.16-.54h4.355c2.606 0 4.423-.007 4.523-.017a1.95 1.95 0 0 0 1.75-1.662c.021-.142.024-.96.02-5.865l-.005-5.7-.038-.144c-.11-.413-.25-.659-.533-.942-.284-.283-.53-.422-.942-.533l-.145-.038L8.608.003C3.845 0 2.856.003 2.742.023Zm.223 1.708a.346.346 0 0 0-.094.069l-.043.046L2.82 6.92l-.009 5.073-.038.12c-.02.065-.165.5-.32.965-.155.464-.28.847-.278.85.002.002.662-.163 1.466-.367l1.461-.37 4.526-.009 4.526-.01.053-.05a.295.295 0 0 0 .07-.11c.01-.04.016-1.996.016-5.575V1.923l-.035-.073a.21.21 0 0 0-.108-.108l-.073-.035h-5.53c-4.57 0-5.54.005-5.582.024Zm2.156 3.773c-.333.038-.649.345-.713.691-.023.123-.009.483.029.744a4.166 4.166 0 0 0 3.64 3.54c.23.028.77.023 1.01-.009a4.156 4.156 0 0 0 3.409-2.821c.174-.531.257-1.23.18-1.522a.868.868 0 0 0-.708-.624c-.157-.02-6.674-.02-6.847 0ZM6.283 7.25c.006.021.052.118.103.215A2.44 2.44 0 0 0 8.242 8.77c.185.026.608.011.785-.027a2.463 2.463 0 0 0 1.795-1.512c0-.013-.646-.018-2.275-.018H6.27l.012.038Z" clip-rule="evenodd"/></g><defs><clipPath id="a"><path fill="#fff" d="M0 0h16v16H0z"/></clipPath></defs></svg>