<svg xmlns="http://www.w3.org/2000/svg" fill="none" viewBox="0 0 16 16"><g clip-path="url(#a)"><path fill="currentColor" fill-rule="evenodd" d="M.63.03a.857.857 0 0 0-.556 1.174C.095 1.25 1.322 2.982 2.8 5.05l2.687 3.761v3.146c0 1.826.007 3.204.017 3.285.047.41.373.723.785.753.146.01.315-.02.432-.08.134-.07 3.494-2.32 3.548-2.378a.993.993 0 0 0 .199-.34l.038-.111.008-2.146.009-2.146 2.68-3.75a512.819 512.819 0 0 0 2.715-3.817.859.859 0 0 0-.005-.751.95.95 0 0 0-.375-.38c-.218-.106.372-.098-7.554-.098C1.194 0 .735.002.629.03Zm1.898 1.686c0 .004 1.013 1.425 2.252 3.159a636.653 636.653 0 0 1 2.3 3.233c.028.045.068.13.088.188l.036.106.005 2.569.004 2.569.786-.524.786-.524.004-2.045c.005-2.035.005-2.046.041-2.15.02-.06.06-.144.087-.189.028-.045 1.064-1.5 2.302-3.233a842.522 842.522 0 0 0 2.251-3.16c0-.004-2.462-.007-5.471-.007-3.01 0-5.472.003-5.472.008Z" clip-rule="evenodd"/></g><defs><clipPath id="a"><path fill="#fff" d="M0 0h16v16H0z"/></clipPath></defs></svg>