<svg xmlns="http://www.w3.org/2000/svg" fill="none" viewBox="0 0 16 16"><g clip-path="url(#a)"><path fill="currentColor" fill-rule="evenodd" d="M7.837.019a.96.96 0 0 0-.442.217C7.189.41.693 6.37.586 6.483a2.168 2.168 0 0 0-.543 1.02c-.03.13-.033.333-.04 3.286-.004 2.199 0 3.202.014 3.33a2.1 2.1 0 0 0 1.858 1.862c.248.027 12.003.027 12.251 0a2.101 2.101 0 0 0 1.857-1.857c.026-.248.026-6.19 0-6.43a2.088 2.088 0 0 0-.547-1.186c-.119-.127-6.59-6.07-6.83-6.272a.936.936 0 0 0-.459-.219.722.722 0 0 0-.31.002ZM4.952 4.962C3.282 6.492 1.9 7.77 1.88 7.802c-.036.059-.036.091-.036 3.118v3.059l.037.05a.582.582 0 0 0 .089.09l.05.037h11.96l.051-.038a.526.526 0 0 0 .089-.088l.037-.051V10.92c0-3.027 0-3.06-.036-3.118-.036-.057-6.094-5.62-6.12-5.62-.008 0-1.38 1.25-3.049 2.78Z" clip-rule="evenodd"/></g><defs><clipPath id="a"><path fill="#fff" d="M0 0h16v16H0z"/></clipPath></defs></svg>