<svg xmlns="http://www.w3.org/2000/svg" fill="none" viewBox="0 0 16 16"><g clip-path="url(#a)"><path fill="currentColor" fill-rule="evenodd" d="M7.582.005A30.91 30.91 0 0 1 7.29.03C5.12.21 3.05 1.338 1.699 3.074A8.007 8.007 0 0 0 .255 9.982a7.99 7.99 0 0 0 4.59 5.368 8.005 8.005 0 0 0 8.786-1.66c.195-.192.24-.246.293-.355a.836.836 0 0 0 .01-.761.862.862 0 0 0-.916-.472c-.2.034-.307.1-.568.347-.556.53-1.02.864-1.612 1.16a6.281 6.281 0 0 1-8.43-2.754 6.093 6.093 0 0 1-.684-2.856c0-1.027.216-1.93.684-2.856a6.297 6.297 0 0 1 2.877-2.812c1.757-.829 3.731-.825 5.452.01.673.326 1.127.647 1.732 1.225.24.23.351.297.549.33a.862.862 0 0 0 .916-.472.836.836 0 0 0-.01-.76c-.054-.11-.098-.164-.293-.356C12.315 1.007 10.614.215 8.736.03A15.33 15.33 0 0 0 7.58.005Zm5.207 4.951a.924.924 0 0 0-.441.236.851.851 0 0 0-.163.994c.056.114.106.172.473.543l.41.415H10.21c-2.035 0-2.884.005-2.948.02a.903.903 0 0 0-.615.527 1.067 1.067 0 0 0-.025.53.882.882 0 0 0 .643.615c.05.011 1.116.018 2.94.018h2.863l-.41.415c-.367.371-.417.43-.473.543a.858.858 0 0 0 1.219 1.112c.043-.028.614-.588 1.269-1.244.949-.95 1.2-1.212 1.236-1.283a.881.881 0 0 0 0-.796c-.036-.071-.287-.332-1.236-1.283-.655-.656-1.226-1.216-1.27-1.244a.92.92 0 0 0-.614-.118Z" clip-rule="evenodd"/></g><defs><clipPath id="a"><path fill="#fff" d="M0 0h16v16H0z"/></clipPath></defs></svg>