<svg xmlns="http://www.w3.org/2000/svg" fill="none" viewBox="0 0 16 16"><g clip-path="url(#a)"><path fill="currentColor" fill-rule="evenodd" d="M7.462.016C5.76.13 4.192.764 2.846 1.879c-.22.183-.783.745-.965.965C.86 4.075.246 5.485.059 7.024a8 8 0 0 0 1.538 5.771c.254.338.42.525.768.873a7.732 7.732 0 0 0 2.652 1.755 8.013 8.013 0 0 0 8.062-1.24c.25-.203.84-.783 1.042-1.028a8.008 8.008 0 0 0 .283-9.952 7.03 7.03 0 0 0-.751-.856 7.026 7.026 0 0 0-.856-.751A8.014 8.014 0 0 0 7.462.016Zm.158 1.71a6.299 6.299 0 0 0-3.564 1.376c-.216.172-.78.737-.952.953a6.321 6.321 0 0 0-1.336 3.121c-.1.769-.054 1.592.13 2.336a6.362 6.362 0 0 0 1.166 2.379l.137.172.284-.284a6.395 6.395 0 0 1 2.65-1.607c.382-.117.991-.24 1.188-.24.106 0 .081-.027-.046-.05a3.82 3.82 0 0 1-1.106-.426 3.612 3.612 0 0 1-1.734-3.644 3.598 3.598 0 0 1 1.94-2.676A3.488 3.488 0 0 1 8 2.75a3.6 3.6 0 0 1 3.53 2.878 3.618 3.618 0 0 1-1.716 3.838 3.875 3.875 0 0 1-1.09.416c-.13.023-.152.05-.044.05.095 0 .482.061.705.112.471.106.92.263 1.363.477.68.33 1.23.72 1.768 1.258l.284.284.136-.172a6.293 6.293 0 0 0 1.296-3.072 6.308 6.308 0 0 0-.627-3.665 5.887 5.887 0 0 0-1.167-1.594 6.014 6.014 0 0 0-2.446-1.52 5.945 5.945 0 0 0-1.65-.316 4.57 4.57 0 0 0-.723.001Zm.072 2.76c-.862.156-1.498.843-1.569 1.694-.05.598.153 1.131.589 1.546a1.887 1.887 0 0 0 2.349.19 2.17 2.17 0 0 0 .562-.595 2.35 2.35 0 0 0 .214-.527 2.145 2.145 0 0 0 0-.887 1.914 1.914 0 0 0-.973-1.236c-.35-.181-.8-.252-1.172-.185Zm-.059 7.133a4.713 4.713 0 0 0-2.53 1.005c-.173.136-.607.555-.607.584 0 .024.353.238.608.37.55.282 1.172.498 1.736.601a6.316 6.316 0 0 0 4.058-.602c.255-.131.608-.345.608-.37 0-.027-.43-.443-.598-.577a4.778 4.778 0 0 0-1.972-.928 5.256 5.256 0 0 0-1.303-.083Z" clip-rule="evenodd"/></g><defs><clipPath id="a"><path fill="#fff" d="M0 0h16v16H0z"/></clipPath></defs></svg>