<svg xmlns="http://www.w3.org/2000/svg" fill="none" viewBox="0 0 16 16"><g clip-path="url(#a)"><path fill="currentColor" fill-rule="evenodd" d="M3.399.014c-.287.056-.565.324-.644.62-.035.132-.035 14.6 0 14.732.04.15.1.249.227.378a.796.796 0 0 0 .437.244c.065.012 1.077.016 3.104.012 2.979-.005 3.01-.006 3.23-.042a4.682 4.682 0 0 0 1.432-.454 4.696 4.696 0 0 0 2.57-3.665 5.84 5.84 0 0 0 0-1.068 4.692 4.692 0 0 0-1.947-3.307 5.562 5.562 0 0 0-.666-.397l-.13-.062.145-.173c.495-.59.824-1.322.942-2.099.042-.274.042-.89 0-1.163a4.193 4.193 0 0 0-1.11-2.284C10.35.617 9.533.193 8.581.035 8.417.008 8.188.005 5.94.002 4.553 0 3.442.005 3.399.014Zm1.043 4.13V6.58l1.963-.005c2.172-.006 2.019.001 2.373-.12a2.435 2.435 0 0 0 .896-4.06 2.379 2.379 0 0 0-1.487-.673c-.117-.01-.91-.017-1.97-.017H4.441v2.437Zm0 7.157v2.995l2.476-.007c2.663-.008 2.55-.004 2.907-.096a3 3 0 0 0 1.937-1.575 3.052 3.052 0 0 0 .246-1.933 3.372 3.372 0 0 0-.376-.945 3.189 3.189 0 0 0-.99-.991 3.145 3.145 0 0 0-.804-.34c-.36-.094-.217-.09-2.903-.096l-2.493-.006V11.3Z" clip-rule="evenodd"/></g><defs><clipPath id="a"><path fill="#fff" d="M0 0h16v16H0z"/></clipPath></defs></svg>