<svg xmlns="http://www.w3.org/2000/svg" fill="none" viewBox="0 0 16 16"><g clip-path="url(#a)"><path fill="currentColor" fill-rule="evenodd" d="M10.83.017a4.81 4.81 0 0 0-2.548 1.03c-.1.08-.579.544-1.148 1.112-.934.933-.98.982-1.039 1.104a.844.844 0 0 0 .124.942.87.87 0 0 0 1.053.191c.063-.033.348-.305 1.061-1.013.543-.539 1.032-1.01 1.103-1.063a3.04 3.04 0 0 1 2.037-.596 3.001 3.001 0 0 1 1.986.94c.434.46.685.978.794 1.634.03.187.035.647.007.838a3.105 3.105 0 0 1-.614 1.47 36.71 36.71 0 0 1-1.03 1.06c-.595.6-.97.989-.999 1.04a.865.865 0 0 0 .1.999.848.848 0 0 0 1.02.2c.123-.06.168-.102 1.104-1.04.565-.565 1.033-1.048 1.111-1.147a4.754 4.754 0 0 0 1.045-2.813 4.714 4.714 0 0 0-1.387-3.516A4.738 4.738 0 0 0 10.83.017ZM4.537.562a.866.866 0 0 0-.666.636c-.039.169-.039 1.893 0 2.062.118.518.718.8 1.205.564.134-.065.318-.24.38-.364.1-.196.099-.188.098-1.23 0-1.035 0-1.04-.093-1.224a1.12 1.12 0 0 0-.363-.364.918.918 0 0 0-.56-.08Zm-2.744.548a.886.886 0 0 0-.442.24.85.85 0 0 0-.171.972c.046.097.104.163.448.507.345.346.41.403.509.45a.86.86 0 0 0 1.213-.906c-.037-.24-.083-.307-.495-.722a6.07 6.07 0 0 0-.45-.424.912.912 0 0 0-.612-.117Zm-.616 2.766a.861.861 0 0 0-.617.971c.053.317.312.6.626.684.066.018.298.023 1.044.024 1.042 0 1.034 0 1.23-.099.123-.062.3-.246.364-.38a.863.863 0 0 0-.364-1.13c-.169-.097-.224-.101-1.243-.1-.817 0-.942.004-1.04.03Zm8.86 1.082a.976.976 0 0 0-.205.069c-.107.05-.25.189-2.433 2.372-2.182 2.182-2.323 2.326-2.372 2.433-.339.723.418 1.48 1.142 1.14.105-.048.256-.195 2.432-2.371s2.323-2.327 2.372-2.432a.862.862 0 0 0-.936-1.21Zm-6.551 1.06a1.016 1.016 0 0 0-.223.077c-.123.06-.17.103-1.104 1.04-.565.565-1.033 1.048-1.111 1.147a4.887 4.887 0 0 0-.896 1.776 4.794 4.794 0 0 0 .045 2.559 4.752 4.752 0 0 0 3.793 3.324 4.757 4.757 0 0 0 3.728-.989c.099-.078.582-.546 1.148-1.111.937-.936.98-.981 1.038-1.104a.859.859 0 0 0-.03-.82.87.87 0 0 0-1.146-.313c-.063.033-.352.309-1.07 1.021-.983.975-1.075 1.059-1.377 1.242a3.127 3.127 0 0 1-1.145.393 3.91 3.91 0 0 1-.855-.01 2.976 2.976 0 0 1-1.427-.626 2.995 2.995 0 0 1-1.13-2.152 3.027 3.027 0 0 1 .604-2.044c.058-.077.52-.557 1.063-1.103 1.01-1.016 1.023-1.032 1.077-1.24a.86.86 0 0 0-.65-1.06.741.741 0 0 0-.332-.007Zm9.764 4.46a.768.768 0 0 0-.36.222.792.792 0 0 0-.233.438.865.865 0 0 0 .658.998c.056.012.33.02.732.02.706 0 .796-.01.955-.102a.863.863 0 0 0 .365-1.13 1.016 1.016 0 0 0-.373-.385c-.178-.09-.21-.093-.958-.093-.616.001-.703.005-.786.031Zm-2.137 2.183a1.08 1.08 0 0 0-.205.071c-.12.06-.308.244-.364.355-.096.19-.099.215-.099.957 0 .74.004.772.094.95.067.131.248.306.385.373a.863.863 0 0 0 1.13-.365c.092-.16.101-.25.101-.955 0-.401-.007-.676-.019-.732a.883.883 0 0 0-.699-.663.688.688 0 0 0-.324.009Zm2.222-.009a.886.886 0 0 0-.442.241.85.85 0 0 0-.17.971c.045.098.103.164.447.508.346.345.41.402.51.448.617.29 1.317-.231 1.212-.904-.037-.24-.083-.307-.495-.723a6.08 6.08 0 0 0-.449-.424.913.913 0 0 0-.613-.117Z" clip-rule="evenodd"/></g><defs><clipPath id="a"><path fill="#fff" d="M0 0h16v16H0z"/></clipPath></defs></svg>