<svg xmlns="http://www.w3.org/2000/svg" fill="none" viewBox="0 0 16 16"><g clip-path="url(#a)"><path fill="currentColor" fill-rule="evenodd" d="M1.24.024a1.48 1.48 0 0 0-.795.421A1.508 1.508 0 1 0 2.167.153 1.567 1.567 0 0 0 1.24.024Zm4.227.58c-.359.058-.682.396-.736.771a.865.865 0 0 0 .263.778.814.814 0 0 0 .527.265c.206.026 9.45.027 9.675.002a.924.924 0 0 0 .793-.767.927.927 0 0 0-.715-1.042c-.106-.023-.819-.026-4.915-.025-2.683.001-4.836.01-4.892.018Zm-4.24 5.91a1.762 1.762 0 0 0-.606.265c-.123.09-.33.315-.402.437A1.41 1.41 0 0 0 .007 8c0 .411.122.723.399 1.02.201.218.4.341.692.433.119.037.175.043.413.043.237 0 .294-.006.412-.043.604-.19 1.015-.678 1.084-1.288.082-.722-.363-1.39-1.074-1.615a2.186 2.186 0 0 0-.705-.036Zm4.168.597a.948.948 0 0 0-.626.586.713.713 0 0 0-.042.303.72.72 0 0 0 .042.303.94.94 0 0 0 .634.587c.096.025.66.028 4.956.028 5.31 0 4.944.007 5.157-.106a1.12 1.12 0 0 0 .393-.408.949.949 0 0 0 0-.808 1.12 1.12 0 0 0-.393-.408c-.213-.113.155-.106-5.166-.105-4.183.001-4.87.005-4.955.028Zm-4.082 5.882c-.831.103-1.435.917-1.291 1.74.074.428.317.798.672 1.029a1.51 1.51 0 0 0 2.256-1.717 1.528 1.528 0 0 0-1.637-1.052Zm4.187.588a.841.841 0 0 0-.506.267.869.869 0 0 0-.263.78.94.94 0 0 0 .754.77c.165.025 9.583.025 9.748 0a.929.929 0 0 0 .756-1.051.924.924 0 0 0-.793-.767c-.188-.021-9.512-.02-9.696.001Z" clip-rule="evenodd"/></g><defs><clipPath id="a"><path fill="#fff" d="M0 0h16v16H0z"/></clipPath></defs></svg>