<svg viewBox="0 0 400 225" fill="none" xmlns="http://www.w3.org/2000/svg"><path d="M179.436 76V63.7543s4.287 4.8157 10.675-2.4058c3.487 5.2373 7.189 4.2579 11.111 0 4.283 5.7312 8.35 2.3334 10.02 0 2.542 4.7433 7.116 3.3595 7.116 3.3595l.791 10.8109s.232-5.382 7.047-3.4702c5.087-7.8559 3.126-19.8206-4.863-27.042 3.632-3.896 4.213-8.354 2.397-13.6636C221.914 26.0335 215.786 20 204.224 20c-11.563 0-14.179 8.5669-14.179 13.0292 0 4.4623 2.031 6.3017 2.031 6.3017S170 44.2147 170 62.7494c0 8.1411 2.036 9.2737 2.036 9.2737s6.019-2.6058 7.4 3.9769Z" fill="#001F5C"/></svg>
