<svg viewBox="0 0 400 225" fill="none" xmlns="http://www.w3.org/2000/svg"><path d="M187.468 56.0932s0 3.8865 10.806 3.8865 12.264-5.7399 12.264-5.7399-1.017 5.5562 7.944 10.8286c1.249 2.9973 1.216 10.5198 1.216 10.5198s.474-3.181 4.464-3.181c4.986 0 5.341 10.8329.725 13.1497-4.615 2.3169-6.614-.263-6.614-.263-.638 5.2992-2.815 9.0295-6.069 13.778-.092 7.1261 0 15.8821 0 15.8821s23.549 1.569 27.985-19.6204c1.937-11.9391-6.665-7.8689-10.897-31.6511-4.233-23.7822-19.579-27.4891-29.093-27.4891-9.515 0-18.375 3.5191-24.286 14.5314-5.911 11.0124-4.803 15.4833-12.56 24.8634-7.756 9.3801-8.498 15.0282-5.082 23.7237 3.416 8.6951 18.487 15.2831 29.197 15.2831V99.3916c-3.317-4.4686-5.886-9.2934-6.752-14.7948-1.85 1.4819-6.282 3.1476-8.777-2.3127-2.496-5.4603-.092-9.5346 3.332-9.5346s4.128 2.8387 4.128 2.8387l.95-9.6849s6.565-2.872 7.119-9.8101Z" fill="#001F5C"/></svg>
