<svg viewBox="0 0 400 225" fill="none" xmlns="http://www.w3.org/2000/svg"><path d="m211.993 107.723 5.661.048c10.766.117 21.051 4.479 28.624 12.138 7.572 7.659 11.822 17.998 11.825 28.773v45.26c0 3.594-1.427 7.042-3.967 9.584a13.5386 13.5386 0 0 1-9.577 3.97h-96.051c-1.961 0-2.887-2.709-1.41-3.999 8.887-7.759 26.521-26.351 26.521-51.706l-28.001-23.521-3.515-3.211s18.24-17.018 34.483-17.018c.656 0 1.385-.003 2.211-.007 2.032-.01 4.648-.022 8.203.007v9.677s.633 2.83 12.91 2.83c12.278 0 12.083-2.209 12.083-2.209v-10.616ZM96.963 155.973c-.3546 17.462-5.2982 26.914-5.2982 26.914 15.1892 9.544 47.3932-8.651 47.3932-8.651s-6.948-11.043-16.815-28.883c-10.344 6.936-14.677 8.004-23.2481 10.118-.6513.16-1.3271.327-2.0319.502Z" fill="#3164FA"/><path fill-rule="evenodd" clip-rule="evenodd" d="m96.4207 78.9614-.0011-.0004c-.8311-.3028-1.6634.0158-2.0183.7098-.1709.3344-.2142.7368-.0825 1.1239.1322.3887.4177.6982.7917.9041l44.9955 25.4972.01.006c1.398.766 2.944.667 4.25.029 1.297-.634 2.389-1.807 2.972-3.266 1.209-3.023-.175-6.6279-3.156-7.7063L96.4207 78.9614Zm44.4683 26.8396L96.7188 80.7711l46.9182 16.992c2.022.7315 3.133 3.3139 2.215 5.6089-.441 1.104-1.262 1.969-2.188 2.421-.916.447-1.904.483-2.775.008Z" fill="#001F5C"/><path d="M97.9422 86.0094a.8.8 0 0 0-1.5997.0288c.0951 5.2736 3.9685 9.0122 7.5805 11.3706 1.828 1.1929 3.644 2.0701 5 2.6492.679.289 1.246.505 1.645.65.199.072.357.126.466.163.055.018.097.032.126.042l.035.01.009.004h.003s.002.001.223-.707l-.221.708c.421.132.87-.103 1.002-.525.132-.4212-.103-.8699-.524-1.002l-.007-.0021-.027-.0085a13.981 13.981 0 0 1-.11-.0364 19.622 19.622 0 0 1-.431-.1508 30.271 30.271 0 0 1-1.561-.6173c-1.299-.554-3.026-1.3896-4.753-2.5169-3.496-2.2821-6.7756-5.6138-6.8558-10.0596ZM99.2889 97.2798a.8005.8005 0 0 1 .8801.7106s0 .0007-.7959.0849l-.7956.0842a.8.8 0 0 1 .7114-.8797Z" fill="#001F5C"/><path d="M100.169 97.9904v.0079c.002.0091.004.0248.007.0467.006.0438.017.1122.033.2017.033.1792.089.4419.181.7613.185.641.508 1.497 1.062 2.362 1.089 1.7 3.095 3.487 6.877 3.696.441.025.779.402.754.843-.024.442-.402.779-.843.755-4.353-.241-6.802-2.349-8.135-4.431-.6577-1.027-1.0368-2.034-1.2523-2.7827a9.6411 9.6411 0 0 1-.2171-.9138 6.5768 6.5768 0 0 1-.0438-.2658 3.7588 3.7588 0 0 1-.0102-.0762l-.0027-.0228-.0009-.0074-.0003-.0027-.0002-.0021.7956-.0842.7959-.0849ZM126.96 98.3763a.7991.7991 0 0 1 1.098.2699c2.626 4.3348 3.791 8.8748 4.303 12.3168.256 1.724.35 3.18.379 4.209.015.514.013.922.008 1.204l-.001.038 41.386 34.749a.7995.7995 0 1 1-1.028 1.225l-41.685-34.999a.7999.7999 0 0 1-.284-.659v-.003l.001-.017c.001-.015.002-.039.003-.071.003-.065.006-.163.008-.292.005-.259.007-.642-.007-1.13-.028-.976-.117-2.368-.363-4.019-.492-3.307-1.607-7.626-4.088-11.7229a.8.8 0 0 1 .27-1.0988Z" fill="#001F5C"/><path fill-rule="evenodd" clip-rule="evenodd" d="M101.925 112.281c1.62 1.021 3.632 1.829 6.086 2.082.439.046.832-.274.878-.713.045-.44-.274-.833-.714-.878-3.81-.394-6.415-2.285-8.08-4.094-.8339-.906-1.428-1.788-1.8123-2.441a11.501 11.501 0 0 1-.42-.776 7.05 7.05 0 0 1-.0974-.207c-.0102-.023-.0174-.039-.0217-.049l-.0043-.01a.7992.7992 0 0 0-1.0448-.434c-.4084.168-.6027.636-.434 1.044l.7394-.305c-.7394.305-.7387.307-.7387.307l.001.002.0027.007.009.021c.0075.017.018.042.0316.072.0273.061.0671.147.1199.255.1056.216.2636.52.4784.885a16.1318 16.1318 0 0 0 2.0141 2.713c.3808.413.8074.832 1.2821 1.241v.039c.001.015.001.032.002.053l.001.04c.003.079.009.191.02.334.021.287.063.699.145 1.217.165 1.035.49 2.494 1.132 4.222 1.285 3.459 3.838 7.982 8.897 12.32 2.359 2.024 4.993 5.868 7.898 10.797.934 1.586 1.89 3.272 2.867 5.03-10.855 8.022-24.2829 11.775-37.7295 10.536-13.5814-1.252-26.2143-7.507-35.4483-17.553-.299-.325-.8051-.346-1.1304-.047a.7996.7996 0 0 0-.0476 1.13c9.5024 10.338 22.5027 16.775 36.4794 18.063 13.768 1.269 27.5164-2.548 38.6574-10.717.878 1.593 1.772 3.237 2.684 4.913l.001.002.001.001.001.001.005.009c.965 1.775 1.951 3.586 2.956 5.41 3.303 5.992 6.812 12.109 10.51 17.463 3.691 5.346 7.605 9.985 11.732 12.98.358.26.858.18 1.117-.177.26-.358.18-.858-.177-1.118-3.909-2.837-7.701-7.301-11.356-12.594-3.649-5.284-7.127-11.342-10.425-17.326-.996-1.808-1.977-3.61-2.941-5.382l-.001-.002c-2.219-4.078-4.35-7.995-6.377-11.434-2.896-4.915-5.648-8.981-8.235-11.199-4.833-4.145-7.238-8.433-8.439-11.663-.601-1.618-.901-2.973-1.05-3.916a5.3466 5.3466 0 0 1-.024-.154Zm-4.9251-6.781.7394-.305-.7394.305Z" fill="#001F5C"/><path d="M60.6989 151.849c.3917-.204.875-.053 1.0793.339 6.1364 11.761 13.1288 18.92 18.5628 23.133 2.7183 2.107 5.0494 3.479 6.6923 4.322.8214.421 1.4709.71 1.9106.892.2198.091.3872.155.4975.196.0551.02.0959.035.1219.044l.0277.01.0049.001c.4191.139.6471.592.5085 1.011-.1386.419-.5911.647-1.0106.509l.251-.76c-.251.76-.252.759-.252.759l-.0052-.002-.012-.004-.0411-.014a6.253 6.253 0 0 1-.1492-.054 14.4591 14.4591 0 0 1-.5536-.218c-.4778-.198-1.1667-.505-2.0285-.947-1.7239-.884-4.1398-2.308-6.9425-4.481-5.6079-4.347-12.7534-11.682-19.001-23.657-.2044-.391-.0525-.875.3392-1.079Z" fill="#001F5C"/><path d="M54.6238 126.699a4.3484 4.3484 0 0 1-1.6522.322 4.3552 4.3552 0 0 1-2.3981-.715c-.7098-.466-1.2631-1.129-1.5898-1.905a4.177 4.177 0 0 1-.2456-2.452c.1666-.824.5777-1.58 1.1813-2.174l27.3365-26.8823a4.3208 4.3208 0 0 1 1.4003-.9202 4.3802 4.3802 0 0 1 1.6518-.3231c.5669 0 1.1282.1098 1.6519.3231.5237.2133.9995.526 1.4003.9202l9.8967 9.7323 8.0161-7.883c2.652 2.7936 5.568 4.0484 7.53 4.6007L96.309 111.63a4.3348 4.3348 0 0 1-1.4003.92 4.386 4.386 0 0 1-3.3036 0 4.3353 4.3353 0 0 1-1.4004-.92l-9.8967-9.733-24.2843 23.881a4.2982 4.2982 0 0 1-1.3999.921ZM120.465 87.8749l3.004-2.9547-.001 9.5591c0 1.1258.454 2.2054 1.264 3.0014.809.796 1.907 1.2432 3.052 1.2432s2.243-.4472 3.052-1.2432c.809-.796 1.264-1.8756 1.264-3.0014l.003-19.8083c0-1.1257-.454-2.2054-1.264-3.0014-.809-.796-1.907-1.2432-3.052-1.2432h-20.143c-1.144 0-2.242.4472-3.052 1.2432-.809.796-1.264 1.8757-1.264 3.0014 0 1.1258.455 2.2054 1.264 3.0014.81.7961 1.908 1.2433 3.052 1.2433h9.723l-5.83 5.7333 8.928 3.2259Z" fill="#3164FA"/></svg>
