<svg viewBox="0 0 400 225" fill="none" xmlns="http://www.w3.org/2000/svg"><path d="M199.909 120.335c-9.969-.032-12.27-1.902-12.775-2.57-.109-.145-.134-.326-.134-.507V110h-12.522a27.227 27.227 0 0 0-14.76 4.351l-29.237 18.868 1.823-5.922c.452-1.469-.858-2.931-2.383-2.742-5.149.636-14.874 1.001-20.048-4.195-1.097-1.102-3.11-1.193-3.937.124-3.409 5.432-10.7603 17.266-16.2305 26.922-7.3556 12.984-13.175 29.578.8043 37.945 13.9792 8.368 27.4682 6.09 43.0682-5.288 15.6-11.378 27.624-21.814 27.624-21.814v40.641c0 2.209 1.791 4.001 4 4.001h69.414c2.209 0 4-1.792 4-4.001v-40.641s12.025 10.436 27.625 21.814 29.088 13.656 43.068 5.288c13.979-8.367 8.159-24.961.804-37.945-5.47-9.656-12.822-21.49-16.231-26.922-.827-1.317-2.84-1.226-3.937-.124-5.174 5.196-14.899 4.831-20.048 4.195-1.524-.189-2.834 1.273-2.382 2.742l1.822 5.922-29.237-18.868c-4.4-2.84-9.524-4.35-14.76-4.351h-12.522v7.258c0 .181-.025.362-.134.507-.504.668-2.806 2.538-12.775 2.57Z" fill="#3164FA"/><path d="M292.793 74.8966a.7995.7995 0 0 1-.69.8967c-4.307.5618-7.762 3.3411-10.357 6.7076-2.592 3.3626-4.251 7.2187-4.978 9.7222a.7997.7997 0 1 1-1.536-.4461c.773-2.6632 2.514-6.7071 5.247-10.2529 2.73-3.5417 6.525-6.6791 11.418-7.3173a.7992.7992 0 0 1 .896.6898ZM298.74 81.1971a.7991.7991 0 0 1-.437 1.0434c-8.57 3.5058-12.959 10.2251-14.057 13.0495-.161.4118-.624.6158-1.036.4556a.8.8 0 0 1-.456-1.0355c1.235-3.1756 5.913-10.2564 14.943-13.9505a.7995.7995 0 0 1 1.043.4375ZM95.6336 88.7112a.8.8 0 0 1 .7328-1.4223c8.4246 4.3402 11.9476 9.4991 13.5796 14.3961.808 2.423 1.144 4.755 1.402 6.817.029.228.057.453.084.673.222 1.802.41 3.32.827 4.572.71 2.132 2.302 3.484 4.095 4.256 1.81.779 3.752.931 5.007.709.435-.077.85.214.927.649.077.435-.214.85-.649.927-1.578.278-3.836.08-5.918-.816-2.099-.903-4.091-2.551-4.98-5.219-.472-1.415-.679-3.107-.896-4.874-.028-.225-.056-.451-.084-.678-.257-2.047-.578-4.246-1.332-6.51-1.493-4.4789-4.72-9.32-12.7954-13.4798ZM303.866 88.7112c.393-.2023.548-.6848.345-1.0775-.202-.3928-.685-.5472-1.077-.3448-8.425 4.3402-11.948 9.4991-13.58 14.3961-.808 2.423-1.144 4.755-1.402 6.817-.029.228-.057.453-.084.673-.222 1.801-.41 3.32-.827 4.572-.71 2.132-2.302 3.484-4.095 4.256-1.81.779-3.752.931-5.007.709-.435-.077-.85.214-.927.649-.077.435.214.85.649.927 1.578.278 3.836.08 5.918-.816 2.099-.903 4.09-2.551 4.98-5.219.472-1.415.679-3.107.896-4.873.028-.225.056-.452.084-.679.257-2.047.578-4.246 1.332-6.51 1.493-4.4789 4.72-9.32 12.795-13.4798ZM101.197 82.2405a.7991.7991 0 0 1-.437-1.0434.7995.7995 0 0 1 1.043-.4375c9.03 3.6941 13.708 10.7749 14.943 13.9505a.8.8 0 0 1-.456 1.0355c-.412.1602-.875-.0438-1.036-.4556-1.098-2.8244-5.487-9.5437-14.057-13.0495ZM107.397 75.7933a.7995.7995 0 0 1-.69-.8967.7992.7992 0 0 1 .896-.6898c4.893.6382 8.688 3.7756 11.418 7.3173 2.733 3.5458 4.474 7.5897 5.247 10.2529a.7997.7997 0 1 1-1.536.4461c-.727-2.5035-2.386-6.3596-4.978-9.7222-2.595-3.3665-6.05-6.1458-10.357-6.7076ZM269.313 80.6027c2.154.1706 4.033 1.0001 5.131 1.7319.367.2451.467.7418.222 1.1094-.245.3676-.742.467-1.11.2219-.902-.6016-2.523-1.322-4.369-1.4682-1.823-.1443-3.844.2698-5.652 1.8972-1.834 1.6505-2.772 3.8475-3.187 5.9714-.361 1.8459-.317 3.5908-.149 4.7743.909.1571 2.022.069 3.252-.554 1.469-.7437 3.16-2.2783 4.858-5.1894a.7997.7997 0 0 1 1.094-.2879.7993.7993 0 0 1 .288 1.0941c-1.802 3.0889-3.694 4.8877-5.517 5.8106-1.149.5819-2.249.8041-3.242.7942 1.075.6357 2.036 1.504 2.733 2.5475a.7986.7986 0 0 1-.221 1.1093.7985.7985 0 0 1-1.109-.2207c-.887-1.327-2.348-2.3358-3.868-2.7785-1.389-.4044-2.707-.3088-3.663.2961-.068 2.4424.641 6.7251 2.845 10.8311 2.306 4.297 6.219 8.35 12.545 9.931.429.107.689.541.582.97a.7994.7994 0 0 1-.97.582c-6.855-1.713-11.097-6.124-13.567-10.726-2.456-4.577-3.191-9.3923-3.014-12.064a.8009.8009 0 0 1 .296-.5701c1.451-1.1691 3.395-1.3122 5.178-.8459-.258-1.3528-.371-3.5144.078-5.8108.46-2.3511 1.522-4.9041 3.688-6.8536 2.192-1.9726 4.671-2.4752 6.848-2.3029ZM125.056 82.3346c1.098-.7318 2.977-1.5613 5.131-1.7319 2.177-.1723 4.656.3303 6.848 2.3029 2.166 1.9495 3.228 4.5025 3.688 6.8536.449 2.2964.336 4.458.078 5.8108 1.783-.4663 3.727-.3232 5.178.8459.174.1403.281.347.296.5701.177 2.6717-.558 7.487-3.014 12.064-2.47 4.602-6.712 9.013-13.567 10.726a.7994.7994 0 0 1-.97-.582.7994.7994 0 0 1 .582-.97c6.326-1.581 10.239-5.634 12.545-9.931 2.204-4.106 2.913-8.3887 2.845-10.8311-.956-.6049-2.274-.7005-3.663-.2961-1.52.4427-2.981 1.4515-3.868 2.7785a.7985.7985 0 0 1-1.109.2207.7986.7986 0 0 1-.221-1.1093c.697-1.0435 1.658-1.9118 2.733-2.5475-.993.0099-2.093-.2123-3.242-.7942-1.823-.9229-3.715-2.7217-5.517-5.8106a.7993.7993 0 0 1 .288-1.0941.7997.7997 0 0 1 1.094.2879c1.698 2.9111 3.389 4.4457 4.858 5.1894 1.23.623 2.343.7111 3.252.554.168-1.1835.212-2.9284-.149-4.7743-.415-2.1239-1.353-4.3209-3.187-5.9714-1.808-1.6274-3.829-2.0415-5.652-1.8972-1.846.1462-3.467.8666-4.369 1.4682-.368.2451-.865.1457-1.11-.2219-.245-.3676-.145-.8643.222-1.1094Z" fill="#001F5C"/></svg>
