<svg viewBox="0 0 400 225" fill="none" xmlns="http://www.w3.org/2000/svg"><path d="M178.041 93.8052c-2.692-.0182-4.868-2.2061-4.868-4.9025 0-2.7077 2.195-4.9027 4.902-4.9027 2.708 0 4.903 2.195 4.903 4.9027 0 2.6263-2.065 4.7703-4.66 4.8968l3.741 3.741-3.876 3.8765-3.877-3.8765 3.735-3.7353ZM216.37 88.9027c0 2.6876 2.162 4.8702 4.842 4.9023l-3.735 3.7355 3.876 3.8765 3.877-3.8765-3.74-3.7399c2.606-.1137 4.685-2.2631 4.685-4.8979 0-2.7077-2.195-4.9027-4.903-4.9027-2.707 0-4.902 2.195-4.902 4.9027Z" fill="#3164FA"/></svg>
