<svg viewBox="0 0 400 225" fill="none" xmlns="http://www.w3.org/2000/svg"><path d="M205.133 50.5072c.534.478 1.349 1.0123 2.418 1.5747.591.3373 1.321.703 2.193 1.0966.309-.6186.815-1.1529 1.462-1.4339-.393-.8717-.759-1.6028-1.068-2.2213-.591-1.0966-1.125-1.8838-1.631-2.3618-.619-.6186-1.237-.956-1.884-1.0966-.675-.1125-1.406 0-2.249.3655-.338.7872-.45 1.5183-.31 2.193.113.6468.479 1.2654 1.069 1.8838Zm4.977-4.0487c.056.7309.253 1.6869.59 2.8398.197.6468.45 1.434.787 2.3056.31-.1125.647-.1688 1.013-.1688.365 0 .703.0563 1.04.1688.337-.8716.619-1.6588.815-2.3338.366-1.2089.535-2.1368.535-2.8116 0-.8435-.197-1.5465-.563-2.1089-.393-.5624-1.012-.9841-1.855-1.3496-.788.3092-1.378.7591-1.772 1.3215-.393.5905-.59 1.2935-.59 2.137Zm4.78 16.083c-.057-.7309-.253-1.6869-.591-2.8398a54.103 54.103 0 0 0-.759-2.3056c-.309.1125-.647.1688-1.012.1688-.366 0-.703-.0563-1.041-.1688-.337.8716-.59 1.6588-.815 2.3338-.365 1.2089-.534 2.1368-.534 2.8116 0 .8435.197 1.5465.562 2.1089.394.5624 1.012.9841 1.856 1.3496.787-.3092 1.378-.7591 1.771-1.3215.366-.5905.563-1.2935.563-2.137Zm1.602-15.4081c-.478.5624-1.012 1.3496-1.574 2.4181-.338.5906-.703 1.3215-1.097 2.1931.619.3092 1.153.8153 1.434 1.4621.872-.3936 1.603-.7591 2.221-1.0685 1.097-.5905 1.884-1.1248 2.362-1.6309.619-.6186.956-1.2371 1.097-1.8838.112-.6749 0-1.4058-.366-2.2493-.787-.3373-1.518-.4498-2.193-.3092-.647.1125-1.265.4781-1.884 1.0684Zm-7.985 14.7337c.478-.5624 1.012-1.3496 1.575-2.4181.337-.5906.703-1.3215 1.097-2.1931-.619-.3092-1.153-.8153-1.434-1.4621-.872.3936-1.603.7591-2.222 1.0685-1.096.5905-1.883 1.1248-2.361 1.6309-.619.6186-.956 1.2371-1.097 1.8838-.113.6749 0 1.4058.365 2.2493.759.3373 1.491.4498 2.165.3092.675-.1125 1.294-.4779 1.912-1.0684Zm12.035-9.7564c-.731.0563-1.687.253-2.84.5906-.647.1969-1.434.4498-2.306.7872.113.3092.169.6467.169 1.0122 0 .3655-.056.703-.169 1.0404.872.3373 1.659.5905 2.334.8153 1.209.3655 2.137.5343 2.812.5343.843 0 1.546-.1969 2.108-.5624.563-.3936.985-1.0123 1.35-1.8557-.309-.7872-.759-1.3778-1.321-1.7714-.591-.3936-1.294-.5905-2.137-.5905Zm-16.084 4.78c.731-.0563 1.687-.253 2.84-.5906a53.7689 53.7689 0 0 0 2.306-.759c-.113-.3093-.169-.6468-.169-1.0123 0-.3655.056-.703.169-1.0404-.872-.3373-1.659-.5905-2.334-.8153-1.209-.3655-2.137-.5343-2.812-.5343-.843 0-1.546.1969-2.108.5624-.563.3936-.985 1.0123-1.35 1.8557.309.7872.759 1.3778 1.321 1.7714.591.3655 1.294.5624 2.137.5624Zm15.409 1.6026c-.535-.478-1.35-1.0123-2.419-1.5747-.59-.3373-1.321-.703-2.193-1.0966-.309.6186-.815 1.1529-1.462 1.434.394.8716.759 1.6027 1.069 2.2212.59 1.0966 1.125 1.8838 1.631 2.3618.618.6186 1.237.956 1.883 1.0966.675.1125 1.406 0 2.25-.3655.337-.7591.45-1.49.309-2.1649-.113-.6747-.478-1.2933-1.068-1.9119Z" fill="#3164FA"/></svg>
