<svg viewBox="0 0 400 225" fill="none" xmlns="http://www.w3.org/2000/svg"><path d="M210.755 67.391c.827-.2182 1.321-1.0658 1.103-1.8931-.219-.8273-1.066-1.321-1.894-1.1028-.827.2183-1.321 1.0658-1.102 1.8931.218.8273 1.065 1.3211 1.893 1.1028ZM224.431 77.2311c.827-.2182 1.321-1.0658 1.103-1.8931-.218-.8273-1.066-1.321-1.893-1.1028-.828.2182-1.321 1.0658-1.103 1.8931.218.8273 1.066 1.321 1.893 1.1028ZM174.928 80.258c.218.8272-.275 1.6748-1.103 1.893-.827.2183-1.675-.2755-1.893-1.1028-.218-.8273.276-1.6748 1.103-1.8931.827-.2182 1.675.2756 1.893 1.1029ZM177.746 86.9453c1.483-.3911 2.368-1.9099 1.977-3.3925-.391-1.4825-1.91-2.3673-3.393-1.9763-1.482.3911-2.367 1.91-1.976 3.3925.391 1.4826 1.91 2.3674 3.392 1.9763ZM225.408 83.5528c.391 1.4826-.494 3.0014-1.976 3.3925-1.483.3911-3.002-.4937-3.393-1.9763-.391-1.4825.494-3.0014 1.977-3.3925 1.482-.391 3.001.4938 3.392 1.9763ZM211.134 74.9015c.827-.2182 1.321-1.0658 1.102-1.8931-.218-.8273-1.065-1.321-1.893-1.1028-.827.2183-1.321 1.0658-1.102 1.8931.218.8273 1.065 1.3211 1.893 1.1028Z" fill="#3164FA"/></svg>
