<svg viewBox="0 0 400 225" fill="none" xmlns="http://www.w3.org/2000/svg"><path d="M179.262 85.0203c.403 1.5278-.509 3.093-2.036 3.496-1.528.403-3.093-.5088-3.496-2.0366s.508-3.0929 2.036-3.4959c1.528-.403 3.093.5088 3.496 2.0365ZM210.78 109.904l.075.568c-.175-.091-.362-.16-.557-.205l.482-.363ZM201.969 110.689c.708.192 1.442.284 2.179.274.151 0 .273-.116.273-.258 0-.143-.122-.259-.273-.259a6.5654 6.5654 0 0 1-2.576-.447 3.4167 3.4167 0 0 1-.876-.529c1.032.266 2.093.42 3.163.46.151.008.28-.102.289-.244.008-.143-.108-.265-.259-.273-1.692-.089-2.999-.337-3.889-.737a2.9832 2.9832 0 0 1-.739-.448c1.527.224 3.068.361 4.613.41 1.089 0 1.747 0 2.491 1.407.276.554.652 1.059 1.111 1.491-.199.386-.307.807-.317 1.235a.5906.5906 0 0 1-.143.353 2.9498 2.9498 0 0 1-.573-.16c-.495-.208-.951-.49-1.349-.836-.08-.064-.159-.126-.239-.186.077-.051.12-.136.114-.225a.2564.2564 0 0 0-.096-.177.2838.2838 0 0 0-.2-.06c-.241.019-.484.024-.726.017h-.002a1.3435 1.3435 0 0 0-.253-.015 3.5219 3.5219 0 0 1-.55-.089c-.47-.089-.888-.34-1.173-.704Z" fill="#3164FA"/><path d="M202.04 115.199a2.586 2.586 0 0 1-1.464-.14c.912-.215 1.79-.546 2.607-.985.133-.068.182-.225.11-.351-.073-.125-.239-.171-.372-.103-2.775 1.429-4.265 1.106-4.937.749 1.398-.221 2.946-1.046 4.125-1.674l.088-.046c.359-.192.698-.371.978-.504.685-.322.979-.088 1.566.379.442.38.945.689 1.492.917.766.324 1.643.324 2.409-.001.089-.039.15-.119.159-.211.009-.092-.034-.181-.114-.235a.2889.2889 0 0 0-.272-.025c-.251.108-.52.172-.794.19a.9684.9684 0 0 0 .085-.388c.012-.411.131-.813.346-1.171.286-.484.798-.812 1.381-.882.582-.07 1.166.125 1.571.526.364.433.553.974.535 1.527 0 .047-.155 4.511-5.368 5.11a8.202 8.202 0 0 1 1.676-1.272c1.725-.977 2.265-1.57 2.318-2.622.086-.614-.145-1.231-.623-1.657-.088-.115-.109-.264-.054-.397.058-.13.195-.195.408-.195.152 0 .274-.116.274-.258 0-.143-.122-.259-.274-.259-.389-.027-.754.178-.913.514-.141.325-.074.697.172.96.329.282.502.691.468 1.109 0 .351-.073.746-.375.956-.182.114-.398.172-.616.166.051-.074.098-.151.141-.23.067-.128.012-.283-.123-.347-.135-.063-.3-.012-.367.116-.09.176-.214.335-.365.469-.184.152-.42.238-.665.242.143-.139.276-.286.399-.442.09-.114.066-.276-.055-.361-.121-.086-.293-.063-.383.051-.208.27-.457.51-.74.71-.413.31-.952.426-1.467.319.342-.2.666-.428.966-.681.074-.061.107-.154.087-.245-.019-.09-.088-.164-.181-.193a.2863.2863 0 0 0-.269.051c-.404.352-.863.645-1.36.867-.314.141-.655.222-1.002.238h-.008c-.086.003-.172-.001-.257-.009.662-.242 1.29-.56 1.869-.948.123-.082.154-.242.068-.359-.085-.116-.254-.146-.379-.066-.744.524-1.596.896-2.501 1.091Z" fill="#3164FA"/><path d="M203.334 116.003c.348-.023.69-.1 1.011-.229.749.365 1.651.306 2.341-.152.172.045.35.069.529.072.34.002.671-.1.944-.29.15.026.302.039.454.04.021 0 .043-.002.064-.003.009-.001.017-.002.026-.002.004 0 .009-.001.013-.001-.367.266-.751.509-1.151.729-.866.494-1.633 1.127-2.266 1.872-.023.029-2.082 2.531-4.539 4.002a41.3234 41.3234 0 0 0 3.08-4.495.2444.2444 0 0 0-.025-.283c-.068-.081-.18-.117-.286-.09a24.952 24.952 0 0 1-4.895.648c1.663-.355 3.252-.97 4.7-1.819v.001ZM196.059 112.139l.772.193-.637.85a.3025.3025 0 0 0 .061.425c.134.101.324.074.425-.061l.669-.891.668.891a.3036.3036 0 1 0 .486-.364l-.638-.85.772-.193c.106-.025.19-.106.22-.211a.3042.3042 0 0 0-.074-.296.3025.3025 0 0 0-.294-.082l-.837.209v-.826c0-.168-.136-.304-.303-.304-.168 0-.304.136-.304.304v.826l-.838-.209a.304.304 0 0 0-.367.221c-.04.162.058.327.219.368ZM196.511 115.43c0-.146.118-.265.264-.265.145 0 .264.119.264.265v.719l.727-.184c.092-.025.191.002.258.07.067.069.092.168.065.26a.2667.2667 0 0 1-.196.184l-.67.168.555.74c.056.076.068.176.031.263a.2616.2616 0 0 1-.211.158.2633.2633 0 0 1-.243-.103l-.58-.777-.582.778a.2663.2663 0 0 1-.243.104.2661.2661 0 0 1-.211-.159.265.265 0 0 1 .032-.263l.554-.74-.67-.168a.2682.2682 0 0 1-.192-.184.2672.2672 0 0 1 .065-.258.2622.2622 0 0 1 .255-.071l.728.182v-.719ZM223.58 88.5163c1.528-.403 2.44-1.9682 2.037-3.496-.403-1.5277-1.968-2.4395-3.496-2.0365-1.528.403-2.44 1.9681-2.037 3.4959.403 1.5278 1.969 2.4396 3.496 2.0366Z" fill="#3164FA"/></svg>
