<svg viewBox="0 0 400 225" fill="none" xmlns="http://www.w3.org/2000/svg"><path fill-rule="evenodd" clip-rule="evenodd" d="M170.2 72c0-.4419.358-.8.8-.8h26.548c.442 0 .8.3581.8.8v3.6567h2.304V72c0-.4419.358-.8.8-.8H228c.442 0 .8.3581.8.8 0 5.1854-4.204 9.389-9.389 9.389h-17.959a.8.8 0 0 1-.8-.8v-3.3323h-2.304v3.3323a.8.8 0 0 1-.8.8h-17.959c-5.185 0-9.389-4.2036-9.389-9.389Zm32.052 5.2567v2.5323h17.159c4.032 0 7.348-3.0631 7.748-6.989h-24.907v2.8567h.488c.441 0 .8.3582.8.8 0 .4419-.359.8-.8.8h-.488ZM196.748 72.8v2.8567h-.419a.8.8 0 0 0-.8.8c0 .4419.358.8.8.8h.419v2.5323h-17.159c-4.032 0-7.348-3.0631-7.748-6.989h24.907Z" fill="#001F5C"/></svg>
