<svg viewBox="0 0 400 225" fill="none" xmlns="http://www.w3.org/2000/svg"><path d="M204.465 71.4976a8.7693 8.7693 0 0 0-1.11.5629l-19.794-19.443a.8007.8007 0 0 0-1.132.0101c-.309.3152-.305.8217.01 1.1313l19.61 19.2609c-.153.136-.302.2776-.446.4244a8.746 8.746 0 0 0-1.883 2.904 8.7525 8.7525 0 0 0-.61 3.3972c.001 1.195.244 2.1819.772 2.9581.535.7874 1.296 1.2586 2.14 1.5401.829.2762 1.772.3821 2.739.4254.75.0337 1.562.0307 2.385.0277.236-.0008.473-.0017.71-.0017s.474.0009.71.0017c.823.003 1.636.006 2.386-.0277.483-.0216.961-.0589 1.421-.1253l4.126 4.4633c.3.3245.806.3443 1.131.0444a.8003.8003 0 0 0 .044-1.1305l-3.551-3.8414c.671-.2902 1.268-.7249 1.71-1.3757.529-.7762.772-1.7632.773-2.9583a8.7527 8.7527 0 0 0-.61-3.3973 8.746 8.746 0 0 0-1.883-2.904 8.7546 8.7546 0 0 0-2.862-1.9466 8.7518 8.7518 0 0 0-6.786 0Z" fill="#001F5C"/><path d="M213.067 77.6735c-.184-1.2144-.728-2.2166-1.632-3.0043-.949-.8445-2.107-1.2671-3.471-1.2671-1.366 0-2.523.4178-3.472 1.2525-.904.7982-1.444 1.8045-1.619 3.0189-.037.1996-.055.3894-.055.5701 0 .7976.253 1.495.761 2.0934.507.598 1.222 1.0353 2.144 1.3098v.2145c0 .2655.087.4888.263.6689.175.1806.391.2804.65.2992.267.0193.465-.0284.594-.1423.203.1516.429.2275.678.2275.231 0 .443-.0709.636-.2133.13.1041.318.1474.568.1281.258-.0284.475-.1305.65-.306.175-.1765.262-.3966.262-.6621v-.1565c.996-.2662 1.766-.7122 2.311-1.3395.525-.5978.788-1.3049.788-2.1217 0-.1807-.019-.3705-.056-.5701Zm-6.293 1.3746c-.277.3279-.609.4912-.996.4912s-.719-.1633-.996-.4912c-.276-.3275-.415-.7242-.415-1.1895 0-.4648.139-.8614.415-1.1883.277-.3274.609-.4912.996-.4912s.719.1638.996.4912c.277.3269.415.7235.415 1.1883 0 .4653-.138.8619-.415 1.1895Zm1.203 1.8869c-.23 0-.401-.0611-.511-.1828-.065-.0759-.097-.1693-.097-.2823 0-.1779.067-.3563.2-.5351.134-.1779.265-.2671.395-.2671.129 0 .25.0983.366.2964.115.1969.173.3842.173.5631 0 .2723-.175.4078-.526.4078Zm3.05-1.8869c-.272.3279-.606.4912-1.003.4912-.387 0-.716-.1633-.988-.4912-.273-.3275-.409-.7242-.409-1.1895 0-.4648.136-.8614.409-1.1883.272-.3274.601-.4912.988-.4912.397 0 .731.1638 1.003.4912.272.3269.408.7235.408 1.1883 0 .4653-.136.8619-.408 1.1895Z" fill="white"/></svg>
