<svg viewBox="0 0 400 225" fill="none" xmlns="http://www.w3.org/2000/svg"><path fill-rule="evenodd" clip-rule="evenodd" d="M194.75 80.2162c0 2.7401-3.767 3.4934-4.821.9642-.344-.8261-1.514-.8261-1.858 0-1.054 2.5292-4.821 1.7759-4.821-.9642v-3.7101a.7609.7609 0 0 1-.184-.1349l-5.596-5.5967a.7499.7499 0 0 1 0-1.0607.7492.7492 0 0 1 1.06 0l4.72 4.7196v-1.2667c0-2.1631 1.754-3.9167 3.917-3.9167h3.666c2.163 0 3.917 1.7536 3.917 3.9167v1.9241h8.5v-1.7877c0-2.2385 1.815-4.0531 4.053-4.0531h3.394c2.238 0 4.053 1.8146 4.053 4.0531v1.4119l5.838-3.8415a.7503.7503 0 0 1 1.039.2142.7508.7508 0 0 1-.215 1.0388l-6.596 4.3409a.9427.9427 0 0 1-.066.0387v4.6235c0 2.7438-3.776 3.4908-4.821.9537-.342-.8296-1.516-.8296-1.858 0-1.045 2.5371-4.821 1.7901-4.821-.9537v-4.5388h-8.5v3.6254Zm-3.436.3872c.423 1.0158 1.936.7133 1.936-.3872v-7.0495c0-1.3347-1.082-2.4167-2.417-2.4167h-3.666c-1.335 0-2.417 1.082-2.417 2.4167v7.0495c0 1.1005 1.513 1.403 1.936.3872.857-2.0568 3.771-2.0568 4.628 0Zm13.436-7.3003c0-1.4101 1.143-2.5531 2.553-2.5531h3.394c1.41 0 2.553 1.143 2.553 2.5531v7.8265c0 1.1007-1.515 1.4003-1.934.3826-.851-2.0681-3.781-2.0681-4.632 0-.419 1.0177-1.934.7181-1.934-.3826v-7.8265Z" fill="#001F5C"/></svg>
