<svg viewBox="0 0 400 225" fill="none" xmlns="http://www.w3.org/2000/svg"><path fill-rule="evenodd" clip-rule="evenodd" d="M183.25 71.7838c0-2.7401 3.767-3.4934 4.821-.9641.344.826 1.514.826 1.858 0 1.054-2.5293 4.821-1.776 4.821.9641v3.307h8.5v-3.307c0-2.7401 3.767-3.4934 4.821-.9641.344.826 1.514.826 1.858 0 1.054-2.5293 4.821-1.776 4.821.9641v2.9312l5.838-3.8415a.7503.7503 0 0 1 1.039.2142.7508.7508 0 0 1-.215 1.0388l-6.596 4.341a.9409.9409 0 0 1-.066.0386v2.3273c0 2.1631-1.754 3.9166-3.917 3.9166h-3.666c-2.163 0-3.917-1.7535-3.917-3.9166v-2.2426h-8.5v2.2426c0 2.1631-1.754 3.9166-3.917 3.9166h-3.666c-2.163 0-3.917-1.7535-3.917-3.9166v-2.3273a.7609.7609 0 0 1-.184-.1349l-5.596-5.5967a.7499.7499 0 0 1 0-1.0607.7492.7492 0 0 1 1.06 0l4.72 4.7197v-2.6497Zm3.436-.3872c-.423-1.0158-1.936-.7133-1.936.3872v7.0496c0 1.3346 1.082 2.4166 2.417 2.4166h3.666c1.335 0 2.417-1.082 2.417-2.4166v-7.0496c0-1.1005-1.513-1.403-1.936-.3872-.857 2.0568-3.771 2.0568-4.628 0Zm18.064.3872c0-1.1005 1.513-1.403 1.936-.3872.857 2.0568 3.771 2.0568 4.628 0 .423-1.0158 1.936-.7133 1.936.3872v7.0496c0 1.3346-1.082 2.4166-2.417 2.4166h-3.666c-1.335 0-2.417-1.082-2.417-2.4166v-7.0496Z" fill="#001F5C"/></svg>
