<svg viewBox="0 0 400 225" fill="none" xmlns="http://www.w3.org/2000/svg"><path fill-rule="evenodd" clip-rule="evenodd" d="M183.2 74c0-3.2033 2.597-5.8 5.8-5.8s5.8 2.5967 5.8 5.8v1.0408h8.4V74c0-3.2033 2.597-5.8 5.8-5.8s5.8 2.5967 5.8 5.8v.6222l5.76-3.7905a.8.8 0 0 1 1.108.2285c.243.3691.141.8652-.228 1.108l-6.597 4.341c-.014.0093-.029.0181-.043.0264v4.131c0 1.7305-1.403 3.1334-3.133 3.1334h-5.334c-1.73 0-3.133-1.4029-3.133-3.1334v-4.0258h-8.4v4.0258c0 1.7305-1.403 3.1334-3.133 3.1334h-5.334c-1.73 0-3.133-1.4029-3.133-3.1334v-4.1309a.8212.8212 0 0 1-.169-.1292l-5.597-5.5967a.8008.8008 0 0 1 0-1.1314.8008.8008 0 0 1 1.132 0l4.634 4.6343V74Zm5.8-4.2c-2.32 0-4.2 1.8804-4.2 4.2v6.6666c0 .8469.686 1.5334 1.533 1.5334h5.334c.846 0 1.533-.6865 1.533-1.5334V74c0-2.3196-1.88-4.2-4.2-4.2Zm15.8 4.2c0-2.3196 1.88-4.2 4.2-4.2 2.32 0 4.2 1.8804 4.2 4.2v6.6666c0 .8469-.687 1.5334-1.533 1.5334h-5.334c-.847 0-1.533-.6865-1.533-1.5334V74Z" fill="#001F5C"/></svg>
