<svg viewBox="0 0 400 225" fill="none" xmlns="http://www.w3.org/2000/svg"><path fill-rule="evenodd" clip-rule="evenodd" d="M183.554 75.1702c.416-2.8123 2.84-4.9702 5.769-4.9702 3.082 0 5.606 2.391 5.817 5.4194h7.719c.212-3.0284 2.736-5.4194 5.818-5.4194 2.929 0 5.353 2.1579 5.769 4.9702l8.196-4.0979c.395-.1976.876-.0375 1.073.3577a.7995.7995 0 0 1-.357 1.0733l-8.85 4.4247c-.064 3.1649-2.65 5.7106-5.831 5.7106-3.082 0-5.606-2.3909-5.817-5.4192h-7.72c-.211 3.0283-2.735 5.4192-5.817 5.4192-3.181 0-5.767-2.5457-5.831-5.7106l-8.85-4.4247c-.395-.1976-.555-.6781-.358-1.0733.198-.3952.679-.5553 1.074-.3577l8.196 4.0979Zm5.769-3.3702c-2.338 0-4.233 1.8948-4.233 4.2322v.7742c0 2.3374 1.895 4.2322 4.233 4.2322 2.337 0 4.232-1.8948 4.232-4.2322v-.7742c0-2.3374-1.895-4.2322-4.232-4.2322Zm19.354 0c-2.337 0-4.232 1.8948-4.232 4.2322v.7742c0 2.3374 1.895 4.2322 4.232 4.2322 2.338 0 4.233-1.8948 4.233-4.2322v-.7742c0-2.3374-1.895-4.2322-4.233-4.2322Z" fill="#001F5C"/></svg>
