<svg viewBox="0 0 400 225" fill="none" xmlns="http://www.w3.org/2000/svg"><path d="M178.301 76.3417c0-5.5175 4.473-9.9904 9.991-9.9904 4.741 0 8.711 3.3033 9.734 7.7342h2.898c1.023-4.4309 4.993-7.7342 9.734-7.7342 5.518 0 9.991 4.4729 9.991 9.9904 0 5.5175-4.473 9.9904-9.991 9.9904-5.517 0-9.99-4.4729-9.99-9.9904 0-.2205.007-.4393.021-.6562h-2.428c.014.2169.021.4357.021.6562 0 5.5175-4.473 9.9904-9.99 9.9904-5.518 0-9.991-4.4729-9.991-9.9904Z" fill="#001F5C"/><path d="M191.574 77.1888c0-.3981.322-.7208.721-.7208h1.714a.721.721 0 0 1 .721.7208v1.7144a.721.721 0 0 1-.721.7208h-1.714a.7204.7204 0 0 1-.721-.7208v-1.7144ZM182.827 79.6238a.721.721 0 0 0-.721.7208v1.7143a.721.721 0 0 0 .721.7208h1.714a.721.721 0 0 0 .721-.7208v-1.7143a.721.721 0 0 0-.721-.7208h-1.714ZM189.139 79.6238a.721.721 0 0 0-.721.7208v1.7143a.721.721 0 0 0 .721.7208h1.714a.721.721 0 0 0 .721-.7208v-1.7143a.721.721 0 0 0-.721-.7208h-1.714ZM185.983 76.468a.721.721 0 0 0-.721.7208v1.7144a.721.721 0 0 0 .721.7208h1.714a.721.721 0 0 0 .721-.7208v-1.7144a.721.721 0 0 0-.721-.7208h-1.714ZM204.198 80.3446c0-.3981.322-.7208.72-.7208h1.715a.721.721 0 0 1 .721.7208v1.7143a.721.721 0 0 1-.721.7208h-1.715a.7202.7202 0 0 1-.72-.7208v-1.7143ZM211.23 79.6238c-.398 0-.72.3227-.72.7208v1.7143c0 .3981.322.7208.72.7208h1.715a.721.721 0 0 0 .721-.7208v-1.7143a.721.721 0 0 0-.721-.7208h-1.715ZM213.666 77.1888c0-.3981.322-.7208.72-.7208h1.715c.398 0 .72.3227.72.7208v1.7144a.7202.7202 0 0 1-.72.7208h-1.715a.7202.7202 0 0 1-.72-.7208v-1.7144ZM208.074 76.468c-.398 0-.72.3227-.72.7208v1.7144c0 .3981.322.7208.72.7208h1.715a.721.721 0 0 0 .721-.7208v-1.7144a.721.721 0 0 0-.721-.7208h-1.715Z" fill="white"/></svg>
