<svg viewBox="0 0 400 225" fill="none" xmlns="http://www.w3.org/2000/svg"><path d="M170.922 76S166 74.9739 166 67.9516c0-7.0223 7.913-9.9233 7.913-9.9233s-5.11-6.5536 2.415-16.291c7.525-9.7375 20.627-10.2949 27.486-5.7091 5.388-4.4929 12.73-3.7455 17.374.6545 4.643 4.4001 3.719 11.984 1.487 15.5394 12.635 3.8385 10.411 15.7295 5.109 21.2527-3.331-4.0242-8.362.6546-8.362.6546v-9.7248s-9.012-.0929-15.513-12.9172c-8.549 17.693-23.567 12.326-23.567 12.326l-.762 11.6419s.171-3.4668-4.197-3.4668C171.476 71.9758 170.922 76 170.922 76Z" fill="#001F5C"/></svg>
