<svg viewBox="0 0 400 225" fill="none" xmlns="http://www.w3.org/2000/svg"><path d="M172.235 72.8062s.019-19.1534 16.719-30.3336c16.701-11.1801 29.692-7.1253 33.129 6.4015 3.436 13.5267 3.151 23.259 3.151 23.259s-2.75-1.5109-6.274 2.0965l-.682-7.774s-3.712-1.7122-4.826-7.8452c-12.247 6.5804-18.65 4.5998-25.795.6304-3.621 6.6739-7.89 7.8452-7.89 7.8452l.096 8.0241s-2.057-3.5647-7.628-2.3039ZM212.155 103.693s5.194.268 6.772-4.2379c2.783 2.8839 5.023 3.4239 6.772-.5409 1.75-3.9653 0-15.8612 0-15.8612s-1.481 3.8493-8.161 1.9541c-2.135 9.0613-5.383 11.7943-5.383 11.7943v6.8916ZM180.885 83.4964s-3.349 4.4167-8.819-.4515c-1.39 10.0983-5.194 20.0181 3.248 20.5581 5.198 0 6.127-3.9689 6.127-3.9689s.461 4.6889 5.195 5.1409v-7.7559c-3.192-3.8901-5.186-8.5783-5.751-13.5227Z" fill="#001F5C"/></svg>
