<svg viewBox="0 0 400 225" fill="none" xmlns="http://www.w3.org/2000/svg"><path d="M207.549 79.5787c-.856 0-1.55-1.1643-1.55-2.6006 0-1.4362.694-2.6005 1.55-2.6005.856 0 1.551 1.1643 1.551 2.6005 0 1.4363-.695 2.6006-1.551 2.6006ZM202.538 72.2404l5.385-2.9486c.734-.3959 1.624.5114 1.246 1.2926a6.6845 6.6845 0 0 1-2.795 3.0183c-1.529.8285-2.774.695-3.634.3274-.723-.3074-.849-1.3355-.202-1.6897ZM190.098 79.5787c-.856 0-1.55-1.1643-1.55-2.6006 0-1.4362.694-2.6005 1.55-2.6005.856 0 1.551 1.1643 1.551 2.6005 0 1.4363-.695 2.6006-1.551 2.6006ZM194.643 72.6115l-4.833-3.6671c-.66-.5049-1.659.2587-1.405 1.0763a6.571 6.571 0 0 0 2.288 3.358c1.377 1.0485 2.603 1.0908 3.503.8576.75-.1948 1.024-1.1836.447-1.6248Z" fill="#001F5C"/><path fill-rule="evenodd" clip-rule="evenodd" d="M200.897 92.1894c.287-.3365.247-.8415-.089-1.1281-1.957-1.6687-4.109-1.9146-5.736-1.7508-.811.0816-1.499.2649-1.987.4279-.244.0817-.44.1591-.578.2175a6.4182 6.4182 0 0 0-.162.0718c-.013.0063-.025.0117-.035.0164a.215.215 0 0 1-.012.0056l-.014.007-.005.0024-.002.0009-.001.0007c-.395.1978-.555.6785-.358 1.0737a.7992.7992 0 0 0 1.071.3586s.78-.3682 1.511-.4791c.731-.111 1.826-.134 1.826-.134s.674-.1035 1.744.3763c1.069.4799 1.437.8107 1.437.8107.088.0674.176.1382.263.2126a.7988.7988 0 0 0 1.127-.0901Zm-5.666-1.2865c1.253-.1261 2.814.0457 4.276 1.164 0 0-.368-.3308-1.437-.8107-1.07-.4798-1.744-.3763-1.744-.3763s-1.095.023-1.826.134c-.731.1109-1.511.4791-1.511.4791l.004-.0017.024-.0116c.024-.011.062-.0283.114-.0503a6.375 6.375 0 0 1 .461-.1732 7.6307 7.6307 0 0 1 1.639-.3533Z" fill="#001F5C"/><path d="M199.202 75.5611c-.033-.4405.296-.825.737-.8588.44-.0338.825.2959.859.7365l.893 11.6449a.8003.8003 0 0 1-.312.6971.8009.8009 0 0 1-.755.1174l-5.294-1.8927a.7998.7998 0 0 1-.484-1.0226.8002.8002 0 0 1 1.023-.484l4.132 1.4775-.799-10.4153Z" fill="#001F5C"/><path fill-rule="evenodd" clip-rule="evenodd" d="M184.74 95.7815c.519.8658 1.068 1.6887 1.645 2.4637v19.4128l.03.106.001.004.001.003.002.006.004.014c.003.009.007.019.01.03.008.022.017.046.029.073.023.054.053.117.095.187.083.141.208.31.392.493.367.366.965.787 1.94 1.185 1.937.792 5.446 1.531 11.861 1.531 6.381 0 9.478-.571 11.002-1.212.769-.324 1.243-.709 1.479-1.154.119-.226.164-.444.164-.633 0-.068-.005-.13-.014-.184V97.4718a30.19 30.19 0 0 0 1.089-1.6886c1.719-2.8647 3.128-6.225 4.145-9.9361 2.177.7417 3.949.8304 5.388.4429 1.657-.4465 2.758-1.4938 3.474-2.6453.708-1.1382 1.053-2.3947 1.224-3.3411.086-.4778.13-.888.153-1.181.011-.1468.017-.2649.02-.3481.001-.0243.001-.0457.002-.0639l.001-.0345v-.0095l.001-.0184.003-.0411c.003-.0535.007-.1297.011-.2255.007-.1913.012-.462.004-.7874-.015-.6468-.08-1.5277-.286-2.4367-.399-1.7632-1.426-3.976-4.011-4.2996-1.869-.2353-3.228.3826-4.153 1.1606 0-.0877.001-.1754.001-.2632 0-9.3492-2.273-16.2404-6.054-20.809-3.795-4.5842-9.041-6.7463-14.789-6.7463-5.746 0-10.991 2.1633-14.785 6.7479-3.781 4.5691-6.053 11.4603-6.053 20.8074 0 .1202 0 .2403.001.3602-.926-.8226-2.32-1.5026-4.265-1.2576-2.519.315-3.585 2.1848-4.006 3.7709-.211.7942-.277 1.5593-.292 2.1189a9.083 9.083 0 0 0 .005.6828c.003.0834.008.15.011.1972l.004.0433v.0063c0 .0251.001.0605.002.1054.003.0897.009.2176.02.377.022.3183.066.7649.151 1.2867.168 1.0345.508 2.4069 1.203 3.6633.7 1.2643 1.786 2.4525 3.448 3.01 1.476.495 3.299.4569 5.538-.311 1.018 3.7254 2.43 7.0985 4.154 9.9728Zm1.311-43.8135c-3.471 4.1955-5.685 10.682-5.685 19.7873 0 9.1065 2.209 17.3066 5.746 23.2032 2.733 4.5569 6.206 7.6655 10.015 8.8515 1.09.332 2.254.532 3.477.531 1.896 0 3.625-.473 5.154-1.186 3.15-1.487 6.013-4.3166 8.34-8.195 3.202-5.337 5.317-12.5615 5.69-20.639l-.005-.0017.001-.0029.002-.0048.002-.0057c.039-.8414.059-1.692.059-2.5506 0-9.1074-2.214-15.5939-5.687-19.7888-3.459-4.1793-8.234-6.1665-13.556-6.1665-5.32 0-10.094 1.9881-13.553 6.168Zm1.934 54.202v11.169c.023.027.053.062.094.102.185.185.59.5 1.415.837 1.661.679 4.933 1.412 11.256 1.412 6.356 0 9.174-.579 10.382-1.087.41-.173.583-.316.649-.385v-18.123c-6.543 10.981-20.336 7.229-23.796 6.075Zm32.387-31.4954c-.172 3.366-.638 6.596-1.359 9.6174 2.028.7099 3.503.7412 4.574.453 1.182-.3183 1.979-1.0563 2.532-1.9453.561-.9022.856-1.9414 1.007-2.7805.075-.4149.113-.77.132-1.019a6.026 6.026 0 0 0 .017-.2856c.001-.0321.002-.0559.002-.0706V78.5963l.003-.0304v-.0014l.001-.0097a.9003.9003 0 0 0 .003-.0455c.002-.0414.006-.1047.009-.1867.006-.1642.01-.4025.004-.6913-.014-.5814-.072-1.3488-.247-2.1204-.362-1.5977-1.124-2.8744-2.65-3.0655-1.566-.1972-2.57.4084-3.207 1.0604-.327.3344-.558.6847-.708.9523-.045.082-.083.1552-.113.2165Zm-41.523.18c.179 3.2865.638 6.4419 1.34 9.3982-2.067.7313-3.558.7104-4.632.35-1.177-.3948-1.989-1.2419-2.557-2.268-.572-1.0341-.871-2.2074-1.024-3.1459a12.7693 12.7693 0 0 1-.134-1.1399 9.114 9.114 0 0 1-.016-.3202c-.002-.0362-.002-.0632-.003-.0802v-.0583l-.004-.0363v-.0074l-.003-.0355c-.002-.033-.006-.0843-.009-.1514a8.3286 8.3286 0 0 1-.004-.5693c.013-.4812.07-1.1144.239-1.7508.339-1.2748 1.061-2.3945 2.659-2.5941 1.565-.1972 2.57.4083 3.206 1.0603.327.3344.559.6847.708.9523.074.1328.127.2425.159.3158.017.0365.028.0638.034.0799l.007.0157-.001-.0011.001-.0011.006-.0024.028-.0103Z" fill="#001F5C"/></svg>
