<svg viewBox="0 0 400 225" fill="none" xmlns="http://www.w3.org/2000/svg"><path d="M190.117 79.5787c.856 0 1.55-1.1643 1.55-2.6006 0-1.4362-.694-2.6005-1.55-2.6005-.856 0-1.55 1.1643-1.55 2.6005 0 1.4363.694 2.6006 1.55 2.6006ZM186.358 73.3442l5.445-2.8352c.738-.3899.481-1.6353-.378-1.7564a6.676 6.676 0 0 0-4.061.6435c-1.539.81-2.121 1.9191-2.295 2.839-.148.7722.635 1.4497 1.289 1.1091ZM207.568 79.5787c.856 0 1.55-1.1643 1.55-2.6006 0-1.4362-.694-2.6005-1.55-2.6005-.856 0-1.55 1.1643-1.55 2.6005 0 1.4363.694 2.6006 1.55 2.6006ZM209.897 72.5343l-5.456-2.6497c-.749-.3596-.522-1.5974.321-1.7412a6.5525 6.5525 0 0 1 4.027.5185c1.558.7533 2.152 1.8283 2.352 2.7368.167.7571-.59 1.4498-1.244 1.1356ZM206.307 86.343c.4.1892.57.6662.381 1.0655-1.102 2.3247-2.965 3.4318-4.516 3.9498a9.234 9.234 0 0 1-1.988.4246 7.9402 7.9402 0 0 1-.616.0386 5.3927 5.3927 0 0 1-.177.0011c-.022-.0002-.039-.0006-.052-.0009l-.016-.0005-.005-.0002-.002-.0001.007.0003-.009-.0004c-.441-.0183-.784-.391-.766-.8325.018-.4407.39-.7833.83-.7662l.004.0001.027.0005c.026.0003.068.0004.125-.0008.112-.0024.281-.01.491-.0311a7.63 7.63 0 0 0 1.64-.3502c1.194-.3986 2.548-1.1958 3.424-2.8155.053-.0976.104-.1982.153-.3019a.7993.7993 0 0 1 1.065-.3802ZM198.794 77.096a.7997.7997 0 0 0-.698-.8903.7996.7996 0 0 0-.89.6982l-1.227 10.145a.7976.7976 0 0 0 .295.7212c.216.173.507.2215.768.1282l5.294-1.8927c.416-.1487.633-.6066.484-1.0226a.7994.7994 0 0 0-1.022-.484l-4.075 1.4568 1.071-8.8598Z" fill="#001F5C"/><path fill-rule="evenodd" clip-rule="evenodd" d="M184.74 95.7815c.519.8658 1.068 1.6887 1.645 2.4637v19.4128l.03.107.77-.217c-.77.217-.769.22-.769.22l.001.003.002.006.004.014c.003.01.007.02.01.031.008.021.017.046.029.072.023.054.053.117.095.187.083.142.208.31.392.493.367.367.965.787 1.94 1.186 1.937.792 5.446 1.53 11.861 1.53 6.381 0 9.478-.571 11.002-1.212.769-.323 1.243-.709 1.479-1.153.119-.227.164-.445.164-.634 0-.068-.005-.129-.014-.184V97.4718a30.19 30.19 0 0 0 1.089-1.6886c1.719-2.8651 3.128-6.226 4.145-9.9377 2.186.7363 3.969.7876 5.417.3373 1.661-.5166 2.753-1.6533 3.459-2.8761.7-1.2128 1.042-2.5422 1.211-3.5441.086-.5055.13-.9386.152-1.2475.011-.1547.017-.279.02-.3663.001-.0437.002-.0782.003-.1028v-.0078l.004-.0498c.003-.0495.007-.1196.011-.2075.007-.1755.012-.4233.004-.721-.015-.5915-.081-1.399-.29-2.2351-.412-1.6512-1.464-3.6485-4.007-3.9669-1.869-.2353-3.228.3826-4.153 1.1606 0-.0877.001-.1754.001-.2632 0-9.3492-2.273-16.2404-6.054-20.809-3.795-4.5842-9.041-6.7463-14.789-6.7463-5.746 0-10.991 2.1633-14.785 6.7479-3.781 4.5691-6.053 11.4603-6.053 20.8074 0 .1202 0 .2403.001.3602-.926-.8226-2.32-1.5026-4.265-1.2576-2.519.315-3.585 2.1848-4.006 3.7709-.211.7942-.277 1.5593-.292 2.1189a9.083 9.083 0 0 0 .005.6828c.003.0834.008.15.011.1972l.004.0433v.0063c0 .0251.001.0605.002.1054.003.0897.009.2176.02.377.022.3183.066.7649.151 1.2867.168 1.0345.508 2.4069 1.203 3.6633.7 1.2643 1.786 2.4525 3.448 3.01 1.476.495 3.299.4569 5.538-.311 1.018 3.7254 2.43 7.0985 4.154 9.9728Zm1.311-43.8135c-3.471 4.1955-5.685 10.682-5.685 19.7873 0 9.1065 2.209 17.3066 5.746 23.2032 2.741 4.5707 6.227 7.6845 10.05 8.8625 1.079.325 2.232.521 3.442.52 1.878 0 3.593-.464 5.111-1.166 3.167-1.482 6.046-4.3191 8.383-8.215 3.202-5.337 5.317-12.5615 5.69-20.639l-.005-.0017.001-.0029.002-.0048.002-.0057c.039-.8414.059-1.692.059-2.5506 0-9.1074-2.214-15.5939-5.687-19.7888-3.459-4.1793-8.234-6.1665-13.556-6.1665-5.32 0-10.094 1.9881-13.553 6.168Zm1.934 54.202v11.169c.023.027.053.062.094.102.185.185.59.5 1.415.838 1.661.679 4.933 1.411 11.256 1.411 6.356 0 9.174-.579 10.382-1.087.41-.172.583-.316.649-.384v-18.124c-6.543 10.981-20.336 7.229-23.796 6.075Zm32.387-31.4954c-.171 3.3656-.638 6.5951-1.359 9.6162 2.019.6993 3.483.6942 4.544.3642 1.178-.3665 1.985-1.1728 2.548-2.1482.569-.9855.867-2.1094 1.02-3.0114.075-.4464.114-.8279.133-1.0955.01-.1335.014-.2381.017-.3074l.001-.0429.001-.0338v-.0539l.004-.0337v-.0088l.003-.0392c.003-.0362.006-.092.009-.1646.006-.1455.01-.3575.004-.6147-.014-.5185-.071-1.2016-.243-1.8882-.348-1.3943-1.086-2.571-2.654-2.7673-1.566-.1972-2.57.4084-3.207 1.0604-.327.3344-.558.6847-.708.9523-.045.082-.083.1552-.113.2165Zm-41.523.18c.179 3.2865.638 6.4419 1.34 9.3982-2.067.7313-3.558.7104-4.632.35-1.177-.3948-1.989-1.2419-2.557-2.268-.572-1.0341-.871-2.2074-1.024-3.1459a12.7693 12.7693 0 0 1-.134-1.1399 9.114 9.114 0 0 1-.016-.3202c-.002-.0362-.002-.0632-.003-.0802v-.0583l-.004-.0363v-.0074l-.003-.0355c-.002-.033-.006-.0843-.009-.1514a8.3286 8.3286 0 0 1-.004-.5693c.013-.4812.07-1.1144.239-1.7508.339-1.2748 1.061-2.3945 2.659-2.5941 1.565-.1972 2.57.4083 3.206 1.0603.327.3344.559.6847.708.9523.074.1328.127.2425.159.3158.017.0365.028.0638.034.0799l.007.0157-.001-.0011.001-.0011.006-.0024.028-.0103Z" fill="#001F5C"/></svg>
