<svg viewBox="0 0 400 225" fill="none" xmlns="http://www.w3.org/2000/svg"><path d="M190.485 76.6154c0 1.4807-.722 2.6811-1.613 2.6811-.89 0-1.612-1.2004-1.612-2.6811s.722-2.6811 1.612-2.6811c.891 0 1.613 1.2004 1.613 2.6811ZM191.023 68.8941l-5.663 2.923c-.68.3513-1.495-.3473-1.341-1.1434.181-.9484.786-2.0919 2.387-2.927a6.9962 6.9962 0 0 1 4.224-.6635c.892.1249 1.16 1.4089.393 1.8109ZM210.225 76.6154c0 1.4807-.722 2.6811-1.613 2.6811-.89 0-1.612-1.2004-1.612-2.6811s.722-2.6811 1.612-2.6811c.891 0 1.613 1.2004 1.613 2.6811ZM207.472 68.9126l5.675 2.7318c.68.3239 1.467-.3902 1.294-1.1708-.209-.9366-.826-2.045-2.447-2.8216a6.8705 6.8705 0 0 0-4.188-.5347c-.877.1483-1.113 1.4245-.334 1.7953Z" fill="#001F5C"/><path fill-rule="evenodd" clip-rule="evenodd" d="M193.5 87.1997a.8.8 0 0 0-.8.8c0 1.0431.124 2.751 1.145 4.2088 1.058 1.5126 2.96 2.5912 6.155 2.5912 2.664 0 4.34-1.132 5.287-2.6203.914-1.4351 1.104-3.1221 1.01-4.2461a.7994.7994 0 0 0-.797-.7336h-12Zm1.655 4.0912a4.093 4.093 0 0 1-.264-.4348c1.782-.6023 5.519-1.2578 9.353-.107a4.4078 4.4078 0 0 1-.306.571c-.644 1.0116-1.802 1.8796-3.938 1.8796-2.805 0-4.153-.9213-4.845-1.9088Z" fill="#001F5C"/><path d="M197.537 82.4067a.8.8 0 0 0-1.13.056c-.297.3275-.271.8334.056 1.13.513.4641 1.404 1.0015 2.483 1.1606 1.117.1646 2.402-.0842 3.591-1.1606.327-.2966.353-.8025.056-1.13a.8.8 0 0 0-1.13-.056c-.811.7347-1.609.8632-2.284.7637-.713-.1051-1.321-.4732-1.642-.7637Z" fill="#001F5C"/><path fill-rule="evenodd" clip-rule="evenodd" d="M186.385 98.245c-.577-.7751-1.126-1.598-1.645-2.4638-1.724-2.8743-3.136-6.2474-4.154-9.9729-2.239.7679-4.062.8061-5.538.3111-1.662-.5576-2.748-1.7457-3.448-3.0101-.695-1.2564-1.035-2.6287-1.203-3.6633a14.1877 14.1877 0 0 1-.151-1.2867 10.8322 10.8322 0 0 1-.02-.377c-.001-.0449-.002-.0803-.002-.1054v-.0062l-.004-.0433c-.003-.0473-.008-.1139-.011-.1972a9.085 9.085 0 0 1-.005-.6829c.015-.5595.081-1.3247.292-2.1188.421-1.5862 1.487-3.456 4.006-3.771 1.945-.2449 3.339.435 4.265 1.2577-.001-.1199-.001-.24-.001-.3602 0-9.3471 2.272-16.2382 6.053-20.8073 3.794-4.5847 9.039-6.748 14.785-6.748 5.748 0 10.994 2.1621 14.789 6.7464 3.781 4.5686 6.054 11.4598 6.054 20.8089 0 .0878-.001.1755-.001.2631.925-.778 2.284-1.3958 4.153-1.1606 2.549.3191 3.579 2.3231 3.971 3.9762.198.8369.254 1.6448.261 2.2363.004.2977-.004.5456-.014.7211-.005.0879-.01.158-.014.2075l-.003.0413c-.001.0245-.001.0591-.002.1028-.003.0873-.008.2115-.018.3662-.02.3089-.06.742-.142 1.2475-.162 1.0018-.493 2.3317-1.183 3.5454-.696 1.2238-1.778 2.3627-3.434 2.8803-1.442.4509-3.221.3991-5.406-.3369-1.017 3.7117-2.426 7.0726-4.145 9.9377a30.2296 30.2296 0 0 1-1.089 1.6887v20.6354c.009.054.014.116.014.184 0 .189-.045.407-.164.633-.236.445-.71.83-1.479 1.154-1.524.641-4.621 1.212-11.002 1.212-6.415 0-9.924-.739-11.861-1.531-.975-.398-1.573-.819-1.94-1.185-.184-.184-.309-.352-.392-.493-.042-.07-.072-.133-.095-.187a1.0956 1.0956 0 0 1-.029-.073c-.003-.011-.007-.021-.01-.03l-.004-.014-.002-.006-.002-.007-.03-.106V98.245Zm-6.019-26.49c0-9.1052 2.214-15.5917 5.685-19.7873 3.459-4.1798 8.233-6.168 13.553-6.168 5.322 0 10.097 1.9873 13.556 6.1666 3.473 4.1949 5.687 10.6813 5.687 19.7887 0 .8586-.02 1.7092-.059 2.5505l-.002.0057-.002.0049v.003l.004.0016c-.373 8.0775-2.488 15.3021-5.69 20.639-2.334 3.8899-5.207 6.7243-8.368 8.2083-1.522.705-3.241 1.173-5.126 1.173-1.214.001-2.371-.197-3.454-.524-3.818-1.18-7.3-4.2928-10.038-8.8587-3.537-5.8967-5.746-14.0967-5.746-23.2033Zm7.619 45.583V106.17c3.46 1.154 17.253 4.905 23.796-6.075v18.123c-.066.069-.239.212-.649.385-1.208.508-4.026 1.087-10.382 1.087-6.323 0-9.595-.733-11.256-1.412-.825-.337-1.23-.652-1.415-.837a1.23 1.23 0 0 1-.094-.103Zm31.029-33.0475c.72-3.0211 1.187-6.2507 1.358-9.6163.03-.0613.068-.1345.113-.2165.15-.2676.381-.6178.708-.9523.637-.6519 1.64-1.2576 3.206-1.0604 1.563.1956 2.284 1.3657 2.614 2.7581.163.6858.212 1.3685.218 1.887.003.2572-.004.4692-.012.6147a6.173 6.173 0 0 1-.011.1646l-.003.0392-.001.0077v.0011l-.004.0417v.0621l-.001.0232-.001.0535c-.002.0694-.006.1739-.014.3075-.018.2677-.053.6491-.125 1.0955-.146.9021-.435 2.0255-.995 3.0101-.554.9744-1.351 1.7785-2.52 2.144-1.054.3293-2.513.335-4.53-.3645Zm-38.825-.038c-.702-2.9564-1.161-6.1117-1.34-9.3983l-.028.0104c-.007.0027-.007.0029-.007.0029l.001.0016-.007-.0156a1.1114 1.1114 0 0 0-.034-.0799 3.8 3.8 0 0 0-.159-.3159c-.149-.2676-.381-.6178-.708-.9523-.636-.6519-1.64-1.2576-3.206-1.0604-1.597.1997-2.32 1.3195-2.659 2.5943-.169.6364-.226 1.2695-.239 1.7507-.006.2386-.002.435.004.5693.003.0671.007.1184.009.1515l.003.0354v.0066l.004.0372V77.6483c.001.017.001.044.003.0802.002.0723.007.1812.016.3202.02.2784.058.6751.134 1.1399.153.9385.452 2.1118 1.024 3.1458.568 1.0261 1.38 1.8733 2.557 2.268 1.074.3604 2.564.3813 4.632-.3499Z" fill="#001F5C"/></svg>
