<svg viewBox="0 0 400 225" fill="none" xmlns="http://www.w3.org/2000/svg"><path d="M207.549 79.5787c-.856 0-1.55-1.1643-1.55-2.6006 0-1.4362.694-2.6005 1.55-2.6005.856 0 1.551 1.1643 1.551 2.6005 0 1.4363-.695 2.6006-1.551 2.6006ZM212.759 74.7966l-5.446-2.8352c-.737-.3899-.48-1.6353.379-1.7564a6.676 6.676 0 0 1 4.061.6435c1.539.81 2.121 1.9191 2.295 2.839.148.7722-.635 1.4497-1.289 1.1091ZM190.098 79.5787c-.856 0-1.55-1.1643-1.55-2.6006 0-1.4362.694-2.6005 1.55-2.6005.856 0 1.551 1.1643 1.551 2.6005 0 1.4363-.695 2.6006-1.551 2.6006ZM186.318 73.9865l5.457-2.6498c.748-.3596.521-1.5974-.322-1.7412a6.5544 6.5544 0 0 0-4.027.5186c-1.558.7533-2.152 1.8283-2.352 2.7368-.166.757.59 1.4497 1.244 1.1356Z" fill="#001F5C"/><path fill-rule="evenodd" clip-rule="evenodd" d="M203.373 91.3042c.134-.4213-.098-.8714-.519-1.0054-2.45-.7802-4.529-.1728-5.966.6088a9.236 9.236 0 0 0-1.666 1.1645 8.106 8.106 0 0 0-.449.4245 4.04 4.04 0 0 0-.121.1291c-.015.0159-.026.0287-.035.0384l-.01.0119-.004.0041-.001.0016s.005-.0057-.001.0012c-.288.3354-.25.8407.085 1.1287a.7989.7989 0 0 0 1.126-.0839s.468-.4717 1.281-1.0636c.813-.592 1.629-.8192 1.629-.8192s.419-.3019 1.599-.3019c1.179 0 1.723.1872 1.723.1872.108.028.216.0593.325.094.421.1341.87-.0988 1.004-.52Zm-1.329.426s-.544-.1872-1.723-.1872c-1.18 0-1.599.3019-1.599.3019s-.816.2272-1.629.8192c-.813.5919-1.281 1.0636-1.281 1.0636l.001-.0008.002-.0023.018-.0201c.018-.0194.046-.0502.086-.0906.078-.0807.199-.1987.358-.3383a7.6218 7.6218 0 0 1 1.375-.9614c1.106-.6017 2.612-1.0487 4.392-.584Z" fill="#001F5C"/><path d="M199.203 76.0639c-.036-.4405.293-.8261.733-.8614a.7991.7991 0 0 1 .861.7335l.894 11.145a.8033.8033 0 0 1-.311.699.8005.8005 0 0 1-.756.1182l-5.294-1.8927a.7998.7998 0 0 1-.484-1.0226.8002.8002 0 0 1 1.023-.484l4.128 1.4759-.794-9.9109Z" fill="#001F5C"/><path fill-rule="evenodd" clip-rule="evenodd" d="M184.74 95.7815c.519.8658 1.068 1.6887 1.645 2.4637v19.4128l.03.106.004.013c-.004-.013-.003-.009-.003-.009l.001.003.002.006.004.014c.003.009.007.019.01.03.008.022.017.046.029.073.023.054.053.117.095.187.083.141.208.31.392.493.367.366.965.787 1.94 1.185 1.937.792 5.446 1.531 11.861 1.531 6.381 0 9.478-.571 11.002-1.212.769-.324 1.243-.709 1.479-1.154.119-.226.164-.444.164-.633 0-.068-.005-.13-.014-.184V97.4718a30.19 30.19 0 0 0 1.089-1.6886c1.72-2.8654 3.128-6.2266 4.146-9.9387 2.191.7332 3.98.7624 5.433.2752 1.662-.5574 2.748-1.7455 3.449-3.0098.696-1.2563 1.036-2.6287 1.205-3.6632.085-.5218.129-.9684.151-1.2867.011-.1594.017-.2873.02-.377.001-.0449.002-.0803.003-.1054v-.0067l.003-.0437c.004-.0473.008-.1139.011-.1972a9.083 9.083 0 0 0 .005-.6828c-.015-.5595-.081-1.3246-.293-2.1187-.422-1.5856-1.488-3.4556-4.004-3.7706-1.869-.2353-3.228.3826-4.153 1.1606 0-.0877.001-.1754.001-.2632 0-9.3492-2.273-16.2404-6.054-20.809-3.795-4.5842-9.041-6.7463-14.789-6.7463-5.746 0-10.991 2.1633-14.785 6.7479-3.781 4.5691-6.053 11.4603-6.053 20.8074 0 .1202 0 .2403.001.3602-.926-.8226-2.32-1.5026-4.265-1.2576-2.519.315-3.585 2.1848-4.006 3.7709-.211.7942-.277 1.5593-.292 2.1189a9.083 9.083 0 0 0 .005.6828c.003.0834.008.15.011.1972l.004.0433v.0063c0 .0251.001.0605.002.1054.003.0897.009.2176.02.377.022.3183.066.7649.151 1.2867.168 1.0345.508 2.4069 1.203 3.6633.7 1.2643 1.786 2.4525 3.448 3.01 1.476.495 3.299.4569 5.538-.311 1.018 3.7254 2.43 7.0985 4.154 9.9728Zm1.311-43.8135c-3.471 4.1955-5.685 10.682-5.685 19.7873 0 9.1065 2.209 17.3066 5.746 23.2032 2.733 4.5569 6.206 7.6655 10.015 8.8515 1.09.332 2.254.532 3.477.531 1.896 0 3.625-.473 5.154-1.186 3.15-1.487 6.013-4.3166 8.34-8.195 3.202-5.337 5.317-12.5615 5.69-20.639l-.005-.0017.001-.0029.002-.0048.002-.0057c.039-.8414.059-1.692.059-2.5506 0-9.1074-2.214-15.5939-5.687-19.7888-3.459-4.1793-8.234-6.1665-13.556-6.1665-5.32 0-10.094 1.9881-13.553 6.168Zm1.934 54.202v11.169c.023.027.053.062.094.102.185.185.59.5 1.415.837 1.661.679 4.933 1.412 11.256 1.412 6.356 0 9.174-.579 10.382-1.087.41-.173.583-.316.649-.385v-18.123c-6.543 10.981-20.336 7.229-23.796 6.075Zm32.387-31.4954c-.171 3.3653-.638 6.5946-1.358 9.6155 2.012.6931 3.47.6669 4.526.3127 1.178-.3949 1.99-1.2421 2.558-2.2683.573-1.0341.873-2.2074 1.026-3.1459.076-.4647.114-.8615.134-1.1399.01-.139.014-.2478.017-.3202.001-.0362.002-.0632.002-.0802v-.0203l.001-.0375.003-.036v-.0013l.001-.006.002-.0355c.003-.033.006-.0844.009-.1514.006-.1344.01-.3308.004-.5694-.013-.4813-.071-1.1145-.24-1.751-.339-1.2753-1.062-2.3949-2.657-2.5945-1.566-.1972-2.57.4084-3.207 1.0604-.327.3344-.558.6847-.708.9523-.045.082-.083.1552-.113.2165Zm-41.523.18c.179 3.2865.638 6.4419 1.34 9.3982-2.067.7313-3.558.7104-4.632.35-1.177-.3948-1.989-1.2419-2.557-2.268-.572-1.0341-.871-2.2074-1.024-3.1459a12.7693 12.7693 0 0 1-.134-1.1399 9.114 9.114 0 0 1-.016-.3202c-.002-.0362-.002-.0632-.003-.0802v-.0583l-.004-.0363v-.0074l-.003-.0355c-.002-.033-.006-.0843-.009-.1514a8.3286 8.3286 0 0 1-.004-.5693c.013-.4812.07-1.1144.239-1.7508.339-1.2748 1.061-2.3945 2.659-2.5941 1.565-.1972 2.57.4083 3.206 1.0603.327.3344.559.6847.708.9523.074.1328.127.2425.159.3158.017.0365.028.0638.034.0799l.007.0157-.001-.0011.001-.0011.006-.0024.028-.0103Z" fill="#001F5C"/></svg>
