<svg viewBox="0 0 400 225" fill="none" xmlns="http://www.w3.org/2000/svg"><mask id="path-1-inside-1_8874_14305" fill="white"><path d="m191.831 67.7506-5.537 2.5046c-.663.2994-1.4-.4089-1.214-1.1647.222-.9018.846-1.9642 2.425-2.6798a6.6012 6.6012 0 0 1 4.049-.4126c.842.1643 1.032 1.413.277 1.7525ZM205.724 77.5163c-.589.1404-.979.2331-.979-.2912 0-.8251.981-1.5042 2.189-1.5042 1.207 0 2.188.6645 2.188 1.5042 0 .5287-.389.4351-.978.2932-.347-.0835-.763-.1837-1.21-.1837-.447 0-.863.0991-1.21.1817ZM205.212 71.5404l5.303 2.8003c.635.3322 1.405-.3213 1.266-1.0953-.168-.9018-.73-1.9862-2.229-2.7858a6.5128 6.5128 0 0 0-3.964-.6535c-.839.1351-1.102 1.3509-.376 1.7343ZM197.003 85.1257a.7992.7992 0 0 0-.588-.9667c-.429-.1046-.862.1585-.966.5878-.13.5306-.162 1.0308-.044 1.4777.125.4732.404.8354.788 1.0684.361.2188.769.2973 1.138.3149.375.0179.764-.0243 1.132-.0922.734-.1357 1.478-.3927 2.023-.6066.276-.1083.508-.2086.673-.2823.082-.0369.148-.0672.194-.0887l.053-.0254.015-.0072.004-.0022.002-.0007-.074.0355.075-.0359c.397-.1939.561-.6729.368-1.0699a.8003.8003 0 0 0-1.07-.3679l-.002.0009-.01.0046-.042.02c-.038.0177-.094.0441-.167.0767-.146.0655-.355.1557-.604.2532-.504.1978-1.139.4136-1.729.5225-.294.0544-.553.0775-.764.0674-.217-.0103-.333-.0531-.385-.0847-.029-.0177-.052-.0353-.071-.1077-.026-.0986-.042-.3094.051-.6915ZM204.265 86.6895a.7997.7997 0 0 1 .313 1.0873c-1.206 2.181-3.074 3.1384-4.603 3.545a8.9391 8.9391 0 0 1-1.945.2897 7.7117 7.7117 0 0 1-.598 0 5.3842 5.3842 0 0 1-.172-.0098c-.021-.0015-.037-.0029-.05-.004l-.015-.0015-.006-.0005-.002-.0002s.073.0062.008.0007l-.009-.0009a.8.8 0 0 1 .164-1.5915l.001.0001.003.0002.025.0021c.025.0018.065.0044.119.0066.108.0045.269.0074.472-.0002a7.3289 7.3289 0 0 0 1.594-.2371c1.238-.3291 2.675-1.0767 3.614-2.7731a.7997.7997 0 0 1 1.087-.3129ZM191.317 77.2763c0 1.3852-.67 2.5082-1.496 2.5082s-1.495-1.123-1.495-2.5082c0-1.3853.669-2.5083 1.495-2.5083.826 0 1.496 1.123 1.496 2.5083Z"/><path fill-rule="evenodd" clip-rule="evenodd" d="M184.74 95.7815c.519.8658 1.068 1.6887 1.645 2.4637v19.4128l.03.107.001.003.001.003.002.006.004.014c.003.01.007.02.01.031.008.021.017.046.029.072.023.054.053.117.095.187.083.142.208.31.392.493.367.367.965.787 1.94 1.186 1.937.792 5.446 1.53 11.861 1.53 6.381 0 9.478-.571 11.002-1.212.769-.323 1.243-.709 1.479-1.153.119-.227.164-.445.164-.634 0-.068-.005-.129-.014-.184V97.4718a30.19 30.19 0 0 0 1.089-1.6886c1.719-2.8651 3.128-6.226 4.145-9.9377 2.186.7363 3.969.7876 5.417.3373 1.661-.5166 2.753-1.6533 3.459-2.8761.7-1.2128 1.042-2.5422 1.211-3.5441.086-.5055.13-.9386.152-1.2475.011-.1547.017-.279.02-.3663.001-.0437.002-.0782.003-.1028v-.0078l.004-.0498c.003-.0495.007-.1196.011-.2075.007-.1755.012-.4233.004-.721-.015-.5915-.081-1.399-.29-2.2351-.412-1.6512-1.464-3.6485-4.007-3.9669-1.869-.2353-3.228.3826-4.153 1.1606 0-.0877.001-.1754.001-.2632 0-9.3492-2.273-16.2404-6.054-20.809-3.795-4.5842-9.041-6.7463-14.789-6.7463-5.746 0-10.991 2.1633-14.785 6.7479-3.781 4.5691-6.053 11.4603-6.053 20.8074 0 .1202 0 .2403.001.3602-.926-.8226-2.32-1.5026-4.265-1.2576-2.519.315-3.585 2.1848-4.006 3.7709-.211.7942-.277 1.5593-.292 2.1189a9.083 9.083 0 0 0 .005.6828c.003.0834.008.15.011.1972l.004.0433v.0063c0 .0251.001.0605.002.1054.003.0897.009.2176.02.377.022.3183.066.7649.151 1.2867.168 1.0345.508 2.4069 1.203 3.6633.7 1.2643 1.786 2.4525 3.448 3.01 1.476.495 3.299.4569 5.538-.311 1.018 3.7254 2.43 7.0985 4.154 9.9728Zm1.311-43.8135c-3.471 4.1955-5.685 10.682-5.685 19.7873 0 9.1065 2.209 17.3066 5.746 23.2032 2.741 4.5707 6.227 7.6845 10.05 8.8625 1.079.325 2.232.521 3.442.52 1.878 0 3.593-.464 5.111-1.166 3.167-1.482 6.046-4.3191 8.383-8.215 3.202-5.337 5.317-12.5615 5.69-20.639l-.005-.0017.001-.0029.002-.0048.002-.0057c.039-.8414.059-1.692.059-2.5506 0-9.1074-2.214-15.5939-5.687-19.7888-3.459-4.1793-8.234-6.1665-13.556-6.1665-5.32 0-10.094 1.9881-13.553 6.168Zm1.934 54.202v11.169c.023.027.053.062.094.102.185.185.59.5 1.415.838 1.661.679 4.933 1.411 11.256 1.411 6.356 0 9.174-.579 10.382-1.087.41-.172.583-.316.649-.384v-18.124c-6.543 10.981-20.336 7.229-23.796 6.075Zm32.387-31.4954c-.171 3.3656-.638 6.5951-1.359 9.6162 2.019.6993 3.483.6942 4.544.3642 1.178-.3665 1.985-1.1728 2.548-2.1482.569-.9855.867-2.1094 1.02-3.0114.075-.4464.114-.8279.133-1.0955.01-.1335.014-.2381.017-.3074l.001-.0429.001-.0338v-.0539l.004-.0337v-.0088l.003-.0392c.003-.0362.006-.092.009-.1646.006-.1455.01-.3575.004-.6147-.014-.5185-.071-1.2016-.243-1.8882-.348-1.3943-1.086-2.571-2.654-2.7673-1.566-.1972-2.57.4084-3.207 1.0604-.327.3344-.558.6847-.708.9523-.045.082-.083.1552-.113.2165Zm-41.523.18c.179 3.2865.638 6.4419 1.34 9.3982-2.067.7313-3.558.7104-4.632.35-1.177-.3948-1.989-1.2419-2.557-2.268-.572-1.0341-.871-2.2074-1.024-3.1459a12.7693 12.7693 0 0 1-.134-1.1399 9.114 9.114 0 0 1-.016-.3202c-.002-.0362-.002-.0632-.003-.0802v-.0583l-.004-.0363v-.0074l-.003-.0355c-.002-.033-.006-.0843-.009-.1514a8.3286 8.3286 0 0 1-.004-.5693c.013-.4812.07-1.1144.239-1.7508.339-1.2748 1.061-2.3945 2.659-2.5941 1.565-.1972 2.57.4083 3.206 1.0603.327.3344.559.6847.708.9523.074.1328.127.2425.159.3158.017.0365.028.0638.034.0799l.007.0157-.001-.0011.001-.0011.006-.0024.028-.0103Z"/></mask><path d="m191.831 67.7506-5.537 2.5046c-.663.2994-1.4-.4089-1.214-1.1647.222-.9018.846-1.9642 2.425-2.6798a6.6012 6.6012 0 0 1 4.049-.4126c.842.1643 1.032 1.413.277 1.7525ZM205.724 77.5163c-.589.1404-.979.2331-.979-.2912 0-.8251.981-1.5042 2.189-1.5042 1.207 0 2.188.6645 2.188 1.5042 0 .5287-.389.4351-.978.2932-.347-.0835-.763-.1837-1.21-.1837-.447 0-.863.0991-1.21.1817ZM205.212 71.5404l5.303 2.8003c.635.3322 1.405-.3213 1.266-1.0953-.168-.9018-.73-1.9862-2.229-2.7858a6.5128 6.5128 0 0 0-3.964-.6535c-.839.1351-1.102 1.3509-.376 1.7343ZM197.003 85.1257a.7992.7992 0 0 0-.588-.9667c-.429-.1046-.862.1585-.966.5878-.13.5306-.162 1.0308-.044 1.4777.125.4732.404.8354.788 1.0684.361.2188.769.2973 1.138.3149.375.0179.764-.0243 1.132-.0922.734-.1357 1.478-.3927 2.023-.6066.276-.1083.508-.2086.673-.2823.082-.0369.148-.0672.194-.0887l.053-.0254.015-.0072.004-.0022.002-.0007-.074.0355.075-.0359c.397-.1939.561-.6729.368-1.0699a.8003.8003 0 0 0-1.07-.3679l-.002.0009-.01.0046-.042.02c-.038.0177-.094.0441-.167.0767-.146.0655-.355.1557-.604.2532-.504.1978-1.139.4136-1.729.5225-.294.0544-.553.0775-.764.0674-.217-.0103-.333-.0531-.385-.0847-.029-.0177-.052-.0353-.071-.1077-.026-.0986-.042-.3094.051-.6915ZM204.265 86.6895a.7997.7997 0 0 1 .313 1.0873c-1.206 2.181-3.074 3.1384-4.603 3.545a8.9391 8.9391 0 0 1-1.945.2897 7.7117 7.7117 0 0 1-.598 0 5.3842 5.3842 0 0 1-.172-.0098c-.021-.0015-.037-.0029-.05-.004l-.015-.0015-.006-.0005-.002-.0002s.073.0062.008.0007l-.009-.0009a.8.8 0 0 1 .164-1.5915l.001.0001.003.0002.025.0021c.025.0018.065.0044.119.0066.108.0045.269.0074.472-.0002a7.3289 7.3289 0 0 0 1.594-.2371c1.238-.3291 2.675-1.0767 3.614-2.7731a.7997.7997 0 0 1 1.087-.3129ZM191.317 77.2763c0 1.3852-.67 2.5082-1.496 2.5082s-1.495-1.123-1.495-2.5082c0-1.3853.669-2.5083 1.495-2.5083.826 0 1.496 1.123 1.496 2.5083Z" fill="#001F5C"/><path fill-rule="evenodd" clip-rule="evenodd" d="M184.74 95.7815c.519.8658 1.068 1.6887 1.645 2.4637v19.4128l.03.107.001.003.001.003.002.006.004.014c.003.01.007.02.01.031.008.021.017.046.029.072.023.054.053.117.095.187.083.142.208.31.392.493.367.367.965.787 1.94 1.186 1.937.792 5.446 1.53 11.861 1.53 6.381 0 9.478-.571 11.002-1.212.769-.323 1.243-.709 1.479-1.153.119-.227.164-.445.164-.634 0-.068-.005-.129-.014-.184V97.4718a30.19 30.19 0 0 0 1.089-1.6886c1.719-2.8651 3.128-6.226 4.145-9.9377 2.186.7363 3.969.7876 5.417.3373 1.661-.5166 2.753-1.6533 3.459-2.8761.7-1.2128 1.042-2.5422 1.211-3.5441.086-.5055.13-.9386.152-1.2475.011-.1547.017-.279.02-.3663.001-.0437.002-.0782.003-.1028v-.0078l.004-.0498c.003-.0495.007-.1196.011-.2075.007-.1755.012-.4233.004-.721-.015-.5915-.081-1.399-.29-2.2351-.412-1.6512-1.464-3.6485-4.007-3.9669-1.869-.2353-3.228.3826-4.153 1.1606 0-.0877.001-.1754.001-.2632 0-9.3492-2.273-16.2404-6.054-20.809-3.795-4.5842-9.041-6.7463-14.789-6.7463-5.746 0-10.991 2.1633-14.785 6.7479-3.781 4.5691-6.053 11.4603-6.053 20.8074 0 .1202 0 .2403.001.3602-.926-.8226-2.32-1.5026-4.265-1.2576-2.519.315-3.585 2.1848-4.006 3.7709-.211.7942-.277 1.5593-.292 2.1189a9.083 9.083 0 0 0 .005.6828c.003.0834.008.15.011.1972l.004.0433v.0063c0 .0251.001.0605.002.1054.003.0897.009.2176.02.377.022.3183.066.7649.151 1.2867.168 1.0345.508 2.4069 1.203 3.6633.7 1.2643 1.786 2.4525 3.448 3.01 1.476.495 3.299.4569 5.538-.311 1.018 3.7254 2.43 7.0985 4.154 9.9728Zm1.311-43.8135c-3.471 4.1955-5.685 10.682-5.685 19.7873 0 9.1065 2.209 17.3066 5.746 23.2032 2.741 4.5707 6.227 7.6845 10.05 8.8625 1.079.325 2.232.521 3.442.52 1.878 0 3.593-.464 5.111-1.166 3.167-1.482 6.046-4.3191 8.383-8.215 3.202-5.337 5.317-12.5615 5.69-20.639l-.005-.0017.001-.0029.002-.0048.002-.0057c.039-.8414.059-1.692.059-2.5506 0-9.1074-2.214-15.5939-5.687-19.7888-3.459-4.1793-8.234-6.1665-13.556-6.1665-5.32 0-10.094 1.9881-13.553 6.168Zm1.934 54.202v11.169c.023.027.053.062.094.102.185.185.59.5 1.415.838 1.661.679 4.933 1.411 11.256 1.411 6.356 0 9.174-.579 10.382-1.087.41-.172.583-.316.649-.384v-18.124c-6.543 10.981-20.336 7.229-23.796 6.075Zm32.387-31.4954c-.171 3.3656-.638 6.5951-1.359 9.6162 2.019.6993 3.483.6942 4.544.3642 1.178-.3665 1.985-1.1728 2.548-2.1482.569-.9855.867-2.1094 1.02-3.0114.075-.4464.114-.8279.133-1.0955.01-.1335.014-.2381.017-.3074l.001-.0429.001-.0338v-.0539l.004-.0337v-.0088l.003-.0392c.003-.0362.006-.092.009-.1646.006-.1455.01-.3575.004-.6147-.014-.5185-.071-1.2016-.243-1.8882-.348-1.3943-1.086-2.571-2.654-2.7673-1.566-.1972-2.57.4084-3.207 1.0604-.327.3344-.558.6847-.708.9523-.045.082-.083.1552-.113.2165Zm-41.523.18c.179 3.2865.638 6.4419 1.34 9.3982-2.067.7313-3.558.7104-4.632.35-1.177-.3948-1.989-1.2419-2.557-2.268-.572-1.0341-.871-2.2074-1.024-3.1459a12.7693 12.7693 0 0 1-.134-1.1399 9.114 9.114 0 0 1-.016-.3202c-.002-.0362-.002-.0632-.003-.0802v-.0583l-.004-.0363v-.0074l-.003-.0355c-.002-.033-.006-.0843-.009-.1514a8.3286 8.3286 0 0 1-.004-.5693c.013-.4812.07-1.1144.239-1.7508.339-1.2748 1.061-2.3945 2.659-2.5941 1.565-.1972 2.57.4083 3.206 1.0603.327.3344.559.6847.708.9523.074.1328.127.2425.159.3158.017.0365.028.0638.034.0799l.007.0157-.001-.0011.001-.0011.006-.0024.028-.0103Z" fill="#001F5C"/><path d="m179.563 74.5859-.001-.0011-1.495.5694v.0011l1.496-.5694Zm6.488-22.6179-1.232-1.0201 1.232 1.0201Zm.061 42.9905-1.372.823 1.372-.823Zm10.05 8.8625-.471 1.529.01.003.461-1.532Zm3.442.52v-1.6h-.001l.001 1.6Zm5.111-1.166.672 1.452.006-.003-.678-1.449Zm8.383-8.215-1.372-.8232 1.372.8232Zm5.69-20.639 1.598.0737.053-1.1561-1.081-.4125-.57 1.4949Zm-.005-.0017 1.494.5729.005-.0112.004-.0112-1.503-.5505Zm.001-.0029-1.5-.5565-.002.006 1.502.5505Zm.002-.0048-1.497-.5653-.003.0088 1.5.5565Zm.002-.0057 1.497.5652.09-.2379.012-.2541-1.599-.0732Zm-5.628-22.3394-1.232 1.0202 1.232-1.0202Zm-26.775 46.2787h1.6v-.5302l-.316-.4254-1.284.9556Zm-1.645-2.4637-1.372.823 1.372-.823Zm1.645 21.8765h-1.6v.221l.06.213 1.54-.434Zm.03.107-1.54.433.001.003 1.539-.436Zm.001.003-1.539.437.001.005 1.538-.442Zm.001.003-1.538.442.003.009 1.535-.451Zm.002.006-1.535.452.003.009.002.009 1.53-.47Zm.004.014-1.529.47.003.012 1.526-.482Zm.01.031-1.509.529v.001l1.509-.53Zm.029.072-1.473.627 1.473-.627Zm.095.187 1.378-.813-1.378.813Zm.392.493 1.13-1.133-1.13 1.133Zm1.94 1.186.605-1.481-.605 1.481Zm22.863.318.621 1.475-.621-1.475Zm1.479-1.153 1.414.748-1.414-.748Zm.164-.634-1.6-.002 1.6.002Zm-.014-.184h-1.6v.126l.02.123 1.58-.249Zm0-20.6352-1.315-.9119-.285.4113v.5006h1.6Zm1.089-1.6886-1.372-.8232 1.372.8232Zm4.145-9.9377.511-1.5163-1.606-.541-.448 1.6344 1.543.4229Zm5.417.3373-.475-1.5278.475 1.5278Zm3.459-2.8761 1.386.7999-1.386-.7999Zm1.211-3.5441 1.578.2671-1.578-.2671Zm.152-1.2475-1.596-.1152 1.596.1152Zm.02-.3663-1.599-.0564 1.599.0564Zm.003-.1028 1.6.0304v-.0062l-1.6-.0242Zm0-.0078-1.596-.1157-.003.0458-.001.0458 1.6.0241Zm.004-.0498 1.595.1157.001-.0074-1.596-.1083Zm.011-.2075 1.598.0654-1.598-.0654Zm.004-.721-1.599.041 1.599-.041Zm-.29-2.2351-1.552.3879 1.552-.3879Zm-4.007-3.9669-.2 1.5874.001.0002.199-1.5876Zm-4.153 1.1606-1.6-.0073-.016 3.4579 2.646-2.2264-1.03-1.2242Zm-6.053-21.0722-1.233 1.0202 1.233-1.0202Zm-29.574.0016-1.233-1.02 1.233 1.02Zm-6.052 21.1676-1.063 1.1959 2.685 2.3867-.022-3.5925-1.6.0099Zm-4.265-1.2576.198 1.5876.002-.0002-.2-1.5874Zm-4.006 3.7709 1.546.4109-1.546-.4109Zm-.292 2.1189 1.599.0427-1.599-.0427Zm.005.6828 1.598-.0708-1.598.0708Zm.011.1972-1.596.1166.001.0072 1.595-.1238Zm.004.0433 1.599-.0232v-.0503l-.004-.0502-1.595.1237Zm0 .0063-1.6.0232v.0055l1.6-.0287Zm.002.1054-1.599.0539 1.599-.0539Zm.02.377 1.596-.1107-1.596.1107Zm.151 1.2867 1.579-.2575-1.579.2575Zm1.203 3.6633 1.4-.7749-1.4.7749Zm3.448 3.01.509-1.5169-.509 1.5169Zm5.538-.311 1.544-.4216-.449-1.645-1.614.5531.519 1.5135Zm7.399 31.5303h-1.6v.565l.355.44 1.245-1.005Zm0-11.169.507-1.518-2.107-.703v2.221h1.6Zm.094 11.271 1.129-1.133-1.129 1.133Zm1.415.838.605-1.481-.605 1.481Zm21.638.324.62 1.475-.62-1.475Zm.649-.384 1.153 1.109.447-.464v-.645h-1.6Zm0-18.124h1.6v-5.8111l-2.974 4.9921 1.374.819Zm7.232-15.8042-1.556-.3712-.336 1.4088 1.369.4742.523-1.5118Zm1.359-9.6162-1.439-.6981-.142.2922-.017.3243 1.598.0816Zm3.185 9.9804-.475-1.5278.475 1.5278Zm2.548-2.1482 1.386.7999-1.386-.7999Zm1.02-3.0114-1.578-.2671 1.578.2671Zm.133-1.0955-1.596-.1151 1.596.1151Zm.017-.3074 1.599.0563v-.006l-1.599-.0503Zm.001-.0429 1.6.0504v-.0129l-1.6-.0375Zm.001-.0338 1.6.0375v-.0127l-1.6-.0248Zm0-.017 1.6.0248v-.0056l-1.6-.0192Zm0-.0019 1.6.0192v-.0131l-1.6-.0061Zm0-.035-1.593-.1458-.006.0697v.07l1.599.0061Zm.004-.0337-1.594-.1477v.0019l1.594.1458Zm0-.0011 1.593.1477.001-.0088v-.0088l-1.594-.1301Zm0-.0077 1.595.1301.001-.0133-1.596-.1168Zm.003-.0392 1.596.1168.001-.0086-1.597-.1082Zm.009-.1646-1.599-.0653 1.599.0653Zm.004-.6147 1.599-.041-1.599.041Zm-.243-1.8882-1.552.388 1.552-.388Zm-2.654-2.7673-.2 1.5875.001.0002.199-1.5877Zm-3.207 1.0604 1.145 1.118-1.145-1.118Zm-.708.9523 1.397.7802-1.397-.7802Zm-40.296 9.7947.534 1.5085 1.355-.4794-.332-1.399-1.557.3699Zm-1.34-9.3982 1.598-.0867-.118-2.1661-2.034.752.554 1.5008Zm-3.292 9.7482.509-1.517-.509 1.517ZM173 82.3348l-1.4.7749 1.4-.7749Zm-1.024-3.1459-1.579.2575 1.579-.2575Zm-.134-1.1399-1.596.1107 1.596-.1107Zm-.016-.3202 1.599-.0539-1.599.0539Zm-.003-.0802-1.599.0235v.0052l1.599-.0287Zm0-.018-1.6.0174v.0062l1.6-.0236Zm0-.0023-1.6.0053v.012l1.6-.0173Zm0-.038 1.6-.0053v-.0759l-.008-.0755-1.592.1567Zm-.004-.0363-1.593.1418v.0075l.001.0074 1.592-.1567Zm0-.0074-1.595.1257v.0081l.001.008 1.594-.1418Zm-.003-.0355-1.596.1166.001.0091 1.595-.1257Zm-.009-.1514-1.598.0708 1.598-.0708Zm-.004-.5693-1.599-.0427 1.599.0427Zm.239-1.7508-1.546-.4108 1.546.4108Zm2.659-2.5941.198 1.5876.002-.0002-.2-1.5874Zm3.206 1.0603 1.145-1.118-1.145 1.118Zm.708.9523-1.397.7802 1.397-.7802Zm.159.3158-1.461.6519v.0001l1.461-.652Zm.034.0799 1.489-.5864-.004-.0105-1.485.5969Zm.007.0157-1.489.5864 2.996-1.1225-1.507.5361Zm-.001-.0011-1.273-.9686-.524.689.29.8157 1.507-.5361Zm.001-.0011-.571-1.4946-.426.1628-.276.3631 1.273.9687Zm.006-.0024-.554-1.5008-.009.0031-.008.0031.571 1.4946Zm7.473-4.6097.658 1.4585.002-.0007-.66-1.4578Zm5.537-2.5046-.656-1.4592-.004.0014.66 1.4578Zm-6.751 1.3399-1.554-.3832v.0009l1.554.3823Zm2.425-2.6798-.645-1.4642-.007.0034-.008.0034.66 1.4574Zm4.049-.4126-.337 1.5642.015.0033.015.003.307-1.5705Zm14.17 11.5182-.37-1.5565.37 1.5565Zm2.42.002-.375 1.5556.375-1.5556Zm2.371-3.1776-.747 1.4149.005.0026.742-1.4175Zm-5.303-2.8003-.747 1.4147v.0001l.747-1.4148Zm6.569 1.705 1.575-.282-.002-.0107-1.573.2927Zm-2.229-2.7858.753-1.4117-.009-.005-.009-.0048-.735 1.4215Zm-3.964-.6535-.239-1.582-.008.0012-.007.0012.254 1.5796Zm-8.585 15.3196 1.555.3789-1.555-.3789Zm-1.554-.3789-1.555-.3789 1.555.3789Zm-.044 1.4777-1.547.4074 1.547-.4074Zm.788 1.0684.83-1.368-.83 1.368Zm1.138.3149-.076 1.5982.076-1.5982Zm1.132-.0922.291 1.5733-.291-1.5733Zm2.023-.6066.585 1.4894-.585-1.4894Zm.673-.2823.654 1.4602-.654-1.4602Zm.194-.0887.68 1.4482.005-.0025-.685-1.4457Zm.053-.0254.686 1.4457.008-.004-.694-1.4417Zm.015-.0072.694 1.4417.004-.002-.698-1.4397Zm.004-.0022.699 1.4397.002-.001-.701-1.4387Zm.002-.0007.7 1.4387-1.388-2.8831.688 1.4444Zm.001-.0004.688 1.4443.007-.0033.007-.0033-.702-1.4377Zm.368-1.0699-1.438.7022 1.438-.7022Zm-1.07-.3679.697 1.4401.005-.0022-.702-1.4379Zm-.002.0009.694 1.4416.003-.0015-.697-1.4401Zm-.01.0046.686 1.4458.008-.0041-.694-1.4417Zm-.042.02.681 1.4482.005-.0024-.686-1.4458Zm-.167.0767.654 1.4602-.654-1.4602Zm-.604.2532.585 1.4893-.585-1.4893Zm-1.729.5225.291 1.5734-.291-1.5734Zm-.764.0674-.077 1.5982.077-1.5982Zm-.385-.0847.83-1.368-.83 1.368Zm-.071-.1077-1.547.4073v.0001l1.547-.4074Zm7.626 1.9596 1.4.7744-1.4-.7744Zm-.313-1.0873-.774 1.4002.774-1.4002Zm-4.29 4.6323.411 1.5463-.411-1.5463Zm-1.945.2897.059 1.5989-.059-1.5989Zm-.598 0 .066-1.5987-.066 1.5987Zm-.172-.0098.119-1.5955-.119 1.5955Zm-.05-.004-.149 1.593.006.0005.143-1.5935Zm-.015-.0015-.158 1.5922.009.0009.149-1.5931Zm-.006-.0005-.161 1.5919.003.0003.158-1.5922Zm-.002-.0002.137-1.5941-.298 3.186.161-1.5919Zm-.001-.0002-.167 1.5913.007.0007.16-1.592Zm-.713-.8789-1.591-.1666 1.591.1666Zm.877-.7126.166-1.5914-.004-.0004-.162 1.5918Zm.001.0001-.166 1.5913.013.0014.013.0012.14-1.5939Zm.003.0002-.14 1.5939.01.0008.13-1.5947Zm.025.0021-.129 1.5948.01.0007.119-1.5955Zm.119.0066-.066 1.5987.066-1.5987Zm.472-.0002.06 1.5989-.06-1.5989Zm1.594-.2371-.411-1.5463.411 1.5463Zm3.614-2.7731-1.4-.7744 1.4.7744Zm-21.212-15.2471c0-8.8633 2.155-14.9452 5.318-18.7673l-2.465-2.0401c-3.781 4.569-6.053 11.4601-6.053 20.8074h3.2Zm5.518 22.3803c-3.364-5.608-5.518-13.513-5.518-22.3803h-3.2c0 9.3458 2.264 17.8408 5.974 24.0262l2.744-1.6459Zm9.149 8.1564c-3.325-1.025-6.535-3.7983-9.149-8.1565l-2.744 1.646c2.869 4.7835 6.631 8.2375 10.951 9.5685l.942-3.058Zm2.97.449c-1.035.001-2.032-.167-2.98-.452l-.922 3.064c1.21.365 2.519.589 3.903.588l-.001-3.2Zm4.441-1.018c-1.345.621-2.831 1.018-4.44 1.018v3.2c2.148 0 4.091-.532 5.783-1.314l-1.343-2.904Zm7.682-7.5862c-2.225 3.7087-4.89 6.2792-7.689 7.5892l1.356 2.898c3.534-1.654 6.627-4.7576 9.077-8.8408l-2.744-1.6464Zm5.463-19.8894c-.362 7.8587-2.419 14.8162-5.463 19.8894l2.744 1.6464c3.361-5.6007 5.534-13.0924 5.916-21.3885l-3.197-.1473Zm1.594.0719c-1.493-.573-1.502-.5502-1.51-.5272a1.2132 1.2132 0 0 0-.016.0464 2.8961 2.8961 0 0 0-.026.0941 1.4118 1.4118 0 0 0-.035.1895 1.5909 1.5909 0 0 0-.005.3571c.022.2188.086.3954.144.5207.111.2348.252.3855.316.4492.132.133.258.2106.29.2304.089.0549.163.0886.178.0954.049.0223.089.0375.098.0411l1.141-2.9899c.005.0019.043.0162.091.0381.014.0065.089.0401.177.0949.032.0197.158.0973.29.2303.064.0637.205.2144.315.4492.059.1253.122.3019.144.5207.012.1107.012.2308-.004.3571a1.5895 1.5895 0 0 1-.035.1895 1.551 1.551 0 0 1-.027.0941.54.54 0 0 1-.015.0464c-.008.023-.017.0458-1.511-.5271Zm-1.501-.5534-.001.0028 3.005 1.1011.001-.0028-3.005-1.1011Zm.004-.0108-.002.0048 3.001 1.113.001-.0048-3-1.113Zm.006-.0145-.003.0057 2.994 1.1305.002-.0057-2.993-1.1305Zm-.045-1.9853c0 .8342-.019 1.6604-.057 2.4773l3.197.1465c.039-.8658.06-1.7408.06-2.6238h-3.2Zm-5.319-18.7686c3.163 3.8214 5.319 9.9031 5.319 18.7686h3.2c0-9.3493-2.273-16.2405-6.054-20.809l-2.465 2.0404ZM199.604 47.4c4.897 0 9.199 1.8122 12.324 5.5867l2.465-2.0404c-3.795-4.5841-9.041-6.7463-14.789-6.7463v3.2Zm-12.32 5.588c3.124-3.7752 7.426-5.588 12.32-5.588v-3.2c-5.746 0-10.992 2.1634-14.785 6.7479l2.465 2.0401Zm.385 44.3016c-.544-.7301-1.064-1.5085-1.557-2.3311l-2.744 1.646c.545.9089 1.124 1.7763 1.734 2.5963l2.567-1.9112Zm.287 20.0424-.03-.107-3.081.867.03.106 3.081-.866Zm-.001-.001v-.003l-3.079.873.001.004 3.078-.874Zm0-.002-.001-.003-3.076.884.001.003 3.076-.884Zm-.001-.003-.002-.007-3.07.903.002.007 3.07-.903Zm-.001-.004-.004-.014-3.06.939.005.014 3.059-.939Zm-.01-.03c.002.005.004.011.006.017l-3.052.964c.009.025.017.052.027.078l3.019-1.059Zm-.009-.024.009.023-3.019 1.061c.019.054.04.11.065.169l2.945-1.253Zm.001 0h-.001l-2.945 1.253c.051.118.113.243.19.374l2.756-1.627Zm.144.173c-.093-.092-.133-.154-.144-.173l-2.756 1.627c.156.263.365.538.64.812l2.26-2.266Zm1.415.838c-.825-.338-1.23-.653-1.415-.838l-2.26 2.266c.549.548 1.34 1.074 2.464 1.534l1.211-2.962Zm11.256 1.411c-6.323 0-9.595-.732-11.256-1.411l-1.211 2.962c2.213.904 5.96 1.649 12.467 1.649v-3.2Zm10.382-1.087c-1.208.508-4.026 1.087-10.382 1.087v3.2c6.405 0 9.782-.563 11.623-1.337l-1.241-2.95Zm.685-.427c.007-.014-.087.176-.685.427l1.241 2.95c.939-.395 1.793-.976 2.272-1.88l-2.828-1.497Zm-.022.113c0-.03.004-.056.009-.076a.164.164 0 0 1 .013-.037l2.828 1.497c.245-.463.349-.939.35-1.379l-3.2-.005Zm.006.067a.3968.3968 0 0 1-.006-.067l3.2.005c0-.158-.013-.304-.033-.436l-3.161.498Zm-.02-20.8842v20.6352h3.2V97.4718h-3.2Zm1.317-2.5118a28.4707 28.4707 0 0 1-1.032 1.5999l2.63 1.8238a31.947 31.947 0 0 0 1.146-1.7773l-2.744-1.6464Zm3.974-9.5374c-.983 3.5889-2.339 6.8122-3.974 9.5374l2.744 1.6464c1.803-3.0051 3.266-6.5035 4.316-10.3381l-3.086-.8457Zm6.485-.7676c-1.042.3239-2.468.3351-4.431-.3258l-1.021 3.0326c2.409.8116 4.548.9254 6.402.3488l-.95-3.0556Zm2.548-2.1482c-.563.976-1.37 1.7819-2.548 2.1482l.95 3.0556c2.145-.6669 3.521-2.1345 4.37-3.604l-2.772-1.5998Zm1.02-3.0114c-.153.9019-.451 2.0259-1.02 3.0114l2.772 1.5998c.831-1.44 1.216-2.9749 1.403-4.0769l-3.155-.5343Zm.133-1.0955a11.74 11.74 0 0 1-.133 1.0955l3.155.5343c.095-.5644.144-1.0492.17-1.3995l-3.192-.2303Zm.017-.3075c-.003.0694-.007.174-.017.3075l3.192.2303c.012-.1758.019-.3197.023-.425l-3.198-.1128Zm.002-.0767c0 .0163-.001.0421-.002.0767l3.198.1128c.002-.0528.003-.0961.004-.1288l-3.2-.0607Zm0-.0016v.0078l3.2.0483v-.0079l-3.2-.0482Zm.008-.1414-.004.0498 3.192.2314.003-.0498-3.191-.2314Zm.008-.1571a4.4209 4.4209 0 0 1-.009.1646l3.193.2165a9.91 9.91 0 0 0 .013-.2504l-3.197-.1307Zm.004-.6147c.006.2573.002.4692-.004.6147l3.197.1307c.009-.2056.014-.4893.006-.8274l-3.199.082Zm-.243-1.8882c.172.6866.229 1.3697.243 1.8882l3.199-.082c-.017-.6645-.091-1.5964-.337-2.5821l-3.105.7759Zm-2.654-2.7672c1.562.1956 2.304 1.3648 2.654 2.7672l3.105-.7759c-.475-1.8998-1.837-4.7253-5.362-5.1665l-.397 3.1752Zm-2.924.7972c.629-.5292 1.553-.9698 2.923-.7974l.4-3.1749c-2.368-.298-4.163.497-5.383 1.5238l2.06 2.4485Zm-2.629-1.4874c0 .0854-.001.1707-.001.2559l3.2.0146c0-.0901.001-.1803.001-.2705h-3.2Zm-5.687-19.7888c3.472 4.1949 5.687 10.6813 5.687 19.7888h3.2c0-9.5908-2.331-16.8869-6.422-21.8292l-2.465 2.0404ZM199.604 45.8c5.322 0 10.097 1.9873 13.556 6.1665l2.465-2.0404c-4.129-4.9893-9.848-7.3261-16.021-7.3261v3.2Zm-13.553 6.168c3.459-4.1798 8.233-6.168 13.553-6.168v-3.2c-6.172 0-11.889 2.3383-16.018 7.3279l2.465 2.0401Zm-5.685 19.7873c0-9.1054 2.214-15.5919 5.685-19.7873l-2.465-2.0401c-4.09 4.9427-6.42 12.2385-6.42 21.8274h3.2Zm.001.3503c-.001-.1167-.001-.2334-.001-.3503h-3.2c0 .1235 0 .2469.001.3702l3.2-.0199Zm-5.665.3397c1.422-.179 2.368.303 3.002.8661l2.126-2.3918c-1.218-1.0821-3.059-1.96-5.528-1.6492l.4 3.1749Zm-2.66 2.5944c.34-1.282 1.067-2.3951 2.658-2.5942l-.397-3.1753c-3.445.431-4.852 3.0574-5.354 4.9478l3.093.8217Zm-.239 1.7507c.013-.4812.07-1.1144.239-1.7507l-3.093-.8217c-.253.9519-.328 1.8491-.345 2.4869l3.199.0855Zm.004.5693a8.3286 8.3286 0 0 1-.004-.5693l-3.199-.0855c-.008.325-.002.5978.006.7964l3.197-.1416Zm.009.1514c-.002-.033-.006-.0843-.009-.1514l-3.197.1416c.005.0997.01.1816.014.243l3.192-.2332Zm.003.0362-.004-.0433-3.19.2475.003.0433 3.191-.2475Zm.004.1068v-.0063l-3.199.0465v.0062l3.199-.0464Zm.003.0747c-.002-.0362-.002-.0632-.003-.0802l-3.199.0574c0 .0331.002.077.003.1306l3.199-.1078Zm.016.3202a9.114 9.114 0 0 1-.016-.3202l-3.199.1078c.004.1071.011.2539.023.4337l3.192-.2213Zm.134 1.1399a12.7693 12.7693 0 0 1-.134-1.1399l-3.192.2213c.025.3583.073.8548.167 1.4335l3.159-.5149ZM173 82.3348c-.572-1.0341-.871-2.2074-1.024-3.1459l-3.159.5149c.185 1.1307.565 2.7021 1.384 4.1808L173 82.3348Zm2.557 2.268c-1.177-.3946-1.988-1.2413-2.557-2.268l-2.799 1.5498c.831 1.5019 2.19 3.0316 4.338 3.752l1.018-3.0338Zm4.51-.3076c-2.006.688-3.456.6612-4.51.3076l-1.018 3.0338c1.897.6365 4.094.5334 6.566-.3144l-1.038-3.027Zm6.045 10.6633c-1.64-2.7339-2.998-5.969-3.982-9.5714l-3.087.8431c1.051 3.8485 2.516 7.3596 4.325 10.3743l2.744-1.646Zm3.473 22.3805V106.17h-3.2v11.169h3.2Zm-.377-1.031c-.001-.001.008.008.023.026l-2.491 2.01c.06.073.129.151.209.23l2.259-2.266Zm.891.49c-.674-.276-.887-.486-.891-.49l-2.259 2.266c.367.367.965.787 1.94 1.186l1.21-2.962Zm10.651 1.292c-6.231 0-9.266-.726-10.651-1.292l-1.21 2.962c1.937.792 5.446 1.53 11.861 1.53v-3.2Zm9.761-.961c-.89.374-3.428.961-9.761.961v3.2c6.38 0 9.478-.571 11.002-1.212l-1.241-2.949Zm.117-.02c.066-.068.106-.092.093-.084-.013.009-.075.047-.21.104l1.241 2.949c.545-.229.922-.48 1.182-.75l-2.306-2.219Zm-23.149-9.422c1.809.604 6.349 1.902 11.347 1.593 5.047-.312 10.707-2.287 14.33-8.366l-2.749-1.638c-2.921 4.901-7.429 6.541-11.779 6.81-4.399.272-8.485-.883-10.136-1.434l-1.013 3.035Zm33.091-23.0251c.744-3.119 1.224-6.4456 1.4-9.9057l-3.196-.1632c-.167 3.271-.62 6.4035-1.317 9.3266l3.113.7423Zm2.512-1.5347c-.648.2013-1.751.2735-3.545-.3482l-1.047 3.0236c2.242.777 4.068.8388 5.542.3802l-.95-3.0556Zm1.638-1.4203c-.42.7271-.942 1.2037-1.638 1.4203l.95 3.0556c1.661-.5164 2.753-1.6524 3.459-2.8761l-2.771-1.5998Zm.827-2.4786c-.136.8021-.39 1.7205-.827 2.4786l2.771 1.5998c.7-1.2128 1.042-2.5423 1.211-3.5441l-3.155-.5343Zm.115-.9435c-.016.2263-.049.556-.115.9435l3.155.5343c.086-.5055.13-.9386.152-1.2475l-3.192-.2303Zm.014-.2487a7.7986 7.7986 0 0 1-.014.2487l3.192.2303c.011-.1547.017-.2789.02-.3663l-3.198-.1127Zm.001-.0369-.001.0429 3.198.1007.001-.0429-3.198-.1007Zm.001-.021-.001.0338 3.199.0751.001-.0338-3.199-.0751Zm0-.0042-.001.0169 3.2.0497v-.017l-3.199-.0496Zm-.001.0037v.0019l3.2.0384v-.0019l-3.2-.0384Zm.001-.0219-.001.035 3.2.0122v-.035l-3.199-.0122Zm.009-.1734-.003.0337 3.187.2916.003-.0337-3.187-.2916Zm.001-.003-.001.0011 3.187.2954v-.0011l-3.186-.2954Zm-.001.0099-.001.0077 3.189.2602.001-.0077-3.189-.2602Zm.001-.0259-.002.0392 3.191.2336.003-.0392-3.192-.2336Zm.006-.1131c-.002.0574-.005.0988-.006.1217l3.193.2164c.003-.0495.007-.1196.011-.2075l-3.198-.1306Zm.003-.5084c.006.2168.002.3929-.003.5084l3.198.1307c.007-.1756.012-.4234.004-.7211l-3.199.082Zm-.195-1.5412c.134.537.184 1.0956.195 1.5412l3.199-.082c-.015-.5914-.081-1.3989-.29-2.2351l-3.104.7759Zm-1.301-1.5676c.382.0478.6.1919.77.39.203.2355.39.616.531 1.1776l3.104-.7759c-.208-.8328-.563-1.7378-1.209-2.4883-.677-.7879-1.613-1.3303-2.799-1.4787l-.397 3.1753Zm-1.863.5907c.197-.2024.425-.3707.699-.4788.265-.105.635-.1786 1.163-.1121l.4-3.1749c-2.156-.2715-3.635.5919-4.551 1.5298l2.289 2.236Zm-.456.6145c.1-.1779.251-.4053.456-.6145l-2.289-2.236c-.449.4596-.761.9328-.96 1.29l2.793 1.5605Zm-.07.1343a2.86 2.86 0 0 1 .07-.1343l-2.793-1.5605a5.8164 5.8164 0 0 0-.156.2987l2.879 1.3961Zm-40.066 8.5103c-.68-2.8605-1.126-5.921-1.299-9.115l-3.195.1734c.183 3.379.656 6.6293 1.381 9.6814l3.113-.7398Zm-6.698 2.2368c1.504.5045 3.374.4554 5.675-.3584l-1.067-3.017c-1.834.6488-2.946.5578-3.59.3415l-1.018 3.0339Zm-3.448-3.01c.701 1.2652 1.787 2.4527 3.448 3.01l1.018-3.0339c-.693-.2322-1.23-.7389-1.666-1.5259l-2.8 1.5498Zm-1.203-3.6633c.168 1.0344.508 2.4068 1.203 3.6633l2.8-1.5498c-.449-.8117-.708-1.7859-.845-2.6284l-3.158.5149Zm-.151-1.2867c.022.3183.066.7649.151 1.2867l3.158-.5149c-.067-.4078-.1-.7547-.116-.9931l-3.193.2213Zm-.02-.377c.003.0897.009.2176.02.377l3.193-.2213a4.8646 4.8646 0 0 1-.014-.2635l-3.199.1078Zm-.002-.1054c0 .0251.001.0605.002.1054l3.199-.1078c-.001-.0274-.002-.046-.002-.055l-3.199.0574Zm-.001-.0231.001.0179 3.199-.047v-.018l-3.2.0471Zm0-.0086v.0024l3.2-.0347v-.0024l-3.2.0347Zm0-.0499v.0379l3.2-.0107v-.0379l-3.2.0107Zm.004.115.004.0364 3.184-.3135-.003-.0364-3.185.3135Zm-.002-.0223.001.0074 3.187-.2837-.001-.0074-3.187.2837Zm-.004-.0516.003.0355 3.19-.2514-.003-.0355-3.19.2514Zm-.012-.2063c.003.0834.008.15.011.1972l3.192-.2332a1.9493 1.9493 0 0 1-.006-.1056l-3.197.1416Zm-.005-.6828a9.083 9.083 0 0 0 .005.6828l3.197-.1416a5.8263 5.8263 0 0 1-.003-.4558l-3.199-.0854Zm.292-2.1189c-.211.7942-.277 1.5594-.292 2.1189l3.199.0854c.01-.4029.058-.9041.185-1.3826l-3.092-.8217Zm4.006-3.771c-1.169.1461-2.101.6521-2.786 1.4044-.655.72-1.013 1.5849-1.22 2.3666l3.092.8217c.131-.4931.305-.8255.494-1.0339.161-.1762.389-.33.817-.3835l-.397-3.1753Zm4.55 1.53c-.916-.9379-2.396-1.8012-4.551-1.5298l.4 3.1749c.527-.0664.898.0071 1.163.1121.273.1082.501.2764.699.4788l2.289-2.236Zm.96 1.29c-.2-.3572-.511-.8304-.96-1.29l-2.289 2.236c.204.2092.356.4365.455.6145l2.794-1.5605Zm.223.4442a5.3961 5.3961 0 0 0-.223-.4442l-2.794 1.5605c.048.0861.08.1525.095.1875l2.922-1.3038Zm.058.1349c-.014-.0335-.033-.0792-.058-.135l-2.922 1.304c.008.0172.011.0261.011.0248l2.969-1.1938Zm.01.0262-.006-.0157-2.977 1.1728.006.0157 2.977-1.1728Zm-2.996 1.1214v.001l3.015-1.0721v-.001l-3.015 1.0721Zm.235-1.5059-.001.0012 2.547 1.9373.001-.0012-2.547-1.9373Zm.708-.5283-.006.0024 1.142 2.9892.006-.0024-1.142-2.9892Zm.045-.0165-.028.0103 1.109 3.0016.028-.0103-1.109-3.0016Zm8.659-1.6408 5.536-2.5046-1.319-2.9156-5.536 2.5046 1.319 2.9156Zm-3.428-3.0048c-.244.9911.123 1.928.735 2.5147.614.5902 1.646.962 2.691.4908l-1.315-2.917c.381-.1718.712-.0044.839.1176.124.1184.215.3233.158.5586l-3.108-.7647Zm3.319-3.7549c-2.047.9276-2.984 2.3993-3.319 3.754l3.107.7665c.111-.449.421-1.1021 1.533-1.6057l-1.321-2.9148Zm5.045-.5194a8.1987 8.1987 0 0 0-5.03.5126l1.29 2.9284a4.9998 4.9998 0 0 1 3.067-.3126l.673-3.1284Zm.597 4.7759c1.208-.5431 1.522-1.7672 1.385-2.6471-.137-.8841-.786-1.8959-2.012-2.135l-.613 3.1409c-.383-.0749-.516-.3802-.537-.514-.012-.0813-.011-.2062.055-.3538.075-.1654.218-.3232.41-.4094l1.312 2.9184Zm10.658 8.0153c0 .2945.049.7774.376 1.2275.367.5044.879.6952 1.263.7508.337.0488.639.0062.806-.0222.182-.0308.372-.0769.505-.1085l-.741-3.1129c-.163.0386-.242.0568-.299.0665-.071.0121.023-.0138.188.0102.213.0309.591.1553.866.534.236.3244.236.6223.236.6546h-3.2Zm3.789-3.1042c-.889 0-1.761.2472-2.455.7251-.684.4712-1.334 1.2852-1.334 2.3791h3.2c0 .2688-.159.3307-.05.2561.098-.068.32-.1603.639-.1603v-3.2Zm3.788 3.1042c0-1.0963-.644-1.913-1.338-2.3875-.697-.477-1.569-.7167-2.45-.7167v3.2c.326 0 .548.0925.643.1577.099.0677-.055.0031-.055-.2535h3.2Zm-2.953 1.8488c.133.0318.323.0785.506.1098.167.0287.471.0722.81.0227.388-.0566.9-.2505 1.265-.7568.324-.4498.372-.9313.372-1.2245h-3.2c0-.0288-.001-.3238.232-.6468.274-.3796.652-.5067.869-.5383.168-.0246.264.0019.193-.0103-.057-.0096-.135-.0279-.298-.067l-.749 3.1112Zm-.835-.1393c.23 0 .471.0515.835.1393l.749-3.1112c-.329-.0791-.921-.2281-1.584-.2281v3.2Zm-.839.1381c.364-.0867.606-.1381.839-.1381v-3.2c-.661 0-1.251.1468-1.58.2252l.741 3.1129Zm5.167-6.1469-5.303-2.8003-1.494 2.8297 5.303 2.8003 1.494-2.8297Zm-1.056.6016a.5707.5707 0 0 1 .189-.533c.137-.1179.485-.2688.862-.0712l-1.484 2.835c1.012.5298 2.062.2183 2.708-.3368.644-.5539 1.053-1.4642.875-2.458l-3.15.564Zm-1.407-1.656c1.054.5621 1.327 1.225 1.409 1.6666l3.146-.5853c-.253-1.362-1.104-2.8677-3.049-3.9048l-1.506 2.8235Zm-2.972-.4833a4.9154 4.9154 0 0 1 2.991.4931l1.469-2.8431a8.1165 8.1165 0 0 0-4.938-.814l.478 3.164Zm.133-1.2625c.184.0976.318.2635.383.4347.058.153.051.2787.034.3582-.028.13-.169.4083-.535.4673l-.508-3.1593c-1.206.194-1.897 1.1478-2.084 2.0153-.188.867.051 2.0985 1.215 2.7133l1.495-2.8295Zm-9.924 15.5879a.7995.7995 0 0 1-.587-.9667l3.109.7578c.313-1.2878-.476-2.5862-1.764-2.9001l-.758 3.109Zm.967-.5878a.8002.8002 0 0 1-.967.5878l.758-3.109c-1.288-.3139-2.586.4756-2.9 1.7634l3.109.7578Zm-.051.6915c-.025-.0985-.042-.3092.051-.6915l-3.109-.7578c-.165.6789-.246 1.4686-.036 2.264l3.094-.8147Zm.071.1077a.1271.1271 0 0 1-.039-.0333c-.006-.0078-.019-.0285-.032-.0744l-3.094.8147c.23.8738.767 1.5807 1.506 2.029l1.659-2.736Zm.385.0847c-.217-.0103-.333-.0531-.385-.0847l-1.659 2.736c.669.4061 1.369.5201 1.891.5451l.153-3.1964Zm.764-.0674c-.294.0544-.553.0775-.764.0674l-.153 3.1964c.538.0256 1.057-.0355 1.499-.1171l-.582-3.1467Zm1.729-.5225c-.504.1977-1.139.4136-1.729.5225l.582 3.1467c.879-.1624 1.731-.4606 2.317-.6905l-1.17-2.9787Zm.604-.2532c-.146.0655-.355.1557-.604.2532l1.17 2.9787c.303-.1192.559-.2296.742-.3115l-1.308-2.9204Zm.167-.0768c-.038.0178-.094.0442-.167.0768l1.308 2.9204c.092-.0411.166-.0755.22-.1007l-1.361-2.8965Zm.049-.0228-.054.0254 1.371 2.8914.054-.0254-1.371-2.8914Zm.006-.0032-.015.0072 1.388 2.8834.015-.0072-1.388-2.8834Zm0-.0001-.004.0021 1.396 2.8794.005-.0022-1.397-2.8793Zm0 .0003-.002.0006 1.401 2.8774.001-.0007-1.4-2.8773Zm1.314 2.9185.074-.0354-1.376-2.8889-.075.0355 1.377 2.8888Zm-1.302-2.9246-.075.0359 1.377 2.8886.075-.0359-1.377-2.8886Zm-.381 1.0766c-.194-.397-.029-.8761.368-1.07l1.404 2.8754c1.191-.5817 1.685-2.0188 1.103-3.2098l-2.875 1.4044Zm1.07.3678a.8004.8004 0 0 1-1.07-.3678l2.875-1.4044c-.581-1.1908-2.018-1.6848-3.209-1.1036l1.404 2.8758Zm-.007.0031.002-.0009-1.394-2.8802-.002.0009 1.394 2.8802Zm-.013.0062.01-.0047-1.388-2.8833-.01.0047 1.388 2.8833Zm-.05.0241.042-.02-1.371-2.8916-.042.0199 1.371 2.8917Zm-.199.0911c.082-.0369.148-.0672.194-.0888l-1.361-2.8963c-.03.014-.078.0363-.141.0648l1.308 2.9203Zm-.673.2823c.276-.1083.508-.2086.673-.2823l-1.308-2.9203c-.128.0571-.314.1373-.534.2239l1.169 2.9787Zm-2.023.6066c.734-.1357 1.478-.3928 2.023-.6066l-1.169-2.9787c-.464.1819-.991.3564-1.436.4385l.582 3.1468Zm-1.132.0922c.375.0179.764-.0243 1.132-.0922l-.581-3.1468c-.221.0409-.35.0449-.398.0426l-.153 3.1964Zm-1.138-.315c.361.2187.768.2973 1.138.315l.153-3.1964c-.019-.0009.007-.0014.065.0134.052.0133.165.0477.304.1321l-1.66 2.7359Zm-.788-1.0682c.038.144.117.3826.297.6242.198.2658.424.4031.491.4441l1.66-2.736c.038.0233.238.143.413.3774.157.2103.215.4039.234.4755l-3.095.8148Zm.044-1.4778c-.13.5309-.161 1.031-.044 1.4777l3.095-.8146a.9706.9706 0 0 1 .029.1609c.004.0371.003.0604.003.0675-.001.0129 0-.0275.026-.1337l-3.109-.7578Zm10.529 3.8044c.641-1.1599.221-2.6202-.939-3.2618l-1.548 2.8003a.7997.7997 0 0 1-.313-1.0873l2.8 1.5488Zm-5.592 4.3169c1.82-.4838 4.117-1.6508 5.592-4.3169l-2.8-1.5488c-.938 1.6959-2.375 2.4438-3.614 2.7731l.822 3.0926Zm-2.297.3423a10.532 10.532 0 0 0 2.297-.3423l-.822-3.0926a7.3289 7.3289 0 0 1-1.594.2371l.119 3.1978Zm-.723-.0003c.182.0075.428.0113.723.0003l-.119-3.1978a6.0198 6.0198 0 0 1-.472.0002l-.132 3.1973Zm-.225-.0128c.058.0044.134.0091.225.0128l.132-3.1973a3.794 3.794 0 0 1-.119-.0066l-.238 3.1911Zm-.074-.0061c.02.0018.045.0039.074.0061l.238-3.1911-.026-.0021-.286 3.1871Zm-.021-.0019.015.0014.298-3.1861-.015-.0014-.298 3.1861Zm-.015-.0014.006.0005.315-3.1844-.005-.0005-.316 3.1844Zm-.005-.0005.002.0002.322-3.1838-.002-.0002-.322 3.1838Zm.034.0031.033.0028.01.0008a1.3952 1.3952 0 0 0 .038.0023c.006.0003.021.0011.04.0016.011.0002.037.0005.054.0004.029-.0005.122-.0056.186-.0124.256-.0535 1.385-1.3608.875-2.7735-.273-.199-.652-.3573-.723-.375a3.1984 3.1984 0 0 0-.096-.0185l-.036-.0055c-.015-.0021-.027-.0034-.032-.004a1.6743 1.6743 0 0 0-.035-.0038l-.009-.0008-.01-.0009-.02-.0017-.007-.0007-.003-.0002h-.001l-.137 1.5941-.137 1.5941h.001l.002.0002.007.0006.016.0015c.003.0002.003.0002.001 0l-.007-.0007-.013-.0013a1.194 1.194 0 0 1-.022-.0024c-.005-.0006-.017-.002-.032-.004-.007-.0011-.026-.0038-.036-.0055a2.687 2.687 0 0 1-.096-.0185c-.071-.0178-.45-.176-.723-.375-.51-1.4128.619-2.72.874-2.7735.065-.0068.158-.012.187-.0125.016 0 .043.0003.054.0005.019.0005.034.0013.04.0015l.016.0009a1.131 1.131 0 0 1 .03.0021l-.02-.0016-.269 3.1886Zm-.034-.0032.009.0009.319-3.184-.009-.0009-.319 3.184Zm-2.144-2.6375c-.138 1.3182.819 2.4988 2.137 2.6368l.333-3.1826a.8.8 0 0 1 .713.8789l-3.183-.3331Zm2.63-2.1378c-1.316-.1339-2.492.8218-2.63 2.1378l3.183.3331c-.046.4387-.439.7573-.877.7126l.324-3.1835Zm.005.0005-.001-.0001-.332 3.1827.001.0001.332-3.1827Zm-.024-.0023-.002-.0002-.28 3.1878.003.0002.279-3.1878Zm.016.0012-.026-.0021-.259 3.1895.026.0021.259-3.1895Zm.055.0028a2.3075 2.3075 0 0 1-.066-.0036l-.238 3.1911c.042.0031.1.0068.172.0098l.132-3.1973Zm.347-.0005a4.52 4.52 0 0 1-.347.0005l-.132 3.1973c.145.0059.349.0093.598 0l-.119-3.1978Zm1.242-.1845a5.7425 5.7425 0 0 1-1.242.1845l.119 3.1978a8.9391 8.9391 0 0 0 1.945-.2897l-.822-3.0926Zm2.625-2.0012c-.671 1.2126-1.679 1.7498-2.625 2.0012l.822 3.0926c1.531-.4068 3.397-1.3648 4.603-3.545l-2.8-1.5488Zm3.261-.9386c-1.16-.6415-2.62-.2213-3.261.9386l2.8 1.5488c-.214.3866-.701.5267-1.087.3129l1.548-2.8003Zm-15.218-3.9049c1.201 0 2.01-.8073 2.432-1.5153.442-.7414.664-1.6619.664-2.5929h-3.2c0 .4543-.113.7879-.213.9543-.119.1998-.058-.0461.317-.0461v3.2Zm-3.095-4.1082c0 .9309.222 1.8515.664 2.5929.422.708 1.23 1.5153 2.431 1.5153v-3.2c.375 0 .436.2459.317.0461-.099-.1664-.212-.5-.212-.9543h-3.2Zm3.095-4.1083c-1.201 0-2.009.8074-2.431 1.5153-.442.7415-.664 1.662-.664 2.593h3.2c0-.4543.113-.7879.212-.9543.119-.1998.058.046-.317.046v-3.2Zm3.096 4.1083c0-.931-.222-1.8515-.664-2.593-.422-.7079-1.231-1.5153-2.432-1.5153v3.2c-.375 0-.436-.2458-.317-.046.1.1664.213.5.213.9543h3.2Zm-4.932 40.3817V98.2452h-3.2v19.4128h3.2Zm22.196-17.563v18.124h3.2v-18.124h-3.2Z" fill="#001F5C" mask="url(#path-1-inside-1_8874_14305)"/></svg>
