<svg viewBox="0 0 400 225" fill="none" xmlns="http://www.w3.org/2000/svg"><mask id="path-1-inside-1_8874_14307" fill="white"><path d="m189.128 68.1902 4.784 3.7495c.572.45.287 1.4318-.468 1.6172-.902.2208-2.131.1602-3.497-.9088a6.6176 6.6176 0 0 1-2.242-3.3995c-.245-.8235.772-1.5706 1.423-1.0584ZM209.79 71.1847l-5.303-2.8003c-.726-.3834-.463-1.5991.376-1.7342a6.514 6.514 0 0 1 3.964.6535c1.499.7996 2.061 1.8839 2.229 2.7857.138.774-.631 1.4276-1.266 1.0953ZM196.415 84.159c.43.1047.693.5375.588.9667-.093.3822-.077.593-.051.6915.019.0724.042.0901.071.1077.052.0317.168.0744.385.0848.211.01.47-.0131.764-.0674.59-.109 1.225-.3248 1.729-.5226.249-.0975.458-.1877.604-.2531.073-.0327.129-.059.167-.0768l.042-.0199.01-.0047.002-.0007a.8003.8003 0 0 1 1.07.3677c.193.397.029.876-.368 1.07l-.022.0104.022-.0104-.001.0004-.002.0007-.004.0021-.015.0072-.053.0254c-.046.0215-.112.0519-.194.0888-.165.0736-.397.1739-.673.2823-.545.2138-1.289.4708-2.023.6065-.368.068-.757.1101-1.132.0922-.369-.0176-.777-.096-1.138-.3149-.384-.2329-.663-.5952-.788-1.0683-.118-.4469-.086-.9472.044-1.4778.104-.4292.537-.6924.966-.5878ZM195.613 89.6178a.8005.8005 0 0 0-.415 1.0528c.176.4055.647.5916 1.052.4156 1.757-.7631 3.27-.414 4.38.1436.56.2812 1.01.6134 1.32.8758.155.1305.272.242.349.3184.038.0382.066.0674.083.0857l.018.0189.002.0027c.292.3299.796.361 1.127.0692.331-.2924.363-.7982.071-1.1297l-.003-.0028-.003-.0041-.011-.0117-.013-.0137-.022-.0237a3.5786 3.5786 0 0 0-.121-.1249 7.6165 7.6165 0 0 0-.444-.4065c-.381-.3223-.936-.733-1.636-1.0843-1.408-.7076-3.429-1.1826-5.734-.1813ZM206.857 79.7846c.826 0 1.495-1.123 1.495-2.5083 0-1.3852-.669-2.5082-1.495-2.5082-.826 0-1.495 1.123-1.495 2.5082 0 1.3853.669 2.5083 1.495 2.5083ZM192.394 77.2763c0 1.3853-.67 2.5083-1.496 2.5083-.825 0-1.495-1.123-1.495-2.5083 0-1.3852.67-2.5082 1.495-2.5082.826 0 1.496 1.123 1.496 2.5082Z"/><path fill-rule="evenodd" clip-rule="evenodd" d="M220.447 71.7553c0 .0878-.001.1755-.001.2632.925-.778 2.284-1.3959 4.153-1.1606 2.543.3184 3.595 2.3157 4.007 3.9669.209.8361.275 1.6436.29 2.2351.008.2977.003.5455-.004.721-.004.0879-.008.158-.011.2075l-.004.0498v.0078a6.2053 6.2053 0 0 0-.003.1028c-.003.0873-.009.2116-.02.3663-.022.3089-.066.742-.152 1.2475-.169 1.0019-.511 2.3313-1.211 3.5441-.706 1.2228-1.798 2.3595-3.459 2.8761-1.448.4503-3.231.399-5.417-.3373-1.017 3.7117-2.426 7.0726-4.145 9.9377a30.187 30.187 0 0 1-1.089 1.6885v20.6353c.009.055.014.116.014.184 0 .189-.045.407-.164.634-.236.444-.71.83-1.479 1.153-1.524.641-4.621 1.212-11.002 1.212-6.415 0-9.924-.738-11.861-1.53-.975-.399-1.573-.819-1.94-1.186-.184-.183-.309-.351-.392-.493-.042-.07-.072-.133-.095-.187-.012-.026-.021-.051-.029-.072-.003-.011-.007-.021-.01-.031l-.004-.014-.002-.006-.002-.006-.03-.107V98.2453c-.577-.7751-1.126-1.598-1.645-2.4638-1.724-2.8743-3.136-6.2474-4.154-9.9728-2.239.7679-4.062.806-5.538.311-1.662-.5575-2.748-1.7457-3.448-3.01-.695-1.2564-1.035-2.6288-1.203-3.6633a14.1958 14.1958 0 0 1-.151-1.2867 10.845 10.845 0 0 1-.02-.377c-.001-.0449-.002-.0803-.002-.1054v-.0063l-.004-.0433c-.003-.0472-.008-.1138-.011-.1972a9.083 9.083 0 0 1-.005-.6828c.015-.5596.081-1.3247.292-2.1189.421-1.5861 1.487-3.4559 4.006-3.7709 1.945-.245 3.339.435 4.265 1.2576-.001-.1199-.001-.24-.001-.3602 0-9.3471 2.272-16.2383 6.053-20.8074 3.794-4.5846 9.039-6.7479 14.785-6.7479 5.748 0 10.994 2.1621 14.789 6.7463 3.781 4.5686 6.054 11.4598 6.054 20.809Zm-24.3 32.0607c-3.817-1.181-7.297-4.2928-10.035-8.8575-3.537-5.8966-5.746-14.0967-5.746-23.2032 0-9.1053 2.214-15.5918 5.685-19.7873 3.459-4.1799 8.233-6.168 13.553-6.168 5.322 0 10.097 1.9872 13.556 6.1665 3.473 4.1949 5.687 10.6814 5.687 19.7888 0 .8586-.02 1.7092-.059 2.5506l-.002.0057-.002.0048-.001.0029.005.0017c-.373 8.0775-2.488 15.302-5.69 20.639-2.338 3.8978-5.219 6.736-8.388 8.217-1.516.701-3.229 1.164-5.106 1.164-1.215.001-2.373-.197-3.457-.525Zm22.866-19.5252c.721-3.0211 1.188-6.2506 1.359-9.6162.03-.0613.068-.1345.113-.2165.15-.2676.381-.6179.708-.9523.637-.652 1.641-1.2576 3.207-1.0604 1.568.1963 2.306 1.373 2.654 2.7673.172.6866.229 1.3697.243 1.8882.006.2572.002.4692-.004.6147a4.4337 4.4337 0 0 1-.009.1646l-.003.0392v.0088l-.004.0337v.0539l-.001.0338-.001.0429c-.003.0693-.007.1739-.017.3074a11.744 11.744 0 0 1-.133 1.0955c-.153.902-.451 2.0259-1.02 3.0114-.563.9754-1.37 1.7817-2.548 2.1482-1.061.33-2.525.3351-4.544-.3642Zm-38.824-.038c-.702-2.9563-1.161-6.1117-1.34-9.3982l-.028.0103c-.007.0028-.007.0035-.007.0035l.001.0011-.007-.0157a1.1314 1.1314 0 0 0-.034-.0799 3.7857 3.7857 0 0 0-.159-.3158c-.149-.2676-.381-.6179-.708-.9523-.636-.652-1.641-1.2575-3.206-1.0603-1.598.1996-2.32 1.3193-2.659 2.5941-.169.6364-.226 1.2696-.239 1.7508-.006.2386-.002.4349.004.5693.003.0671.007.1184.009.1514l.003.0355v.0074l.004.0363V77.6486c.001.017.001.044.003.0802.002.0724.007.1812.016.3202.02.2784.058.6752.134 1.1399.153.9385.452 2.1118 1.024 3.1459.568 1.0261 1.38 1.8732 2.557 2.268 1.074.3604 2.565.3813 4.632-.35Zm7.796 33.0862V106.17c3.46 1.154 17.253 4.906 23.796-6.075v18.124c-.066.068-.239.212-.649.384-1.208.508-4.026 1.087-10.382 1.087-6.323 0-9.595-.732-11.256-1.411-.825-.338-1.23-.653-1.415-.838-.041-.04-.071-.075-.094-.102Z"/></mask><path d="m189.128 68.1902 4.784 3.7495c.572.45.287 1.4318-.468 1.6172-.902.2208-2.131.1602-3.497-.9088a6.6176 6.6176 0 0 1-2.242-3.3995c-.245-.8235.772-1.5706 1.423-1.0584ZM209.79 71.1847l-5.303-2.8003c-.726-.3834-.463-1.5991.376-1.7342a6.514 6.514 0 0 1 3.964.6535c1.499.7996 2.061 1.8839 2.229 2.7857.138.774-.631 1.4276-1.266 1.0953ZM196.415 84.159c.43.1047.693.5375.588.9667-.093.3822-.077.593-.051.6915.019.0724.042.0901.071.1077.052.0317.168.0744.385.0848.211.01.47-.0131.764-.0674.59-.109 1.225-.3248 1.729-.5226.249-.0975.458-.1877.604-.2531.073-.0327.129-.059.167-.0768l.042-.0199.01-.0047.002-.0007a.8003.8003 0 0 1 1.07.3677c.193.397.029.876-.368 1.07l-.022.0104.022-.0104-.001.0004-.002.0007-.004.0021-.015.0072-.053.0254c-.046.0215-.112.0519-.194.0888-.165.0736-.397.1739-.673.2823-.545.2138-1.289.4708-2.023.6065-.368.068-.757.1101-1.132.0922-.369-.0176-.777-.096-1.138-.3149-.384-.2329-.663-.5952-.788-1.0683-.118-.4469-.086-.9472.044-1.4778.104-.4292.537-.6924.966-.5878ZM195.613 89.6178a.8005.8005 0 0 0-.415 1.0528c.176.4055.647.5916 1.052.4156 1.757-.7631 3.27-.414 4.38.1436.56.2812 1.01.6134 1.32.8758.155.1305.272.242.349.3184.038.0382.066.0674.083.0857l.018.0189.002.0027c.292.3299.796.361 1.127.0692.331-.2924.363-.7982.071-1.1297l-.003-.0028-.003-.0041-.011-.0117-.013-.0137-.022-.0237a3.5786 3.5786 0 0 0-.121-.1249 7.6165 7.6165 0 0 0-.444-.4065c-.381-.3223-.936-.733-1.636-1.0843-1.408-.7076-3.429-1.1826-5.734-.1813ZM206.857 79.7846c.826 0 1.495-1.123 1.495-2.5083 0-1.3852-.669-2.5082-1.495-2.5082-.826 0-1.495 1.123-1.495 2.5082 0 1.3853.669 2.5083 1.495 2.5083ZM192.394 77.2763c0 1.3853-.67 2.5083-1.496 2.5083-.825 0-1.495-1.123-1.495-2.5083 0-1.3852.67-2.5082 1.495-2.5082.826 0 1.496 1.123 1.496 2.5082Z" fill="#001F5C"/><path fill-rule="evenodd" clip-rule="evenodd" d="M220.447 71.7553c0 .0878-.001.1755-.001.2632.925-.778 2.284-1.3959 4.153-1.1606 2.543.3184 3.595 2.3157 4.007 3.9669.209.8361.275 1.6436.29 2.2351.008.2977.003.5455-.004.721-.004.0879-.008.158-.011.2075l-.004.0498v.0078a6.2053 6.2053 0 0 0-.003.1028c-.003.0873-.009.2116-.02.3663-.022.3089-.066.742-.152 1.2475-.169 1.0019-.511 2.3313-1.211 3.5441-.706 1.2228-1.798 2.3595-3.459 2.8761-1.448.4503-3.231.399-5.417-.3373-1.017 3.7117-2.426 7.0726-4.145 9.9377a30.187 30.187 0 0 1-1.089 1.6885v20.6353c.009.055.014.116.014.184 0 .189-.045.407-.164.634-.236.444-.71.83-1.479 1.153-1.524.641-4.621 1.212-11.002 1.212-6.415 0-9.924-.738-11.861-1.53-.975-.399-1.573-.819-1.94-1.186-.184-.183-.309-.351-.392-.493-.042-.07-.072-.133-.095-.187-.012-.026-.021-.051-.029-.072-.003-.011-.007-.021-.01-.031l-.004-.014-.002-.006-.002-.006-.03-.107V98.2453c-.577-.7751-1.126-1.598-1.645-2.4638-1.724-2.8743-3.136-6.2474-4.154-9.9728-2.239.7679-4.062.806-5.538.311-1.662-.5575-2.748-1.7457-3.448-3.01-.695-1.2564-1.035-2.6288-1.203-3.6633a14.1958 14.1958 0 0 1-.151-1.2867 10.845 10.845 0 0 1-.02-.377c-.001-.0449-.002-.0803-.002-.1054v-.0063l-.004-.0433c-.003-.0472-.008-.1138-.011-.1972a9.083 9.083 0 0 1-.005-.6828c.015-.5596.081-1.3247.292-2.1189.421-1.5861 1.487-3.4559 4.006-3.7709 1.945-.245 3.339.435 4.265 1.2576-.001-.1199-.001-.24-.001-.3602 0-9.3471 2.272-16.2383 6.053-20.8074 3.794-4.5846 9.039-6.7479 14.785-6.7479 5.748 0 10.994 2.1621 14.789 6.7463 3.781 4.5686 6.054 11.4598 6.054 20.809Zm-24.3 32.0607c-3.817-1.181-7.297-4.2928-10.035-8.8575-3.537-5.8966-5.746-14.0967-5.746-23.2032 0-9.1053 2.214-15.5918 5.685-19.7873 3.459-4.1799 8.233-6.168 13.553-6.168 5.322 0 10.097 1.9872 13.556 6.1665 3.473 4.1949 5.687 10.6814 5.687 19.7888 0 .8586-.02 1.7092-.059 2.5506l-.002.0057-.002.0048-.001.0029.005.0017c-.373 8.0775-2.488 15.302-5.69 20.639-2.338 3.8978-5.219 6.736-8.388 8.217-1.516.701-3.229 1.164-5.106 1.164-1.215.001-2.373-.197-3.457-.525Zm22.866-19.5252c.721-3.0211 1.188-6.2506 1.359-9.6162.03-.0613.068-.1345.113-.2165.15-.2676.381-.6179.708-.9523.637-.652 1.641-1.2576 3.207-1.0604 1.568.1963 2.306 1.373 2.654 2.7673.172.6866.229 1.3697.243 1.8882.006.2572.002.4692-.004.6147a4.4337 4.4337 0 0 1-.009.1646l-.003.0392v.0088l-.004.0337v.0539l-.001.0338-.001.0429c-.003.0693-.007.1739-.017.3074a11.744 11.744 0 0 1-.133 1.0955c-.153.902-.451 2.0259-1.02 3.0114-.563.9754-1.37 1.7817-2.548 2.1482-1.061.33-2.525.3351-4.544-.3642Zm-38.824-.038c-.702-2.9563-1.161-6.1117-1.34-9.3982l-.028.0103c-.007.0028-.007.0035-.007.0035l.001.0011-.007-.0157a1.1314 1.1314 0 0 0-.034-.0799 3.7857 3.7857 0 0 0-.159-.3158c-.149-.2676-.381-.6179-.708-.9523-.636-.652-1.641-1.2575-3.206-1.0603-1.598.1996-2.32 1.3193-2.659 2.5941-.169.6364-.226 1.2696-.239 1.7508-.006.2386-.002.4349.004.5693.003.0671.007.1184.009.1514l.003.0355v.0074l.004.0363V77.6486c.001.017.001.044.003.0802.002.0724.007.1812.016.3202.02.2784.058.6752.134 1.1399.153.9385.452 2.1118 1.024 3.1459.568 1.0261 1.38 1.8732 2.557 2.268 1.074.3604 2.565.3813 4.632-.35Zm7.796 33.0862V106.17c3.46 1.154 17.253 4.906 23.796-6.075v18.124c-.066.068-.239.212-.649.384-1.208.508-4.026 1.087-10.382 1.087-6.323 0-9.595-.732-11.256-1.411-.825-.338-1.23-.653-1.415-.838-.041-.04-.071-.075-.094-.102Z" fill="#001F5C"/><path d="m179.563 74.5859-.001-.0011-1.495.5694v.0011l1.496-.5694Zm6.084 43.4011.001.003 1.538-.438v-.003l-1.539.438Zm34.799-45.9685-1.6-.0073-.016 3.4579 2.646-2.2264-1.03-1.2242Zm4.153-1.1606-.2 1.5874.001.0002.199-1.5876Zm4.007 3.9669-1.552.3879 1.552-.3879Zm.29 2.2351-1.599.041 1.599-.041Zm-.004.721 1.598.0654-1.598-.0654Zm-.011.2075 1.595.1157.001-.0074-1.596-.1083Zm-.004.0498-1.596-.1157-.003.0458-.001.0458 1.6.0241Zm0 .0078 1.6.0304v-.0062l-1.6-.0242Zm-.003.1028-1.599-.0564 1.599.0564Zm-.02.3663-1.596-.1152 1.596.1152Zm-.152 1.2475 1.578.2671-1.578-.2671Zm-1.211 3.5441 1.386.7999-1.386-.7999Zm-3.459 2.8761-.475-1.5278.475 1.5278Zm-5.417-.3373.511-1.5163-1.606-.541-.448 1.6344 1.543.4229Zm-4.145 9.9377 1.372.8232-1.372-.8232Zm-1.089 1.6885-1.315-.9119-.285.4113v.5006h1.6Zm0 20.6353h-1.6v.126l.02.123 1.58-.249Zm.014.184-1.6-.002 1.6.002Zm-.164.634 1.414.748-1.414-.748Zm-1.479 1.153.621 1.475-.621-1.475Zm-22.863-.318-.606 1.481.606-1.481Zm-1.94-1.186 1.13-1.133-1.13 1.133Zm-.392-.493 1.378-.813-1.378.813Zm-.095-.187-1.473.627h.001l1.472-.627Zm-.029-.072-1.509.529v.001l1.509-.53Zm-.01-.031-1.529.47.003.011 1.526-.481Zm-.004-.014-1.534.454.002.008.002.008 1.53-.47Zm-.002-.006-1.539.437.002.008.003.008 1.534-.453Zm-.002-.006-1.54.433.001.004 1.539-.437Zm-.03-.107h-1.6v.221l.06.213 1.54-.434Zm0-19.4127h1.6v-.5303l-.316-.4253-1.284.9556Zm-1.645-2.4638-1.372.823 1.372-.823Zm-4.154-9.9728 1.544-.4216-.449-1.645-1.614.5531.519 1.5135Zm-5.538.311.509-1.5169-.509 1.5169Zm-3.448-3.01 1.4-.7749-1.4.7749Zm-1.203-3.6633 1.579-.2575-1.579.2575Zm-.151-1.2867 1.596-.1107-1.596.1107Zm-.02-.377-1.599.0539 1.599-.0539Zm-.002-.1054-1.6.0232v.0055l1.6-.0287Zm0-.0063 1.599-.0232v-.0503l-.004-.0502-1.595.1237Zm-.004-.0433-1.596.1166.001.0072 1.595-.1238Zm-.011-.1972 1.598-.0708-1.598.0708Zm-.005-.6828 1.599.0427-1.599-.0427Zm.292-2.1189 1.546.4109-1.546-.4109Zm4.006-3.7709.198 1.5876.002-.0002-.2-1.5874Zm4.265 1.2576-1.063 1.1959 2.685 2.3867-.022-3.5925-1.6.0099Zm6.052-21.1676-1.233-1.02 1.233 1.02Zm29.574-.0016-1.233 1.0202 1.233-1.0202Zm-28.281 44.0122-1.372.823 1.372-.823Zm10.035 8.8575-.473 1.529.01.003.463-1.532Zm-10.096-51.848-1.232-1.0201 1.232 1.0201Zm27.109-.0015-1.232 1.0202 1.232-1.0202Zm5.628 22.3394 1.497.5652.09-.2379.012-.2541-1.599-.0732Zm-.002.0057-1.497-.5653-.003.0088 1.5.5565Zm-.002.0048-1.5-.5565-.002.006 1.502.5505Zm-.001.0029 1.494.5729.005-.0112.004-.0112-1.503-.5505Zm.005.0017 1.598.0737.053-1.1561-1.081-.4125-.57 1.4949Zm-5.69 20.639 1.372.8232-1.372-.8232Zm-8.388 8.217.671 1.453.007-.003-.678-1.45Zm-5.106 1.164v-1.6h-.001l.001 1.6Zm20.768-29.6664-1.439-.6981-.142.2922-.017.3243 1.598.0816Zm-1.359 9.6162-1.556-.3712-.336 1.4088 1.369.4742.523-1.5118Zm1.472-9.8327 1.397.7802-1.397-.7802Zm.708-.9523 1.145 1.118-1.145-1.118Zm3.207-1.0604-.2 1.5875.001.0002.199-1.5877Zm2.654 2.7673-1.552.388 1.552-.388Zm.243 1.8882 1.599-.041-1.599.041Zm-.004.6147-1.599-.0653 1.599.0653Zm-.009.1646 1.596.1168.001-.0086-1.597-.1082Zm-.003.0392 1.595.1301.001-.0133-1.596-.1168Zm0 .0077 1.593.1477.001-.0088v-.0088l-1.594-.1301Zm0 .0011-1.594-.1477v.0019l1.594.1458Zm-.004.0337-1.593-.1458-.006.0697v.07l1.599.0061Zm0 .035 1.6.0192v-.0131l-1.6-.0061Zm0 .0019 1.6.0248v-.0056l-1.6-.0192Zm0 .017 1.6.0375v-.0127l-1.6-.0248Zm-.001.0338 1.6.0504v-.0129l-1.6-.0375Zm-.001.0429 1.599.0563v-.006l-1.599-.0503Zm-.017.3074-1.596-.1151 1.596.1151Zm-.133 1.0955-1.578-.2671 1.578.2671Zm-1.02 3.0114 1.386.7999-1.386-.7999Zm-2.548 2.1482-.475-1.5278.475 1.5278Zm-44.708-9.8004 1.598-.0867-.118-2.1661-2.034.752.554 1.5008Zm1.34 9.3982.534 1.5085 1.355-.4794-.332-1.399-1.557.3699Zm-1.368-9.3879-.554-1.5008-.007.0025.561 1.4983Zm-.007.0035 1.508-.536-.003-.0068-.002-.0068-1.503.5496Zm.001.0011-1.489.5864 2.996-1.1225-1.507.5361Zm-.007-.0157 1.489-.5864-.004-.0105-1.485.5969Zm-.034-.0799-1.461.6519v.0001l1.461-.652Zm-.159-.3158-1.397.7802 1.397-.7802Zm-.708-.9523 1.145-1.118-1.145 1.118Zm-3.206-1.0603.198 1.5876.002-.0002-.2-1.5874Zm-2.659 2.5941-1.546-.4108 1.546.4108Zm-.239 1.7508-1.599-.0427 1.599.0427Zm.004.5693-1.598.0708 1.598-.0708Zm.009.1514-1.596.1166.001.0091 1.595-.1257Zm.003.0355-1.595.1257v.0081l.001.008 1.594-.1418Zm0 .0074-1.593.1418v.0075l.001.0074 1.592-.1567Zm.004.0363 1.6-.0053v-.0759l-.008-.0755-1.592.1567Zm0 .038-1.6.0053v.012l1.6-.0173Zm0 .0023-1.6.0174v.0062l1.6-.0236Zm0 .018-1.599.0235v.0052l1.599-.0287Zm.003.0802 1.599-.0539-1.599.0539Zm.016.3202-1.596.1107 1.596-.1107Zm.134 1.1399-1.579.2575 1.579-.2575ZM173 82.3348l-1.4.7749 1.4-.7749Zm2.557 2.268.509-1.517-.509 1.517Zm12.428 21.5672.507-1.518-2.107-.703v2.221h1.6Zm0 11.169h-1.6v.565l.355.439 1.245-1.004Zm23.796-17.244h1.6v-5.8111l-2.974 4.9921 1.374.819Zm0 18.124 1.153 1.109.447-.464v-.645h-1.6Zm-.649.384.62 1.475-.62-1.475Zm-21.638-.324-.605 1.481.605-1.481Zm-1.415-.838 1.129-1.133-1.129 1.133Zm5.833-45.5013.988-1.2581-.001-.0011-.987 1.2592Zm-4.784-3.7495-.99 1.2571.003.0022.987-1.2593Zm4.316 5.3667.38 1.5541.001-.0002-.381-1.5539Zm-3.497-.9088-.999 1.2495.007.0052.006.0052.986-1.2599Zm-2.242-3.3995 1.542-.427-.004-.0149-.004-.0147-1.534.4566Zm16.782-.8642-.747 1.4148v.0001l.747-1.4149Zm5.303 2.8003-.747 1.4149.005.0026.742-1.4175Zm-4.927-4.5345-.24-1.582-.007.0011-.008.0012.255 1.5797Zm3.964.6535.753-1.4117-.009-.005-.01-.0049-.734 1.4216Zm2.229 2.7857 1.575-.282-.002-.0106-1.573.2926Zm-14.053 15.0363-1.554-.3789 1.554.3789Zm-.051.6915 1.548-.4073-1.548.4073Zm.071.1077.83-1.368-.83 1.368Zm.385.0848-.077 1.5981.077-1.5981Zm.764-.0674.291 1.5733-.291-1.5733Zm1.729-.5226.585 1.4894-.585-1.4894Zm.604-.2531-.654-1.4602.654 1.4602Zm.167-.0768.681 1.4482.005-.0024-.686-1.4458Zm.042-.0199.686 1.4458.008-.0042-.694-1.4416Zm.01-.0047.694 1.4417.003-.0016-.697-1.4401Zm.002-.0007.697 1.4401.004-.0022-.701-1.4379Zm1.07.3677-1.438.7022 1.438-.7022Zm-.39 1.0804.686 1.4458.008-.0041-.694-1.4417Zm.021-.01.7 1.4387.006-.0028-.706-1.4359Zm-.002.0007.699 1.4397.002-.001-.701-1.4387Zm-.004.0021.694 1.4417.004-.002-.698-1.4397Zm-.068.0326.68 1.4483.005-.0025-.685-1.4458Zm-.194.0888.654 1.4602v-.0001l-.654-1.4601Zm-.673.2823.585 1.4893-.585-1.4893Zm-2.023.6065-.291-1.5734v.0001l.291 1.5733Zm-1.132.0922-.076 1.5982.076-1.5982Zm-1.138-.3149.83-1.368-.83 1.368Zm-.788-1.0683-1.547.4073 1.547-.4073Zm.044-1.4778-1.555-.3789 1.555.3789Zm-.251 5.9238 1.468-.6367-1.468.6367Zm.415-1.0528-.638-1.4675.638 1.4675Zm.637 1.4684-.637-1.4675h-.001l.638 1.4675Zm4.38.1436.718-1.4298-.718 1.4298Zm1.32.8758-1.033 1.2212 1.033-1.2212Zm.349.3184 1.129-1.1332-1.129 1.1332Zm.083.0857 1.175-1.0861-.007-.0079-1.168 1.094Zm.018.0189 1.186-1.073-.006-.0066-.006-.0065-1.174 1.0861Zm.002.0027 1.197-1.0613-.005-.0059-.005-.0059-1.187 1.0731Zm1.127.0692-1.059-1.1995 1.059 1.1995Zm.071-1.1297 1.2-1.0578-.002-.0022-1.198 1.06Zm-.003-.0028 1.199-1.06-.005-.0049-1.194 1.0649Zm-.003-.0041 1.194-1.0649-.006-.0065-1.188 1.0714Zm-.011-.0117 1.188-1.0715-.007-.008-1.181 1.0795Zm-.013-.0137 1.181-1.0795-.008-.0092-1.173 1.0887Zm-.022-.0237 1.173-1.0888-.005-.0052-1.168 1.094Zm-.121-.1249 1.13-1.1332-1.13 1.1332Zm-.444-.4065 1.034-1.2212-1.034 1.2212Zm-1.636-1.0843-.718 1.4297.718-1.4297Zm20.699-17.7733c0-.0901.001-.1803.001-.2705h-3.2c0 .0854-.001.1707-.001.2559l3.2.0146Zm2.753-2.7554c-2.368-.298-4.163.497-5.383 1.5238l2.06 2.4485c.629-.5292 1.553-.9698 2.923-.7974l.4-3.1749Zm5.36 5.1664c-.475-1.8998-1.837-4.7253-5.362-5.1665l-.397 3.1752c1.562.1956 2.304 1.3648 2.654 2.7672l3.105-.7759Zm.337 2.5821c-.017-.6645-.091-1.5964-.337-2.5821l-3.105.7759c.172.6866.229 1.3697.243 1.8882l3.199-.082Zm-.006.8274c.009-.2056.014-.4893.006-.8274l-3.199.082c.006.2573.002.4692-.004.6147l3.197.1307Zm-.013.2504a9.91 9.91 0 0 0 .013-.2504l-3.197-.1307a4.4209 4.4209 0 0 1-.009.1646l3.193.2165Zm-.004.0572.003-.0498-3.191-.2314-.004.0498 3.192.2314Zm.004-.0837v-.0079l-3.2-.0482v.0078l3.2.0483Zm-.004.135c.002-.0528.003-.0961.004-.1288l-3.2-.0607c0 .0163-.001.0421-.002.0767l3.198.1128Zm-.023.425c.012-.1758.019-.3197.023-.425l-3.198-.1128c-.003.0694-.007.174-.017.3075l3.192.2303Zm-.17 1.3995c.095-.5644.144-1.0492.17-1.3995l-3.192-.2303a11.74 11.74 0 0 1-.133 1.0955l3.155.5343Zm-1.403 4.0769c.831-1.44 1.216-2.9749 1.403-4.0769l-3.155-.5343c-.153.9019-.451 2.0259-1.02 3.0114l2.772 1.5998Zm-4.37 3.604c2.145-.6669 3.521-2.1345 4.37-3.604l-2.772-1.5998c-.563.976-1.37 1.7819-2.548 2.1482l.95 3.0556Zm-6.402-.3488c2.409.8116 4.548.9254 6.402.3488l-.95-3.0556c-1.042.3239-2.468.3351-4.431-.3258l-1.021 3.0326Zm-2.263 9.2446c1.803-3.0051 3.266-6.5035 4.316-10.3381l-3.086-.8457c-.983 3.5889-2.339 6.8122-3.974 9.5374l2.744 1.6464Zm-1.146 1.7773c.397-.5724.779-1.1654 1.146-1.7773l-2.744-1.6464a28.4677 28.4677 0 0 1-1.032 1.5998l2.63 1.8239Zm.285 19.7233V97.4717h-3.2v20.6353h3.2Zm.014.187c0-.158-.013-.304-.033-.436l-3.161.498a.3968.3968 0 0 1-.006-.067l3.2.005Zm-.35 1.379c.245-.463.349-.939.35-1.379l-3.2-.005c0-.03.004-.056.009-.076a.164.164 0 0 1 .013-.037l2.828 1.497Zm-2.272 1.88c.939-.395 1.794-.976 2.272-1.88l-2.828-1.497c.007-.014-.087.176-.685.427l1.241 2.95Zm-11.623 1.337c6.405 0 9.782-.563 11.623-1.337l-1.241-2.95c-1.208.508-4.026 1.087-10.382 1.087v3.2Zm-12.467-1.649c2.213.904 5.961 1.649 12.467 1.649v-3.2c-6.323 0-9.595-.732-11.256-1.411l-1.211 2.962Zm-2.464-1.534c.549.548 1.34 1.074 2.464 1.534l1.211-2.962c-.825-.338-1.23-.653-1.415-.838l-2.26 2.266Zm-.64-.812c.156.263.365.538.64.812l2.26-2.266c-.093-.092-.133-.154-.144-.173l-2.756 1.627Zm-.189-.374c.05.118.112.243.189.374l2.756-1.627h-.001l-2.944 1.253Zm-.066-.169c.019.054.041.11.065.169l2.945-1.253c.002.005.005.013.009.024l-3.019 1.06Zm-.027-.08c.008.026.017.053.027.079l3.019-1.059c.002.005.004.011.006.018l-3.052.962Zm-.008-.025.005.014 3.059-.94-.004-.013-3.06.939Zm-.006-.023.002.007 3.068-.907-.002-.007-3.068.907Zm-.007-.022.002.006 3.078-.874-.002-.006-3.078.874Zm-.031-.11.03.106 3.081-.866-.03-.107-3.081.867Zm-.06-19.8467v19.4127h3.2V98.2453h-3.2Zm-1.417-1.6408c.545.909 1.124 1.7764 1.734 2.5964l2.567-1.9112c-.544-.7301-1.064-1.5086-1.557-2.3312l-2.744 1.646Zm-4.325-10.3743c1.051 3.8485 2.516 7.3596 4.325 10.3743l2.744-1.646c-1.64-2.7339-2.998-5.969-3.982-9.5714l-3.087.8431Zm-4.504 1.4064c1.897.6365 4.094.5334 6.566-.3144l-1.038-3.027c-2.006.688-3.456.6612-4.51.3076l-1.018 3.0338Zm-4.338-3.752c.831 1.5019 2.19 3.0316 4.338 3.752l1.018-3.0338c-1.177-.3946-1.988-1.2413-2.557-2.268l-2.799 1.5498Zm-1.384-4.1808c.185 1.1307.565 2.7021 1.384 4.1808L173 82.3348c-.572-1.0341-.871-2.2074-1.024-3.1459l-3.159.5149Zm-.167-1.4335c.025.3583.073.8548.167 1.4335l3.159-.5149a12.7693 12.7693 0 0 1-.134-1.1399l-3.192.2213Zm-.023-.4337c.004.1071.011.2539.023.4337l3.192-.2213a9.114 9.114 0 0 1-.016-.3202l-3.199.1078Zm-.003-.1306c0 .0331.002.077.003.1306l3.199-.1078c-.002-.0362-.002-.0632-.003-.0802l-3.199.0574Zm0-.0117v.0062l3.199-.0464v-.0063l-3.199.0465Zm.001.0572.003.0433 3.191-.2475-.004-.0433-3.19.2475Zm-.015-.2502c.005.0997.01.1816.014.243l3.192-.2332c-.002-.033-.006-.0843-.009-.1514l-3.197.1416Zm-.006-.7964c-.008.325-.002.5978.006.7964l3.197-.1416a8.3286 8.3286 0 0 1-.004-.5693l-3.199-.0855Zm.345-2.4869c-.253.9519-.328 1.8491-.345 2.4869l3.199.0855c.013-.4812.07-1.1144.239-1.7507l-3.093-.8217Zm5.354-4.9478c-3.445.431-4.852 3.0574-5.354 4.9478l3.093.8217c.34-1.282 1.067-2.3951 2.658-2.5942l-.397-3.1753Zm5.527 1.6494c-1.218-1.0821-3.059-1.96-5.528-1.6492l.4 3.1749c1.422-.179 2.368.303 3.002.8661l2.126-2.3918Zm-2.664.8357c0 .1235 0 .2469.001.3702l3.2-.0199c-.001-.1167-.001-.2334-.001-.3503h-3.2Zm6.42-21.8274c-4.09 4.9427-6.42 12.2385-6.42 21.8274h3.2c0-9.1054 2.214-15.5919 5.685-19.7873l-2.465-2.0401ZM199.604 42.6c-6.172 0-11.889 2.3383-16.018 7.3279l2.465 2.0401c3.459-4.1798 8.233-6.168 13.553-6.168v-3.2Zm16.021 7.3261c-4.129-4.9893-9.848-7.3261-16.021-7.3261v3.2c5.322 0 10.097 1.9873 13.556 6.1665l2.465-2.0404Zm6.422 21.8292c0-9.5908-2.331-16.8869-6.422-21.8292l-2.465 2.0404c3.472 4.1949 5.687 10.6813 5.687 19.7888h3.2ZM184.74 95.7815c2.865 4.7765 6.621 8.2285 10.934 9.5635l.946-3.057c-3.321-1.028-6.526-3.8002-9.136-8.1525l-2.744 1.646Zm-5.974-24.0262c0 9.3458 2.264 17.8408 5.974 24.0262l2.744-1.6459c-3.364-5.608-5.518-13.513-5.518-22.3803h-3.2Zm6.053-20.8074c-3.781 4.569-6.053 11.4601-6.053 20.8074h3.2c0-8.8633 2.155-14.9452 5.318-18.7673l-2.465-2.0401ZM199.604 44.2c-5.746 0-10.992 2.1634-14.785 6.7479l2.465 2.0401c3.124-3.7752 7.426-5.588 12.32-5.588v-3.2Zm14.789 6.7463c-3.795-4.5841-9.041-6.7463-14.789-6.7463v3.2c4.897 0 9.199 1.8122 12.324 5.5867l2.465-2.0404Zm6.054 20.809c0-9.3493-2.273-16.2405-6.054-20.809l-2.465 2.0404c3.163 3.8214 5.319 9.9031 5.319 18.7686h3.2Zm-.06 2.6238c.039-.8658.06-1.7408.06-2.6238h-3.2c0 .8342-.019 1.6604-.057 2.4773l3.197.1465Zm-.104.4977.002-.0057-2.993-1.1305-.003.0057 2.994 1.1305Zm.002-.0039.001-.0048-3-1.113-.002.0048 3.001 1.113Zm.001-.0031.001-.0028-3.005-1.1011-.001.0028 3.005 1.1011Zm-.928-2.0437c.005.0019.043.0162.091.0381.014.0065.089.0401.177.0949.032.0197.158.0973.29.2303.064.0637.205.2144.315.4492.059.1253.122.3019.144.5207.012.1107.012.2308-.004.3571a1.5895 1.5895 0 0 1-.035.1895 1.551 1.551 0 0 1-.027.0941.54.54 0 0 1-.015.0464c-.008.023-.017.0458-1.511-.5271-1.493-.573-1.502-.5502-1.51-.5272a1.2132 1.2132 0 0 0-.016.0464 2.8961 2.8961 0 0 0-.026.0941 1.4118 1.4118 0 0 0-.035.1895 1.5909 1.5909 0 0 0-.005.3571c.022.2188.086.3954.144.5207.111.2348.252.3855.316.4492.132.133.258.2106.29.2304.089.0549.163.0886.178.0954.049.0223.089.0375.098.0411l1.141-2.9899Zm-4.888 22.9571c3.361-5.6007 5.534-13.0924 5.916-21.3885l-3.197-.1473c-.362 7.8587-2.419 14.8162-5.463 19.8894l2.744 1.6464Zm-9.082 8.8438c3.536-1.653 6.631-4.7587 9.082-8.8438l-2.744-1.6464c-2.226 3.7105-4.892 6.2812-7.693 7.5912l1.355 2.899Zm-5.784 1.314c2.146 0 4.087-.531 5.777-1.311l-1.341-2.905c-1.344.62-2.829 1.016-4.436 1.016v3.2Zm-3.92-.593c1.215.367 2.53.594 3.921.593l-.002-3.2c-1.04.001-2.041-.168-2.993-.456l-.926 3.063Zm23.09-30.755c-.167 3.271-.62 6.4035-1.317 9.3266l3.113.7423c.744-3.119 1.224-6.4456 1.4-9.9057l-3.196-.1632Zm.315-.9152a5.8164 5.8164 0 0 0-.156.2987l2.879 1.3961a2.86 2.86 0 0 1 .07-.1343l-2.793-1.5605Zm.96-1.29c-.449.4596-.761.9328-.96 1.29l2.793 1.5605c.1-.1779.251-.4053.456-.6145l-2.289-2.236Zm4.551-1.5298c-2.156-.2715-3.635.5919-4.551 1.5298l2.289 2.236c.197-.2024.425-.3707.699-.4788.265-.105.635-.1786 1.163-.1121l.4-3.1749Zm4.006 3.9668c-.208-.8328-.563-1.7378-1.209-2.4883-.677-.7879-1.613-1.3303-2.799-1.4787l-.397 3.1753c.382.0478.6.1919.77.39.203.2355.39.616.531 1.1776l3.104-.7759Zm.29 2.2351c-.015-.5914-.081-1.3989-.29-2.2351l-3.104.7759c.134.537.184 1.0956.195 1.5412l3.199-.082Zm-.004.7211c.007-.1756.012-.4234.004-.7211l-3.199.082c.006.2168.002.3929-.003.5084l3.198.1307Zm-.011.2074c.003-.0495.007-.1196.011-.2075l-3.198-.1306c-.002.0574-.005.0988-.006.1217l3.193.2164Zm-.004.0478.003-.0392-3.192-.2336-.002.0392 3.191.2336Zm-.002.021.001-.0077-3.189-.2602-.001.0077 3.189.2602Zm-.001.0187v-.0011l-3.186-.2954-.001.0011 3.187.2954Zm-.003.0318.003-.0337-3.187-.2916-.003.0337 3.187.2916Zm.006-.1047v-.035l-3.199-.0122-.001.035 3.2.0122Zm0 .015v-.0019l-3.2-.0384v.0019l3.2.0384Zm0 .0226v-.017l-3.199-.0496-.001.0169 3.2.0497Zm-.001.0465.001-.0338-3.199-.0751-.001.0338 3.199.0751Zm-.002.0557.001-.0429-3.198-.1007-.001.0429 3.198.1007Zm-.02.3723c.011-.1547.017-.2789.02-.3663l-3.198-.1127a7.7986 7.7986 0 0 1-.014.2487l3.192.2303Zm-.152 1.2475c.086-.5055.13-.9386.152-1.2475l-3.192-.2303c-.016.2263-.049.556-.115.9435l3.155.5343Zm-1.211 3.5441c.7-1.2128 1.042-2.5423 1.211-3.5441l-3.155-.5343c-.136.8021-.39 1.7205-.827 2.4786l2.771 1.5998Zm-3.459 2.8761c1.661-.5164 2.753-1.6524 3.459-2.8761l-2.771-1.5998c-.42.7271-.942 1.2037-1.638 1.4203l.95 3.0556Zm-5.542-.3802c2.242.777 4.068.8388 5.542.3802l-.95-3.0556c-.648.2013-1.751.2735-3.545-.3482l-1.047 3.0236Zm-41.238-10.8613c.183 3.379.656 6.6293 1.381 9.6814l3.113-.7398c-.68-2.8605-1.126-5.921-1.299-9.115l-3.195.1734Zm2.124 1.4244.028-.0103-1.109-3.0016-.028.0103 1.109 3.0016Zm-.562-1.4973c1.503-.5496 1.505-.5426 1.508-.5356.001.0023.003.0094.005.0141l.009.0284c.007.0191.012.0384.018.0579.011.0391.021.0788.029.1191.016.0809.026.1626.03.2444.007.1648-.012.3186-.046.4564a1.592 1.592 0 0 1-.28.5847 1.602 1.602 0 0 1-.414.3806c-.144.0911-.269.1367-.29.1448l-1.123-2.9966c-.029.0109-.157.0582-.303.1504-.061.0392-.247.16-.416.3817a1.6098 1.6098 0 0 0-.28.585 1.5842 1.5842 0 0 0-.045.4565c.003.0817.013.1634.03.2443.008.0404.017.0801.029.1192.005.0195.011.0388.017.0579.003.0095.006.019.01.0284.001.0047.004.0117.005.0141.002.007.005.0139 1.507-.5357Zm1.508-.535v-.001l-3.015 1.0721v.001l3.015-1.0721Zm-3.002 1.1068.006.0157 2.977-1.1728-.006-.0157-2.977 1.1728Zm-.007-.0143c.008.0172.011.0261.011.0248l2.969-1.1938c-.014-.0335-.033-.0792-.058-.135l-2.922 1.304Zm-.095-.1876c.048.0861.08.1525.095.1875l2.922-1.3038a5.3961 5.3961 0 0 0-.223-.4442l-2.794 1.5605Zm-.455-.6145c.204.2092.356.4365.455.6145l2.794-1.5605c-.2-.3572-.511-.8304-.96-1.29l-2.289 2.236Zm-1.862-.5909c.527-.0664.898.0071 1.163.1121.273.1082.501.2764.699.4788l2.289-2.236c-.916-.9379-2.396-1.8012-4.551-1.5298l.4 3.1749Zm-1.313 1.4176c.131-.4931.305-.8255.494-1.0339.161-.1762.389-.33.817-.3835l-.397-3.1753c-1.169.1461-2.101.6521-2.786 1.4044-.655.72-1.013 1.5849-1.22 2.3666l3.092.8217Zm-.185 1.3826c.01-.4029.058-.9041.185-1.3826l-3.092-.8217c-.211.7942-.277 1.5594-.292 2.1189l3.199.0854Zm.003.4558a5.8263 5.8263 0 0 1-.003-.4558l-3.199-.0854a9.083 9.083 0 0 0 .005.6828l3.197-.1416Zm.006.1056a1.9493 1.9493 0 0 1-.006-.1056l-3.197.1416c.003.0834.008.15.011.1972l3.192-.2332Zm.002.0264-.003-.0355-3.19.2514.003.0355 3.19-.2514Zm-.001-.0088-.001-.0074-3.187.2837.001.0074 3.187-.2837Zm.002.0215-.003-.0364-3.185.3135.004.0364 3.184-.3135Zm.008.1893v-.0379l-3.2.0107v.0379l3.2-.0107Zm0-.0096v-.0024l-3.2.0347v.0024l3.2-.0347Zm0 .0118v-.018l-3.2.0471.001.0179 3.199-.047Zm.002.0498c-.001-.0274-.002-.046-.002-.055l-3.199.0574c0 .0251.001.0605.002.1054l3.199-.1078Zm.014.2635a4.8646 4.8646 0 0 1-.014-.2635l-3.199.1078c.003.0897.009.2176.02.377l3.193-.2213Zm.116.9931c-.067-.4078-.1-.7547-.116-.9931l-3.193.2213c.022.3183.066.7649.151 1.2867l3.158-.5149Zm.845 2.6284c-.449-.8117-.708-1.7859-.845-2.6284l-3.158.5149c.168 1.0344.508 2.4068 1.203 3.6633l2.8-1.5498Zm1.666 1.5259c-.693-.2322-1.23-.7389-1.666-1.5259l-2.8 1.5498c.701 1.2652 1.787 2.4527 3.448 3.01l1.018-3.0339Zm3.59-.3415c-1.834.6488-2.946.5578-3.59.3415l-1.018 3.0339c1.504.5045 3.374.4554 5.675-.3584l-1.067-3.017Zm6.729 23.4257v11.169h3.2V106.17h-3.2Zm24.022-6.894c-2.921 4.901-7.429 6.541-11.779 6.81-4.399.272-8.485-.883-10.136-1.434l-1.013 3.035c1.809.604 6.349 1.902 11.347 1.593 5.047-.312 10.707-2.287 14.33-8.366l-2.749-1.638Zm2.974 18.943v-18.124h-3.2v18.124h3.2Zm-1.629 1.859c.545-.229.922-.48 1.182-.75l-2.306-2.219c.066-.068.106-.092.093-.084-.013.009-.075.047-.21.104l1.241 2.949Zm-11.002 1.212c6.38 0 9.478-.571 11.002-1.212l-1.241-2.949c-.89.374-3.428.961-9.761.961v3.2Zm-11.861-1.53c1.937.792 5.447 1.53 11.861 1.53v-3.2c-6.231 0-9.266-.726-10.65-1.292l-1.211 2.962Zm-1.94-1.186c.367.367.965.787 1.94 1.186l1.211-2.962c-.675-.276-.888-.486-.892-.49l-2.259 2.266Zm-.209-.231c.06.074.129.152.209.231l2.259-2.266c-.001-.001.008.008.023.026l-2.491 2.009Zm8.159-47.6625-4.784-3.7495-1.974 2.5185 4.784 3.7495 1.974-2.5185Zm-1.074 4.4303c.993-.2436 1.652-1.0047 1.887-1.8179.238-.818.089-1.9039-.812-2.6113l-1.977 2.5163c-.328-.2575-.333-.6275-.284-.7957a.58.58 0 0 1 .423-.3991l.763 3.1077Zm-4.864-1.2028c1.77 1.3854 3.508 1.535 4.863 1.203l-.761-3.1081c-.447.1095-1.168.1378-2.129-.6147l-1.973 2.5198Zm-2.798-4.2325a8.2138 8.2138 0 0 0 2.785 4.2221l1.999-2.499a5.0165 5.0165 0 0 1-1.7-2.577l-3.084.8539Zm3.955-2.7424c-1.041-.8195-2.272-.5311-2.989-.0008-.72.5328-1.313 1.577-.957 2.7728l3.067-.9131c.111.3724-.096.6312-.207.7127-.066.0492-.178.1065-.34.1162-.182.0108-.389-.0436-.554-.1736l1.98-2.5142Zm13.622 2.8662 5.303 2.8003 1.494-2.8297-5.303-2.8003-1.494 2.8297Zm.868-4.7288c-1.205.1941-1.896 1.1479-2.084 2.0153-.187.867.052 2.0985 1.216 2.7134l1.494-2.8296c.185.0976.319.2635.384.4347.058.153.051.2788.034.3582-.028.13-.169.4083-.535.4673l-.509-3.1593Zm4.953.8116a8.1141 8.1141 0 0 0-4.938-.8139l.479 3.164a4.9158 4.9158 0 0 1 2.991.493l1.468-2.8431Zm3.068 3.9147c-.254-1.362-1.105-2.8678-3.049-3.9048l-1.506 2.8234c1.054.5621 1.326 1.2251 1.409 1.6667l3.146-.5853Zm-3.581 2.8054c1.012.5299 2.062.2183 2.707-.3368.645-.5539 1.053-1.4641.876-2.458l-3.15.564c-.04-.2198.053-.4163.189-.533.137-.1178.485-.2687.862-.0712l-1.484 2.835Zm-10.49 12.9024c.313-1.2877-.476-2.5862-1.764-2.9001l-.758 3.109a.7994.7994 0 0 1-.587-.9667l3.109.7578Zm-.058-.0947a.9723.9723 0 0 1 .029.1609c.004.0372.003.0605.003.0676-.001.0129 0-.0275.026-.1338l-3.109-.7578c-.13.531-.161 1.0311-.044 1.4778l3.095-.8147Zm-.647-.853c.038.0233.238.143.413.3774.157.2104.215.4039.234.4756l-3.095.8147c.038.144.117.3826.297.6243.198.2657.424.4031.491.444l1.66-2.736Zm-.369-.1454c-.019-.0009.007-.0015.065.0133.052.0133.165.0477.304.1321l-1.66 2.736c.361.2187.768.2973 1.138.3149l.153-3.1963Zm.398-.0426c-.221.0408-.35.0449-.398.0426l-.153 3.1963c.375.0179.764-.0243 1.132-.0922l-.581-3.1467Zm1.435-.4385c-.464.1818-.991.3564-1.436.4385l.582 3.1467c.734-.1357 1.478-.3928 2.023-.6065l-1.169-2.9787Zm.534-.224c-.128.0572-.314.1373-.534.224l1.169 2.9787c.276-.1084.508-.2087.673-.2823l-1.308-2.9204Zm.141-.0648c-.03.0141-.078.0364-.141.0648l1.308 2.9204c.082-.0369.148-.0673.194-.0888l-1.361-2.8964Zm.037-.0175-.042.0199 1.371 2.8916.042-.0199-1.371-2.8916Zm.001-.0005-.01.0046 1.388 2.8833.01-.0046-1.388-2.8833Zm-.002.0008-.001.0008 1.394 2.8801.002-.0007-1.395-2.8802Zm3.205 1.1056c-.582-1.1914-2.019-1.6843-3.209-1.1034l1.403 2.8758a.7993.7993 0 0 1-1.069-.368l2.875-1.4044Zm-1.103 3.2098c1.191-.5817 1.685-2.0188 1.103-3.2098l-2.875 1.4044c-.194-.397-.029-.876.368-1.0699l1.404 2.8753Zm-.028.0137.021-.0105-1.391-2.8817-.022.0105 1.392 2.8817Zm-.674-1.4513-.696-1.4409V85.0616h-.001v.0005h-.001v.0005h-.001v.0005h-.001v.0004l-.001.0001v.0004h-.001v.0005h-.001v.0005h-.001v.0004l-.001.0001v.0004l-.001.0001v.0004l-.001.0001v.0004h-.001v.0005h-.001v.0004l-.001.0001v.0004l-.001.0001v.0004l-.001.0001v.0004l-.001.0001v.0004l-.001.0001v.0004h-.001v.0004l-.001.0001v.0005h-.001v.0004l-.001.0001 1.392 2.8817V87.9532l.001-.0001v-.0005h.001v-.0004l.001-.0001v-.0004l.001-.0001v-.0004h.001v-.0004l.001-.0001v-.0004l.001-.0001v-.0004l.001-.0001v-.0004h.001v-.0005l.001-.0001v-.0004h.001v-.0005h.001v-.0005h.001v-.0004l.001-.0001v-.0004l.001-.0001v-.0004h.001v-.0005h.001v-.0005h.001v-.0005h.001v-.0004l.001-.0001v-.0004h.001v-.0005l-.695-1.4408Zm.705 1.4363.001-.0004-1.412-2.8719-.001.0005 1.412 2.8718Zm-.007.0035.001-.0007-1.4-2.8774-.002.0007 1.401 2.8774Zm-.007.0031.005-.0021-1.397-2.8794-.004.0022 1.396 2.8793Zm-.019.0092.015-.0072-1.388-2.8833-.015.0072 1.388 2.8833Zm-.062.0295.054-.0254-1.371-2.8915-.054.0254 1.371 2.8915Zm-.225.1031c.092-.0411.166-.0754.22-.1006l-1.361-2.8965c-.038.0178-.094.0441-.167.0768l1.308 2.9203Zm-.742.3115c.303-.1191.559-.2296.742-.3114l-1.308-2.9204c-.146.0654-.355.1556-.604.2531l1.17 2.9787Zm-2.317.6906c.879-.1625 1.731-.4607 2.317-.6906l-1.17-2.9787c-.504.1978-1.139.4136-1.729.5225l.582 3.1468Zm-1.499.117c.538.0257 1.057-.0355 1.499-.117l-.582-3.1467c-.294.0543-.553.0774-.764.0674l-.153 3.1963Zm-1.891-.5451c.669.4062 1.369.5202 1.891.5451l.153-3.1963c-.217-.0104-.333-.0532-.385-.0848l-1.659 2.736Zm-1.506-2.029c.23.8739.767 1.5808 1.506 2.029l1.659-2.736a.1244.1244 0 0 1-.039-.0333c-.006-.0078-.019-.0285-.032-.0744l-3.094.8147Zm.036-2.264c-.165.679-.246 1.4686-.036 2.264l3.094-.8147c-.025-.0984-.042-.3092.051-.6915l-3.109-.7578Zm2.9-1.7634c-1.288-.3138-2.586.4757-2.9 1.7634l3.109.7578a.8.8 0 0 1-.967.5878l.758-3.109Zm-.128 7.4294a.7997.7997 0 0 1-.415 1.0514l-1.276-2.935c-1.216.5284-1.772 1.9424-1.245 3.1571l2.936-1.2735Zm-1.054-.4152c.407-.1767.879.0109 1.054.4152l-2.936 1.2735c.527 1.2153 1.941 1.7751 3.158 1.2463l-1.276-2.935Zm5.736.1813c-1.41-.7084-3.431-1.1824-5.735-.1813l1.275 2.935c1.208-.525 2.214-.301 3.024.1058l1.436-2.8595Zm1.636 1.0844c-.381-.3223-.936-.733-1.636-1.0844l-1.436 2.8595c.42.2111.765.4648 1.005.6673l2.067-2.4424Zm.444.4064a7.303 7.303 0 0 0-.444-.4064l-2.067 2.4424c.117.0993.202.1809.252.2304l2.259-2.2664Zm.122.1249a5.6086 5.6086 0 0 0-.122-.1249l-2.259 2.2664c.025.0246.04.0407.046.0465l2.335-2.188Zm.024.0268-.017-.0189-2.35 2.1722.018.0189 2.349-2.1722Zm.015.0157-.003-.0026-2.373 2.1461.002.0027 2.374-2.1462Zm-1.119-.0572c.332-.2927.837-.2609 1.129.069l-2.394 2.1226c.877.9896 2.39 1.0837 3.383.2073l-2.118-2.3989Zm-.071 1.1276a.7997.7997 0 0 1 .071-1.1276l2.118 2.3989c.993-.8771 1.088-2.3932.212-3.3869l-2.401 2.1156Zm0 .0002.004.004 2.388-2.1297-.003-.004-2.389 2.1297Zm-.004-.0052.01.0117 2.377-2.1428-.011-.0117-2.376 2.1428Zm-.006-.0056.013.0136 2.362-2.1589-.013-.0137-2.362 2.159Zm-.013-.0145.022.0238 2.345-2.1775-.022-.0238-2.345 2.1775Zm-.079-.0804c.039.0381.067.0674.084.0857l2.335-2.188a8.6164 8.6164 0 0 0-.159-.1641l-2.26 2.2664Zm-.348-.3185c.154.1306.272.242.348.3185l2.26-2.2664a9.1873 9.1873 0 0 0-.54-.4945l-2.068 2.4424Zm-1.32-.8758c.56.2812 1.01.6134 1.32.8758l2.068-2.4424c-.452-.3823-1.112-.8714-1.952-1.2929l-1.436 2.8595Zm-4.378-.1435c1.754-.7624 3.267-.4145 4.378.1435l1.436-2.8595c-1.706-.8571-4.235-1.4593-7.09-.219l1.276 2.935Zm10.501-13.809c0 .4543-.113.7879-.212.9543-.119.1998-.058-.046.317-.046v3.2c1.201 0 2.01-.8073 2.432-1.5153.442-.7415.663-1.662.663-2.593h-3.2Zm.105-.9082c-.375 0-.436-.2459-.317-.0461.099.1664.212.5.212.9543h3.2c0-.931-.221-1.8515-.663-2.5929-.422-.708-1.231-1.5153-2.432-1.5153v3.2Zm.105.9082c0-.4543.113-.7879.212-.9543.119-.1998.058.0461-.317.0461v-3.2c-1.201 0-2.01.8073-2.432 1.5153-.442.7414-.663 1.662-.663 2.5929h3.2Zm-.105.9083c.375 0 .436.2458.317.046-.099-.1664-.212-.5-.212-.9543h-3.2c0 .931.221 1.8515.663 2.593.422.7079 1.231 1.5153 2.432 1.5153v-3.2Zm-15.959 3.2c1.201 0 2.01-.8073 2.432-1.5153.442-.7415.664-1.662.664-2.593h-3.2c0 .4543-.113.7879-.213.9543-.119.1998-.058-.046.317-.046v3.2Zm-3.095-4.1083c0 .931.222 1.8515.664 2.593.422.7079 1.231 1.5153 2.431 1.5153v-3.2c.375 0 .436.2458.317.046-.099-.1664-.212-.5-.212-.9543h-3.2Zm3.095-4.1082c-1.2 0-2.009.8073-2.431 1.5153-.442.7414-.664 1.662-.664 2.5929h3.2c0-.4543.113-.7879.212-.9543.119-.1998.058.0461-.317.0461v-3.2Zm3.096 4.1082c0-.931-.222-1.8515-.664-2.5929-.422-.708-1.231-1.5153-2.432-1.5153v3.2c-.375 0-.436-.2459-.317-.0461.1.1664.213.5.213.9543h3.2Zm8.405 15.2516.002.0028 2.397-2.1199-.002-.0028-2.397 2.1199Z" fill="#001F5C" mask="url(#path-1-inside-1_8874_14307)"/></svg>
