<svg viewBox="0 0 400 225" fill="none" xmlns="http://www.w3.org/2000/svg"><path fill-rule="evenodd" clip-rule="evenodd" d="m252.188 45.0336 2.376 1.4648.398.1907c-1.18.7927-3.06 2.7324-4.255 4.8249-1.191 2.0857-1.878 4.6718-1.109 7.5409.966 3.6067 3.402 5.8903 6.431 7.0621 3.042 1.1766 6.683 1.2295 10 .3406 3.473-.9305 5.845-2.5918 7.264-3.9978-.094-2.5741 1.662-3.7945 2.7-4.0962.205-.3044.497-.8389.76-1.5618.355-.9782.642-2.2622.587-3.7099-.055-1.4368-.51-2.8329-1.104-3.9923-.49-.9582-1.063-1.7308-1.556-2.2198l-.015-.0042.001.0082-.005-.0042-.69-.1643s-.176-.7505-.483-1.4689c-9.623-3.2169-18.21-1.4823-21.3-.2128Zm16.868 3.8358c.148-.1372.659-.6346 1.115-1.5077 1.337-.165 2.719-.0754 2.719-.0754-2.74-.8634-6.175-.8873-9.714.0854 0 0 1.898 1.6692 5.88 1.4977Z" fill="#3164FA"/><path d="M243.323 68.9898c-2.348-8.7635 1.86-17.6585 9.484-21.4384-.964.9423-2.09 2.269-2.828 3.547-1.271 2.2253-2.03 5.0392-1.191 8.1734 1.045 3.8975 3.693 6.3713 6.939 7.6269 3.233 1.2509 7.059 1.2955 10.519.3685 3.282-.8795 5.651-2.3933 7.201-3.7989 1.271 4.5922 7.797 5.1003 12.473 2.578-1.864 8.0629-7.631 15.2614-16.258 17.5729-11.552 3.0954-23.37-3.5499-26.339-14.6294ZM276.982 48.7176a11.3614 11.3614 0 0 0-.789-1.3179c2.599 1.0384 4.878 2.7955 5.562 5.9111.986 4.4876-1.225 6.9495-2.862 7.6996.453-1.6014-.466-2.2898-.818-2.507-.172-.1057-.511-.27-1.024-.2919.166-.3192.335-.6978.489-1.1233.386-1.0599.698-2.4527.637-4.0284-.06-1.5864-.56-3.1019-1.195-4.3422ZM288.572 175.863l3.798 21.057c.332 1.179.386 2.418.159 3.621a7.9294 7.9294 0 0 1-1.467 3.314 7.922 7.922 0 0 1-2.788 2.314 7.922 7.922 0 0 1-3.526.831H161.202c-2.209 0-4-1.79-4-3.999v-43.752s-12.024 10.436-27.624 21.814-29.089 13.656-43.0682 5.288c-13.9793-8.367-8.1599-24.961-.8043-37.945 5.4702-9.656 12.8216-21.49 16.2305-26.922.827-1.317 2.84-1.226 3.937-.124 5.174 5.196 14.899 4.831 20.048 4.195 1.525-.189 2.835 1.273 2.383 2.742l-1.823 5.922 29.237-18.868c4.4-2.84 9.525-4.35 14.76-4.351h16.852v7.223c0 .204.034.408.174.558.582.625 3.03 2.207 12.884 2.219 11.653-.015 11.612-2.509 11.612-2.509v-8.502h16.299c4.153-.017 8.267.788 12.109 2.366 3.841 1.579 7.333 3.9 10.276 6.832a31.5648 31.5648 0 0 1 6.873 10.252 31.6004 31.6004 0 0 1 2.421 12.107v41.142l28.594-6.825Z" fill="#3164FA"/><path d="M298 31.3833c-1.055-2.9064-4.204-4.4746-7.159-3.565l-69.576 21.4173a.7998.7998 0 0 0-.53.9999.8003.8003 0 0 0 1 .5293l69.577-21.4173c2.14-.6587 4.42.4769 5.184 2.5815l16.027 44.1709c.095.2618.162.5265.203.7911l-75.449 21.8405a.7998.7998 0 1 0 .445 1.5365l74.92-21.687c-.357 1.3797-1.408 2.549-2.886 2.9821l-70.59 20.6799c-2.154.631-4.423-.543-5.153-2.6657l-4.303-12.5198c-.143-.4179-.598-.6402-1.016-.4966-.418.1436-.64.5987-.497 1.0166l4.303 12.5195c1.007 2.932 4.141 4.553 7.116 3.681l30.793-9.0207.003.0114 3.818 13.4493c.121.425.563.672.988.551.425-.12.672-.563.551-.988l-3.599-12.6792 7.119-2.0161 4.689 16.5583c.011.039.025.077.042.113-1.181.056-2.261.188-3.223.357-1.573.276-2.833.652-3.704.961-.436.155-.776.293-1.009.395-.117.05-.208.092-.27.121-.032.015-.056.027-.074.035l-.021.011-.008.004c-.001 0-.002.001.359.715l-.361-.714c-.394.199-.552.68-.353 1.075.199.394.681.551 1.075.353l.011-.006.018-.008.034-.017c.049-.023.125-.057.226-.101.203-.088.508-.213.908-.355.799-.284 1.972-.635 3.445-.893 2.946-.517 7.086-.664 11.848.829.422.132.871-.102 1.003-.524.132-.422-.102-.871-.524-1.003-2.886-.905-5.562-1.243-7.912-1.263.066-.16.08-.342.03-.521l-4.907-17.3279c-.005-.0152-.009-.0301-.014-.0448a.9931.9931 0 0 0-.022-.0562l29.63-8.6805c3.212-.941 4.964-4.398 3.822-7.5444L298 31.3833ZM276.508 119.468l.327.73c-.327-.73-.326-.731-.325-.731l.008-.004.021-.008c.017-.008.04-.018.07-.03.061-.025.147-.06.259-.102.223-.084.548-.198.966-.324.835-.252 2.045-.551 3.565-.75 3.042-.399 7.328-.396 12.342 1.186.421.133.655.583.522 1.004a.8003.8003 0 0 1-1.004.522c-4.758-1.502-8.805-1.499-11.652-1.126-1.425.186-2.549.466-3.311.695-.381.115-.672.218-.863.29l-.057.022-.054.021c-.042.016-.076.03-.102.041-.023.009-.039.016-.049.02l-.01.005a.7997.7997 0 0 1-1.056-.404c-.181-.403 0-.877.403-1.057ZM277.226 127.497l.002-.001.002-.001.006-.003.021-.009.043-.019.026-.011c.059-.025.143-.06.252-.102.218-.085.534-.199.942-.326.816-.252 1.999-.552 3.492-.751 2.989-.399 7.218-.396 12.229 1.187.421.133.655.582.522 1.003a.7995.7995 0 0 1-1.004.522c-4.758-1.502-8.747-1.499-11.535-1.126-1.395.186-2.49.464-3.231.694-.369.114-.65.216-.835.288l-.059.024-.034.013-.055.022a.932.932 0 0 1-.057.024c-.022.01-.037.016-.047.021l-.008.003c-.401.185-.877.011-1.062-.39-.186-.401-.011-.876.39-1.062ZM272.928 118.54h-.004a7.3504 7.3504 0 0 0-7.045 5.381c-.929 3.254-2.564 6.651-3.982 9.253a69.934 69.934 0 0 1-1.826 3.153c-.236.383-.426.684-.558.889l-.013.02a.7987.7987 0 0 0-.326.645v43.864c0 .442.358.8.8.8.441 0 .8-.358.8-.8v-43.532l.085-.133c.137-.212.333-.522.575-.915.482-.784 1.145-1.899 1.868-3.225 1.441-2.644 3.14-6.161 4.116-9.583l.002-.005a5.7485 5.7485 0 0 1 2.05-3.031 5.749 5.749 0 0 1 3.46-1.181h.078c.442 0 .8-.358.8-.8 0-.442-.358-.8-.8-.8h-.08ZM275.428 139.619a.7991.7991 0 0 0-.85-.745c-.441.029-.775.409-.746.85.206 3.135-.866 5.154-1.954 6.391-.55.626-1.112 1.061-1.534 1.337-.21.138-.384.236-.501.297-.059.031-.103.052-.13.065l-.02.009-.008.004-.001.001.313.736c-.313-.736-.313-.737-.313-.736h-.002l-.001.001c-.404.173-.593.642-.421 1.048a.801.801 0 0 0 1.05.423l-.303-.712c.303.712.302.712.303.712l.001-.001.003-.001.006-.002.018-.008c.014-.007.033-.015.056-.026.047-.022.111-.054.191-.095.158-.083.378-.207.637-.377.516-.338 1.195-.864 1.858-1.619 1.34-1.525 2.585-3.953 2.348-7.552ZM284.837 149.39c.438-.056.839.253.895.691l3.21 24.908c.057.438-.253.839-.691.896a.801.801 0 0 1-.896-.692l-3.209-24.907c-.057-.438.253-.839.691-.896Z" fill="#001F5C"/><path fill-rule="evenodd" clip-rule="evenodd" d="M286.384 144.03c-.797-2.816.839-5.746 3.656-6.543 2.816-.798 5.746.839 6.543 3.655l7.861 27.758c.797 2.817-.839 5.746-3.656 6.544-2.816.798-5.746-.839-6.543-3.655l-7.861-27.759Zm4.092-5.004c-1.966.557-3.109 2.602-2.552 4.568l7.86 27.759c.557 1.966 2.602 3.108 4.569 2.552 1.966-.557 3.108-2.602 2.551-4.569l-7.86-27.758c-.557-1.966-2.602-3.109-4.568-2.552Z" fill="#001F5C"/><path d="M91.6336 89.7111a.8.8 0 0 1 .7328-1.4224c8.4246 4.3402 11.9476 9.4991 13.5796 14.3953.808 2.424 1.144 4.756 1.402 6.818.029.228.057.452.084.672.222 1.802.41 3.321.827 4.573.71 2.132 2.302 3.484 4.095 4.256 1.81.779 3.752.931 5.007.709.435-.077.85.214.927.649.077.435-.214.85-.649.927-1.578.278-3.836.08-5.918-.816-2.099-.903-4.091-2.551-4.98-5.219-.472-1.415-.679-3.107-.896-4.874-.028-.225-.056-.451-.084-.678-.257-2.047-.578-4.246-1.332-6.511-1.493-4.478-4.7205-9.3191-12.7954-13.4789ZM96.7596 82.197a.8.8 0 0 0 .4375 1.0434c8.5699 3.5058 12.9589 10.2251 14.0569 13.0495.161.4118.624.6158 1.036.4556a.8.8 0 0 0 .456-1.0355c-1.235-3.1757-5.913-10.2564-14.9431-13.9505a.8.8 0 0 0-1.0433.4375ZM103.397 76.7932a.7996.7996 0 0 1-.69-.8968.7993.7993 0 0 1 .896-.6898c4.893.6382 8.688 3.7756 11.418 7.3174 2.733 3.5458 4.474 7.5897 5.247 10.2529a.7997.7997 0 1 1-1.536.4461c-.727-2.5035-2.386-6.3596-4.978-9.7222-2.595-3.3665-6.05-6.1458-10.357-6.7076ZM126.187 81.6026c-2.154.1705-4.033 1.0001-5.131 1.7319-.367.2451-.467.7418-.222 1.1094.245.3676.742.4669 1.11.2219.902-.6016 2.523-1.322 4.369-1.4682 1.823-.1443 3.844.2697 5.652 1.8972 1.834 1.6505 2.772 3.8474 3.187 5.9714.361 1.8459.317 3.5908.149 4.7743-.909.1571-2.022.069-3.252-.5541-1.469-.7437-3.16-2.2782-4.858-5.1893a.7999.7999 0 0 0-1.094-.288.7995.7995 0 0 0-.288 1.0942c1.802 3.0888 3.694 4.8876 5.517 5.8106 1.149.5819 2.249.8041 3.242.7942-1.075.6356-2.036 1.504-2.733 2.5479a.7983.7983 0 0 0 .221 1.109c.367.246.864.147 1.109-.221.887-1.3268 2.348-2.3356 3.868-2.7783 1.389-.4044 2.707-.3088 3.663.2961.068 2.4422-.641 6.7252-2.845 10.8312-2.306 4.297-6.219 8.35-12.545 9.931a.7994.7994 0 0 0-.582.97c.107.429.541.689.97.582 6.855-1.713 11.097-6.124 13.567-10.726 2.456-4.577 3.191-9.392 3.014-12.0642a.8008.8008 0 0 0-.296-.57c-1.451-1.1691-3.395-1.3122-5.178-.8459.258-1.3528.371-3.5144-.078-5.8108-.46-2.3511-1.522-4.9041-3.688-6.8536-2.192-1.9726-4.671-2.4753-6.848-2.3029Z" fill="#001F5C"/></svg>
