<svg viewBox="0 0 400 225" fill="none" xmlns="http://www.w3.org/2000/svg"><path d="M256.238 127.561a28.6276 28.6276 0 0 0-10.544-12.794 28.5984 28.5984 0 0 0-15.862-4.798h-17.47v8.017c0 .059.003.119-.013.176-.117.411-1.26 2.143-12.179 2.143-10.19 0-12.527-1.897-13.036-2.571-.109-.145-.134-.326-.134-.507v-7.258h-12.522a27.227 27.227 0 0 0-14.76 4.351l-29.237 18.868 1.864-6.254s-9.626-1.985-21.691-15.637c0 0-13.5929 23.094-20.9485 36.078-7.3556 12.984-13.175 29.578.8043 37.945 13.9792 8.368 27.4682 6.09 43.0682-5.288 15.6-11.378 27.624-21.814 27.624-21.814l1.263 18.622c2.252 0 8.848-.181 10.835 0h9.342v-24.023h36.335c0-6.038 3.813-11.644 10.968-12.819 11.433-.535 19.058 4.97 22.243 11.619 4.259 8.887 3.877 13.737 3.877 13.737s-5.373 7.606-10.456 6.29v27.191s3.921 4.025 15.556 4.025c11.634 0 16.653-6.959 16.653-16.328-.024-6.271-12.998-38.376-21.58-58.971Z" fill="#3164FA"/><path d="M256.841 165.343s0 .001-.8.031l.8-.03a.8172.8172 0 0 1-.073.365c-1.709 3.705-4.529 5.405-6.907 6.165-1.183.378-2.257.525-3.037.578-.159.011-.306.018-.439.022v2.137c0 .441-.358.8-.8.8h-43.354c-.441 0-.8-.359-.8-.8v-21.794c0-.442.359-.8.8-.8h11.237c.442 0 .8.358.8.8 0 .441-.358.8-.8.8h-10.437v20.194h41.754v-6.091c0-.442.358-.8.8-.8.442 0 .8.358.8.8v3.153c.101-.004.212-.009.331-.017.683-.047 1.625-.176 2.657-.506 2.015-.644 4.372-2.049 5.858-5.135l-.005-.083c-.013-.184-.035-.458-.072-.808-.073-.7-.207-1.704-.444-2.905-.475-2.408-1.363-5.588-3.011-8.712-1.646-3.121-4.04-6.166-7.522-8.343-3.475-2.171-8.086-3.512-14.229-3.145-.441.026-.82-.31-.846-.751-.027-.441.31-.82.751-.846 6.438-.384 11.386 1.019 15.172 3.386 3.778 2.361 6.346 5.648 8.09 8.953 1.741 3.302 2.67 6.642 3.165 9.148.248 1.255.388 2.307.466 3.047.039.371.062.664.076.866.007.101.012.18.014.234l.003.063.001.017v.006l.001.001Z" fill="#001F5C"/><path d="M240.117 146.128c.377.23.497.722.267 1.099-.552.908-1.919 3.711-3.172 6.345-.621 1.305-1.206 2.55-1.635 3.47-.215.459-.391.838-.513 1.101l-.191.41c-.185.401-.661.576-1.062.391-.401-.186-.575-.662-.39-1.063l.192-.413c.122-.264.299-.643.514-1.104.431-.921 1.017-2.17 1.64-3.479 1.234-2.594 2.644-5.493 3.25-6.489a.8001.8001 0 0 1 1.1-.268ZM244.928 151.6c.378.228.5.72.272 1.098-.552.915-1.518 2.932-2.364 4.766a244.2718 244.2718 0 0 0-1.409 3.116l-.09.203-.031.071c-.178.404-.65.588-1.054.41a.8004.8004 0 0 1-.411-1.054l.032-.073.091-.205c.079-.178.193-.433.332-.746.28-.625.666-1.478 1.088-2.393.835-1.81 1.839-3.916 2.446-4.921.228-.378.72-.5 1.098-.272ZM249.413 158.109c.378.228.499.72.271 1.098-.573.948-1.425 2.429-2.137 3.681a404.0326 404.0326 0 0 0-1.177 2.08l-.1.177a.8003.8003 0 0 1-1.089.307c-.385-.217-.522-.705-.306-1.09l.373-.663c.232-.41.552-.976.908-1.603.712-1.25 1.573-2.749 2.159-3.717.228-.378.72-.499 1.098-.27Z" fill="#001F5C"/><path fill-rule="evenodd" clip-rule="evenodd" d="M181.842 152.817c0-.442.358-.8.8-.8h17.385c.442 0 .8.358.8.8v21.794c0 .441-.358.8-.8.8h-17.385c-.442 0-.8-.359-.8-.8v-21.794Zm1.6.8v20.194h15.785v-20.194h-15.785ZM207.653 176.84c0-.442.358-.8.8-.8h37.023c.442 0 .8.358.8.8v28.085c0 .441-.358.8-.8.8h-37.023c-.442 0-.8-.359-.8-.8V176.84Zm1.6.8v26.485h35.423V177.64h-35.423ZM181.842 176.84c0-.442.358-.8.8-.8h23.414c.441 0 .8.358.8.8v4.93c0 .442-.359.8-.8.8h-23.414c-.442 0-.8-.358-.8-.8v-4.93Zm1.6.8v3.33h21.814v-3.33h-21.814ZM181.842 184c0-.442.358-.8.8-.8h23.414c.441 0 .8.358.8.8v20.925c0 .442-.359.8-.8.8h-23.414c-.442 0-.8-.358-.8-.8V184Zm1.6.8v19.325h21.814V184.8h-21.814ZM161.645 176.84c0-.442.358-.8.8-.8h17.732c.442 0 .8.358.8.8v28.085c0 .441-.358.8-.8.8h-17.732c-.442 0-.8-.359-.8-.8V176.84Zm1.6.8v26.485h16.132V177.64h-16.132ZM118.181 101.699l.002-.003c.004-.004.01-.013.02-.025.02-.024.052-.062.096-.112.089-.1.228-.25.416-.431.376-.364.95-.855 1.723-1.3485 1.543-.9844 3.884-1.9794 7.062-1.9794 3.185 0 5.703.9817 7.426 1.9641.862.4918 1.522.9818 1.964 1.3448.22.182.386.332.493.433a6.0736 6.0736 0 0 1 .145.141l.004.004.001.001c.303.321.809.335 1.13.032a.7997.7997 0 0 0 .032-1.131l-.582.549.582-.549-.001-.001-.001-.001-.004-.005-.013-.012c-.01-.011-.024-.025-.042-.043a4.9032 4.9032 0 0 0-.152-.148c-.132-.125-.324-.298-.575-.5047-.5-.4123-1.235-.9568-2.188-1.5001-1.907-1.0867-4.696-2.1741-8.219-2.1741-3.531 0-6.166 1.11-7.922 2.2305-.876.5591-1.533 1.1201-1.974 1.546a9.2758 9.2758 0 0 0-.503.5224 4.688 4.688 0 0 0-.133.155c-.015.019-.028.034-.037.046l-.011.014-.004.004-.001.002s-.001.002.633.49l-.634-.488c-.27.35-.205.852.145 1.122a.801.801 0 0 0 1.121-.144M118.162 94.4351l.002-.002c.004-.0041.01-.0118.02-.0228.019-.0219.051-.0572.096-.1037.089-.0932.227-.2318.416-.4006.377-.338.953-.7961 1.729-1.2564 1.549-.9184 3.902-1.8497 7.093-1.8497 3.197 0 5.717.9172 7.437 1.8321.861.4576 1.519.9136 1.958 1.2516.22.1689.384.3079.491.4022.054.0472.093.0832.117.1061.004.0034.007.0065.01.0093.007.0067.013.0118.016.0151l.003.0034.001.0008a.8009.8009 0 0 0 1.131-.0061c.311-.3139.308-.8204-.005-1.1314l-.564.5683.564-.5683-.002-.0011-.001-.0015-.004-.004-.013-.0121a1.856 1.856 0 0 0-.042-.04 7.3909 7.3909 0 0 0-.153-.1384 10.6615 10.6615 0 0 0-.573-.4704c-.499-.3842-1.232-.8909-2.182-1.3962-1.901-1.0108-4.678-2.0194-8.189-2.0194-3.518 0-6.15 1.0304-7.909 2.0735-.878.5205-1.537 1.0432-1.981 1.4408-.222.1989-.39.3669-.506.4882a4.6203 4.6203 0 0 0-.134.1453c-.016.0177-.028.0321-.038.0428l-.011.0134-.004.0045-.001.0018s-.002.0014.614.5128l-.616-.5114c-.282.3397-.236.8441.104 1.1266.339.2819.843.236 1.125-.102" fill="#001F5C"/><path fill-rule="evenodd" clip-rule="evenodd" d="M113.393 98.7232v-.0309c.001-.0244.001-.0626.003-.1137.003-.1023.01-.256.024-.4537.029-.3957.086-.9663.2-1.653.229-1.3773.687-3.2015 1.593-5.0159.905-1.8113 2.25-3.5982 4.252-4.9341 1.997-1.3325 4.696-2.2482 8.366-2.2482.441 0 .8-.3582.8-.8s-.359-.8-.8-.8c-3.95 0-6.965.9905-9.254 2.5173-2.283 1.5234-3.795 3.5489-4.795 5.5499-.998 1.9979-1.493 3.9861-1.74 5.4681-.124.7429-.186 1.3637-.217 1.802-.016.2192-.024.3932-.028.5143-.002.0606-.003.108-.004.1412v.0343a91.3234 91.3234 0 0 1-1.495 12.6092c-.082.434.203.853.637.935.434.083.853-.202.935-.637a93.0432 93.0432 0 0 0 1.522-12.8462c0-.0127.001-.0259.001-.0386Zm37.612-8.6115a2.2175 2.2175 0 0 0-.867-.1478c-4.289.1791-7.18 1.1108-8.977 1.9724-.901.4316-1.531.8475-1.928 1.147-.198.1498-.339.2707-.426.35-.044.0397-.074.0691-.092.0864-.009.0087-.014.0145-.017.017l.001-.0008m-.002.0019c-.3.321-.804.3393-1.127.0401-.324-.3003-.344-.8064-.043-1.1306l.586.5437c-.586-.5437-.586-.5445-.586-.5445l.001-.0008.002-.002.005-.0049.012-.0135c.011-.0106.024-.0243.041-.0411.034-.0334.081-.0788.142-.1344.122-.1114.301-.2637.54-.444.478-.3608 1.199-.8329 2.199-1.3122 2.002-.9598 5.108-1.9411 9.606-2.1285l.007-.0002a3.8157 3.8157 0 0 1 3.639 2.3284c.2.4716.302.9784.302 1.4905v.0034a3.8228 3.8228 0 0 1-.812 2.337 3.8146 3.8146 0 0 1-2.073 1.3479c-1.168.2986-2.674.9437-4.088 2.3341-1.411 1.3888-2.77 3.5598-3.584 6.9738-1.32 5.548-3.719 8.889-5.836 10.849-1.055.977-2.031 1.604-2.754 1.99-.361.193-.659.325-.872.411a7.22 7.22 0 0 1-.253.096c-.031.01-.056.019-.074.025l-.023.007-.008.002-.003.001h-.001s-.001.001-.231-.766l.23.767c-.424.126-.869-.114-.996-.537-.126-.422.112-.867.534-.995l.001-.001h.002l.003-.001c.003-.001.007-.002.013-.004a.2558.2558 0 0 1 .026-.009c.038-.014.1-.036.181-.069.164-.066.41-.175.718-.339.615-.328 1.476-.878 2.42-1.751 1.879-1.742 4.118-4.801 5.366-10.046.875-3.665 2.365-6.1172 4.019-7.7444 1.652-1.6253 3.428-2.3896 4.816-2.7441l.003-.0007c.477-.12.9-.3954 1.204-.7831.303-.3873.469-.8645.472-1.3567 0-.297-.06-.5909-.175-.8644a2.214 2.214 0 0 0-.5-.7289 2.2098 2.2098 0 0 0-.743-.476" fill="#001F5C"/><path fill-rule="evenodd" clip-rule="evenodd" d="M131.077 70.2394c-2.424 0-4.749.9635-6.464 2.6789a9.153 9.153 0 0 0-2.679 6.4686v5.0114a.8.8 0 1 1-1.6 0v-5.0114a10.7575 10.7575 0 0 1 3.147-7.5998 10.741 10.741 0 0 1 7.596-3.1477h4.491a.8.8 0 0 1 .8.8.8.8 0 0 1-.8.8h-4.491Z" fill="#001F5C"/><path d="M156.483 82.2947 141.2 97.5895l-15.28-15.2948 2.138-2.1396 7.297-7.3021L141.2 67l15.283 15.2947Z" fill="#3164FA"/></svg>
