<svg viewBox="0 0 400 225" fill="none" xmlns="http://www.w3.org/2000/svg"><path d="M283.108 89.2614c.155-.2204.318-.4421.487-.6651 8.508-11.1494 11.832-25.4767.901-37.5963l-1.388 38.2614ZM282.519 105.475s-5.965-6.9246.589-16.2136l-.589 16.2136Z" fill="#3164FA"/><path fill-rule="evenodd" clip-rule="evenodd" d="M267.676 107.102v4.248c-2.469 0-4.837.981-6.582 2.728a9.3198 9.3198 0 0 0 0 13.175 9.3036 9.3036 0 0 0 6.582 2.729c0 2.096.832 4.106 2.313 5.588a7.8926 7.8926 0 0 0 5.584 2.314h21.396v-3.12s-9.03-2.185-10.843-2.101c-1.088.05-2.721 0-2.721 0 0-10.836 2.114-15.473 2.114-15.473 1.809-.665 4.58-.55 11.45 1.088l-.019-11.172-29.274-.004Zm-4.332 13.545c.002-1.149.459-2.25 1.271-3.062a4.3349 4.3349 0 0 1 3.061-1.27v8.671a4.3351 4.3351 0 0 1-3.062-1.274 4.3442 4.3442 0 0 1-1.27-3.065Z" fill="#3164FA"/><path d="m288.572 175.863 3.798 20.473c.332 1.178.386 2.418.159 3.621a7.9406 7.9406 0 0 1-1.467 3.314 7.9433 7.9433 0 0 1-2.788 2.314 7.922 7.922 0 0 1-3.526.831h-79.644l3.053-1.284 1.214-3.082-1.435-3.396-3.054-1.016h-21.444c-.608 0-1.19-.241-1.62-.671a2.295 2.295 0 0 1-.67-1.621l.21-39.72c0-1.841-.731-3.607-2.032-4.91a6.9386 6.9386 0 0 0-4.907-2.034h-30.361c.003-3.982.791-16.374 2.32-20.051a30.2708 30.2708 0 0 1 6.588-9.824 30.2578 30.2578 0 0 1 9.849-6.544A30.2234 30.2234 0 0 1 174.419 110H188v7.899s.523 2.708 12.282 2.708S212 118.491 212 118.491v-8.502h16.299c4.153-.017 8.267.788 12.109 2.366 3.841 1.579 7.333 3.9 10.276 6.832a31.5648 31.5648 0 0 1 6.873 10.252 31.6004 31.6004 0 0 1 2.421 12.107v41.142l28.594-6.825Z" fill="#3164FA"/><path d="m285.707 117.964-.012.002c-.431.097-.859-.173-.956-.604-.097-.431.173-.859.604-.956l.176.78c-.176-.78-.174-.781-.174-.781h.003l.007-.002.022-.005c.019-.004.046-.009.08-.016.068-.013.166-.031.292-.052.251-.041.614-.093 1.074-.136.921-.088 2.234-.145 3.827-.029 3.186.231 7.496 1.157 12.008 3.926.377.231.495.723.264 1.1-.231.377-.724.495-1.1.264-4.255-2.61-8.306-3.478-11.288-3.695-1.492-.108-2.715-.054-3.559.027-.422.04-.749.086-.967.122-.109.018-.191.033-.244.043a1.18 1.18 0 0 0-.057.012ZM283.602 125.268c-.16-.412.044-.875.455-1.036h.002l.003-.001.008-.003.023-.009c.02-.007.046-.017.08-.029.068-.023.165-.055.289-.093.248-.075.606-.172 1.06-.265.909-.188 2.208-.362 3.795-.323 3.184.079 7.505 1.018 12.143 4.402.357.26.435.76.175 1.117-.261.357-.761.436-1.118.175-4.351-3.174-8.35-4.023-11.239-4.095-1.45-.036-2.626.124-3.433.291-.403.083-.714.167-.919.23-.103.031-.18.056-.228.073-.024.008-.042.015-.052.018l-.009.004c-.412.159-.875-.044-1.035-.456ZM282.315 133.115c.098.431.527.701.957.603l.012-.002.031-.007.026-.005c.053-.01.134-.025.242-.043.217-.036.543-.083.963-.123.84-.081 2.057-.136 3.542-.028 2.967.216 6.998 1.081 11.229 3.688.376.232.869.115 1.1-.261a.8002.8002 0 0 0-.261-1.101c-4.49-2.767-8.78-3.691-11.953-3.922-1.585-.115-2.893-.057-3.81.031-.459.044-.82.096-1.07.137-.126.021-.223.039-.291.052l-.03.006-.049.01-.023.005-.007.002h-.003l-.001.001-.604.957ZM305.756 123.073a.8.8 0 0 1 .594.963l-5.076 21.465c-.101.43-.532.697-.962.595-.43-.102-.697-.533-.595-.963l5.076-21.466a.8.8 0 0 1 .963-.594ZM259.513 137.216l-.012.02a.7954.7954 0 0 0-.327.645v43.864c0 .442.358.8.8.8.442 0 .8-.358.8-.8v-43.532l.028-.043.057-.089c.137-.213.334-.523.575-.915.482-.785 1.145-1.9 1.868-3.226 1.441-2.644 3.141-6.161 4.117-9.583a.7992.7992 0 0 0-.55-.988c-.425-.122-.868.125-.989.549-.928 3.256-2.564 6.653-3.983 9.256a69.934 69.934 0 0 1-1.826 3.153 48.62 48.62 0 0 1-.558.889ZM275.428 139.62a.8002.8002 0 0 0-.851-.746c-.44.029-.774.41-.745.851.206 3.134-.866 5.153-1.954 6.39-.55.627-1.112 1.061-1.534 1.338-.21.138-.384.235-.501.296-.059.031-.103.053-.13.065-.014.007-.024.011-.028.013l-.001.001-.002.001h-.001a.8003.8003 0 0 0-.421 1.048c.173.407.643.596 1.05.423h.001l.003-.001.006-.003.018-.008.029-.013.027-.013c.047-.022.111-.053.191-.095.158-.083.378-.207.636-.376.517-.339 1.196-.865 1.859-1.62 1.34-1.525 2.585-3.952 2.348-7.551ZM285.732 150.081c-.056-.438-.457-.747-.895-.691a.801.801 0 0 0-.692.896l3.21 24.907a.801.801 0 0 0 .896.692c.438-.057.748-.458.691-.896l-3.21-24.908Z" fill="#001F5C"/><path fill-rule="evenodd" clip-rule="evenodd" d="M132.2 176.561c0-4.532 3.671-8.207 8.201-8.207 4.529 0 8.2 3.675 8.2 8.207 0 4.531-3.671 8.206-8.2 8.206-4.53 0-8.201-3.675-8.201-8.206Zm8.201-6.607c-3.645 0-6.601 2.957-6.601 6.607 0 3.649 2.956 6.606 6.601 6.606 3.644 0 6.6-2.957 6.6-6.606 0-3.65-2.956-6.607-6.6-6.607Z" fill="#001F5C"/><path fill-rule="evenodd" clip-rule="evenodd" d="M100.2 156c0-4.308 3.492-7.8 7.8-7.8h66.5c4.308 0 7.8 3.492 7.8 7.8v38.5c0 1.215.985 2.2 2.2 2.2h20.75c2.789 0 5.05 2.261 5.05 5.05 0 2.789-2.261 5.05-5.05 5.05H107c-3.756 0-6.8-3.045-6.8-6.8v-44Zm7.8-6.2c-3.424 0-6.2 2.776-6.2 6.2v44c0 2.872 2.328 5.2 5.2 5.2h98.25c1.905 0 3.45-1.545 3.45-3.45 0-1.905-1.545-3.45-3.45-3.45H184.5c-2.099 0-3.8-1.701-3.8-3.8V156c0-3.424-2.776-6.2-6.2-6.2H108Z" fill="#001F5C"/></svg>
