<svg viewBox="0 0 400 225" fill="none" xmlns="http://www.w3.org/2000/svg"><path fill-rule="evenodd" clip-rule="evenodd" d="M158.021 75.0208a17.0002 17.0002 0 0 1-24.042-24.0416 17.0002 17.0002 0 0 1 24.042 24.0416Zm-19.756-13.0221c-.408 0-.8.1617-1.089.4494a1.5458 1.5458 0 0 0-.458 1.0976c0 .4121.165.8072.457 1.0972l4.637 4.6364c.289.288.681.4494 1.089.4494.409 0 .8-.1612 1.09-.4491l10.045-10.0457c.341-.398.457-.9413.309-1.4437a1.5475 1.5475 0 0 0-1.044-1.0438 1.5465 1.5465 0 0 0-1.444.3082l-8.948 8.9482-3.554-3.5547a1.5466 1.5466 0 0 0-1.09-.4494Z" fill="#3164FA"/><path d="M282.519 105.475s-5.965-6.9246.589-16.2136l-.589 16.2136ZM283.108 89.2614 284.496 51c10.931 12.1196 7.607 26.4469-.9 37.5963a21.61 21.61 0 0 0-.488.6651Z" fill="#3164FA"/><path fill-rule="evenodd" clip-rule="evenodd" d="M267.676 111.35v-4.247l29.274.003.019 11.173c-6.87-1.639-9.641-1.754-11.45-1.089 0 0-2.114 4.637-2.114 15.473 0 0 1.633.05 2.721 0 1.813-.084 10.843 2.101 10.843 2.101v3.121h-21.396c-2.095 0-4.103-.833-5.584-2.315a7.9052 7.9052 0 0 1-2.313-5.588c-2.469 0-4.837-.982-6.582-2.729a9.3175 9.3175 0 0 1-2.727-6.587c0-2.471.981-4.84 2.727-6.587a9.2994 9.2994 0 0 1 6.582-2.729Zm-3.061 6.235a4.3406 4.3406 0 0 0-1.271 3.062c.001 1.15.458 2.252 1.27 3.066a4.3384 4.3384 0 0 0 3.062 1.273v-8.671a4.3349 4.3349 0 0 0-3.061 1.27Z" fill="#3164FA"/><path d="m288.572 175.863 3.798 20.473c.332 1.178.386 2.418.159 3.621a7.9406 7.9406 0 0 1-1.467 3.314 7.9433 7.9433 0 0 1-2.788 2.314 7.922 7.922 0 0 1-3.526.831h-79.644l3.053-1.284 1.214-3.082-1.435-3.396-3.054-1.016h-4.6v-.138H183.5c-.828 0-1.5-.662-1.5-1.49v-40.515c0-3.866-3.134-6.995-7-6.995h-67.5c-3.866 0-6.994 3.133-6.959 6.998.054 5.858.177 15.157.459 27.002 0 1.033.038 1.943.071 2.73.205 4.919.208 4.992-10.5612.121-13.9793-8.367-8.1599-24.961-.8043-37.945 5.4702-9.656 12.8215-21.49 16.2305-26.922.827-1.317 2.84-1.226 3.937-.124 5.174 5.196 14.899 4.831 20.048 4.195 1.525-.189 2.835 1.273 2.383 2.742l-1.823 5.922 29.237-18.868c4.4-2.84 9.525-4.35 14.76-4.351H187v7.223c0 .204.035.408.174.558.583.625 3.029 2.207 12.881 2.219 11.705-.005 11.945-1.509 11.945-1.509v-8.502h16.299c4.153-.017 8.267.788 12.109 2.366 3.841 1.579 7.333 3.9 10.276 6.832a31.5648 31.5648 0 0 1 6.873 10.252 31.6004 31.6004 0 0 1 2.421 12.107v41.142l28.594-6.825Z" fill="#3164FA"/><path d="M106.707 74.8963a.8004.8004 0 0 0 .69.8968c4.307.5618 7.762 3.341 10.357 6.7076 2.592 3.3625 4.251 7.2187 4.978 9.7221a.7997.7997 0 0 0 .991.5453c.424-.1232.669-.567.545-.9913-.773-2.6632-2.514-6.7071-5.247-10.2529-2.73-3.5418-6.525-6.6792-11.417-7.3174a.7997.7997 0 0 0-.897.6898ZM101.197 82.2402a.799.799 0 0 1-.437-1.0433.7995.7995 0 0 1 1.043-.4375c9.03 3.6941 13.708 10.7748 14.943 13.9504a.8001.8001 0 0 1-.456 1.0356.7993.7993 0 0 1-1.035-.4556c-1.099-2.8244-5.488-9.5437-14.058-13.0496ZM95.2889 87.6334a.8001.8001 0 0 0 .3449 1.0776c8.0752 4.1598 11.3022 9.0009 12.7952 13.479.754 2.264 1.075 4.464 1.332 6.511.029.227.056.453.084.678.217 1.767.424 3.459.896 4.874.89 2.668 2.881 4.316 4.98 5.219 2.082.896 4.34 1.094 5.918.816.435-.077.726-.492.649-.927-.077-.435-.492-.726-.927-.649-1.255.221-3.197.07-5.007-.71-1.793-.771-3.384-2.124-4.095-4.255-.417-1.252-.605-2.771-.827-4.573-.027-.22-.055-.444-.083-.672-.259-2.062-.595-4.394-1.402-6.818-1.633-4.8963-5.155-10.0552-13.5805-14.3954a.8002.8002 0 0 0-1.0776.3448ZM125.056 82.3344c1.098-.7318 2.977-1.5614 5.131-1.7319 2.177-.1724 4.656.3303 6.848 2.3029 2.166 1.9495 3.228 4.5025 3.688 6.8536.449 2.2963.336 4.458.079 5.8108 1.782-.4663 3.727-.3232 5.177.8459.174.1403.281.347.296.57.177 2.6718-.558 7.4873-3.014 12.0633-2.47 4.602-6.712 9.014-13.567 10.727a.8002.8002 0 0 1-.97-.582.8002.8002 0 0 1 .582-.97c6.326-1.581 10.239-5.634 12.545-9.931 2.204-4.106 2.913-8.389 2.845-10.8313-.956-.605-2.274-.7005-3.663-.2962-1.52.4428-2.981 1.4515-3.868 2.7786-.245.3679-.742.4659-1.109.2209a.7988.7988 0 0 1-.221-1.1095c.697-1.0436 1.658-1.9119 2.733-2.5476-.993.0099-2.093-.2123-3.242-.7941-1.823-.923-3.715-2.7218-5.517-5.8107a.7994.7994 0 0 1 .288-1.0941c.382-.2226.872-.0937 1.094.2879 1.698 2.9111 3.389 4.4457 4.858 5.1894 1.231.6231 2.343.7112 3.252.5541.168-1.1836.212-2.9285-.149-4.7744-.415-2.1239-1.353-4.3209-3.187-5.9714-1.808-1.6274-3.829-2.0414-5.652-1.8971-1.846.1461-3.467.8666-4.369 1.4681a.8008.8008 0 0 1-1.11-.2218c-.245-.3677-.145-.8644.222-1.1094ZM260.859 138.081c-.032.049-.06.093-.085.132v43.532c0 .442-.359.8-.8.8-.442 0-.8-.358-.8-.8v-43.864c0-.265.128-.499.326-.645l.013-.02c.132-.205.322-.506.558-.889a69.934 69.934 0 0 0 1.826-3.153c1.418-2.602 3.053-5.999 3.982-9.253a7.3598 7.3598 0 0 1 2.62-3.872 7.3504 7.3504 0 0 1 4.425-1.509h.084c.441 0 .8.359.8.8 0 .442-.359.8-.8.8h-.078a5.749 5.749 0 0 0-3.46 1.181 5.7485 5.7485 0 0 0-2.05 3.031l-.002.005c-.976 3.422-2.676 6.939-4.116 9.583a72.3355 72.3355 0 0 1-1.868 3.225c-.242.393-.438.703-.575.916ZM284.738 117.362c.097.431.526.701.957.604l.012-.002a.9607.9607 0 0 1 .057-.012c.053-.01.134-.025.243-.043.218-.036.545-.082.967-.122.845-.081 2.068-.135 3.56-.027 2.982.217 7.033 1.085 11.287 3.695.377.231.87.113 1.101-.264a.7994.7994 0 0 0-.264-1.1c-4.512-2.769-8.822-3.695-12.008-3.926-1.593-.116-2.906-.059-3.827.029-.461.043-.824.095-1.075.136-.125.021-.223.039-.291.052l-.054.011-.026.005-.023.005-.007.002-.004.001a.8.8 0 0 0-.605.956ZM306.35 124.036a.8.8 0 0 0-.594-.963.8.8 0 0 0-.963.594l-5.076 21.466a.8.8 0 0 0 .594.963c.43.102.861-.165.963-.595l5.076-21.465ZM284.581 125.744l-.013.003c-.425.121-.868-.124-.99-.549-.121-.424.125-.867.55-.989l.004-.001.008-.002.025-.007c.02-.006.049-.013.086-.023.074-.018.18-.044.316-.073.272-.058.662-.131 1.153-.196.982-.129 2.371-.223 4.018-.09 3.3.266 7.636 1.447 11.789 5.081.332.291.366.796.075 1.129a.8005.8005 0 0 1-1.129.075c-3.847-3.366-7.838-4.446-10.864-4.69-1.516-.123-2.79-.035-3.68.082-.445.058-.793.124-1.026.174-.117.025-.205.046-.261.06-.028.007-.049.012-.061.016ZM283.272 133.718c-.43.098-.859-.172-.957-.603l.604-.957.001-.001h.003l.007-.002.023-.005c.019-.004.045-.009.079-.016.068-.013.165-.031.29-.052.251-.041.612-.093 1.071-.137.917-.088 2.225-.146 3.81-.031 3.173.231 7.463 1.155 11.953 3.922.376.232.493.725.261 1.101-.231.376-.724.493-1.1.261-4.231-2.607-8.262-3.472-11.229-3.688-1.485-.108-2.702-.053-3.542.028-.42.04-.746.087-.963.123-.108.018-.189.033-.242.043a1.18 1.18 0 0 0-.057.012l-.012.002ZM275.428 139.619c-.029-.44-.41-.774-.85-.745-.441.029-.775.409-.746.85.206 3.135-.866 5.154-1.954 6.391-.55.626-1.112 1.061-1.534 1.337-.21.138-.384.236-.501.297-.059.031-.103.052-.13.065l-.025.011-.003.002-.001.001h-.002l-.001.001a.8003.8003 0 0 0-.421 1.048c.173.407.643.596 1.05.423l.001-.001.003-.001.006-.002.018-.008c.014-.007.033-.015.056-.026.047-.022.111-.054.191-.095.158-.083.378-.207.636-.377.517-.338 1.196-.864 1.859-1.619 1.34-1.525 2.585-3.952 2.348-7.552ZM284.837 149.39c.438-.056.839.253.895.691l3.21 24.908c.057.438-.253.839-.691.896a.801.801 0 0 1-.896-.692l-3.209-24.907c-.057-.438.252-.839.691-.896Z" fill="#001F5C"/><path fill-rule="evenodd" clip-rule="evenodd" d="M140.201 168.154c-4.53 0-8.201 3.675-8.201 8.207 0 4.531 3.671 8.206 8.201 8.206 4.529 0 8.2-3.675 8.2-8.206 0-4.532-3.671-8.207-8.2-8.207Zm-6.601 8.207c0-3.65 2.956-6.607 6.601-6.607 3.644 0 6.6 2.957 6.6 6.607 0 3.649-2.956 6.606-6.6 6.606-3.645 0-6.601-2.957-6.601-6.606Z" fill="#001F5C"/><path fill-rule="evenodd" clip-rule="evenodd" d="M107.8 148c-4.308 0-7.8 3.492-7.8 7.8v44c0 3.756 3.044 6.8 6.8 6.8h98.25c2.789 0 5.05-2.261 5.05-5.05 0-2.789-2.261-5.05-5.05-5.05H184.3c-1.215 0-2.2-.985-2.2-2.2v-38.5c0-4.308-3.492-7.8-7.8-7.8h-66.5Zm-6.2 7.8c0-3.424 2.776-6.2 6.2-6.2h66.5c3.424 0 6.2 2.776 6.2 6.2v38.5c0 2.099 1.701 3.8 3.8 3.8h20.75c1.905 0 3.45 1.545 3.45 3.45 0 1.905-1.545 3.45-3.45 3.45H106.8c-2.872 0-5.2-2.328-5.2-5.2v-44Z" fill="#001F5C"/></svg>
