<svg viewBox="0 0 400 225" fill="none" xmlns="http://www.w3.org/2000/svg"><path d="M265.064 76.1883c-.419.1419-.873-.0821-1.014-.5002l-3.836-11.343c-.141-.4181.084-.8721.503-1.0139.419-.1419.873.0821 1.014.5002l3.836 11.343c.141.4181-.084.8721-.503 1.0139ZM258.315 79.8409c-.343.2791-.848.2279-1.126-.1142l-12.337-15.1332c-.279-.3421-.227-.8457.116-1.1248.343-.279.847-.2279 1.126.1142l12.337 15.1332c.279.3421.227.8457-.116 1.1248ZM143.58 127.592a28.6288 28.6288 0 0 1 10.544-12.794c4.699-3.13 10.218-4.8 15.862-4.798h17.471v8.017l-.001.025c0 .051 0 .102.014.151.117.411 1.259 2.143 12.178 2.143 10.19 0 12.527-1.898 13.036-2.571.109-.145.134-.326.134-.507V110h12.522c5.236.001 10.36 1.511 14.76 4.351l29.237 18.868-1.822-5.922c-.452-1.469.858-2.931 2.382-2.742 5.149.636 14.874 1.001 20.048-4.195 1.097-1.102 3.11-1.193 3.937.124 3.409 5.432 10.761 17.266 16.231 26.922 7.356 12.984 13.175 29.578-.804 37.945-13.98 8.368-27.468 6.09-43.068-5.288-15.6-11.378-27.625-21.814-27.625-21.814v40.641c0 2.209-1.791 4.001-4 4.001h-85.962c-11.635 0-16.654-6.959-16.654-16.328.024-6.271 2.998-38.376 11.58-58.971ZM245.897 79.41c-.375-.2342-.869-.1203-1.103.2544a.8.8 0 0 0 .255 1.1024l8 5c.374.2341.868.1202 1.102-.2544a.8006.8006 0 0 0-.254-1.1024l-8-5Z" fill="#3164FA"/><path d="M292.103 75.7933a.7995.7995 0 0 0 .69-.8967.7992.7992 0 0 0-.896-.6898c-4.893.6382-8.688 3.7756-11.418 7.3173-2.733 3.5458-4.474 7.5897-5.247 10.2529a.7997.7997 0 1 0 1.536.4461c.727-2.5035 2.386-6.3596 4.978-9.7222 2.595-3.3665 6.05-6.1458 10.357-6.7076ZM298.74 81.1971a.7991.7991 0 0 1-.437 1.0434c-8.57 3.5058-12.959 10.2251-14.057 13.0495-.161.4118-.624.6158-1.036.4556a.8.8 0 0 1-.456-1.0355c1.235-3.1756 5.913-10.2564 14.943-13.9505a.7995.7995 0 0 1 1.043.4375ZM304.211 87.6337c.203.3927.048.8752-.345 1.0775-8.075 4.1598-11.302 9.0009-12.795 13.4798-.754 2.264-1.075 4.463-1.332 6.51-.028.227-.056.453-.084.678-.217 1.767-.424 3.459-.896 4.874-.889 2.668-2.881 4.316-4.98 5.219-2.082.896-4.34 1.094-5.918.816-.435-.077-.726-.492-.649-.927.077-.435.492-.726.927-.649 1.255.222 3.197.07 5.007-.709 1.793-.772 3.385-2.124 4.095-4.256.417-1.252.605-2.77.827-4.572v-.004l.001-.005.001-.003c.026-.216.053-.437.082-.661.258-2.062.594-4.394 1.402-6.817 1.632-4.897 5.155-10.0559 13.58-14.3961.392-.2024.875-.048 1.077.3448ZM269.313 80.6025c2.154.1705 4.033 1.0001 5.131 1.7319.367.245.467.7417.222 1.1094-.245.3676-.742.4669-1.11.2218-.902-.6015-2.523-1.322-4.369-1.4681-1.823-.1443-3.844.2697-5.652 1.8971-1.834 1.6505-2.772 3.8475-3.187 5.9714-.361 1.8459-.317 3.5908-.149 4.7744.909.1571 2.022.069 3.252-.5541 1.469-.7437 3.16-2.2783 4.858-5.1894a.8.8 0 0 1 1.094-.2879.7994.7994 0 0 1 .288 1.0941c-1.802 3.0889-3.694 4.8877-5.517 5.8107-1.149.5819-2.249.8041-3.242.7941 1.075.6357 2.036 1.5042 2.733 2.5478a.7986.7986 0 0 1-.221 1.1093.7985.7985 0 0 1-1.109-.2207c-.887-1.327-2.348-2.3358-3.868-2.7785-1.389-.4044-2.707-.3088-3.663.2961-.068 2.4424.641 6.7251 2.845 10.8311 2.306 4.297 6.219 8.35 12.545 9.931.429.107.689.541.582.97a.7994.7994 0 0 1-.97.582c-6.855-1.713-11.097-6.124-13.567-10.726-2.456-4.577-3.191-9.3923-3.014-12.064a.8009.8009 0 0 1 .296-.5701c1.451-1.1691 3.395-1.3122 5.178-.8459-.258-1.3528-.371-3.5145.078-5.811.46-2.3511 1.522-4.9041 3.688-6.8536 2.192-1.9726 4.671-2.4753 6.848-2.3029Z" fill="#001F5C"/></svg>
