<svg viewBox="0 0 400 225" fill="none" xmlns="http://www.w3.org/2000/svg"><path d="M292.635 70.5092c9.522 0 17.241-7.7251 17.241-17.2546 0-9.5295-7.719-17.2546-17.241-17.2546-9.522 0-17.242 7.7251-17.242 17.2546 0 9.5295 7.72 17.2546 17.242 17.2546ZM226.277 108.431H212v9.655s-.152 2.108-11.872 2.108S188 117.492 188 117.492v-9.061h-9.87c-20.751 0-34.13 19.843-34.13 40.614v42.058c0 11.045 8.954 20 20 20h59.135c4.606 0 8.616-3.146 9.713-7.62l7.706-31.447c.78-2.958 1.602-6.247 2.326-9.492l2.865-11.688 14.011 5.328 9.5-34.601c-.077-.039-.193-.099-.348-.179-1.222-.635-4.83-2.508-10.341-4.653-6.207-2.415-14.828 1.406-16.552 6.902-1.887 6.016-11.767 36.151-16.401 50.274a51.2839 51.2839 0 0 0-1.875 4.941c-6.207 19.325-26.552 14.839-31.034 10.698-4.483-4.141-5.518-6.212-5.518-6.212L173.67 158.54l25.659-14.495 5.659 13.697c.168.408.636.602 1.045.434a.8.8 0 0 0 .433-1.045l-.411-.995 3.254-5.565s-.513-.285 4.898-9.389c4.51-7.561 12.07-32.751 12.07-32.751ZM274.023 42.8713c0 3.795-3.074 6.8714-6.866 6.8714s-6.866-3.0764-6.866-6.8714c0-3.7949 3.074-6.8713 6.866-6.8713s6.866 3.0764 6.866 6.8713Z" fill="#3164FA"/><path d="M321.824 68.8602a.7998.7998 0 0 0-.557-.9847.8002.8002 0 0 0-.985.5571c-.03.1099-.062.2191-.096.3274-1.327 4.3003-4.953 7.3712-8.412 9.4034-1.759 1.0337-3.441 1.7782-4.684 2.2642-.621.2426-1.13.42-1.482.5362a17.868 17.868 0 0 1-.505.1592l-.025.0071-.005.0015c-.425.1204-.673.5627-.552.9877.12.4251.562.6723.987.552l-.217-.7698.217.7698.002-.0004.003-.0008.009-.0026.032-.0093c.027-.0081.067-.0199.118-.0355.102-.0312.25-.0775.438-.1396.376-.124.912-.3111 1.563-.5654 1.299-.5081 3.061-1.2877 4.911-2.3747 3.674-2.158 7.833-5.6105 9.24-10.6828Z" fill="#001F5C"/><path d="M325.283 72.0817c.43.1039.694.5363.59.9657-.927 3.8305-3.516 6.8102-6.768 9.1144-3.251 2.3034-7.222 3.9745-11.039 5.1807-3.824 1.2081-7.532 1.9613-10.28 2.4127-1.376.2259-2.513.3767-3.309.4711a48.045 48.045 0 0 1-.314.0363l13.43 51.0814c4.147 15.763-11.252 29.623-26.476 23.827l-36.468-13.879c-.413-.157-.62-.619-.463-1.032.157-.413.619-.621 1.032-.463l36.468 13.879c14.004 5.332 28.176-7.418 24.36-21.925l-13.668-51.9852a.7985.7985 0 0 1 .121-.6651.7994.7994 0 0 1 .586-.3356l.004-.0003.014-.0012.058-.0052c.052-.0048.13-.0121.232-.0224.205-.0205.508-.0526.895-.0986.776-.092 1.89-.2395 3.238-.461 2.7-.4434 6.329-1.1815 10.058-2.3596 3.734-1.1799 7.533-2.7898 10.596-4.9605 3.062-2.1698 5.332-4.8571 6.138-8.1852.104-.4294.536-.6933.965-.5894Z" fill="#001F5C"/><path d="M275.579 75.4634c-1.175-.0698-2.351.1402-3.44.6157-1.089.4756-2.066 1.2053-2.854 2.1373-.788.9321-1.367 2.0419-1.691 3.2473a8.7152 8.7152 0 0 0-.174 3.7066l9.213 54.9147c.073.436-.221.849-.657.922-.435.073-.848-.221-.921-.657l-9.213-54.9122a10.3055 10.3055 0 0 1 .207-4.3893c.384-1.4285 1.072-2.7502 2.015-3.8652.942-1.1151 2.116-1.9949 3.435-2.5705 1.311-.5725 2.73-.8286 4.151-.748h20.503a.8.8 0 0 1 .8.8.8.8 0 0 1-.8.8h-20.526a.8546.8546 0 0 1-.048-.0014ZM226.373 110.565c2.728-10.931 9.765-15.3813 14.376-14.9093a.8001.8001 0 0 0 .163-1.5917c-5.726-.5861-13.261 4.7746-16.092 16.114-1.971 7.894-4.872 16.235-6.391 20.414a40.5493 40.5493 0 0 1-2.17 4.923l-19.06 36.534a.7998.7998 0 0 0 .34 1.079c.391.205.874.053 1.079-.339l19.059-36.534a41.9176 41.9176 0 0 0 2.256-5.117c1.524-4.193 4.448-12.597 6.44-20.573Z" fill="#001F5C"/><path d="M242.775 123.902a.7988.7988 0 0 0-.511-1.009.7988.7988 0 0 0-1.009.511l-18.24 55.677-.003.01a19.243 19.243 0 0 1-6.965 9.741 19.2153 19.2153 0 0 1-11.373 3.73c-3.464 0-6.863-.937-9.838-2.711a19.2246 19.2246 0 0 1-7.065-7.37l-13.397-24.763a.8008.8008 0 0 0-1.085-.323c-.388.21-.533.696-.323 1.084l13.397 24.764c1.786 3.302 4.43 6.06 7.653 7.982a20.8103 20.8103 0 0 0 10.658 2.937 20.8113 20.8113 0 0 0 12.32-4.041 20.8408 20.8408 0 0 0 7.543-10.546l.001-.005 18.237-55.668ZM249.648 105.52l-.024-.009a2.3005 2.3005 0 0 0-.115-.039c-.106-.035-.27-.083-.484-.133-.43-.101-1.063-.211-1.851-.234-1.571-.048-3.765.245-6.211 1.635-2.453 1.393-4.001 3.212-4.936 4.681-.468.734-.781 1.379-.976 1.836-.097.227-.165.408-.207.528-.021.06-.035.104-.044.132l-.01.03-.001.003v.001c-.125.429-.565.679-.983.558-.419-.121-.658-.568-.534-.998l.712.206-.712-.206.001-.001v-.002l.002-.005.005-.016c.003-.013.009-.03.016-.051.013-.043.033-.104.06-.179.053-.152.133-.366.246-.63.225-.527.579-1.254 1.102-2.075 1.047-1.644 2.776-3.673 5.505-5.223 2.734-1.554 5.22-1.895 7.034-1.841.905.027 1.64.153 2.156.274.258.061.462.12.604.166.072.023.128.043.168.057.02.008.036.014.049.018l.015.006.005.002.002.001s.001.001-.296.754l.297-.753c.405.162.6.631.436 1.047-.164.416-.626.621-1.031.46ZM246.982 100.544c.41.146.863-.077 1.011-.5.149-.4223-.063-.8838-.474-1.0305l-.262.7459.262-.7459-.001-.0006-.002-.0007-.006-.0019-.015-.0052a4.2504 4.2504 0 0 0-.218-.0668 7.8152 7.8152 0 0 0-.61-.1429c-.519-.1012-1.258-.1984-2.162-.1906-1.813.0155-4.283.4533-6.957 2.1122-2.668 1.656-4.322 3.752-5.308 5.436-.493.842-.821 1.583-1.026 2.119-.103.268-.176.485-.223.639-.024.076-.042.137-.054.181-.006.022-.011.039-.014.052l-.004.016-.002.005v.002s-.001.002.713.18l-.714-.178c-.108.434.146.872.569.978.421.105.851-.161.961-.594v-.001l.001-.004.008-.03c.008-.028.021-.074.04-.134.038-.122.099-.305.188-.537.178-.463.467-1.121.908-1.874.881-1.505 2.362-3.384 4.761-4.873 2.394-1.484 4.574-1.862 6.145-1.875.787-.007 1.423.078 1.855.162.217.042.382.084.489.114.053.015.092.028.116.035l.024.008h.001Z" fill="#001F5C"/></svg>
