<svg viewBox="0 0 400 225" fill="none" xmlns="http://www.w3.org/2000/svg"><path d="M121.504 125.064c12.6-10.245 32.445-16.573 57.718-17.037 1.656-.03 3.002 1.317 3.002 2.974v.79s0 12.637 14.792 12.998c10.333.253 15.56 6.319 17.896 9.748 1.044 1.532 1.574 1.306 1.551-.547l-.287-22.952c-.021-1.672 1.318-3.042 2.989-3.015 12.442.199 35.649 1.965 57.659 15.195 1.88 1.13 2.401 3.591 1.179 5.412-6.568 9.789-16.339 23.014-22.22 30.974-2.893 3.916-4.845 6.557-5.01 6.888l-13.349 1.625-7.577-.722s-16.596-13.179-19.662-15.887c-3.067-2.708-9.922-2.708-9.922-2.708-7.484 0-10.892 2.673-19.902 10.13-1.038.858-1.992 1.838-2.947 2.817-1.411 1.448-2.823 2.897-4.506 3.959-1.758 1.11-4.284 2.122-7.821 2.411-8.84.722-14.973-1.625-14.973-1.625l-29.071-36.116c-1.308-1.625-1.158-3.995.461-5.312ZM251.138 191.512H149.759l1.553 13.313c.294 2.52 2.429 4.42 4.966 4.42h88.34c2.538 0 4.673-1.9 4.967-4.42l1.553-13.313Z" fill="#3164FA"/><path fill-rule="evenodd" clip-rule="evenodd" d="M131.732 124.446c.389.209.535.694.326 1.083l-21.864 40.699a.8187.8187 0 0 1-.023.04c-6.492 10.584 1.121 24.196 13.53 24.196h65.197c.442 0 .8.359.8.8 0 .442-.358.8-.8.8h-65.197c-13.654 0-22.029-14.967-14.906-26.613l21.853-40.679c.209-.389.694-.535 1.084-.326ZM268.613 124.807a.7986.7986 0 0 0-.325 1.083l21.697 40.338c.008.014.015.027.023.04 6.492 10.584-1.121 24.196-13.529 24.196h-64.671c-.442 0-.8.359-.8.8 0 .442.358.8.8.8h64.671c13.653 0 22.029-14.967 14.905-26.613l-21.687-40.319c-.209-.389-.695-.534-1.084-.325Z" fill="#001F5C"/><path fill-rule="evenodd" clip-rule="evenodd" d="M197.285 149.313a.7993.7993 0 0 1-.612.951c-6.611 1.431-11.131 5.294-15.407 9.193-.261.238-.522.477-.783.716-3.949 3.617-7.857 7.197-13.094 8.262-2.774.564-6.394.546-10.215.222-3.835-.326-7.931-.966-11.681-1.68-3.752-.714-7.17-1.503-9.651-2.129-1.24-.313-2.251-.586-2.954-.79-.35-.102-.632-.188-.83-.255a3.7098 3.7098 0 0 1-.262-.096 1.4728 1.4728 0 0 1-.144-.07c-.025-.015-.083-.049-.146-.106a.7767.7767 0 0 1-.139-.161.8053.8053 0 0 1-.132-.442c0-.442.358-.8.8-.8.153 0 .297.043.418.118.027.01.064.024.115.041.167.056.423.135.765.234.681.197 1.673.466 2.9.776 2.456.619 5.842 1.401 9.559 2.108 3.718.708 7.756 1.338 11.517 1.657 3.776.321 7.214.323 9.761-.195 4.786-.973 8.379-4.259 12.425-7.959l.693-.633c4.283-3.905 9.079-8.045 16.146-9.575.432-.093.858.181.951.613ZM202.894 149.313c-.093.432.181.858.613.951 6.61 1.431 11.131 5.294 15.406 9.193.261.238.522.477.783.716 3.949 3.617 7.858 7.197 13.095 8.262 2.773.564 6.394.546 10.214.222 3.835-.326 7.931-.966 11.682-1.68 3.752-.714 7.169-1.503 9.65-2.129 1.241-.313 2.251-.586 2.954-.79.351-.102.632-.188.83-.255.097-.032.188-.065.262-.096.033-.014.088-.038.144-.07.025-.015.084-.049.146-.106a.7767.7767 0 0 0 .139-.161c.05-.076.133-.23.133-.442 0-.442-.359-.8-.8-.8a.796.796 0 0 0-.419.118c-.026.01-.064.024-.115.041-.167.056-.423.135-.765.234-.681.197-1.672.466-2.9.776-2.455.619-5.842 1.401-9.558 2.108-3.719.708-7.757 1.338-11.518 1.657-3.776.321-7.214.323-9.761-.195-4.786-.973-8.379-4.259-12.425-7.959-.23-.21-.46-.421-.693-.633-4.282-3.905-9.079-8.045-16.146-9.575-.432-.093-.858.181-.951.613ZM197.549 156.267c.187.4.015.876-.385 1.063a9.9785 9.9785 0 0 0-5.184 5.746c-.145.417-.601.638-1.018.492-.418-.145-.638-.602-.492-1.019a11.5771 11.5771 0 0 1 2.335-3.941 11.5639 11.5639 0 0 1 3.68-2.726c.4-.188.876-.015 1.064.385ZM202.63 156.267c-.187.4-.015.876.385 1.063a9.9825 9.9825 0 0 1 3.172 2.349c.89.987 1.574 2.142 2.012 3.397.145.417.601.638 1.019.492.417-.145.637-.602.491-1.019a11.5746 11.5746 0 0 0-2.334-3.941 11.5679 11.5679 0 0 0-3.681-2.726c-.4-.188-.876-.015-1.064.385Z" fill="#001F5C"/><path fill-rule="evenodd" clip-rule="evenodd" d="m185.395 164.553-.027.022a.7995.7995 0 0 0-.125 1.124c.276.345.779.401 1.124.125l.007-.005c.007-.006.02-.016.039-.03.037-.027.095-.07.175-.125.159-.11.402-.269.725-.454.646-.372 1.609-.849 2.856-1.255 2.487-.811 6.114-1.344 10.631-.18a.801.801 0 0 0 .975-.575c.11-.428-.148-.864-.575-.975-4.851-1.25-8.791-.683-11.527.209-1.366.445-2.43.97-3.157 1.389-.364.209-.644.391-.837.524a8.483 8.483 0 0 0-.223.16c-.026.019-.046.035-.061.046l-.018.014-.006.005-.002.001-.001.002.027-.022ZM188.327 172.972l.01-.005c.009-.006.024-.016.046-.029.042-.026.109-.066.199-.117.18-.102.453-.249.811-.422.718-.346 1.777-.791 3.127-1.181 2.698-.778 6.549-1.328 11.146-.403.433.087.855-.194.942-.627.087-.433-.193-.855-.626-.942-4.895-.985-9.01-.4-11.906.435-1.447.417-2.59.897-3.377 1.276-.393.19-.698.354-.907.473-.105.06-.186.108-.242.142-.028.017-.05.031-.066.041l-.019.011-.005.004-.003.002s-.001.001.434.671l-.435-.67c-.371.24-.476.736-.235 1.106.24.371.736.476 1.106.235ZM188.858 179.963l-.498-.626c-.345.275-.403.779-.128 1.124.275.346.778.403 1.124.129h-.001m-.497-.627-.498-.626.002-.001.002-.002.006-.004.018-.015c.016-.011.036-.027.063-.047.053-.039.129-.094.228-.161.196-.134.483-.318.855-.527.744-.419 1.834-.941 3.24-1.374 2.816-.868 6.882-1.37 11.938.023.426.117.677.557.559.983a.7994.7994 0 0 1-.983.559c-4.731-1.303-8.486-.824-11.043-.036-1.282.395-2.268.869-2.927 1.24-.329.185-.577.344-.738.454-.081.055-.141.098-.178.126-.019.014-.032.024-.039.029l-.007.006" fill="#001F5C"/></svg>
