<svg viewBox="0 0 400 225" fill="none" xmlns="http://www.w3.org/2000/svg"><path d="M127.256 44.154c-.115-.9945.577-2.3035 1.935-2.4609.759-.088 1.478.4542 2.033.9843.418-.6428.994-1.3353 1.753-1.4232 1.358-.1574 2.332.9584 2.447 1.9528.249 2.1501-1.913 4.4237-3.456 5.8902-1.837-1.0746-4.463-2.7929-4.712-4.9432ZM143.71 49.4217c-2.333-.881-4.551.6613-5.196 2.3699-1.395 3.6942 1.424 8.6763 3.503 11.9553 3.727-1.0867 9.135-2.9628 10.53-6.6567.645-1.7084 0-4.332-2.333-5.213-1.303-.492-2.817.1482-4.033.8403-.455-1.3229-1.168-2.8038-2.471-3.2958ZM199.894 120.335c-9.956-.034-12.256-1.903-12.76-2.57-.109-.145-.134-.326-.134-.507V110h-12.522a27.227 27.227 0 0 0-14.76 4.351l-29.237 18.868 1.823-5.922c.452-1.469-.858-2.931-2.383-2.742-5.149.636-14.874 1.001-20.048-4.195-1.097-1.102-3.11-1.193-3.937.124-3.409 5.432-10.7603 17.266-16.2305 26.922-7.3556 12.984-13.175 29.578.8043 37.945 13.9792 8.368 27.4682 6.09 43.0682-5.288 15.6-11.378 27.624-21.814 27.624-21.814v40.641c0 2.209 1.791 4.001 4 4.001h69.414c2.209 0 4-1.792 4-4.001v-40.641s12.025 10.436 27.625 21.814 29.088 13.656 43.068 5.288c13.979-8.367 8.159-24.961.804-37.945-5.47-9.656-12.822-21.49-16.231-26.922-.827-1.317-2.84-1.226-3.937-.124-5.174 5.196-14.899 4.831-20.048 4.195-1.524-.189-2.834 1.273-2.382 2.742l1.822 5.922-29.237-18.868c-4.4-2.84-9.524-4.35-14.76-4.351h-12.522v7.258c0 .181-.025.362-.134.507-.505.668-2.808 2.54-12.79 2.57ZM114.95 61.6667c-.205-2.2471 1.429-5.1579 4.497-5.4372 1.714-.156 3.305 1.1054 4.524 2.3304.978-1.425 2.315-2.9531 4.029-3.1091 3.068-.2794 5.201 2.2887 5.405 4.5356.443 4.8581-4.556 9.8605-8.113 13.079-4.08-2.5231-9.9-6.5402-10.342-11.3987ZM269.264 66.8699c-.119-1.3044.829-2.994 2.61-3.1561.995-.0906 1.919.6416 2.626 1.3527.568-.8272 1.344-1.7142 2.339-1.8047 1.781-.1622 3.019 1.3285 3.137 2.6327.257 2.8199-2.645 5.7236-4.709 7.5919-2.368-1.4646-5.747-3.7964-6.003-6.6165ZM271.775 51.6967c-.838-.4317-1.737.0512-2.053.6646-.684 1.3263.159 3.3183.797 4.6391 1.446-.2465 3.557-.7166 4.241-2.0428.316-.6134.187-1.6261-.65-2.0578-.468-.241-1.064-.0663-1.55.1409-.114-.5162-.317-1.1029-.785-1.344ZM251.507 58.01c-2.793.9112-3.694 3.9637-3.026 6.009 1.442 4.4223 7.705 6.9207 12.033 8.3999 2.623-3.7469 6.208-9.4582 4.765-13.8801-.667-2.0452-3.194-3.9796-5.987-3.0684-1.56.5088-2.479 2.2131-3.085 3.7454-1.393-.8799-3.14-1.7146-4.7-1.2058Z" fill="#3164FA"/><path d="M292.793 74.8966a.7995.7995 0 0 1-.69.8967c-4.307.5618-7.762 3.3411-10.357 6.7076-2.592 3.3626-4.251 7.2187-4.978 9.7222a.7997.7997 0 1 1-1.536-.4461c.773-2.6632 2.514-6.7071 5.247-10.2529 2.73-3.5417 6.525-6.6791 11.418-7.3173a.7992.7992 0 0 1 .896.6898ZM298.74 81.1971a.7991.7991 0 0 1-.437 1.0434c-8.57 3.5058-12.959 10.2251-14.057 13.0495-.161.4118-.624.6158-1.036.4556a.8.8 0 0 1-.456-1.0355c1.235-3.1756 5.913-10.2564 14.943-13.9505a.7995.7995 0 0 1 1.043.4375ZM95.6336 88.7112a.8.8 0 0 1 .7328-1.4223c8.4246 4.3402 11.9476 9.4991 13.5796 14.3961.808 2.423 1.144 4.755 1.402 6.817.029.228.057.453.084.673.222 1.802.41 3.32.827 4.572.71 2.132 2.302 3.484 4.095 4.256 1.81.779 3.752.931 5.007.709.435-.077.85.214.927.649.077.435-.214.85-.649.927-1.578.278-3.836.08-5.918-.816-2.099-.903-4.091-2.551-4.98-5.219-.472-1.415-.679-3.107-.896-4.874-.028-.225-.056-.451-.084-.678-.257-2.047-.578-4.246-1.332-6.51-1.493-4.4789-4.72-9.32-12.7954-13.4798ZM303.866 88.7112c.393-.2023.548-.6848.345-1.0775-.202-.3928-.685-.5472-1.077-.3448-8.425 4.3402-11.948 9.4991-13.58 14.3961-.808 2.423-1.144 4.755-1.402 6.817-.029.228-.057.453-.084.673-.222 1.801-.41 3.32-.827 4.572-.71 2.132-2.302 3.484-4.095 4.256-1.81.779-3.752.931-5.007.709-.435-.077-.85.214-.927.649-.077.435.214.85.649.927 1.578.278 3.836.08 5.918-.816 2.099-.903 4.09-2.551 4.98-5.219.472-1.415.679-3.107.896-4.873.028-.225.056-.452.084-.679.257-2.047.578-4.246 1.332-6.51 1.493-4.4789 4.72-9.32 12.795-13.4798ZM101.197 82.2405a.7991.7991 0 0 1-.437-1.0434.7995.7995 0 0 1 1.043-.4375c9.03 3.6941 13.708 10.7749 14.943 13.9505a.8.8 0 0 1-.456 1.0355c-.412.1602-.875-.0438-1.036-.4556-1.098-2.8244-5.487-9.5437-14.057-13.0495ZM107.397 75.7933a.7995.7995 0 0 1-.69-.8967.7992.7992 0 0 1 .896-.6898c4.893.6382 8.688 3.7756 11.418 7.3173 2.733 3.5458 4.474 7.5897 5.247 10.2529a.7997.7997 0 1 1-1.536.4461c-.727-2.5035-2.386-6.3596-4.978-9.7222-2.595-3.3665-6.05-6.1458-10.357-6.7076ZM269.313 80.6025c2.154.1705 4.033 1.0001 5.131 1.7319.367.245.467.7417.222 1.1094-.245.3676-.742.4669-1.11.2218-.902-.6015-2.523-1.322-4.369-1.4681-1.823-.1443-3.844.2697-5.652 1.8971-1.834 1.6505-2.772 3.8475-3.187 5.9714-.361 1.8459-.317 3.5908-.149 4.7744.909.1571 2.022.069 3.252-.5541 1.469-.7437 3.16-2.2783 4.858-5.1894a.8.8 0 0 1 1.094-.2879.7994.7994 0 0 1 .288 1.0941c-1.802 3.0889-3.694 4.8877-5.517 5.8107-1.149.5819-2.249.8041-3.242.7941 1.075.6357 2.036 1.5042 2.733 2.5478a.7986.7986 0 0 1-.221 1.1093.7985.7985 0 0 1-1.109-.2207c-.887-1.327-2.348-2.3358-3.868-2.7785-1.389-.4044-2.707-.3088-3.663.2961-.068 2.4424.641 6.7251 2.845 10.8311 2.306 4.297 6.219 8.35 12.545 9.931.429.107.689.541.582.97a.7994.7994 0 0 1-.97.582c-6.855-1.713-11.097-6.124-13.567-10.726-2.456-4.577-3.191-9.3923-3.014-12.064a.8009.8009 0 0 1 .296-.5701c1.451-1.1691 3.395-1.3122 5.178-.8459-.258-1.3528-.371-3.5145.078-5.811.46-2.3511 1.522-4.9041 3.688-6.8536 2.192-1.9726 4.671-2.4753 6.848-2.3029ZM125.056 82.3344c1.098-.7318 2.977-1.5614 5.131-1.7319 2.177-.1724 4.656.3303 6.848 2.3029 2.166 1.9495 3.228 4.5025 3.688 6.8536.449 2.2965.336 4.4582.078 5.811 1.783-.4663 3.727-.3232 5.178.8459.174.1403.281.347.296.5701.177 2.6717-.558 7.487-3.014 12.064-2.47 4.602-6.712 9.013-13.567 10.726a.7994.7994 0 0 1-.97-.582.7994.7994 0 0 1 .582-.97c6.326-1.581 10.239-5.634 12.545-9.931 2.204-4.106 2.913-8.3887 2.845-10.8311-.956-.6049-2.274-.7005-3.663-.2961-1.52.4427-2.981 1.4515-3.868 2.7785a.7985.7985 0 0 1-1.109.2207.7986.7986 0 0 1-.221-1.1093c.697-1.0436 1.658-1.9121 2.733-2.5478-.993.01-2.093-.2122-3.242-.7941-1.823-.923-3.715-2.7218-5.517-5.8107a.7994.7994 0 0 1 .288-1.0941.8.8 0 0 1 1.094.2879c1.698 2.9111 3.389 4.4457 4.858 5.1894 1.23.6231 2.343.7112 3.252.5541.168-1.1836.212-2.9285-.149-4.7744-.415-2.1239-1.353-4.3209-3.187-5.9714-1.808-1.6274-3.829-2.0414-5.652-1.8971-1.846.1461-3.467.8666-4.369 1.4681-.368.2451-.865.1458-1.11-.2218-.245-.3677-.145-.8644.222-1.1094Z" fill="#001F5C"/></svg>
