<svg viewBox="0 0 400 225" fill="none" xmlns="http://www.w3.org/2000/svg"><path d="M258.925 71.7016c-3.157-1.0053-6.531.7397-7.535 3.8977l-7.77 24.4427c-1.004 3.158.742 6.533 3.899 7.539l14.221 4.528c3.157 1.005 6.531-.74 7.535-3.898l7.77-24.4433c1.004-3.158-.742-6.533-3.899-7.5384l-14.221-4.5277Z" fill="#3164FA"/><path d="M159.701 115.111c-4.626 3.081-8.237 7.464-10.38 12.595-.95 2.28-2.007 4.803-3.133 7.494-8.893 21.235-22.167 52.935-22.188 58.413 0 9.224 9.017 19.954 20.471 19.954s15.314-3.962 15.314-3.962v-26.769c-5.004 1.296-10.294-6.192-10.294-6.192s-.376-4.775 3.817-13.523c3.136-6.546 10.642-11.966 21.898-11.439 7.043 1.157 10.796 6.676 10.796 12.619h44.481v48.398h.487c.985-.089 3.436-.089 5.91-.066 3.313.03 5.999-2.62 5.999-5.934v-48.813s11.838 10.273 27.195 21.474c15.358 11.202 28.637 13.444 42.399 5.207 13.762-8.238 8.033-24.574.792-37.356-7.242-12.781-20.624-35.516-20.624-35.516-11.877 13.439-22.289 12.853-22.289 12.853l2.771 8.697-28.783-18.575a26.8065 26.8065 0 0 0-14.53-4.283h-18v7.366s-.095 2.809-12.293 2.809c-12.198 0-12.013-2.195-12.013-2.195v-7.98h-12.187a28.154 28.154 0 0 0-15.616 4.724Z" fill="#3164FA"/><path d="M264.693 69.3a3.177 3.177 0 0 0-2.563 1.2992c-.261.3564-.72.5648-1.13.4008-.41-.1641-.615-.6347-.385-1.0119a4.7773 4.7773 0 0 1 4.078-2.2881h7.807c5.413 0 9.8 4.3876 9.8 9.8v5.9717c.648.2684 1.318.6258 2.029 1.0999 2.39 1.5948 3.974 3.7155 5.021 5.8117 1.046 2.0931 1.564 4.1766 1.823 5.73.13.7786.195 1.4291.228 1.8882.016.2297.024.4118.029.5385.002.0633.003.1129.003.1476l.001.0366c.216 4.4458.74 8.8718 1.57 13.2458.082.434-.203.852-.637.935-.434.082-.853-.203-.935-.637a97.598 97.598 0 0 1-1.597-13.483c-.001-.0126-.001-.0259-.001-.0386v-.033a6.6878 6.6878 0 0 1-.003-.1202 13.4491 13.4491 0 0 0-.026-.4778c-.03-.4166-.09-1.0168-.21-1.7393-.241-1.4487-.722-3.368-1.676-5.2777-.953-1.9065-2.369-3.7886-4.478-5.1959-2.105-1.4039-4.941-1.6026-5.641-1.6026-.442 0-.8-.3581-.8-.8a.8.8 0 0 1 .8-.8c.999 0 1.943.0564 2.9.2676V77.5c0-4.5288-3.671-8.2-8.2-8.2h-7.807ZM258.851 104.553a.8008.8008 0 0 0-.593.964c1.384 5.817 3.899 9.317 6.115 11.371 1.105 1.023 2.127 1.679 2.884 2.083.378.201.689.34.912.429.111.045.2.078.264.1.032.011.057.02.076.026l.024.007.008.003.004.001.06.016-.059-.015c.424.126.869-.114.996-.537.126-.423-.112-.867-.534-.995l-.001-.001h-.002l-.004-.001c-.007-.003-.022-.008-.042-.015-.04-.014-.105-.038-.192-.072-.173-.07-.433-.185-.757-.358-.649-.346-1.556-.925-2.549-1.845-1.852-1.716-4.033-4.645-5.381-9.533-.093-.336-.181-.68-.265-1.035-.103-.429-.534-.695-.964-.593Z" fill="#001F5C"/><path d="m284.827 101.881-.002-.002a.2548.2548 0 0 0-.021-.023c-.02-.023-.054-.058-.101-.106-.094-.094-.24-.235-.438-.406-.398-.342-1.004-.806-1.822-1.273-1.632-.9309-4.114-1.8758-7.479-1.8758-3.371 0-6.028.9296-7.839 1.8558-.907.463-1.6.925-2.062 1.267-.232.171-.405.312-.517.407-.057.048-.098.085-.124.108l-.018.016-.009.009-.004.003-.001.002c-.32.303-.826.29-1.13-.029-.305-.32-.293-.827.027-1.131l.003-.003.004-.004.013-.012c.011-.01.026-.023.044-.04.038-.034.091-.081.16-.139.138-.117.339-.28.6-.473.523-.3871 1.291-.8972 2.285-1.4057 1.99-1.0172 4.896-2.0311 8.568-2.0311 3.679 0 6.431 1.0363 8.272 2.0862.918.524 1.608 1.0503 2.073 1.4506.233.201.409.37.53.492.061.061.108.11.141.146.016.018.029.032.039.043l.012.014.005.006s-.056-.063.001.001c.289.335.253.84-.082 1.129-.333.288-.837.252-1.127-.081l-.001-.001ZM284.825 94.228l.002.0022.002.0013c.289.3325.793.3686 1.126.0802.335-.2889.371-.7941.082-1.1283l-.006-.0078.005.0064-.005-.0064-.012-.0133a3.5258 3.5258 0 0 1-.039-.0431 5.348 5.348 0 0 0-.141-.1462 9.1016 9.1016 0 0 0-.53-.4917c-.465-.4005-1.155-.9268-2.073-1.4508-1.841-1.0499-4.593-2.0862-8.272-2.0862-3.672 0-6.578 1.0139-8.568 2.0312-.994.5084-1.762 1.0185-2.285 1.4052-.261.1934-.462.3564-.6.4733a8.6485 8.6485 0 0 0-.16.1391c-.018.0168-.033.0302-.044.0401l-.013.0121-.004.004-.003.0026c-.32.3046-.332.811-.027 1.131.304.3196.81.3323 1.13.0288l.001-.0011.004-.0037c.005-.0048.014-.0132.027-.0248l.031-.0273c.014-.0126.03-.0272.049-.0435l.044-.0369a9.312 9.312 0 0 1 .517-.4073c.462-.3421 1.155-.8038 2.062-1.267 1.811-.9262 4.468-1.8558 7.839-1.8558 3.365 0 5.847.9449 7.479 1.876.818.4666 1.424.9308 1.822 1.2732.198.1711.344.3114.438.406.047.0472.081.0829.101.1053a.248.248 0 0 1 .021.0232Z" fill="#001F5C"/><path fill-rule="evenodd" clip-rule="evenodd" d="M148.715 176.108v.03-.029c-.004.125.021.25.073.364 1.685 3.652 4.464 5.327 6.807 6.076 1.166.373 2.224.518 2.993.57.128.008.249.015.361.019v32.059c0 .442.358.8.8.8h70.869c.441 0 .8-.358.8-.8v-38.036c0-.442-.359-.8-.8-.8h-70.869c-.442 0-.8.358-.8.8v4.376c-.079-.004-.164-.009-.253-.015-.671-.045-1.598-.172-2.613-.497-1.981-.633-4.297-2.013-5.758-5.045l.005-.079c.012-.181.034-.451.07-.795.073-.689.204-1.677.437-2.859.468-2.369 1.341-5.499 2.963-8.573 1.62-3.071 3.976-6.067 7.401-8.208 3.419-2.137 7.955-3.455 14.001-3.095.441.027.819-.31.846-.751.026-.441-.31-.82-.751-.846-6.341-.378-11.214 1.004-14.944 3.335-3.722 2.327-6.251 5.564-7.968 8.819-1.716 3.252-2.631 6.541-3.118 9.009-.244 1.236-.381 2.272-.458 3.001-.038.365-.062.654-.075.853-.007.1-.012.177-.015.231l-.003.062v.017l-.001.007Zm11.834 6.526c.039-.094.06-.196.06-.303v-3.863c0-.107-.022-.21-.06-.303v-.204h69.269v36.436h-69.269v-31.763Z" fill="#001F5C"/><path d="M165.185 157.181a.8.8 0 0 0-.268 1.099c.543.893 1.889 3.653 3.123 6.246.611 1.284 1.187 2.51 1.61 3.415.211.453.384.825.505 1.084l.187.404c.186.401.661.576 1.062.391.401-.186.576-.662.39-1.063l-.188-.406c-.121-.26-.295-.633-.507-1.087-.424-.908-1.001-2.137-1.615-3.426-1.214-2.553-2.603-5.408-3.2-6.389a.8.8 0 0 0-1.099-.268ZM160.448 162.568c-.378.229-.5.72-.271 1.099.542.899 1.493 2.884 2.326 4.689.412.894.789 1.728 1.063 2.34.136.306.248.556.324.729l.089.2.03.069c.178.404.65.588 1.055.41.404-.178.588-.65.41-1.054l-.032-.072-.089-.202c-.077-.174-.189-.426-.327-.734-.276-.615-.655-1.456-1.07-2.356-.822-1.781-1.812-3.855-2.409-4.846a.8015.8015 0 0 0-1.099-.272ZM156.033 168.975a.8002.8002 0 0 0-.27 1.099c.564.933 1.402 2.391 2.103 3.623.35.615.664 1.17.891 1.572.113.201.205.364.268.476l.098.174c.216.386.703.523 1.089.307.385-.216.522-.705.306-1.09l-.098-.175c-.064-.113-.156-.276-.269-.478-.228-.403-.543-.961-.894-1.577-.701-1.231-1.549-2.707-2.125-3.66a.8014.8014 0 0 0-1.099-.271Z" fill="#001F5C"/><path fill-rule="evenodd" clip-rule="evenodd" d="M214.789 168.444c0-.442-.358-.8-.8-.8h-33.652c-.442 0-.8.358-.8.8v2.773c0 .442.358.8.8.8h33.652c.442 0 .8-.358.8-.8v-2.773Zm-1.6.8v1.173h-32.052v-1.173h32.052Z" fill="#001F5C"/></svg>
