<svg viewBox="0 0 400 225" fill="none" xmlns="http://www.w3.org/2000/svg"><path d="M188.872 79.2965c.891 0 1.613-1.2004 1.613-2.6811s-.722-1.6157-1.613-1.6157c-.89 0-1.612.135-1.612 1.6157s.722 2.6811 1.612 2.6811ZM188.94 68.4311l-4.747 4.2516c-.641.5817-.06 1.7574.835 1.654a6.9944 6.9944 0 0 0 3.922-1.7029c1.34-1.2103 1.639-2.4693 1.576-3.4326-.052-.8092-1.015-1.2809-1.586-.7701ZM208.201 79.2965c.891 0 1.613-1.2004 1.613-2.6811s-.722-1.6157-1.613-1.6157c-.89 0-1.612.135-1.612 1.6157s.722 2.6811 1.612 2.6811ZM208.072 68.298l5.142 3.6379c.706.4951.261 1.7142-.629 1.7146a6.872 6.872 0 0 1-4.041-1.2241c-1.468-1.0353-1.892-2.231-1.942-3.1892-.041-.7985.854-1.3718 1.47-.9392ZM195.34 91.9853a.8001.8001 0 0 1 .207-1.1122c2.185-1.4982 4.424-1.5175 6.081-1.1748.826.1708 1.516.4326 2.001.6518.243.1099.436.2101.572.2845.068.0373.121.0682.159.0907l.026.0156.02.0118.014.0086.004.0029.002.0011-.006-.004.007.0049c.374.2364.484.7307.248 1.1039a.7998.7998 0 0 1-1.102.2487l-.004-.0023-.025-.0148a3.4826 3.4826 0 0 0-.113-.0646 6.9306 6.9306 0 0 0-.461-.2292c-.405-.1827-.981-.4011-1.666-.5428-1.291-.2669-2.934-.2581-4.567.7428-.095.0582-.19.1196-.284.1846-.365.2499-.863.1571-1.113-.2072ZM197.372 84.5421a.8001.8001 0 0 0-1.591-.1727c-.127 1.1684.18 2.1101 1.03 2.6015.736.4256 1.656.3598 2.375.2163.76-.1516 1.513-.4363 2.06-.6727.277-.1198.51-.2307.674-.3122.082-.0408.147-.0743.193-.0982l.054-.0282.015-.0081.004-.0025.002-.0008s-.075.0396-.006.0033l.007-.0038c.388-.2111.532-.6968.321-1.085a.8005.8005 0 0 0-1.085-.3208l-.002.0008-.009.0049-.041.0216c-.037.0193-.093.048-.164.0836-.144.0713-.351.1699-.598.2765-.501.2164-1.136.4525-1.738.5726-.643.1282-1.058.0851-1.262-.0326-.09-.052-.329-.2196-.239-1.0435Z" fill="#001F5C"/><path fill-rule="evenodd" clip-rule="evenodd" d="M184.74 95.7812c.519.8658 1.068 1.6887 1.645 2.4638v19.413l.03.106.004.013-.003-.01.001.004.002.006.004.014c.003.009.007.019.01.03.008.022.017.046.029.073.023.054.053.117.095.187.083.141.208.309.392.493.367.366.965.787 1.94 1.185 1.937.792 5.446 1.531 11.861 1.531 6.381 0 9.478-.571 11.002-1.212.769-.324 1.243-.709 1.479-1.154.119-.226.164-.444.164-.633 0-.068-.005-.13-.014-.184V97.4716c.376-.5425.74-1.1059 1.089-1.6887 1.719-2.8651 3.128-6.226 4.145-9.9377 2.185.736 3.964.7878 5.406.3369 1.656-.5176 2.738-1.6565 3.434-2.8803.69-1.2137 1.021-2.5436 1.183-3.5454.082-.5055.122-.9386.142-1.2475.01-.1547.015-.2789.018-.3662.001-.0437.001-.0782.002-.1027l.003-.0414c.004-.0495.009-.1196.014-.2075.01-.1755.018-.4234.014-.7211-.007-.5915-.063-1.3994-.261-2.2363-.392-1.6531-1.422-3.6571-3.971-3.9762-1.869-.2352-3.228.3826-4.153 1.1606 0-.0876.001-.1753.001-.2631 0-9.3491-2.273-16.2403-6.054-20.8089-3.795-4.5843-9.041-6.7464-14.789-6.7464-5.746 0-10.991 2.1633-14.785 6.748-3.781 4.5691-6.053 11.4602-6.053 20.8073 0 .1202 0 .2403.001.3602-.926-.8227-2.32-1.5026-4.265-1.2577-2.519.315-3.585 2.1848-4.006 3.771-.211.7941-.277 1.5593-.292 2.1188a9.085 9.085 0 0 0 .005.6829c.003.0833.008.1499.011.1972l.004.0433v.0062c0 .0251.001.0605.002.1054.003.0898.009.2176.02.377.022.3184.066.765.151 1.2867.168 1.0346.508 2.4069 1.203 3.6633.7 1.2644 1.786 2.4525 3.448 3.0101 1.476.495 3.299.4568 5.538-.3111 1.018 3.7255 2.43 7.0986 4.154 9.9729Zm1.311-43.8135c-3.471 4.1956-5.685 10.6821-5.685 19.7873 0 9.1066 2.209 17.3066 5.746 23.2033 2.738 4.5659 6.22 7.6787 10.038 8.8587 1.083.327 2.239.525 3.454.524 1.884 0 3.604-.468 5.126-1.173 3.161-1.484 6.034-4.3184 8.368-8.2083 3.202-5.3369 5.317-12.5615 5.69-20.639l-.004-.0016v-.003l.002-.0049.002-.0057c.039-.8413.059-1.6919.059-2.5505 0-9.1074-2.214-15.5938-5.687-19.7887-3.459-4.1793-8.234-6.1666-13.556-6.1666-5.32 0-10.094 1.9882-13.553 6.168Zm1.934 54.2023v11.168c.023.028.053.063.094.103.185.185.59.5 1.415.837 1.661.679 4.933 1.412 11.256 1.412 6.356 0 9.174-.579 10.382-1.087.41-.173.583-.316.649-.385v-18.123c-6.543 10.98-20.336 7.229-23.796 6.075Zm32.387-31.4958c-.171 3.3656-.638 6.5952-1.358 9.6163 2.017.6995 3.476.6938 4.53.3645 1.169-.3655 1.966-1.1696 2.52-2.144.56-.9846.849-2.108.995-3.0101.072-.4464.107-.8278.125-1.0955.008-.1336.012-.2381.014-.3075l.001-.0535.001-.0232v-.0621l.004-.0417v-.0011l.001-.0077.003-.0392a6.173 6.173 0 0 0 .011-.1646c.008-.1455.015-.3575.012-.6147-.006-.5185-.055-1.2012-.218-1.887-.33-1.3924-1.05-2.5624-2.613-2.758-1.566-.1972-2.57.4084-3.207 1.0603-.327.3345-.558.6847-.708.9523-.045.082-.083.1552-.113.2165Zm-41.523.18c.179 3.2866.638 6.4419 1.34 9.3983-2.068.7312-3.558.7103-4.632.3499-1.177-.3947-1.989-1.2419-2.557-2.268-.572-1.034-.871-2.2073-1.024-3.1458a12.7735 12.7735 0 0 1-.134-1.1399 9.1257 9.1257 0 0 1-.016-.3202c-.002-.0362-.002-.0632-.003-.0802V77.59l-.004-.0364v-.0074l-.003-.0354c-.002-.0331-.006-.0844-.009-.1515a8.3279 8.3279 0 0 1-.004-.5693c.013-.4812.07-1.1143.239-1.7507.339-1.2748 1.061-2.3945 2.659-2.5942 1.565-.1972 2.57.4084 3.206 1.0603.327.3345.559.6847.708.9523a3.8 3.8 0 0 1 .159.3159c.017.0365.028.0637.034.0799l.007.0156-.001-.001s0-.0008.007-.0035l.028-.0104Z" fill="#001F5C"/><path d="M187.5 78c-.828 0-1.5.6716-1.5 1.5s.672 1.5 1.5 1.5h3c.828 0 1.5-.6716 1.5-1.5s-.672-1.5-1.5-1.5h-3ZM206.5 78c-.828 0-1.5.6716-1.5 1.5s.672 1.5 1.5 1.5h3c.828 0 1.5-.6716 1.5-1.5s-.672-1.5-1.5-1.5h-3Z" fill="#3164FA"/></svg>
