<svg viewBox="0 0 400 225" fill="none" xmlns="http://www.w3.org/2000/svg"><path d="M188.872 79.2968c.891 0 1.613-1.2004 1.613-2.6812 0-1.4807-.722-2.6811-1.613-2.6811-.89 0-1.612 1.2004-1.612 2.6811 0 1.4808.722 2.6812 1.612 2.6812ZM186.984 71.248l5.973 2.2211c.814.2967 1.584-.7653 1.075-1.5096a6.9957 6.9957 0 0 0-3.333-2.6774c-1.695-.6217-2.949-.3-3.772.2045-.692.4223-.661 1.4946.057 1.7614ZM208.201 79.2968c.891 0 1.613-1.2004 1.613-2.6812 0-1.4807-.722-2.6811-1.613-2.6811-.89 0-1.612 1.2004-1.612 2.6811 0 1.4808.722 2.6812 1.612 2.6812ZM211.69 68.385l-6.087 1.6171c-.833.225-1.484-.8977-.914-1.5808a6.8702 6.8702 0 0 1 3.528-2.3187c1.736-.4643 2.926-.0242 3.694.5515.639.4802.506 1.5343-.221 1.7309ZM200.761 90.4644a.8004.8004 0 0 1-.417 1.0515c-2.432 1.0494-4.633.637-6.193-.0183a9.6197 9.6197 0 0 1-1.838-1.025 8.5374 8.5374 0 0 1-.507-.3895 6.6873 6.6873 0 0 1-.139-.1196.2674.2674 0 0 0-.018-.0164 1.398 1.398 0 0 0-.021-.0193l-.012-.011-.004-.0038-.001-.0014s.017.0162-.002-.0011c-.32-.3039-.334-.8103-.03-1.131.303-.3202.809-.3342 1.129-.0318l.004.003.021.0193c.021.0184.054.0475.099.0853.091.0757.229.1855.409.3137.361.2572.885.5825 1.53.8535 1.215.5104 2.829.8183 4.624.1506.104-.0387.209-.0808.315-.1263.405-.175.876.0119 1.051.4176ZM200.988 84.5424c-.048-.4393.27-.834.709-.8817a.8006.8006 0 0 1 .882.709c.126 1.1683-.18 2.1101-1.03 2.6014-.737.4256-1.656.3599-2.375.2164-.76-.1516-1.513-.4364-2.06-.6728a13.8816 13.8816 0 0 1-.868-.4104c-.012-.0063-.023-.012-.032-.0169l-.021-.0113-.015-.0081-.005-.0024-.001-.0008s.042.0226-.001-.0006a.7993.7993 0 0 1-.321-1.0849.8004.8004 0 0 1 1.085-.3209l.001.0009.009.0049.041.0215c.037.0193.093.048.165.0836.144.0714.35.1699.597.2766.501.2164 1.137.4524 1.739.5725.642.1282 1.057.0852 1.261-.0326.09-.0519.329-.2195.24-1.0434Z" fill="#001F5C"/><path fill-rule="evenodd" clip-rule="evenodd" d="M184.74 95.7815c.519.8658 1.068 1.6887 1.645 2.4637v19.4128l.03.106.018.057c-.048-.163-.017-.053-.017-.053l.001.003.002.006.004.014c.003.009.007.019.01.03.008.022.017.046.029.073.023.054.053.117.095.187.083.141.208.31.392.493.367.366.965.787 1.94 1.185 1.937.792 5.446 1.531 11.861 1.531 6.381 0 9.478-.571 11.002-1.212.769-.324 1.243-.709 1.479-1.154.119-.226.164-.444.164-.633 0-.068-.005-.13-.014-.184V97.4718a30.19 30.19 0 0 0 1.089-1.6886c1.719-2.8651 3.128-6.226 4.145-9.9377 2.185.7361 3.964.7879 5.406.337 1.656-.5176 2.738-1.6565 3.434-2.8804.69-1.2136 1.021-2.5436 1.183-3.5454.082-.5054.122-.9385.142-1.2475.01-.1546.015-.2788.018-.3662.001-.0437.001-.0782.002-.1027l.003-.0414c.004-.0495.009-.1196.014-.2074.01-.1756.018-.4234.014-.7212-.007-.5914-.063-1.3993-.261-2.2362-.392-1.6531-1.422-3.6572-3.971-3.9762-1.869-.2353-3.228.3826-4.153 1.1606 0-.0877.001-.1754.001-.2632 0-9.3492-2.273-16.2404-6.054-20.809-3.795-4.5842-9.041-6.7463-14.789-6.7463-5.746 0-10.991 2.1633-14.785 6.7479-3.781 4.5691-6.053 11.4603-6.053 20.8074 0 .1202 0 .2403.001.3602-.926-.8226-2.32-1.5026-4.265-1.2576-2.519.315-3.585 2.1848-4.006 3.7709-.211.7942-.277 1.5593-.292 2.1189a9.083 9.083 0 0 0 .005.6828c.003.0834.008.15.011.1972l.004.0433v.0063c0 .0251.001.0605.002.1054.003.0897.009.2176.02.377.022.3183.066.7649.151 1.2867.168 1.0345.508 2.4069 1.203 3.6633.7 1.2643 1.786 2.4525 3.448 3.01 1.476.495 3.299.4569 5.538-.311 1.018 3.7254 2.43 7.0985 4.154 9.9728Zm1.311-43.8135c-3.471 4.1955-5.685 10.682-5.685 19.7873 0 9.1065 2.209 17.3066 5.746 23.2032 2.733 4.5569 6.206 7.6655 10.015 8.8515 1.09.332 2.254.532 3.477.531 1.896 0 3.625-.473 5.154-1.186 3.15-1.487 6.013-4.3166 8.34-8.195 3.202-5.337 5.317-12.5615 5.69-20.639l-.005-.0017.001-.0029.002-.0048.002-.0057c.039-.8414.059-1.692.059-2.5506 0-9.1074-2.214-15.5939-5.687-19.7888-3.459-4.1793-8.234-6.1665-13.556-6.1665-5.32 0-10.094 1.9881-13.553 6.168Zm1.934 54.202v11.169c.023.027.053.062.094.102.185.185.59.5 1.415.837 1.661.679 4.933 1.412 11.256 1.412 6.356 0 9.174-.579 10.382-1.087.41-.173.583-.316.649-.385v-18.123c-6.543 10.981-20.336 7.23-23.796 6.075Zm32.387-31.4954c-.171 3.3656-.638 6.5952-1.359 9.6162 2.018.6995 3.477.6939 4.531.3645 1.169-.3655 1.966-1.1696 2.52-2.1439.56-.9846.849-2.108.995-3.0101.072-.4464.107-.8279.125-1.0955.008-.1336.012-.2382.014-.3076l.001-.0488.001-.0279v-.062l.004-.0417v-.0012l.001-.0077.003-.0392a6.173 6.173 0 0 0 .011-.1646c.008-.1455.016-.3575.012-.6147-.006-.5184-.055-1.2011-.218-1.887-.33-1.3923-1.05-2.5624-2.613-2.758-1.566-.1972-2.57.4084-3.207 1.0604-.327.3344-.558.6847-.708.9523-.045.082-.083.1552-.113.2165Zm-41.523.18c.179 3.2865.638 6.4419 1.34 9.3982-2.067.7313-3.558.7104-4.632.35-1.177-.3948-1.989-1.2419-2.557-2.268-.572-1.0341-.871-2.2074-1.024-3.1459a12.7693 12.7693 0 0 1-.134-1.1399 9.114 9.114 0 0 1-.016-.3202c-.002-.0362-.002-.0632-.003-.0802v-.0583l-.004-.0363v-.0074l-.003-.0355c-.002-.033-.006-.0843-.009-.1514a8.3286 8.3286 0 0 1-.004-.5693c.013-.4812.07-1.1144.239-1.7508.339-1.2748 1.061-2.3945 2.659-2.5941 1.565-.1972 2.57.4083 3.206 1.0603.327.3344.559.6847.708.9523.074.1328.127.2425.159.3158.017.0365.028.0638.034.0799l.007.0157-.001-.0011.001-.0011.006-.0024.028-.0103Z" fill="#001F5C"/></svg>
