<svg viewBox="0 0 400 225" fill="none" xmlns="http://www.w3.org/2000/svg"><path d="M188.872 79.2969c.891 0 1.613-1.2003 1.613-2.6811 0-1.4807-.722-2.6811-1.613-2.6811-.89 0-1.612 1.2004-1.612 2.6811 0 1.4808.722 2.6811 1.612 2.6811ZM186.143 72.8692l5.663-2.9231c.767-.402.499-1.6859-.393-1.8108a6.998 6.998 0 0 0-4.224.6634c-1.6.8352-2.206 1.9787-2.387 2.927-.153.7962.661 1.4947 1.341 1.1435ZM208.201 79.2969c.891 0 1.613-1.2003 1.613-2.6811 0-1.4807-.722-2.6811-1.613-2.6811-.89 0-1.612 1.2004-1.612 2.6811 0 1.4808.722 2.6811 1.612 2.6811ZM210.624 72.0341l-5.675-2.7318c-.779-.3708-.543-1.6469.334-1.7952a6.8697 6.8697 0 0 1 4.188.5346c1.621.7766 2.238 1.885 2.447 2.8216.173.7806-.614 1.4948-1.294 1.1708ZM206.879 86.2946a.8011.8011 0 0 1 .377 1.0668c-1.143 2.3896-3.073 3.5259-4.679 4.0576a9.641 9.641 0 0 1-2.059.436 8.3674 8.3674 0 0 1-.637.0397 5.8362 5.8362 0 0 1-.237.0001l-.016-.0005-.006-.0002-.002-.0001.002.0001-.003-.0001a.8003.8003 0 0 1-.767-.8323c.018-.4407.39-.7835.83-.7665l.005.0002.029.0005c.027.0003.071.0004.13-.0009.118-.0025.294-.0104.514-.0322a8.0351 8.0351 0 0 0 1.714-.3628c1.251-.4141 2.67-1.2432 3.584-2.9267a7.218 7.218 0 0 0 .154-.302.8002.8002 0 0 1 1.067-.3767ZM197.372 84.5427c.047-.4393-.27-.834-.709-.8817a.8.8 0 0 0-.882.709c-.127 1.1683.18 2.1101 1.03 2.6014.736.4256 1.656.3599 2.375.2164.76-.1516 1.513-.4364 2.06-.6728.277-.1198.51-.2307.674-.3121.082-.0408.147-.0744.193-.0983l.054-.0282.015-.0081.004-.0024.002-.0008-.021.0113.022-.0118c.388-.2111.532-.6969.321-1.085a.8004.8004 0 0 0-1.085-.3209l-.002.0009-.009.0049-.041.0215c-.037.0193-.093.048-.164.0836-.144.0714-.351.17-.598.2766-.501.2164-1.136.4524-1.738.5725-.643.1282-1.058.0852-1.262-.0326-.09-.0519-.329-.2195-.239-1.0434Z" fill="#001F5C"/><path fill-rule="evenodd" clip-rule="evenodd" d="M184.74 95.7816c.519.8657 1.068 1.6886 1.645 2.4637v19.4127l.03.107.008.026-.007-.023.001.003.002.006.004.014c.003.009.007.02.01.031.008.021.017.046.029.072.023.054.053.117.095.187.083.142.208.31.392.493.367.367.965.787 1.94 1.186 1.937.791 5.446 1.53 11.861 1.53 6.381 0 9.478-.571 11.002-1.212.769-.323 1.243-.709 1.479-1.153.119-.227.164-.445.164-.634 0-.068-.005-.129-.014-.184V97.4719c.376-.5425.74-1.1059 1.089-1.6887 1.72-2.8654 3.128-6.2266 4.146-9.9387 2.191.7331 3.98.7623 5.433.2752 1.662-.5575 2.748-1.7455 3.449-3.0098.696-1.2564 1.036-2.6287 1.205-3.6633.085-.5217.129-.9684.151-1.2867.011-.1594.017-.2872.02-.377.001-.0449.002-.0803.003-.1054v-.0066l.003-.0438c.004-.0473.008-.1139.011-.1972a9.083 9.083 0 0 0 .005-.6828c-.015-.5595-.081-1.3246-.293-2.1186-.422-1.5856-1.488-3.4556-4.004-3.7707-1.869-.2352-3.228.3826-4.153 1.1606 0-.0876.001-.1753.001-.2631 0-9.3491-2.273-16.2403-6.054-20.8089-3.795-4.5843-9.041-6.7464-14.789-6.7464-5.746 0-10.991 2.1633-14.785 6.748-3.781 4.5691-6.053 11.4602-6.053 20.8073 0 .1202 0 .2403.001.3602-.926-.8227-2.32-1.5026-4.265-1.2577-2.519.315-3.585 2.1848-4.006 3.7709-.211.7942-.277 1.5594-.292 2.1189a9.085 9.085 0 0 0 .005.6829c.003.0833.008.1499.011.1972l.004.0433v.0062c0 .0251.001.0605.002.1054.003.0898.009.2176.02.377.022.3183.066.765.151 1.2867.168 1.0346.508 2.4069 1.203 3.6633.7 1.2644 1.786 2.4525 3.448 3.01 1.476.4951 3.299.4569 5.538-.311 1.018 3.7255 2.43 7.0986 4.154 9.973Zm1.311-43.8135c-3.471 4.1955-5.685 10.682-5.685 19.7872 0 9.1066 2.209 17.3066 5.746 23.2033 2.737 4.5637 6.217 7.6754 10.033 8.8574 1.084.328 2.242.526 3.459.525 1.887 0 3.609-.469 5.133-1.176 3.158-1.485 6.029-4.3179 8.361-8.205 3.203-5.3369 5.317-12.5615 5.69-20.639l-.005-.0018.001-.0028.002-.0049.002-.0057c.039-.8413.059-1.6919.059-2.5505 0-9.1074-2.214-15.5938-5.687-19.7887-3.459-4.1793-8.234-6.1666-13.556-6.1666-5.32 0-10.094 1.9882-13.553 6.1681Zm1.934 54.2019v11.169c.023.027.053.062.094.102.185.185.59.5 1.415.838 1.661.679 4.933 1.411 11.256 1.411 6.356 0 9.174-.579 10.382-1.087.41-.172.583-.316.649-.384v-18.124c-6.543 10.981-20.336 7.229-23.796 6.075Zm32.387-31.4955c-.171 3.3653-.638 6.5947-1.358 9.6155 2.012.6932 3.47.6669 4.526.3127 1.178-.3948 1.99-1.2421 2.558-2.2682.573-1.0341.873-2.2074 1.026-3.1459.076-.4648.114-.8615.134-1.1399.01-.139.014-.2479.017-.3202.001-.0362.002-.0632.002-.0803v-.0203l.001-.0375.003-.0359v-.0014l.001-.006.002-.0355c.003-.033.006-.0843.009-.1514.006-.1344.01-.3308.004-.5694-.013-.4812-.071-1.1145-.24-1.7509-.339-1.2754-1.062-2.3949-2.657-2.5945-1.566-.1972-2.57.4084-3.207 1.0603-.327.3345-.558.6847-.708.9523-.045.082-.083.1552-.113.2165Zm-41.523.18c.179 3.2865.638 6.4419 1.34 9.3982-2.068.7313-3.558.7104-4.632.35-1.177-.3947-1.989-1.2419-2.557-2.268-.572-1.034-.871-2.2073-1.024-3.1458a12.7735 12.7735 0 0 1-.134-1.1399 9.1172 9.1172 0 0 1-.016-.3203c-.002-.0361-.002-.0631-.003-.0802v-.0582l-.004-.0364v-.0074l-.003-.0354c-.002-.0331-.006-.0844-.009-.1515a8.3279 8.3279 0 0 1-.004-.5693c.013-.4812.07-1.1144.239-1.7507.339-1.2748 1.061-2.3946 2.659-2.5942 1.565-.1972 2.57.4084 3.206 1.0603.327.3345.559.6847.708.9523.074.1329.127.2426.159.3158.017.0366.028.0638.034.08l.007.0156-.001-.001.009-.0041.026-.0098Z" fill="#001F5C"/></svg>
