<svg viewBox="0 0 400 225" fill="none" xmlns="http://www.w3.org/2000/svg"><path d="M207.549 80.5787c-.856 0-1.55-1.1643-1.55-2.6006 0-1.4362.694-2.6005 1.55-2.6005.856 0 1.551 1.1643 1.551 2.6005 0 1.4363-.695 2.6006-1.551 2.6006ZM194.481 92.4139c0 1.4363.694 2.6005 1.55 2.6005.856 0 1.55-1.1642 1.55-2.6005 0-1.4362-.694-2.6005-1.55-2.6005-.856 0-1.55 1.1643-1.55 2.6005ZM207.601 67.7272l5.056 3.4842c.607.4186 1.467-.1574 1.416-.9419-.06-.9343-.502-2.1067-1.929-3.1001a6.6792 6.6792 0 0 0-3.952-1.1387c-.866.0145-1.275 1.2187-.591 1.6965ZM188.548 77.9781c0 1.4363.694 2.6006 1.55 2.6006.856 0 1.551-1.1643 1.551-2.6006 0-1.4362-.695-2.6005-1.551-2.6005s-1.55 1.1643-1.55 2.6005ZM191.239 67.0243l-5.047 3.3669c-.605.4003-1.449-.1832-1.387-.9559.076-.9273.518-2.0731 1.959-3.0312a6.5573 6.5573 0 0 1 3.92-1.0612c.855.0279 1.248 1.2233.555 1.6814ZM199.715 76.0053c-.014-.4416.331-.8117.773-.8266a.8.8 0 0 1 .827.7724l.378 11.1667a.8.8 0 0 1-1.069.7804l-5.294-1.8927a.7998.7998 0 0 1-.484-1.0226.8002.8002 0 0 1 1.023-.484l4.185 1.4963-.339-9.9899Z" fill="#001F5C"/><path fill-rule="evenodd" clip-rule="evenodd" d="M184.74 95.7815c.519.8658 1.068 1.6887 1.645 2.4637v19.4128l.03.106.008.027-.007-.023.001.003.002.006.004.014c.003.009.007.019.01.03.008.022.017.046.029.073.023.054.053.117.095.187.083.141.208.31.392.493.367.366.965.787 1.94 1.185 1.937.792 5.446 1.531 11.861 1.531 6.381 0 9.478-.571 11.002-1.212.769-.324 1.243-.709 1.479-1.154.119-.226.164-.444.164-.633 0-.068-.005-.13-.014-.184V97.4718a30.19 30.19 0 0 0 1.089-1.6886c1.719-2.8651 3.128-6.226 4.145-9.9377 2.185.7361 3.964.7879 5.406.337 1.656-.5176 2.738-1.6565 3.434-2.8804.69-1.2136 1.021-2.5436 1.183-3.5454.082-.5054.122-.9385.142-1.2475.01-.1546.015-.2788.018-.3662.001-.0437.001-.0782.002-.1027l.003-.0414c.004-.0495.009-.1196.014-.2074.01-.1756.018-.4234.014-.7212-.007-.5914-.063-1.3993-.261-2.2362-.392-1.6531-1.422-3.6572-3.971-3.9762-1.869-.2353-3.228.3826-4.153 1.1606 0-.0877.001-.1754.001-.2632 0-9.3492-2.273-16.2404-6.054-20.809-3.795-4.5842-9.041-6.7463-14.789-6.7463-5.746 0-10.991 2.1633-14.785 6.7479-3.781 4.5691-6.053 11.4603-6.053 20.8074 0 .1202 0 .2403.001.3602-.926-.8226-2.32-1.5026-4.265-1.2576-2.519.315-3.585 2.1848-4.006 3.7709-.211.7942-.277 1.5593-.292 2.1189a9.083 9.083 0 0 0 .005.6828c.003.0834.008.15.011.1972l.004.0433v.0063c0 .0251.001.0605.002.1054.003.0897.009.2176.02.377.022.3183.066.7649.151 1.2867.168 1.0345.508 2.4069 1.203 3.6633.7 1.2643 1.786 2.4525 3.448 3.01 1.476.495 3.299.4569 5.538-.311 1.018 3.7254 2.43 7.0985 4.154 9.9728Zm1.311-43.8135c-3.471 4.1955-5.685 10.682-5.685 19.7873 0 9.1065 2.209 17.3066 5.746 23.2032 2.733 4.5569 6.206 7.6655 10.015 8.8515 1.09.332 2.254.532 3.477.531 1.896 0 3.625-.473 5.154-1.186 3.15-1.487 6.013-4.3166 8.34-8.195 3.202-5.337 5.317-12.5615 5.69-20.639l-.005-.0017.001-.0029.002-.0048.002-.0057c.039-.8414.059-1.692.059-2.5506 0-9.1074-2.214-15.5939-5.687-19.7888-3.459-4.1793-8.234-6.1665-13.556-6.1665-5.32 0-10.094 1.9881-13.553 6.168Zm1.934 54.202v11.169c.023.027.053.062.094.102.185.185.59.5 1.415.837 1.661.679 4.933 1.412 11.256 1.412 6.356 0 9.174-.579 10.382-1.087.41-.173.583-.316.649-.385v-18.123c-6.543 10.981-20.336 7.229-23.796 6.075Zm32.387-31.4954c-.171 3.3656-.638 6.5952-1.359 9.6162 2.018.6995 3.477.6939 4.531.3645 1.169-.3655 1.966-1.1696 2.52-2.1439.56-.9846.849-2.108.995-3.0101.072-.4464.107-.8279.125-1.0955.008-.1336.012-.2382.014-.3076l.001-.0488.001-.0279v-.062l.004-.0417v-.0012l.001-.0077.003-.0392a6.173 6.173 0 0 0 .011-.1646c.008-.1455.016-.3575.012-.6147-.006-.5184-.055-1.2011-.218-1.887-.33-1.3923-1.05-2.5624-2.613-2.758-1.566-.1972-2.57.4084-3.207 1.0604-.327.3344-.558.6847-.708.9523-.045.082-.083.1552-.113.2165Zm-41.523.18c.179 3.2865.638 6.4419 1.34 9.3982-2.067.7313-3.558.7104-4.632.35-1.177-.3948-1.989-1.2419-2.557-2.268-.572-1.0341-.871-2.2074-1.024-3.1459a12.7693 12.7693 0 0 1-.134-1.1399 9.114 9.114 0 0 1-.016-.3202c-.002-.0362-.002-.0632-.003-.0802v-.0583l-.004-.0363v-.0074l-.003-.0355c-.002-.033-.006-.0843-.009-.1514a8.3286 8.3286 0 0 1-.004-.5693c.013-.4812.07-1.1144.239-1.7508.339-1.2748 1.061-2.3945 2.659-2.5941 1.565-.1972 2.57.4083 3.206 1.0603.327.3344.559.6847.708.9523.074.1328.127.2425.159.3158.017.0365.028.0638.034.0799l.007.0157-.001-.0011.001-.0011.006-.0024.028-.0103Z" fill="#001F5C"/></svg>
