<svg viewBox="0 0 160 160" fill="none" xmlns="http://www.w3.org/2000/svg"><path fill-rule="evenodd" clip-rule="evenodd" d="M40.4508 79.8342c0-7.998 6.4837-14.4817 14.4817-14.4817h50.0825c7.998 0 14.482 6.4837 14.482 14.4817 0 3.7694-1.44 7.2024-3.8 9.7789l-15.9518-7.1697 3.8038 11.8725H54.9325c-7.998 0-14.4817-6.4836-14.4817-14.4817Zm52.2343-4.1775-10.0262 4.4119v-3.4029c.0003-1.3884-1.1153-2.514-2.4915-2.5143-.3431 0-.6826.0713-.9972.2098l-13.5141 5.9471c-1.2603.5579-1.8336 2.0409-1.2806 3.3121.5513 1.2675 2.0143 1.847 3.2731 1.2964l10.0265-4.4122v3.4029c-.0002 1.3884 1.1154 2.514 2.4916 2.5142.3431 0 .6826-.0714.9971-.2098l13.5142-5.9472c1.2616-.555 1.8381-2.0367 1.288-3.3092-.5502-1.2727-2.0194-1.8538-3.2809-1.2988Z" fill="#3164FA"/><path d="M121.607 64.2583a.7997.7997 0 0 1 .068-1.1293l9.514-8.4305a.7996.7996 0 0 1 1.129.0682c.293.3307.263.8363-.068 1.1293l-9.514 8.4305a.7995.7995 0 0 1-1.129-.0682ZM116.423 60.0437c-.337-.2857-.379-.7906-.093-1.1276l12.289-14.4957c.285-.337.79-.3786 1.127-.0929.337.2857.379.7905.093 1.1275l-12.288 14.4958a.8006.8006 0 0 1-1.128.0929Z" fill="#001F5C"/><path fill-rule="evenodd" clip-rule="evenodd" d="M99.8541 81.6901a.8.8 0 0 0-1.0986.9771l10.8965 32.7218c.113.337.434.56.79.546a.7977.7977 0 0 0 .745-.604l3.942-15.7105 16.018-2.4038a.801.801 0 0 0 .675-.6837.8012.8012 0 0 0-.468-.8385L99.8541 81.6901Zm13.8529 17.0246-3.404 13.5643-9.456-28.3967 27.349 12.1594-13.804 2.0715-.685.6015ZM40.88 69.2695c-3.8612 0-6.9913-3.1302-6.9913-6.9914 0-3.8612 3.1301-6.9913 6.9913-6.9913 3.8612 0 6.9913 3.1301 6.9913 6.9913 0 3.8612-3.1301 6.9914-6.9913 6.9914Zm-5.3913-6.9914c0 2.9776 2.4137 5.3914 5.3913 5.3914 2.9775 0 5.3913-2.4138 5.3913-5.3914 0-2.9775-2.4138-5.3913-5.3913-5.3913-2.9776 0-5.3913 2.4138-5.3913 5.3913Z" fill="#001F5C"/><path fill-rule="evenodd" clip-rule="evenodd" d="M27.2 62.2783c0-7.6605 6.2101-13.8706 13.8706-13.8706s13.8705 6.2101 13.8705 13.8706-6.21 13.8705-13.8705 13.8705S27.2 69.9388 27.2 62.2783Zm13.8706-12.2706c-6.7769 0-12.2706 5.4937-12.2706 12.2706 0 6.7768 5.4937 12.2705 12.2706 12.2705 6.7768 0 12.2705-5.4937 12.2705-12.2705 0-6.7769-5.4937-12.2706-12.2705-12.2706Z" fill="#001F5C"/></svg>
