<svg viewBox="0 0 160 160" fill="none" xmlns="http://www.w3.org/2000/svg"><path fill-rule="evenodd" clip-rule="evenodd" d="M41.7 49.903v-7.804a.7997.7997 0 0 1 .5107-.7458c4.2238-1.6378 11.1565-2.6869 18.3293-.5586 7.0084 2.0795 14.1833 7.175 19.2562 17.5646 4.2656-3.2037 11.2216-7.0271 19.2409-8.8282 8.5519-1.9207 18.3729-1.5514 27.4029 4.4001.225.148.36.399.36.6679v2.205c2.893.0894 5.295 1.4466 6.2 2.1707a.802.802 0 0 1 .3.6247v59.9996c0 .442-.358.8-.8.8h-105c-.4419 0-.8-.358-.8-.8V60.0994a.8.8 0 0 1 .5895-.7719L32.7 57.852v-3.7526a.8.8 0 0 1 .3562-.6657c1.4481-.9654 5.0773-2.9411 8.6438-3.5307Zm1.6-7.2478v60.4368c17.5936-3.8469 30.036 5.779 35.4 13.266V59.776c-4.9042-10.4914-11.8994-15.4548-18.6151-17.4475-6.5004-1.9288-12.8005-1.0913-16.7849.3267Zm32.8764 76.1438c-8.2699-6-25.2495-12.788-42.2779-3.006a.8007.8007 0 0 1-.7993-.001.8003.8003 0 0 1-.3992-.693V59.5104l-4.4 1.2v58.0886h47.8764Zm6.7219 0H131.7V60.0049c-.888-.6007-2.742-1.5202-4.9-1.6v57.1941c0 .324-.195.615-.494.739a.7995.7995 0 0 1-.872-.173c-4.513-4.514-19.022-10.9-42.5357 2.634Zm-4.8952-.629c-8.0287-6.217-25.6998-13.996-43.7031-4.427V54.5358c1.4969-.9329 4.4937-2.4688 7.4-3.0085v52.5717c0 .246.1128.478.3061.629a.7972.7972 0 0 0 .6841.148c18.0291-4.415 30.5341 5.978 35.3129 13.294Zm2.2968-58.1823c4.053-3.1492 11.0222-7.0841 19.0879-8.8956 8.1412-1.8284 17.3412-1.4838 25.8122 3.9412v58.8037c-6.357-4.928-21.761-9.398-44.9001 4.64V59.9877Z" fill="#001F5C"/><path d="m94.833 68.9005-.0003-19.9385c6.3953-3.3732 14.0283-3.7088 20.6753-.8624v20.841c0 .8227-.938 1.2934-1.598.8017L105 63.0996l-8.5566 6.593c-.6575.5066-1.6103.0379-1.6104-.7921Z" fill="#3164FA"/></svg>
