<svg viewBox="0 0 160 160" fill="none" xmlns="http://www.w3.org/2000/svg"><path fill-rule="evenodd" clip-rule="evenodd" d="M58.6545 61.9466c-.9283.5986-.9283 1.5691 0 2.1677L78.3191 76.795c.9283.5986 2.4334.5986 3.3617 0l19.6642-12.6807c.929-.5986.929-1.5691 0-2.1677L81.6808 49.2659c-.9283-.5987-2.4334-.5987-3.3617 0L58.6545 61.9466ZM79.6638 50.133 59.9991 62.8137c-.1856.1197-.1856.3138 0 .4335l19.6647 12.6807c.1857.1197.4867.1197.6723 0l19.6649-12.6807c.185-.1197.185-.3138 0-.4335L80.3361 50.133c-.1856-.1198-.4866-.1198-.6723 0ZM58.6545 95.886c-.9283.5986-.9283 1.5692 0 2.1678l19.6646 12.6802c.9283.599 2.4334.599 3.3617 0l19.6642-12.6802c.929-.5986.929-1.5692 0-2.1678L81.6808 83.2053c-.9283-.5986-2.4334-.5986-3.3617 0L58.6545 95.886Zm21.0093-11.8136L59.9991 96.7531c-.1856.1197-.1856.3138 0 .4336l19.6647 12.6803c.1857.12.4867.12.6723 0l19.6649-12.6803c.185-.1198.185-.3139 0-.4336L80.3361 84.0724c-.1856-.1197-.4866-.1197-.6723 0ZM31.6808 81.084c-.9283-.5986-.9283-1.5691 0-2.1677l19.6647-12.6807c.9283-.5986 2.4334-.5986 3.3617 0l19.6646 12.6807c.9283.5986.9283 1.5691 0 2.1677L54.7072 93.7648c-.9283.5986-2.4334.5986-3.3617 0L31.6808 81.084Zm1.3447-1.3006 19.6647-12.6807c.1856-.1197.4866-.1197.6723 0l19.6647 12.6807c.1856.1197.1856.3138 0 .4335L53.3625 92.8976c-.1857.1198-.4867.1198-.6723 0L33.0255 80.2169c-.1857-.1197-.1856-.3138 0-.4335Z" fill="#001F5C"/><rect width="27.3987" height="27.3987" rx="2" transform="matrix(.84042 -.54194 .84042 .54194 83.9473 80)" fill="#3164FA"/></svg>
