<svg viewBox="0 0 160 160" fill="none" xmlns="http://www.w3.org/2000/svg"><path fill-rule="evenodd" clip-rule="evenodd" d="M79.6226 28.1997c3.3302 0 6.0401 2.6811 6.0401 6.001 0 3.3199-2.7099 6.0009-6.0401 6.0009-3.3302 0-6.0401-2.681-6.0401-6.0009 0-3.3199 2.7099-6.001 6.0401-6.001Zm4.4401 6.001c0-2.425-1.9823-4.401-4.4401-4.401-2.4579 0-4.4401 1.976-4.4401 4.401 0 2.4249 1.9822 4.4009 4.4401 4.4009 2.4578 0 4.4401-1.976 4.4401-4.4009ZM41.1214 68.2104c3.3302 0 6.04 2.6811 6.04 6.001 0 3.3199-2.7098 6.001-6.04 6.001s-6.0401-2.6811-6.0401-6.001c0-3.3199 2.7099-6.001 6.0401-6.001Zm4.44 6.001c0-2.4249-1.9822-4.401-4.44-4.401-2.4579 0-4.4401 1.9761-4.4401 4.401 0 2.425 1.9822 4.401 4.4401 4.401 2.4578 0 4.44-1.976 4.44-4.401ZM118.878 68.2104c3.331 0 6.041 2.6811 6.041 6.001 0 3.3199-2.71 6.001-6.041 6.001-3.33 0-6.04-2.6811-6.04-6.001 0-3.3199 2.71-6.001 6.04-6.001Zm4.441 6.001c0-2.4249-1.983-4.401-4.441-4.401-2.457 0-4.44 1.9761-4.44 4.401 0 2.425 1.983 4.401 4.44 4.401 2.458 0 4.441-1.976 4.441-4.401ZM111.904 90.9886c-1.657 0-3.044-1.3739-2.547-2.9543 1.266-4.0239 5.05-6.9443 9.521-6.9443 4.472 0 8.256 2.9204 9.522 6.9443.497 1.5804-.89 2.9543-2.547 2.9543h-13.949Zm14.846-1.9606c-.175.1925-.499.3606-.897.3606h-13.949c-.398 0-.722-.1681-.897-.3606-.15-.1643-.184-.3208-.124-.5135 1.061-3.37 4.236-5.8245 7.995-5.8245 3.76 0 6.935 2.4545 7.995 5.8245.061.1927.026.3492-.123.5135ZM31.6 88.0343c-.4973 1.5804.89 2.9543 2.5469 2.9543h13.9489c1.6568 0 3.0441-1.3739 2.5468-2.9543-1.2661-4.0239-5.0501-6.9443-9.5213-6.9443-4.4712 0-8.2552 2.9204-9.5213 6.9443Zm16.4958 1.3543c.3981 0 .7222-.1681.8972-.3606.1493-.1643.184-.3208.1234-.5135-1.0604-3.37-4.2357-5.8245-7.9951-5.8245-3.7593 0-6.9347 2.4545-7.995 5.8245-.0607.1927-.026.3492.1234.5135.1749.1925.4991.3606.8972.3606h13.9489ZM72.6481 50.9779c-1.6569 0-3.0441-1.3739-2.5468-2.9544 1.266-4.0238 5.05-6.9442 9.5212-6.9442 4.4712 0 8.2552 2.9204 9.5213 6.9442.4973 1.5805-.89 2.9544-2.5468 2.9544H72.6481Zm14.8461-1.9607c-.175.1925-.4991.3607-.8972.3607H72.6481c-.3981 0-.7222-.1682-.8972-.3607-.1493-.1643-.184-.3207-.1234-.5134 1.0604-3.3701 4.2357-5.8245 7.995-5.8245 3.7594 0 6.9347 2.4544 7.9951 5.8245.0606.1927.0259.3491-.1234.5134ZM85.6624 114.222c0-3.32-2.7099-6.001-6.04-6.001-3.3302 0-6.0401 2.681-6.0401 6.001 0 3.32 2.7099 6.001 6.0401 6.001 3.3301 0 6.04-2.681 6.04-6.001Zm-6.04-4.401c2.4578 0 4.44 1.976 4.44 4.401s-1.9822 4.401-4.44 4.401c-2.4579 0-4.4401-1.976-4.4401-4.401s1.9822-4.401 4.4401-4.401ZM72.6479 130.999c-1.6569 0-3.0442-1.374-2.5469-2.954 1.2661-4.024 5.0501-6.944 9.5213-6.944 4.4712 0 8.2552 2.92 9.5213 6.944.4973 1.58-.89 2.954-2.5469 2.954H72.6479Zm14.846-1.96c-.1749.192-.4991.36-.8972.36H72.6479c-.3982 0-.7223-.168-.8973-.36-.1493-.165-.184-.321-.1234-.514 1.0604-3.37 4.2357-5.824 7.9951-5.824 3.7593 0 6.9347 2.454 7.995 5.824.0607.193.026.349-.1234.514Z" fill="#001F5C"/><path d="M71.5615 40.4096a.7999.7999 0 0 1-.6011.9584c-12.8261 2.9394-23.2785 12.1115-27.9963 24.1594a.8.8 0 0 1-1.0366.4532.8.8 0 0 1-.4533-1.0366c4.9083-12.5341 15.7805-22.0765 29.1288-25.1355a.8.8 0 0 1 .9585.6011ZM88.1201 40.4096a.8.8 0 0 1 .9585-.6011c13.3484 3.059 24.2204 12.6014 29.1284 25.1355.162.4114-.041.8755-.453 1.0366a.7994.7994 0 0 1-1.036-.4532C112 53.4795 101.547 44.3074 88.7212 41.368a.7999.7999 0 0 1-.6011-.9584ZM71.5615 119.504a.8005.8005 0 0 0-.6011-.959c-12.8261-2.939-23.2785-12.111-27.9963-24.1591a.8.8 0 0 0-1.0366-.4532.8.8 0 0 0-.4533 1.0366c4.9083 12.5337 15.7805 22.0767 29.1288 25.1357.4307.099.8598-.171.9585-.601ZM88.1201 119.504c.0987.43.5278.7.9585.601 13.3484-3.059 24.2204-12.602 29.1284-25.1357.162-.4114-.041-.8755-.453-1.0366a.7994.7994 0 0 0-1.036.4532C112 106.434 101.547 115.606 88.7212 118.545a.8005.8005 0 0 0-.6011.959ZM79.4636 60.7059c-10.0076 0-18.118 4.1572-18.118 9.2856 0 5.1285 8.1116 9.2856 18.118 9.2856 10.0076 0 18.118-4.1579 18.118-9.2856 0-5.1286-8.1109-9.2856-18.118-9.2856Z" fill="#3164FA"/><path d="M62.4769 76.5602c2.4921 3.6017 9.103 6.3834 16.9856 6.3834 7.9222 0 14.5241-2.7535 16.9863-6.3841.7058.9921 1.1323 1.9775 1.1323 3.0949 0 5.1284-8.1104 9.2855-18.118 9.2855-10.0064 0-18.118-4.1569-18.118-9.2855 0-1.1421.395-2.0833 1.1318-3.0942Z" fill="#3164FA"/><path d="M79.4625 92.0027c-7.8826 0-14.493-2.7825-16.985-6.3842-.7368 1.0109-1.1324 1.9529-1.1324 3.0949 0 5.1286 8.1116 9.2856 18.118 9.2856 10.0076 0 18.118-4.1571 18.118-9.2856 0-1.1173-.4265-2.1027-1.1323-3.0949-2.4622 3.6307-9.0641 6.3842-16.9863 6.3842Z" fill="#3164FA"/></svg>
