<svg viewBox="0 0 160 160" fill="none" xmlns="http://www.w3.org/2000/svg"><path d="M93.5716 36.4667a.8.8 0 0 0 0-1.6H66.4287a.8.8 0 0 0 0 1.6h12.7714v11.0746c-16.5475.3347-30.5503 11.0283-35.792 25.8586a.8.8 0 1 0 1.5085.5332c5.1072-14.4494 18.8876-24.7999 35.0835-24.7999 20.5449 0 37.1999 16.655 37.1999 37.2 0 20.5448-16.655 37.1998-37.1999 37.1998-19.8797 0-36.1172-15.594-37.1481-35.2165l3.6735 3.6736a.8.8 0 0 0 1.1314-1.1314l-5.0912-5.0912a.8.8 0 0 0-1.1313 0l-5.0912 5.0912a.8.8 0 0 0 1.1314 1.1314l3.7705-3.7706c.9838 20.5525 17.9587 36.9135 38.755 36.9135 21.4289 0 38.7999-17.371 38.7999-38.7998 0-21.1613-16.941-38.366-37.9999-38.7919V36.4667h12.7715Z" fill="#001F5C"/><path d="M60.7353 46.0436a.8.8 0 0 1-.16 1.12L46.0991 58.0208a.8.8 0 0 1-1.12-.16.8.8 0 0 1 .16-1.12l14.4762-10.8572a.8.8 0 0 1 1.12.16ZM99.4248 47.1636a.8.8 0 1 1 .9602-1.28l14.476 10.8572c.353.2651.425.7666.16 1.12-.265.3535-.767.4251-1.12.16L99.4248 47.1636Z" fill="#001F5C"/><path d="m80.6975 95.8544-.0001.0001c-3.0243 0-5.0392-1.1619-6.0234-3.4793-.2015-.4743-.6887-.7849-1.1953-.6905l-7.7942 1.4534c-.5741.1071-.937.6831-.7534 1.2373 1.7996 5.4344 5.6253 8.6296 11.4892 9.5706.5003.081.8813.505.8813 1.011v2.995c0 .553.4477 1 1 1h3.3613c.5523 0 1-.447 1-1v-2.989c0-.509.3837-.934.8874-1.01 3.5431-.532 6.344-1.808 8.4399-3.808 2.2571-2.1689 3.3908-4.8604 3.3908-8.0628 0-2.2761-.5918-4.2801-1.7485-5.9527-1.1702-1.6726-2.6263-2.871-4.3634-3.5643-1.7651-.7126-4.6416-1.4956-8.6856-2.3994-1.762-.4012-2.8291-.7831-3.2297-1.1733-.3838-.3786-.5834-.856-.5834-1.3974 0-1.5072 1.1644-2.2483 3.4605-2.2483 2.3925 0 4.0826.9033 5.0697 2.7155.2543.4669.7889.7379 1.296.5781l6.8328-2.1526c.5417-.1706.8359-.7596.6083-1.28-1.8633-4.2593-5.3618-6.7829-10.484-7.571-.5036-.0775-.8883-.5028-.8883-1.0123v-2.8149c0-.5523-.4477-1-1-1h-3.3613c-.5523 0-1 .4477-1 1v2.9584c0 .4947-.3629.9123-.8486 1.0059-3.2797.6324-5.7512 1.9565-7.4141 3.9493-1.801 2.1752-2.7018 4.6418-2.7018 7.4489 0 2.5428.8311 4.7794 2.4766 6.7298 1.634 1.9562 5.5367 3.5532 11.6676 4.8189 1.57.3173 2.6487.6907 3.2603 1.128.6059.4154.9117 1.0356.9117 1.7993-.0006 1.4652-1.3096 2.2063-3.9583 2.2063Z" fill="#3164FA"/></svg>
