<svg viewBox="0 0 160 160" fill="none" xmlns="http://www.w3.org/2000/svg"><path d="M98.854 43.8c1.189 0 2.322.504 3.119 1.387l11.519 12.7717c1.442 1.5983 1.442 4.0277 0 5.626l-11.519 12.7717a4.2014 4.2014 0 0 1-3.119 1.387H49.6263c-2.3196 0-4.2-1.8804-4.2-4.2V48c0-2.3196 1.8804-4.2 4.2-4.2H98.854Zm3.617 21.605c2.367 0 4.285-1.9183 4.285-4.2846 0-2.3664-1.918-4.2847-4.285-4.2847-2.366 0-4.2844 1.9183-4.2844 4.2847 0 2.3663 1.9184 4.2846 4.2844 4.2846Z" stroke="#001F5C" stroke-width="1.6" stroke-linecap="round" stroke-linejoin="round"/><path fill-rule="evenodd" clip-rule="evenodd" d="M102.567 83.1077a4.9996 4.9996 0 0 0-3.713-1.6512H49.6263c-2.7614 0-5 2.2386-5 5V112c0 2.761 2.2386 5 5 5H98.854c1.416 0 2.765-.6 3.713-1.651l11.519-12.772c1.717-1.903 1.717-4.7949 0-6.6976l-11.519-12.7717Zm-.096 19.9543c1.925 0 3.485-1.561 3.485-3.4851 0-1.9245-1.56-3.4846-3.485-3.4846-1.924 0-3.4844 1.5601-3.4844 3.4846 0 1.9241 1.5604 3.4851 3.4844 3.4851Zm-50.8753-7.084c0-1.1547.9361-2.0908 2.0908-2.0908h35.5434c1.1547 0 2.0907.9361 2.0907 2.0908s-.936 2.0908-2.0907 2.0908H53.6865c-1.1547 0-2.0908-.9361-2.0908-2.0908Zm2.0908 5.575c-1.1547 0-2.0908.936-2.0908 2.091 0 1.155.9361 2.091 2.0908 2.091h20.9079c1.1547 0 2.0907-.936 2.0907-2.091 0-1.155-.936-2.091-2.0907-2.091H53.6865Z" fill="#3164FA"/></svg>
