<svg viewBox="0 0 160 160" fill="none" xmlns="http://www.w3.org/2000/svg"><path d="M56.0073 41.678a.8.8 0 1 0-1.2807.959l8.8468 11.8148a.8.8 0 0 0 1.2808-.959L56.0073 41.678ZM121.387 55.9089a.7994.7994 0 0 0 .313-1.0871c-.213-.3867-.7-.527-1.087-.3133l-15.658 8.6533a.7995.7995 0 0 0-.313 1.0872c.213.3867.7.5269 1.087.3132l15.658-8.6533ZM100.631 95.0508a.7996.7996 0 0 1 1.13-.0506l14.422 13.1858c.326.298.349.804.051 1.13-.299.326-.805.349-1.131.051l-14.422-13.186c-.326-.2981-.348-.8042-.05-1.1302ZM62.205 96.564a.8.8 0 0 0-1.1401-1.1226c-5.1655 5.2466-7.6505 8.1046-10.1292 10.9556l-.002.003c-2.4666 2.837-4.9279 5.668-10.0598 10.881-.31.314-.306.821.0088 1.131a.7998.7998 0 0 0 1.1313-.009c5.1655-5.246 7.6504-8.104 10.1292-10.956l.002-.002c2.4666-2.838 4.9278-5.669 10.0598-10.881ZM38.2 77.0476a.8.8 0 0 1 .8-.8h12.3618a.8.8 0 0 1 0 1.6H39a.8.8 0 0 1-.8-.8ZM89.1516 94.3544a.898.898 0 1 0-1.7961 0v8.8596c0 4.169-3.3799 7.549-7.5492 7.549s-7.5492-3.38-7.5492-7.549v-8.2142a.8981.8981 0 0 0-1.7961 0v8.2142c0 5.161 4.184 9.345 9.3453 9.345s9.3453-4.184 9.3453-9.345v-8.8596Z" fill="#001F5C"/><path d="M73.5346 73.7635c.3546 1.9008 1.2448 3.3772 2.3812 4.4524.8851-1.1036 1.4848-2.751 1.5919-4.8724.0827-1.6377-.2576-2.7148-.7119-3.3414-.4452-.6139-1.0048-.8144-1.5046-.7485-.9805.1291-2.3189 1.4952-1.7566 4.5099ZM85.4237 71.8414c1.2425 1.7402 1.1208 4.1461.0419 6.0036a6.5256 6.5256 0 0 1-.8772-1.1002c-1.4116-2.2344-1.3878-4.1212-.9377-5.0416.2244-.4588.5049-.607.7147-.6157.2178-.0091.6062.1207 1.0583.7539Z" fill="#3164FA"/><path fill-rule="evenodd" clip-rule="evenodd" d="M80.213 97.5622c11.9477 0 21.633-9.6855 21.633-21.6331 0-11.9477-9.6853-21.6332-21.633-21.6332-11.9476 0-21.6331 9.6855-21.6331 21.6332 0 11.9476 9.6855 21.6331 21.6331 21.6331Zm-1.5144-24.1586c.0914-1.8097-.2734-3.1856-.9375-4.1015-.6733-.9285-1.6456-1.3599-2.6256-1.2308-1.9793.2608-3.3922 2.5918-2.7731 5.9109.4014 2.1517 1.411 3.8354 2.6999 5.0672-.2814.2109-.5793.3801-.8896.5062-1.7668.7181-4.2536.1629-6.9308-2.6543a.5962.5962 0 0 0-.8644.8215c2.8463 2.995 5.8321 3.9179 8.2442 2.9375.4986-.2027.9588-.4813 1.3766-.8278a9.4579 9.4579 0 0 0 1.4749.8836c2.316 1.1156 4.9654 1.2215 6.6536.1858.5804-.3561 1.1-.8035 1.5477-1.3162 1.4109 1.0142 3.1208 1.5867 4.7793 1.6105 2.6677.0384 5.2417-1.3507 6.2045-4.5893a.5963.5963 0 0 0-1.143-.3398c-.791 2.6609-2.8388 3.7685-5.0443 3.7368-1.4165-.0204-2.8816-.514-4.0882-1.3778 1.3918-2.2437 1.6108-5.2376.0114-7.4776-.5749-.8052-1.2985-1.2848-2.0783-1.2525-.788.0327-1.3909.5768-1.7364 1.2833-.6896 1.4102-.5511 3.7459 1.0007 6.2024.3351.5303.7336 1.0128 1.1799 1.4427-.3637.4111-.7849.7715-1.2568 1.061-1.2263.7523-3.4194.7647-5.5126-.2436a8.2754 8.2754 0 0 1-1.1486-.6716c1.0835-1.3511 1.7413-3.284 1.8565-5.5666Z" fill="#3164FA"/></svg>
