<svg viewBox="0 0 160 160" fill="none" xmlns="http://www.w3.org/2000/svg"><path fill-rule="evenodd" clip-rule="evenodd" d="M30.8194 58.9865c0-19.9381 16.1646-36.1027 36.1027-36.1027 19.9382 0 36.1029 16.1646 36.1029 36.1027 0 19.9382-16.1647 36.1028-36.1029 36.1028-7.0775 0-13.6683-2.0536-19.2397-5.5716L31.5709 105.629c-2.6935 2.694-7.0607 2.694-9.7543 0-2.6936-2.693-2.6936-7.0606 0-9.7542L37.645 80.0463c-4.275-5.9284-6.8256-13.1889-6.8256-21.0598Zm-7.9422 45.5815c2.1079 2.108 5.5253 2.108 7.6331 0l16.5389-16.5384a.75.75 0 0 1 .9413-.0971c5.4441 3.5662 11.9393 5.6568 18.9316 5.6568 19.1098 0 34.6029-15.493 34.6029-34.6028 0-19.1097-15.4931-34.6027-34.6029-34.6027-19.1097 0-34.6027 15.493-34.6027 34.6027 0 7.7643 2.5894 14.9092 6.9118 20.6855a.75.75 0 0 1-.0702.9797L22.8772 96.9355c-2.1078 2.1078-2.1078 5.5255 0 7.6325Zm44.0449-70.9618c-13.9943 0-25.3803 11.386-25.3803 25.3803 0 13.9944 11.386 25.3803 25.3803 25.3803 13.9944 0 25.3803-11.3859 25.3803-25.3803 0-13.9943-11.3859-25.3803-25.3803-25.3803ZM40.0418 58.9865c0-14.8227 12.0576-26.8803 26.8803-26.8803 14.8228 0 26.8803 12.0576 26.8803 26.8803 0 14.8228-12.0575 26.8803-26.8803 26.8803-14.8227 0-26.8803-12.0575-26.8803-26.8803Z" fill="#001F5C"/><path fill-rule="evenodd" clip-rule="evenodd" d="M30.8194 58.9865c0-19.9381 16.1646-36.1027 36.1027-36.1027 19.9382 0 36.1029 16.1646 36.1029 36.1027 0 19.9382-16.1647 36.1028-36.1029 36.1028-7.0775 0-13.6683-2.0536-19.2397-5.5716L31.5709 105.629c-2.6936 2.694-7.0607 2.694-9.7543 0-2.6936-2.693-2.6936-7.0606 0-9.7542L37.645 80.0464c-4.275-5.9285-6.8256-13.189-6.8256-21.0599Zm-7.9422 45.5815c2.1079 2.108 5.5253 2.108 7.6331 0l16.5389-16.5384a.75.75 0 0 1 .9413-.0971c5.4441 3.5662 11.9393 5.6568 18.9316 5.6568 19.1098 0 34.6029-15.493 34.6029-34.6028 0-19.1097-15.4931-34.6027-34.6029-34.6027-19.1097 0-34.6027 15.493-34.6027 34.6027 0 7.7643 2.5894 14.9092 6.9118 20.6855a.75.75 0 0 1-.0702.9797L22.8772 96.9355c-2.1078 2.1078-2.1078 5.5255 0 7.6325Zm44.0449-70.9618c-13.9943 0-25.3803 11.386-25.3803 25.3803 0 13.9944 11.386 25.3803 25.3803 25.3803 13.9944 0 25.3803-11.3859 25.3803-25.3803 0-13.9943-11.3859-25.3803-25.3803-25.3803ZM40.0418 58.9865c0-14.8227 12.0576-26.8803 26.8803-26.8803 14.8228 0 26.8803 12.0576 26.8803 26.8803 0 14.8228-12.0575 26.8803-26.8803 26.8803-14.8227 0-26.8803-12.0575-26.8803-26.8803ZM64.6545 128.099c0-3.323 2.694-6.017 6.0172-6.017h57.0613c3.323 0 6.017 2.694 6.017 6.017 0 3.323-2.694 6.017-6.017 6.017H70.6717c-3.3232 0-6.0172-2.694-6.0172-6.017Zm67.5955 0c0-2.495-2.022-4.517-4.517-4.517H70.6717c-2.4948 0-4.5172 2.022-4.5172 4.517 0 2.495 2.0224 4.517 4.5172 4.517h57.0613c2.495 0 4.517-2.022 4.517-4.517ZM64.6545 107.909c0-3.323 2.694-6.017 6.0172-6.017h57.0613c3.323 0 6.017 2.694 6.017 6.017 0 3.323-2.694 6.017-6.017 6.017H70.6717c-3.3232 0-6.0172-2.694-6.0172-6.017Zm67.5955 0c0-2.495-2.022-4.517-4.517-4.517H70.6717c-2.4948 0-4.5172 2.022-4.5172 4.517 0 2.495 2.0224 4.517 4.5172 4.517h57.0613c2.495 0 4.517-2.022 4.517-4.517ZM101.525 87.7179c0-3.3232 2.694-6.0172 6.017-6.0172h20.191c3.323 0 6.017 2.694 6.017 6.0172s-2.694 6.0171-6.017 6.0171h-20.191c-3.323 0-6.017-2.6939-6.017-6.0171Zm30.725 0c0-2.4948-2.022-4.5172-4.517-4.5172h-20.191c-2.495 0-4.517 2.0224-4.517 4.5172 0 2.4947 2.022 4.5171 4.517 4.5171h20.191c2.495 0 4.517-2.0224 4.517-4.5171Z" fill="#001F5C"/><path fill-rule="evenodd" clip-rule="evenodd" d="M80.4728 65.1598c2.1481 2.1481 2.1481 5.6309 0 7.779-2.1481 2.1481-5.6309 2.1481-7.779 0l-5.9723-5.9724-5.9724 5.9724c-2.1481 2.1481-5.6308 2.1481-7.7789 0-2.1481-2.1481-2.1481-5.6309 0-7.779l5.9723-5.9724-5.9725-5.9726c-2.1481-2.1481-2.1481-5.6309 0-7.779 2.1481-2.1481 5.6308-2.1481 7.7789 0l5.9726 5.9726 5.9725-5.9726c2.1481-2.1481 5.6309-2.1481 7.779 0 2.1481 2.1481 2.1481 5.6309 0 7.779l-5.9726 5.9726 5.9724 5.9724Z" fill="#3164FA"/></svg>
