<svg viewBox="0 0 160 160" fill="none" xmlns="http://www.w3.org/2000/svg"><path d="M74.6785 74.6973c0 1.9156 1.0772 3.5916 2.7531 4.4292l-1.9156 7.4219c-.1194.3591 0 .7182.2397 1.0773.2397.359.5987.4784.9578.4784h6.1051c.3591 0 .7182-.1194.9578-.4784.2397-.3591.3591-.7182.2397-1.0773l-1.9156-7.4219c1.6759-.8384 2.7532-2.5144 2.7532-4.4292 0-2.7531-2.2748-5.0279-5.0279-5.0279-2.8727 0-5.1473 2.2748-5.1473 5.0279Z" fill="#3164FA"/><path fill-rule="evenodd" clip-rule="evenodd" d="M106.681 45.1302c.404 4.3722 4.081 7.7957 8.559 7.7957 4.747 0 8.595-3.8481 8.595-8.595s-3.848-8.5951-8.595-8.5951c-4.478 0-8.156 3.4238-8.559 7.7961a.7206.7206 0 0 0-.036-.0008h-8.2461a2.8002 2.8002 0 0 0-2.4792 1.4984l-8.179 15.5792a27.2087 27.2087 0 0 1-.1633-.0792c-2.9097-1.4252-5.6146-3.4603-7.3124-6.2816a.7958.7958 0 0 0-.1464-.1857.7953.7953 0 0 0-.2074-.141.795.795 0 0 0-.3409-.0763.7942.7942 0 0 0-.3408.0763.7984.7984 0 0 0-.3539.3267c-1.6978 2.8213-4.4027 4.8564-7.3124 6.2816a25.2353 25.2353 0 0 1-.5079.2417L62.791 45.0295a2.8002 2.8002 0 0 0-2.4792-1.4984h-8.2456l-.0194.0002-.0174.0006c-.403-4.3723-4.0809-7.7961-8.5584-7.7961-4.7469 0-8.595 3.8482-8.595 8.5951s3.8481 8.595 8.595 8.595c4.4774 0 8.1552-3.4235 8.5584-7.7957a.7105.7105 0 0 0 .0254.0008l.0114.0001h8.2456a1.2 1.2 0 0 1 1.0625.6422l8.2041 15.6268c-2.2731.8896-4.5176 1.4248-6.3197 1.6993-1.3926.2122-2.538 1.3829-2.538 2.8694v11.9416H45.1902a.747.747 0 0 0-.0368.0009c-.4033-4.3721-4.081-7.7956-8.5584-7.7956-4.7469 0-8.595 3.8482-8.595 8.5951s3.8481 8.595 8.595 8.595c4.4776 0 8.1555-3.4238 8.5584-7.7962a.7503.7503 0 0 0 .0368.0008l15.5305.0001v2.6387c0 5.136 3.1951 9.9152 7.0019 13.7365.7178.7205 1.4621 1.4117 2.2179 2.07a.7987.7987 0 0 0-.1033.1518l-8.4629 16.1195a1.1996 1.1996 0 0 1-1.0625.642h-8.2456l-.0183.001h-.0185c-.4032-4.372-4.081-7.795-8.5584-7.795-4.7469 0-8.595 3.848-8.595 8.595 0 4.747 3.8481 8.595 8.595 8.595 4.4775 0 8.1554-3.424 8.5584-7.796H60.3118a2.8004 2.8004 0 0 0 2.4792-1.498l8.3865-15.9745c2.8912 2.3515 5.8314 4.2005 8.0095 5.3425a.7999.7999 0 0 0 .7666 0c2.1023-1.102 4.9146-2.863 7.7075-5.0988l8.2586 15.7308a2.8004 2.8004 0 0 0 2.4792 1.498h8.2821c.403 4.372 4.081 7.796 8.559 7.796 4.747 0 8.595-3.848 8.595-8.595 0-4.747-3.848-8.595-8.595-8.595-4.478 0-8.155 3.423-8.559 7.795-.012 0-.024-.001-.036-.001h-8.2461c-.446 0-.8552-.247-1.0625-.642l-8.4158-16.0298c.8518-.7301 1.6913-1.5024 2.4974-2.3115 3.8068-3.8213 7.0019-8.6005 7.0019-13.7365v-2.6409a.8326.8326 0 0 0 .0593.0022l16.3308-.0001c.012 0 .024-.0002.037-.0008.403 4.3724 4.08 7.7962 8.558 7.7962 4.747 0 8.595-3.8481 8.595-8.595s-3.848-8.5951-8.595-8.5951c-4.477 0-8.155 3.4235-8.558 7.7956a.7932.7932 0 0 0-.037-.0009H98.4792a.8326.8326 0 0 0-.0593.0022V65.9688c0-1.4865-1.1454-2.6572-2.538-2.8694-1.896-.2888-4.2816-.8661-6.6751-1.8412l8.1296-15.4849a1.2 1.2 0 0 1 1.0625-.6422h8.2461c.012 0 .024-.0003.036-.0009Zm1.564-.7993c0 3.8632 3.131 6.995 6.995 6.995 3.863 0 6.995-3.1318 6.995-6.995 0-3.8633-3.132-6.9951-6.995-6.9951-3.864 0-6.995 3.1318-6.995 6.9951ZM62.3208 78.714V65.9688c0-.6193.4896-1.1826 1.1789-1.2876 2.4521-.3736 5.6799-1.2027 8.7673-2.7148 2.7366-1.3404 5.4039-3.238 7.3033-5.8697 1.8994 2.6317 4.5667 4.5293 7.3033 5.8697 3.0874 1.5121 6.3152 2.3412 8.7673 2.7148.6893.105 1.179.6683 1.179 1.2876v16.1804c0 4.4904-2.8215 8.8792-6.5354 12.6072-3.5405 3.554-7.7707 6.3846-10.7142 7.9746-2.9435-1.59-7.1737-4.4206-10.7142-7.9746-3.7139-3.728-6.5353-8.1168-6.5353-12.6072V78.714ZM50.4661 44.3309c0 3.8632-3.1318 6.995-6.9951 6.995-3.8632 0-6.995-3.1318-6.995-6.995 0-3.8633 3.1318-6.9951 6.995-6.9951 3.8633 0 6.9951 3.1318 6.9951 6.9951Zm0 71.3391c0-3.864-3.1318-6.995-6.9951-6.995-3.8632 0-6.995 3.131-6.995 6.995 0 3.863 3.1318 6.995 6.995 6.995 3.8633 0 6.9951-3.132 6.9951-6.995Zm57.7789 0c0-3.864 3.131-6.995 6.995-6.995 3.863 0 6.995 3.131 6.995 6.995 0 3.863-3.132 6.995-6.995 6.995-3.864 0-6.995-3.132-6.995-6.995Zm-71.65-29.9642c3.8633 0 6.9951-3.1318 6.9951-6.995 0-3.8633-3.1318-6.9951-6.9951-6.9951-3.8632 0-6.995 3.1318-6.995 6.9951 0 3.8632 3.1318 6.995 6.995 6.995Zm86.81 0c-3.863 0-6.995-3.1318-6.995-6.995 0-3.8633 3.132-6.9951 6.995-6.9951s6.995 3.1318 6.995 6.9951c0 3.8632-3.132 6.995-6.995 6.995Z" fill="#001F5C"/></svg>
