<svg viewBox="0 0 160 160" fill="none" xmlns="http://www.w3.org/2000/svg"><path d="M100.855 99.3477h10.128c1.292 0 2.339 1.0473 2.339 2.3383s-1.047 2.338-2.339 2.338h-10.544c-1.1589 2.717-3.8539 4.621-6.9936 4.621s-5.8347-1.904-6.9935-4.621H49.0166c-1.2915 0-2.3384-1.047-2.3384-2.338 0-1.291 1.0469-2.3383 2.3384-2.3383H86.036c.7711-3.3801 3.7957-5.9024 7.4094-5.9024 3.6137 0 6.6386 2.5223 7.4096 5.9024Z" fill="#3164FA"/><path fill-rule="evenodd" clip-rule="evenodd" d="M100.926 60.2996c.078-.4365.119-.886.119-1.3449 0-4.1972-3.4024-7.5997-7.5996-7.5997s-7.5997 3.4025-7.5997 7.5997c0 .4589.0407.9084.1186 1.3449H48.828c-.7455 0-1.3498-.6043-1.3498-1.3498 0-.7455.6043-1.3498 1.3498-1.3498h37.1377A7.543 7.543 0 0 1 86.44 56H48.828c-1.6291 0-2.9498 1.3207-2.9498 2.9498 0 1.6291 1.3207 2.9498 2.9498 2.9498h37.6093c1.1506 2.7347 3.8551 4.6548 7.0081 4.6548 3.153 0 5.8575-1.9201 7.0076-4.6548h10.719c1.629 0 2.95-1.3207 2.95-2.9498 0-1.6291-1.321-2.9498-2.95-2.9498h-10.72a7.554 7.554 0 0 1 .474 1.6h10.246c.745 0 1.35.6043 1.35 1.3498 0 .7455-.605 1.3498-1.35 1.3498h-10.246Zm-7.4806 4.6548c3.3135 0 5.9997-2.6862 5.9997-5.9997 0-3.3136-2.6862-5.9997-5.9997-5.9997s-5.9997 2.6861-5.9997 5.9997c0 3.3135 2.6862 5.9997 5.9997 5.9997ZM73.5602 82.9499c-1.1517 2.7321-3.8549 4.6499-7.006 4.6499-4.1972 0-7.5997-3.4025-7.5997-7.5997 0-4.1972 3.4025-7.5997 7.5997-7.5997 3.1511 0 5.8542 1.9178 7.006 4.6499h37.6118c1.629 0 2.95 1.3207 2.95 2.9498 0 1.6291-1.321 2.9498-2.95 2.9498H73.5602Zm.4741-1.6a7.639 7.639 0 0 0 .1196-1.3498c0-.4607-.041-.9117-.1196-1.3498h37.1377c.745 0 1.35.6043 1.35 1.3498 0 .7455-.605 1.3498-1.35 1.3498H74.0343Zm-7.4801 4.6499c3.3135 0 5.9997-2.6862 5.9997-5.9997 0-3.3136-2.6862-5.9997-5.9997-5.9997-3.3136 0-5.9997 2.6861-5.9997 5.9997 0 3.3135 2.6861 5.9997 5.9997 5.9997Z" fill="#001F5C"/><path d="M59.5481 77.0503H48.828c-1.6292 0-2.9498 1.3207-2.9498 2.9498 0 1.6291 1.3206 2.9498 2.9498 2.9498h10.7199a7.5425 7.5425 0 0 1-.4741-1.6H48.828c-.7455 0-1.3498-.6043-1.3498-1.3498 0-.7455.6043-1.3498 1.3498-1.3498h10.2458a7.543 7.543 0 0 1 .4743-1.6Z" fill="#001F5C"/></svg>
