<svg viewBox="0 0 160 160" fill="none" xmlns="http://www.w3.org/2000/svg"><path d="M92.8693 63.6387a.8.8 0 0 1-.8.8H81.0406a.8.8 0 0 1 0-1.6h11.0287a.8.8 0 0 1 .8.8ZM107.509 75.4299a.8.8 0 0 0 .8-.8.8.8 0 0 0-.8-.8H81.04a.8.8 0 0 0 0 1.6h26.469ZM108.309 85.6211a.8.8 0 0 1-.8.8H81.0403a.8.8 0 0 1-.8-.8.8.8 0 0 1 .8-.8h26.4687a.8.8 0 0 1 .8.8ZM107.509 97.4123a.8.8 0 0 0 .8-.8.8.8 0 0 0-.8-.8H96.4803a.8.8 0 0 0-.8.8.8.8 0 0 0 .8.8h11.0287Z" fill="#001F5C"/><path fill-rule="evenodd" clip-rule="evenodd" d="M72.0107 48.251c-1.1045 0-2 .8954-2 2V110c0 1.104.8955 2 2 2h44.5263c1.105 0 2-.896 2-2V50.251c0-1.1046-.895-2-2-2H72.0107Zm44.5263 1.6H72.0107a.4.4 0 0 0-.4.4V110a.4.4 0 0 0 .4.4h44.5263c.221 0 .4-.179.4-.4V50.251a.4.4 0 0 0-.4-.4Z" fill="#001F5C"/><path d="M55.5741 57.2401C57.9617 53.0319 54.872 48 50.1764 48c-3.4383 0-6.2243 2.7765-6.2243 6.2031 0 3.9079 3.6325 6.9648 7.6484 6.0244l4.0533 5.3892a2.4907 2.4907 0 0 0 1.9917.9925h4.9879c1.3704 0 2.4813-1.1109 2.4813-2.4812 0-1.3704-1.1109-2.4813-2.4813-2.4813h-3.743l-3.3163-4.4066ZM47.6867 85.2181c-3.4383 0-6.2243-2.7765-6.2243-6.203 0-3.4266 2.786-6.2031 6.2243-6.2031 2.5519 0 4.7379 1.5334 5.6989 3.7218h9.2478c1.3703 0 2.4812 1.1109 2.4812 2.4813 0 1.3703-1.1108 2.4812-2.4812 2.4812h-9.2478c-.961 2.1884-3.147 3.7218-5.6989 3.7218ZM50.1764 110.031c-3.4383 0-6.2243-2.777-6.2243-6.203 0-3.9109 3.635-6.9653 7.6459-6.0249l4.0558-5.3892a2.4907 2.4907 0 0 1 1.9917-.9925h4.9879c1.3704 0 2.4813 1.1109 2.4813 2.4812 0 1.3704-1.1109 2.4812-2.4813 2.4812h-3.743l-3.3188 4.4062c2.4001 4.224-.7195 9.241-5.3952 9.241Z" fill="#3164FA"/></svg>
