<svg viewBox="0 0 160 160" fill="none" xmlns="http://www.w3.org/2000/svg"><circle cx="80.5" cy="80.5" r="47.5" stroke="#001F5C" stroke-width="1.7961" stroke-linecap="round" stroke-linejoin="round"/><path d="M55.9843 78.1138a4.9834 4.9834 0 0 0-3.5105 1.4468l-.0007.001A4.9738 4.9738 0 0 0 51 83.0941a4.9713 4.9713 0 0 0 1.4731 3.5325l14.9392 14.9264A4.9798 4.9798 0 0 0 70.9228 103a4.982 4.982 0 0 0 3.5113-1.447l32.3679-32.3406c1.098-1.2811 1.473-3.0303.993-4.6479a4.9757 4.9757 0 0 0-3.363-3.3602 4.9826 4.9826 0 0 0-4.6509.9921L70.9485 91.0046l-11.4529-11.444a4.9852 4.9852 0 0 0-3.5113-1.4468Z" fill="#3164FA"/></svg>
