<svg viewBox="0 0 160 160" fill="none" xmlns="http://www.w3.org/2000/svg"><mask id="path-2-inside-1_8874_14471" fill="white"><path d="M104.947 55.8451c0 3.4086 2.784 6.1717 6.218 6.1717 3.435 0 6.219-2.7631 6.219-6.1717 0-3.4086-2.784-6.1718-6.219-6.1718-3.434 0-6.218 2.7632-6.218 6.1718ZM99.7118 72.7862c-.4203 1.6027.9602 2.9678 2.6172 2.9678H120.002c1.656 0 3.037-1.3651 2.617-2.9678-1.325-5.0503-5.951-8.7784-11.454-8.7784-5.503 0-10.128 3.7281-11.4532 8.7784ZM104.947 90.4174c0 3.4085 2.784 6.1717 6.218 6.1717 3.435 0 6.219-2.7632 6.219-6.1717 0-3.4086-2.784-6.1718-6.219-6.1718-3.434 0-6.218 2.7632-6.218 6.1718ZM99.7117 107.358c-.4204 1.603.9603 2.968 2.6173 2.968h17.672c1.657 0 3.038-1.365 2.618-2.968-1.325-5.05-5.951-8.7779-11.454-8.7779-5.503 0-10.129 3.7279-11.4533 8.7779ZM73.7819 90.4174c0 3.4085 2.784 6.1717 6.2181 6.1717 3.4342 0 6.2182-2.7632 6.2182-6.1717 0-3.4086-2.784-6.1718-6.2182-6.1718-3.4341 0-6.2181 2.7632-6.2181 6.1718ZM68.5463 107.358c-.4204 1.603.9605 2.968 2.6174 2.968H88.836c1.6569 0 3.0378-1.365 2.6174-2.968-1.3247-5.05-5.9505-8.7779-11.4535-8.7779-5.5031 0-10.1289 3.7279-11.4536 8.7779ZM42.6161 90.4174c0 3.4085 2.784 6.1717 6.2182 6.1717 3.4342 0 6.2181-2.7632 6.2181-6.1717 0-3.4086-2.7839-6.1718-6.2181-6.1718-3.4342 0-6.2182 2.7632-6.2182 6.1718ZM37.3808 107.358c-.4204 1.603.9605 2.968 2.6174 2.968h17.6723c1.6569 0 3.0378-1.365 2.6174-2.968-1.3247-5.05-5.9505-8.7779-11.4536-8.7779s-10.1288 3.7279-11.4535 8.7779ZM73.782 55.8451c0 3.4086 2.784 6.1717 6.2182 6.1717 3.4342 0 6.2181-2.7631 6.2181-6.1717 0-3.4086-2.7839-6.1718-6.2181-6.1718-3.4342 0-6.2182 2.7632-6.2182 6.1718ZM68.5464 72.7862c-.4204 1.6027.9606 2.9678 2.6174 2.9678h17.6724c1.6568 0 3.0377-1.3651 2.6173-2.9678-1.3246-5.0503-5.9504-8.7784-11.4535-8.7784s-10.1289 3.7281-11.4536 8.7784Z"/></mask><path d="m122.619 72.7862-1.548.406 1.548-.406Zm-22.9072 0-1.5476-.4059 1.5476.4059Zm22.9072 34.5718-1.548.406 1.548-.406Zm-22.9073 0-1.5476-.405 1.5476.405Zm-8.2583 0-1.5476.406 1.5476-.406Zm-22.9071 0-1.5477-.405 1.5477.405Zm-8.2584 0-1.5477.406 1.5477-.406Zm-22.9071 0-1.5477-.405 1.5477.405Zm54.0727-34.5718-1.5476.406 1.5476-.406Zm-22.9071 0-1.5476-.4059 1.5476.4059Zm34.8006-16.9411c0 4.3035 3.512 7.7717 7.818 7.7717v-3.2c-2.561 0-4.618-2.0581-4.618-4.5717h-3.2Zm7.818 7.7717c4.307 0 7.819-3.4682 7.819-7.7717h-3.2c0 2.5136-2.057 4.5717-4.619 4.5717v3.2Zm7.819-7.7717c0-4.3035-3.512-7.7718-7.819-7.7718v3.2c2.562 0 4.619 2.0582 4.619 4.5718h3.2Zm-7.819-7.7718c-4.306 0-7.818 3.4683-7.818 7.7718h3.2c0-2.5136 2.057-4.5718 4.618-4.5718v-3.2Zm-8.836 29.2807H111.165v-3.2H102.329v3.2Zm8.836 0H120.002v-3.2H111.165v3.2Zm13.002-4.9737c-1.507-5.7437-6.761-9.9725-13.002-9.9725v3.2c4.766 0 8.763 3.2273 9.906 7.5844l3.096-.8119Zm-13.002-9.9725c-6.241 0-11.4943 4.2288-13.0008 9.9725l3.0948.8119c1.143-4.3571 5.141-7.5844 9.906-7.5844v-3.2Zm8.837 14.9462c1.259 0 2.45-.5166 3.263-1.3978.834-.9035 1.263-2.1971.902-3.5759l-3.096.8119c.059.2238.008.4141-.158.5939-.186.202-.514.3679-.911.3679v3.2Zm-17.673-3.2c-.397 0-.725-.1659-.912-.3679-.165-.1798-.216-.3701-.158-.5939l-3.0948-.8119c-.3617 1.3788.0678 2.6724.9015 3.5759.8131.8812 2.0043 1.3978 3.2633 1.3978v-3.2Zm1.018 16.2634c0 4.3035 3.512 7.7717 7.818 7.7717v-3.2c-2.561 0-4.618-2.0581-4.618-4.5717h-3.2Zm7.818 7.7717c4.307 0 7.819-3.4682 7.819-7.7717h-3.2c0 2.5136-2.057 4.5717-4.619 4.5717v3.2Zm7.819-7.7717c0-4.3035-3.512-7.7718-7.819-7.7718v3.2c2.562 0 4.619 2.0581 4.619 4.5718h3.2Zm-7.819-7.7718c-4.306 0-7.818 3.4683-7.818 7.7718h3.2c0-2.5137 2.057-4.5718 4.618-4.5718v-3.2Zm-8.836 29.2804H111.165v-3.2H102.329v3.2Zm8.836 0H120.001v-3.2H111.165v3.2Zm13.001-4.973c-1.506-5.744-6.76-9.9729-13.001-9.9729v3.1999c4.766 0 8.763 3.227 9.906 7.584l3.095-.811Zm-13.001-9.9729c-6.241 0-11.4944 4.2289-13.0009 9.9729l3.0949.811c1.143-4.357 5.141-7.584 9.906-7.584v-3.1999Zm8.836 14.9459c1.26 0 2.451-.516 3.264-1.398.834-.903 1.263-2.197.901-3.575l-3.095.811c.059.224.008.415-.158.594-.186.202-.514.368-.912.368v3.2Zm-17.672-3.2c-.397 0-.725-.166-.912-.368-.166-.179-.216-.37-.158-.594l-3.0949-.811c-.3617 1.378.0678 2.672.9015 3.575.8131.882 2.0044 1.398 3.2634 1.398v-3.2ZM72.1819 90.4174c0 4.3035 3.5116 7.7717 7.8181 7.7717v-3.2c-2.5618 0-4.6181-2.0581-4.6181-4.5717h-3.2ZM80 98.1891c4.3066 0 7.8182-3.4682 7.8182-7.7717h-3.2c0 2.5136-2.0563 4.5717-4.6182 4.5717v3.2Zm7.8182-7.7717c0-4.3035-3.5116-7.7718-7.8182-7.7718v3.2c2.5619 0 4.6182 2.0581 4.6182 4.5718h3.2ZM80 82.6456c-4.3065 0-7.8181 3.4683-7.8181 7.7718h3.2c0-2.5137 2.0563-4.5718 4.6181-4.5718v-3.2Zm-8.8363 29.2804H79.9999v-3.2H71.1637v3.2Zm8.8362 0h8.8361v-3.2H79.9999v3.2Zm13.0012-4.973c-1.5066-5.744-6.7603-9.9729-13.0012-9.9729v3.1999c4.7652 0 8.763 3.227 9.9059 7.584l3.0953-.811Zm-13.0012-9.9729c-6.241 0-11.4947 4.2289-13.0013 9.9729l3.0953.811c1.1429-4.357 5.1407-7.584 9.906-7.584v-3.1999Zm8.8361 14.9459c1.2594 0 2.4504-.516 3.2636-1.398.8336-.903 1.2631-2.197.9015-3.575l-3.0953.811c.0587.224.0079.415-.158.594-.1864.202-.5143.368-.9118.368v3.2Zm-17.6723-3.2c-.3975 0-.7254-.166-.9118-.368-.1659-.179-.2167-.37-.158-.594l-3.0953-.811c-.3616 1.378.0679 2.672.9016 3.575.8131.882 2.0041 1.398 3.2635 1.398v-3.2ZM41.0161 90.4174c0 4.3035 3.5116 7.7717 7.8182 7.7717v-3.2c-2.5619 0-4.6182-2.0581-4.6182-4.5717h-3.2Zm7.8182 7.7717c4.3065 0 7.8181-3.4682 7.8181-7.7717h-3.2c0 2.5136-2.0563 4.5717-4.6181 4.5717v3.2Zm7.8181-7.7717c0-4.3035-3.5116-7.7718-7.8181-7.7718v3.2c2.5618 0 4.6181 2.0581 4.6181 4.5718h3.2Zm-7.8181-7.7718c-4.3066 0-7.8182 3.4683-7.8182 7.7718h3.2c0-2.5137 2.0563-4.5718 4.6182-4.5718v-3.2Zm-8.8361 29.2804H48.8343v-3.2H39.9982v3.2Zm8.8361 0h8.8362v-3.2H48.8343v3.2Zm13.0012-4.973c-1.5065-5.744-6.7603-9.9729-13.0012-9.9729v3.1999c4.7653 0 8.7631 3.227 9.9059 7.584l3.0953-.811Zm-13.0012-9.9729c-6.2409 0-11.4946 4.2289-13.0012 9.9729l3.0953.811c1.1429-4.357 5.1407-7.584 9.9059-7.584v-3.1999Zm8.8362 14.9459c1.2594 0 2.4504-.516 3.2635-1.398.8337-.903 1.2632-2.197.9015-3.575l-3.0953.811c.0587.224.008.415-.1579.594-.1864.202-.5143.368-.9118.368v3.2Zm-17.6723-3.2c-.3975 0-.7254-.166-.9118-.368-.1659-.179-.2167-.37-.158-.594l-3.0953-.811c-.3616 1.378.0679 2.672.9015 3.575.8132.882 2.0042 1.398 3.2636 1.398v-3.2ZM72.182 55.8451c0 4.3035 3.5116 7.7717 7.8182 7.7717v-3.2c-2.5619 0-4.6182-2.0581-4.6182-4.5717h-3.2Zm7.8182 7.7717c4.3065 0 7.8181-3.4682 7.8181-7.7717h-3.2c0 2.5136-2.0563 4.5717-4.6181 4.5717v3.2Zm7.8181-7.7717c0-4.3035-3.5116-7.7718-7.8181-7.7718v3.2c2.5618 0 4.6181 2.0582 4.6181 4.5718h3.2Zm-7.8181-7.7718c-4.3066 0-7.8182 3.4683-7.8182 7.7718h3.2c0-2.5136 2.0563-4.5718 4.6182-4.5718v-3.2ZM71.1638 77.354H80v-3.2H71.1638v3.2Zm8.8362 0h8.8362v-3.2H80v3.2Zm13.0012-4.9737C91.4947 66.6366 86.2409 62.4078 80 62.4078v3.2c4.7652 0 8.7631 3.2273 9.9059 7.5844l3.0953-.8119ZM80 62.4078c-6.2409 0-11.4947 4.2288-13.0012 9.9725l3.0953.8119c1.1428-4.3571 5.1406-7.5844 9.9059-7.5844v-3.2Zm8.8362 14.9462c1.2593 0 2.4503-.5166 3.2635-1.3978.8336-.9035 1.2632-2.1971.9015-3.5759l-3.0953.8119c.0587.2238.0079.4141-.158.5939-.1864.202-.5143.3679-.9117.3679v3.2Zm-17.6724-3.2c-.3975 0-.7254-.1659-.9118-.3679-.1659-.1798-.2166-.3701-.1579-.5939l-3.0953-.8119c-.3617 1.3788.0678 2.6724.9015 3.5759.8131.8812 2.0041 1.3978 3.2635 1.3978v-3.2Z" fill="#001F5C" mask="url(#path-2-inside-1_8874_14471)"/><path d="M48.8344 62.0173c-3.4342 0-6.2182-2.7632-6.2182-6.1717 0-3.4086 2.784-6.1718 6.2182-6.1718 3.4342 0 6.2182 2.7632 6.2182 6.1718 0 3.4085-2.784 6.1717-6.2182 6.1717ZM39.9983 75.7545c-1.6569 0-3.0378-1.3652-2.6174-2.9678 1.3247-5.0504 5.9505-8.7784 11.4536-8.7784 5.503 0 10.1288 3.728 11.4535 8.7784.4204 1.6026-.9605 2.9678-2.6174 2.9678H39.9983Z" fill="#3164FA"/></svg>
