<svg viewBox="0 0 160 160" fill="none" xmlns="http://www.w3.org/2000/svg"><path fill-rule="evenodd" clip-rule="evenodd" d="M16.9125 84.8063c2.1764-2.0344 3.7982-3.4401 4.8654-4.2174 1.086-.8078 2.0381-1.4661 2.8562-1.9749l5.1402 3.1567c-1.8388 5.2726-2.9651 10.4019-3.3789 15.3878a52.5276 52.5276 0 0 0-.1645 3.0405c.5917-.7968 1.1676-1.6345 1.7277-2.5128 3.1455-4.9325 5.7921-11.1457 7.9397-18.6397a112.92 112.92 0 0 0 .442-1.5864l4.7022 2.635-.3745 1.3817c-1.0057 3.7645-1.6547 6.6737-1.9468 8.7275-.2311 1.7768-.4047 3.5142-.5208 5.212a76.0166 76.0166 0 0 0-.1457 2.9745 37.8978 37.8978 0 0 0 1.7149-2.4525c3.1179-4.8514 5.4096-10.7602 6.875-17.7266a75.8192 75.8192 0 0 0 .3277-1.6486l4.9228 2.7388a48.3638 48.3638 0 0 1-.6384 3.0464 48.845 48.845 0 0 1-.7433 2.7121 49.5343 49.5343 0 0 1-.5491 1.6895c-.7337 2.1275-1.6184 4.2261-2.6542 6.2958-2.2259 4.4478-4.8823 8.2413-7.9691 11.3813l-5.9253-3.165c.0017-.055.0036-.112.0057-.171.0298-.86.0903-2.0714.1814-3.6329-.582 1.1194-1.1703 2.1745-1.7649 3.1649-.8305 1.384-1.6732 2.642-2.5282 3.774a73.3785 73.3785 0 0 1-1.6106 2.108l-6.7514-3.672c-.1838-5.0429.3328-9.882 1.5496-14.5173a47.2467 47.2467 0 0 1 .8182-2.769c-.6972.5564-1.4432 1.1849-2.2379 1.8855a88.5335 88.5335 0 0 0-1.3318 1.1998l-2.8333-3.8257Zm3.4952 5.3904c-.8663 4.0897-1.2183 8.3224-1.0589 12.6943l.0332.911 8.7351 4.752.836-1.055a76.3166 76.3166 0 0 0 1.6398-2.146c.6467-.857 1.2836-1.779 1.911-2.764l7.1389 3.813.8391-.854c3.2182-3.273 5.9679-7.208 8.259-11.7863 1.0793-2.1566 2.0004-4.3459 2.7627-6.5676l.3264.0941c-1.481 3.3495-2.617 6.5276-3.3999 9.5325l-.3109 1.193 7.9503 4.4753.4129-2.193c.6256-3.3214 1.6923-6.7576 3.2103-10.3101 1.1313.5164 2.1857 1.08 3.1645 1.6897a247.4733 247.4733 0 0 1-.6575 2.4196l-.3359 1.2161 8.0623 4.4559.5101-2.0095c.5535-2.1803 1.0371-4.3174 1.4504-6.4114l.0011.2143 6.2103 3.5251.6985-.2591a39.4945 39.4945 0 0 0 3.0419-1.2758 249.9653 249.9653 0 0 1-.7083 1.554l-.6225 1.3542 7.6374 4.19.716-1.5648c1.7809-3.8921 3.2834-7.7563 4.5058-11.5922l6.7852 3.8577.439-2.1646c.465-2.2924.914-4.3692 1.348-6.2312l.003-.0108c.33-1.4615.687-2.9285 1.072-4.4013.091 1.9237.214 3.9888.369 6.1945l.062.8933 6.981 3.6355.726-1.4588a477.8271 477.8271 0 0 0 4.283-8.829 285.8759 285.8759 0 0 1-.813 3.6702l-.284 1.2433 8.305 4.004.379-2.0634c.36-1.9601.675-3.7436.946-5.3499l7.264 4.0637.379-2.2366c.67-3.953 1.801-8.8158 3.404-14.5991.894-3.1967 2.171-6.8135 3.84-10.855l.515-1.2481-7.42-4.6565-.741 1.708c-2.238 5.1579-4.108 10.4821-5.611 15.9718.194-2.0508.399-4.7401.616-8.0568l.068-1.0464-8.896-4.5829-.645 1.6536c-2.003 5.132-3.953 9.8101-5.85 14.0358-.007-2.4599.077-4.99.25-7.5905l.069-1.0364-9.019-4.7598-.696 1.5626c-2.0776 4.667-3.957 9.5473-5.6384 14.6401l-.0023.007c-.5332 1.6403-1.0997 3.621-1.6998 5.9383l-7.448-1.8295-.3014 1.6774c-.2536 1.4117-.4956 2.6392-.7258 3.6852-1.2035.6703-2.5845 1.3499-4.1467 2.0377.1034-.7797.256-1.5578.458-2.3346.8871-3.4106 2.51-6.5333 4.8974-9.371l-.0381.1636 8.1387 2.2557.456-1.4896c.7612-2.4867 1.204-4.7829 1.2993-6.8767l.0508-1.1169-9.7841-4.0955-.7293.534c-4.5062 3.2994-8.0635 7.5906-10.6735 12.8422-.9001 1.8136-1.6395 3.6325-2.2152 5.4543.2903-3.3147.3745-6.5032.2506-9.5644l-.0376-.9286-8.9903-4.6567.2487 2.8935c.0527.6125.0942 1.2325.1245 1.8602l-2.0652-1.1313-.8422 1.0208c-2.1605 2.6186-4.279 5.7002-6.3585 9.2356l-2.1601-.6004.1061-.6017-7.8597-4.3727-.4092 2.1834c-1.1561 6.1681-2.9331 11.4762-5.3084 15.9513a88.0855 88.0855 0 0 1 .2153-1.7993c.2791-1.9569.9076-4.7887 1.9064-8.5277l.0008-.0028.6994-2.5805-7.5809-4.2481-.5364 1.9807c-1.7804 6.5737-3.9181 12.1418-6.3958 16.7303.5586-3.732 1.5185-7.5564 2.885-11.4746l.4241-1.2162-7.0804-4.3483-.8397.5222c-.8658.5385-1.8538 1.2226-2.9598 2.0451-1.1527.8404-2.8336 2.3032-5.0094 4.337l-1.0424.9744 4.7411 6.4019.8891-.817Zm31.1231-4.66 2.5235.728c-.2318.4946-.4559.985-.6725 1.4713-1.496 3.3587-2.6305 6.5214-3.4034 9.4881L54.9101 100a44.0972 44.0972 0 0 1 .3422-1.6434c.7735-3.3939 1.9789-6.8815 3.6162-10.4626 2.1649.866 4.1064 1.8899 5.8247 3.0715-.1864.7494-.5034 1.9346-.9512 3.5557l5.1434 2.8428c.1369-.539.2693-1.0752.3974-1.6085 2.1374-8.8987 3.058-17.0069 2.7617-24.3246l-5.5863-2.8935c.0529.6155.0948 1.2379.1258 1.8671a53.6374 53.6374 0 0 1 .062 2.0592c.003.2672.0042.5356.0035.8051l-3.3343-1.8265c-2.3074 2.7966-4.5836 6.1601-6.8288 10.0904l-2.7264-.7579-2.2292 4.7619ZM87.475 70.2656a32.9994 32.9994 0 0 1 1.7441-1.6091c-.0533.8858-.1297 1.6747-.2294 2.3668-.0671.4667-.1448.8893-.2331 1.2679l5.1581 1.4296c0 .0001 0 0 0 0 .7329-2.394 1.1432-4.5545 1.2308-6.481l-7.919-3.3148c-4.2877 3.1395-7.683 7.2273-10.1859 12.2634-2.3961 4.8278-3.582 9.6405-3.5576 14.4379l4.7569 2.7002a38.1577 38.1577 0 0 0 4.613-2.0706 39.6785 39.6785 0 0 0 2.2573-1.2947c-.2246.5983-.5611 1.4114-1.0095 2.4395-.4114.9432-.917 2.0673-1.5168 3.3723l4.8222 2.6455c.2236-.4887.4426-.9768.6573-1.4644 2.1524-4.8903 3.8528-9.7263 5.1011-14.5079a84.4576 84.4576 0 0 0 .3897-1.5518l-5.5743-1.3693a127.427 127.427 0 0 1-.2928 1.5757c-.208 1.0796-.409 2.0354-.6029 2.8674-1.5945.9305-3.4955 1.8658-5.7031 2.8061a80.7347 80.7347 0 0 1-1.6117.6654 20.366 20.366 0 0 1 .0756-1.7573c.0999-1.1566.2989-2.3082.5972-3.4547 1.1642-4.4759 3.5085-8.4633 7.0328-11.9621Zm23.493 4.0414a187.1478 187.1478 0 0 1-1.434 3.0022 93.7982 93.7982 0 0 1-.18-3.3292c-.127-3.5378-.064-7.2191.19-11.0438l-6.587-3.4765c-.217.4873-.432.977-.644 1.4691-1.802 4.169-3.4473 8.5096-4.937 13.0218-.9477 2.9153-2.0149 6.9687-3.2016 12.16l4.8488 2.7566c.1139-.5618.2269-1.1111.3391-1.6477.3479-1.6643.6877-3.2073 1.0187-4.6288.699-3.0933 1.517-6.21 2.457-9.35a152.739 152.739 0 0 1 1.637-5.1378c-.059 1.5693-.07 3.3556-.033 5.359.058 3.1754.237 6.8962.537 11.1623l4.741 2.4691c.237-.4778.474-.9557.71-1.4338a472.1883 472.1883 0 0 0 6.219-13.0973c.033-.0732.067-.1465.1-.2197a479.8305 479.8305 0 0 0 2.208-4.9214c-.129 1.101-.359 2.8137-.691 5.138-.021.1496-.044.3039-.068.4631-.354 2.3141-1.026 5.6411-2.016 9.9811l5.266 2.5392c.103-.5591.202-1.1034.297-1.6331.547-3.0404.973-5.5973 1.277-7.671.199-1.3527.426-3.0254.68-5.018.274-2.0232.579-5.6071.915-10.7518l-6.386-3.2898c-.196.5033-.392 1.0023-.588 1.4971-2.29 5.798-4.515 11.0084-6.675 15.6311ZM65.6429 85.7655c.0877-.5926.1695-1.1738.2454-1.7436.2956-2.2197.5011-4.2657.6166-6.138.0606-.9829.0964-1.9179.1074-2.805-.5552.699-1.1145 1.4507-1.6781 2.255-.9693 1.3833-1.9509 2.9222-2.945 4.6168a89.873 89.873 0 0 0-.8014 1.3949 31.162 31.162 0 0 1 1.4513.6838 30.075 30.075 0 0 1 1.5201.82c.5054.2918 1 .5972 1.4837.9161Zm-1.2537-2.6229a95.663 95.663 0 0 0 .2882-2.5322 74.9617 74.9617 0 0 0-1.2381 2.0306c.3203.1623.637.3295.9499.5016Zm60.4458-4.0092c1.575-8.4941 3.977-16.61 7.207-24.3478.208-.4985.42-.9954.635-1.4908l4.699 2.949c-1.687 4.0839-2.987 7.7623-3.902 11.0351-1.396 5.0363-2.443 9.4017-3.141 13.0964a86.3104 86.3104 0 0 0-.299 1.666l-5.199-2.9079Z" fill="#001F5C"/><path d="M49.9036 55.3084c.2782.3426.782.3943 1.1252.1153.3433-.279.3959-.7828.1177-1.1255l-9.0462-11.14c-.2783-.3426-.782-.3942-1.1253-.1153-.3432.279-.3959.7829-.1176 1.1255l9.0462 11.14ZM44.9197 61.173c.3241.2996.8303.2791 1.1305-.0457.3003-.3247.2809-.8309-.0432-1.1304L30.2699 45.4541c-.3241-.2995-.8303-.2791-1.1305.0457-.3003.3248-.2809.8309.0432 1.1305L44.9197 61.173Z" fill="#3164FA"/><path fill-rule="evenodd" clip-rule="evenodd" d="M122.8 103c0 2.651-2.149 4.8-4.8 4.8s-4.8-2.149-4.8-4.8 2.149-4.8002 4.8-4.8002 4.8 2.1492 4.8 4.8002Zm-4.8 3.2c1.767 0 3.2-1.433 3.2-3.2 0-1.767-1.433-3.2002-3.2-3.2002-1.767 0-3.2 1.4332-3.2 3.2002 0 1.767 1.433 3.2 3.2 3.2Z" fill="#3164FA"/><path fill-rule="evenodd" clip-rule="evenodd" d="M109.2 103c0-4.8603 3.94-8.8002 8.8-8.8002 4.86 0 8.8 3.9399 8.8 8.8002 0 4.86-3.94 8.8-8.8 8.8-4.86 0-8.8-3.94-8.8-8.8Zm8.8-7.2002c-3.976 0-7.2 3.2236-7.2 7.2002 0 3.976 3.224 7.2 7.2 7.2s7.2-3.224 7.2-7.2c0-3.9766-3.224-7.2002-7.2-7.2002Z" fill="#3164FA"/></svg>
