<svg viewBox="0 0 160 160" fill="none" xmlns="http://www.w3.org/2000/svg"><path fill-rule="evenodd" clip-rule="evenodd" d="M104.985 89.6224c-2.245 0-4.064 1.8196-4.064 4.0643s1.819 4.0644 4.064 4.0644 4.064-1.8197 4.064-4.0644-1.819-4.0643-4.064-4.0643Zm-2.464 4.0643c0-1.361 1.103-2.4643 2.464-2.4643s2.464 1.1033 2.464 2.4643c0 1.361-1.103 2.4644-2.464 2.4644s-2.464-1.1034-2.464-2.4644Z" fill="#001F5C"/><path fill-rule="evenodd" clip-rule="evenodd" d="M46.1596 72.2608h37.104c1.5687 2.8571 4.606 4.7938 8.0955 4.7938 3.4896 0 6.5268-1.9367 8.0955-4.7938H109.54c2.308 0 4.179 1.8715 4.179 4.18v8.0839h-8.707c-4.942 0-8.9484 4.0065-8.9484 8.9489 0 4.9423 4.0064 8.9484 8.9484 8.9484h12.018c1.556 0 2.817-1.261 2.817-2.8162V87.3413c0-1.5555-1.261-2.8166-2.817-2.8166h-1.711v-8.0839c0-2.7619-1.937-5.0714-4.527-5.6437v-5.7488c0-2.6509-2.149-4.8-4.8-4.8h-4.694a.8.8 0 0 0-.8.8c0 .4419.358.8.8.8h4.694c1.768 0 3.2 1.4327 3.2 3.2v5.6125h-9.047c.288-.8934.443-1.8462.443-2.8354 0-5.0972-4.1317-9.2292-9.2289-9.2292-5.0971 0-9.2292 4.132-9.2292 9.2292 0 .9892.1556 1.942.4437 2.8354h-36.414c-2.4335 0-4.4062-1.9728-4.4062-4.4062 0-2.4335 1.9727-4.4063 4.4062-4.4063h8.2826a.8.8 0 0 0 .8-.8.8.8 0 0 0-.8-.8h-8.2826c-2.9586 0-5.4175 2.1392-5.9145 4.9552a.7958.7958 0 0 0-.0917.3722V107c0 5.965 4.8353 10.8 10.8 10.8h56.5656c4.308 0 7.8-3.492 7.8-7.8v-5.265c0-.441-.358-.8-.8-.8-.441 0-.8.359-.8.8V110c0 3.424-2.775 6.2-6.2 6.2H50.9534c-5.081 0-9.2-4.119-9.2-9.2V70.3362c1.097 1.1837 2.6651 1.9246 4.4062 1.9246Zm37.5703-4.4354c0 1.002.1932 1.9588.5443 2.8354h14.1699c.3511-.8766.5442-1.8334.5442-2.8354 0-4.2135-3.4157-7.6292-7.6292-7.6292s-7.6292 3.4157-7.6292 7.6292Zm7.6292 7.6292c2.5593 0 4.8242-1.2602 6.2082-3.1938H85.151c1.3839 1.9336 3.6489 3.1938 6.2081 3.1938Zm6.3045 18.019c0-4.0587 3.2904-7.3489 7.3484-7.3489h12.018c.672 0 1.217.5447 1.217 1.2166v12.2645c0 .6722-.545 1.2162-1.217 1.2162h-12.018c-4.058 0-7.3484-3.2898-7.3484-7.3484Z" fill="#001F5C"/><rect x="56.5721" y="43" width="26.2677" height="26.2677" rx="13.1339" fill="#3164FA"/></svg>
