<svg viewBox="0 0 160 160" fill="none" xmlns="http://www.w3.org/2000/svg"><path d="M129.5 51v58c0 3.314-2.686 6-6 6h-87c-3.3137 0-6-2.686-6-6V51m99 0c0-3.3137-2.686-6-6-6h-87c-3.3137 0-6 2.6863-6 6m99 0v7h-99v-7m93 .5c0 1.3807-1.119 2.5-2.5 2.5s-2.5-1.1193-2.5-2.5 1.119-2.5 2.5-2.5 2.5 1.1193 2.5 2.5Zm-10 0c0 1.3807-1.119 2.5-2.5 2.5s-2.5-1.1193-2.5-2.5 1.119-2.5 2.5-2.5 2.5 1.1193 2.5 2.5Zm-10 0c0 1.3807-1.119 2.5-2.5 2.5-1.3807 0-2.5-1.1193-2.5-2.5S99.6193 49 101 49c1.381 0 2.5 1.1193 2.5 2.5Z" stroke="#001F5C" stroke-width="1.6" stroke-linecap="round" stroke-linejoin="round"/><path d="M54.5 77c4.6944 0 8.5 3.8056 8.5 8.5S59.1944 94 54.5 94 46 90.1944 46 85.5c0-1.1046-.8954-2-2-2s-2 .8954-2 2C42 92.4036 47.5964 98 54.5 98S67 92.4036 67 85.5 61.4036 73 54.5 73c-1.1046 0-2 .8954-2 2s.8954 2 2 2ZM76 84c-1.1046 0-2 .8954-2 2s.8954 2 2 2h38c1.105 0 2-.8954 2-2s-.895-2-2-2H76ZM74 93c0-1.1046.8954-2 2-2h6c1.1046 0 2 .8954 2 2s-.8954 2-2 2h-6c-1.1046 0-2-.8954-2-2ZM76 77c-1.1046 0-2 .8954-2 2s.8954 2 2 2h38c1.105 0 2-.8954 2-2s-.895-2-2-2H76Z" fill="#3164FA"/></svg>
