<svg viewBox="0 0 160 160" fill="none" xmlns="http://www.w3.org/2000/svg"><path d="M56.2053 50.2766a.8.8 0 0 1 .6452-.3269L33.2891 81.7716a.7965.7965 0 0 1 .1569-.4596l22.7593-31.0354Z" fill="#001F5C"/><path fill-rule="evenodd" clip-rule="evenodd" d="M61.5062 96.2485a.8.8 0 0 0-.8.8v8.7945c0 .442.3581.8.8.8h37.7635a.8002.8002 0 0 0 .8003-.8v-8.7945c0-.4418-.3585-.8-.8003-.8H61.5062Zm.8 8.7945v-7.1945h36.1635v7.1945H62.3062Z" fill="#001F5C"/><path fill-rule="evenodd" clip-rule="evenodd" d="M56.8505 49.9497 33.2889 81.7908V118a.8.8 0 0 0 .8.8h45.7818a.7903.7903 0 0 0 .1295-.011c.042.007.0852.011.1291.011h45.7817c.442 0 .8-.358.8-.8V81.7881a.7117.7117 0 0 0-.003-.0653.7889.7889 0 0 0-.156-.4136l-22.757-31.0326a.8014.8014 0 0 0-.645-.3269h-2.846a.7999.7999 0 0 0-.7996.8c0 .4418.3581.8.7996.8h2.44l21.588 29.4385h-24.028a.7992.7992 0 0 0-.6243.3003l-4.9329 6.1661H65.2532l-4.9329-6.1661a.7998.7998 0 0 0-.6247-.3003h-24.028l21.5882-29.4385h2.4398a.8.8 0 0 0 .8-.8.8.8 0 0 0-.8-.8h-2.8451Zm43.8385 32.6385h24.422V117.2H80.1293a.7905.7905 0 0 0-.1295.01.7856.7856 0 0 0-.1291-.01H34.8889V82.5882h24.4222l4.9329 6.1661a.8001.8001 0 0 0 .6247.3003h30.2626a.8.8 0 0 0 .6247-.3003l4.933-6.1661Z" fill="#001F5C"/><path fill-rule="evenodd" clip-rule="evenodd" d="M45.4697 72.1938a.8.8 0 0 0-.8.8v5.395a.8.8 0 0 0 1.6 0v-4.595h66.6843v4.595a.8.8 0 1 0 1.6 0v-5.395a.8.8 0 0 0-.8-.8h-5.262V64.696a.8.8 0 0 0-.8-.8H52.3076a.8.8 0 0 0-.8.8v7.4978h-6.0379Zm61.4223-6.6978v6.6978H53.1076V65.496h53.7844Z" fill="#001F5C"/><path d="M62.2798 45v17.1365H97.72V45c0-1.6569-1.3432-3-3-3H65.2798c-1.6569 0-3 1.3431-3 3Z" fill="#3164FA"/></svg>
