<svg viewBox="0 0 160 160" fill="none" xmlns="http://www.w3.org/2000/svg"><path fill-rule="evenodd" clip-rule="evenodd" d="M71.9417 40.2279c-2.4269-.6151-4.914.8639-5.5294 3.2918l-3.6856 14.5402c-.6154 2.4278.8667 4.913 3.2936 5.5282l14.5395 3.6855c2.4256.6148 4.9125-.8645 5.5278-3.2921l3.6857-14.5403c.6153-2.4275-.8665-4.9129-3.2921-5.5278l-14.5395-3.6855Zm-3.9784 3.6849c.3981-1.5704 2.014-2.5322 3.5853-2.1339l14.5395 3.6855c1.5694.3978 2.5324 2.0131 2.1343 3.5837l-3.6857 14.5403c-.3981 1.5706-2.0143 2.5321-3.5837 2.1343l-14.5395-3.6855c-1.5713-.3983-2.5339-2.0138-2.1359-3.5841l3.6857-14.5403ZM34.2002 46.2506c0-2.5046 2.0473-4.5494 4.551-4.5494h14.9994c2.5023 0 4.5494 2.0451 4.5494 4.5494v15.0001c0 2.5044-2.0471 4.5495-4.5494 4.5495H38.7512c-2.5037 0-4.551-2.0449-4.551-4.5495V46.2506Zm4.551-2.9494c-1.6209 0-2.951 1.3293-2.951 2.9494v15.0001c0 1.62 1.3301 2.9495 2.951 2.9495h14.9994c1.6191 0 2.9494-1.3292 2.9494-2.9495V46.2506c0-1.6202-1.3303-2.9494-2.9494-2.9494H38.7512ZM102.359 70.1018c-2.4074-.6893-4.9386.7127-5.6282 3.1205L92.601 87.6419c-.6896 2.4078.7155 4.9373 3.1225 5.6267l14.4195 4.1298c2.406.6889 4.937-.7134 5.626-3.121l4.13-14.4196c.69-2.4075-.715-4.9372-3.121-5.6262l-14.419-4.1298Zm-4.0901 3.5611c.4461-1.5575 2.0911-2.4692 3.6491-2.0229l14.42 4.1298c1.556.4458 2.469 2.0899 2.023 3.6475l-4.13 14.4195c-.446 1.5577-2.091 2.4692-3.647 2.0234l-14.42-4.1298c-1.5583-.4463-2.4709-2.0906-2.0249-3.6479l4.1298-14.4196ZM38.7512 71.7007c-2.5037 0-4.551 2.0448-4.551 4.5494v14.9994c0 2.5045 2.0473 4.5494 4.551 4.5494h14.9994c2.5023 0 4.5494-2.045 4.5494-4.5494V76.2501c0-2.5043-2.0471-4.5494-4.5494-4.5494H38.7512Zm-2.951 4.5494c0-1.62 1.3301-2.9494 2.951-2.9494h14.9994c1.6191 0 2.9494 1.3292 2.9494 2.9494v14.9994c0 1.6202-1.3303 2.9494-2.9494 2.9494H38.7512c-1.6209 0-2.951-1.3294-2.951-2.9494V76.2501ZM38.7512 101.7c-2.5037 0-4.551 2.045-4.551 4.55v14.999c0 2.504 2.0468 4.551 4.551 4.551h14.9994c2.5027 0 4.5494-2.047 4.5494-4.551V106.25c0-2.505-2.0471-4.55-4.5494-4.55H38.7512Zm-2.951 4.55c0-1.62 1.3301-2.95 2.951-2.95h14.9994c1.6191 0 2.9494 1.329 2.9494 2.95v14.999c0 1.621-1.3308 2.951-2.9494 2.951H38.7512c-1.6205 0-2.951-1.331-2.951-2.951V106.25ZM68.7503 101.7c-2.5037 0-4.5511 2.045-4.5511 4.55v14.999c0 2.504 2.0469 4.551 4.5511 4.551h14.9993c2.5027 0 4.5494-2.047 4.5494-4.551V106.25c0-2.505-2.0471-4.55-4.5494-4.55H68.7503Zm-2.9511 4.55c0-1.62 1.3301-2.95 2.9511-2.95h14.9993c1.6191 0 2.9494 1.329 2.9494 2.95v14.999c0 1.621-1.3308 2.951-2.9494 2.951H68.7503c-1.6206 0-2.9511-1.331-2.9511-2.951V106.25ZM94.1981 106.25c0-2.505 2.0473-4.55 4.551-4.55h14.9989c2.503 0 4.55 2.045 4.55 4.55v14.999c0 2.504-2.047 4.551-4.55 4.551H98.7483c-2.5042 0-4.551-2.047-4.551-4.551l.0008-14.999Zm4.551-2.95c-1.6209 0-2.9511 1.33-2.9511 2.95l-.0007 14.999c0 1.62 1.3305 2.951 2.951 2.951h14.9997c1.619 0 2.95-1.33 2.95-2.951V106.25c0-1.621-1.33-2.95-2.95-2.95H98.7491ZM64.1992 76.2501c0-2.5046 2.0474-4.5494 4.5511-4.5494h14.9993c2.5023 0 4.5494 2.0451 4.5494 4.5494v14.9994c0 2.5044-2.0471 4.5494-4.5494 4.5494H68.7503c-2.5038 0-4.5511-2.0449-4.5511-4.5494V76.2501Zm4.5511-2.9494c-1.621 0-2.9511 1.3294-2.9511 2.9494v14.9994c0 1.62 1.3301 2.9494 2.9511 2.9494h14.9993c1.6191 0 2.9494-1.3292 2.9494-2.9494V76.2501c0-1.6202-1.3303-2.9494-2.9494-2.9494H68.7503Z" fill="#001F5C"/><path d="M123.906 46.7022c1.458 1.4581 1.458 3.8453 0 5.3032l-10.605 10.6088c-1.458 1.458-3.846 1.458-5.303 0L97.3918 52.0054c-1.4573-1.4581-1.4573-3.8453 0-5.3032l10.6062-10.6094c1.457-1.4573 3.845-1.4573 5.303 0l10.605 10.6094Z" fill="#3164FA"/></svg>
