<svg viewBox="0 0 160 160" fill="none" xmlns="http://www.w3.org/2000/svg"><ellipse cx="79.6702" cy="80.2173" rx="16.9114" ry="16.7691" fill="#3164FA"/><path fill-rule="evenodd" clip-rule="evenodd" d="M60.5271 40.3232a.7998.7998 0 0 0-1.2899-.2021L39.4267 60.4835a.7999.7999 0 0 0 .0638 1.1746l7.9657 6.5822c-.8835 1.2915-1.7582 2.708-2.5632 4.2166-2.358 4.4187-4.1607 9.7063-3.7581 14.9965.4953 6.5067 3.1923 10.5659 7.0235 11.7531.8263.256 1.6842.3716 2.5592.3525.2336.93.5522 1.817.938 2.65 1.6992 3.665 4.7841 6.409 7.806 6.818 1.0692.145 2.1769.111 3.2691-.077.6915 2.677 2.2017 5.114 4.2025 6.812 1.5703 1.332 3.4668 2.229 5.5339 2.406 2.0758.178 4.267-.375 6.4007-1.849.3635-.251.4545-.75.2033-1.113a.8.8 0 0 0-1.113-.204c-1.8525 1.281-3.6778 1.716-5.3542 1.572-1.6851-.144-3.2766-.879-4.6356-2.032-1.7477-1.483-3.071-3.624-3.6814-5.966 1.2946-.401 2.5279-1.012 3.6026-1.79 2.3866-1.727 4.1045-4.368 3.8311-7.4853-.1325-1.5102-.6806-2.6828-1.6467-3.2909-.9853-.6203-2.1645-.5049-3.2092.0487-2.0642 1.094-3.9649 4.0215-4.4664 8.2485-.1219 1.027-.1076 2.059.0262 3.072-.927.156-1.8593.183-2.7485.062-2.2931-.31-5.0063-2.535-6.5687-5.905a13.4323 13.4323 0 0 1-.7841-2.1583c2.6686-.5388 5.4128-2.2537 7.8433-4.9851 1.889-2.1229 2.7852-4.1521 2.8813-5.8991.0971-1.766-.6348-3.2177-1.908-4.0118-2.5762-1.6068-6.5289-.2222-9.0402 4.4486-1.6582 3.0843-2.0762 6.2011-1.6916 9.0262-.6188-.0104-1.2136-.1041-1.776-.2783-2.9333-.909-5.4306-4.1564-5.9017-10.3462-.3704-4.8672 1.2897-9.8406 3.5743-14.1218.7518-1.409 1.5667-2.7343 2.3902-3.9464l6.7407 5.57a.8001.8001 0 0 0 1.1818-.1829L68.2137 56.684a.8.8 0 0 0 .0444-.7895l-7.731-15.5713ZM49.6199 67.9526l6.1411 5.0746 10.8617-16.8286-7.0264-14.1522-18.4178 18.931 7.2059 5.9543c1.3971-1.9001 2.763-3.4577 3.8566-4.542a.8.8 0 1 1 1.1265 1.1361c-1.0505 1.0417-2.3828 2.5627-3.7476 4.4268ZM66.9516 105.49c-.8912.645-1.9045 1.155-2.9627 1.502-.0959-.827-.1004-1.665-.0018-2.496.4649-3.918 2.188-6.2611 3.6269-7.0237.7068-.3746 1.249-.3342 1.6075-.1085.3778.2378.796.832.9052 2.0767.2098 2.3925-1.0923 4.5425-3.1751 6.0495Zm-7.9804-12.161c-2.2906 2.5741-4.7287 4.03-6.969 4.478-.358-2.5343.0099-5.3351 1.5067-8.119 2.3205-4.3162 5.374-4.7283 6.7841-3.8487.7199.449 1.2262 1.3112 1.1572 2.5664-.0701 1.2742-.7442 2.9736-2.479 4.9233Z" fill="#001F5C"/><path d="M100.069 67.3032c-.3212-.304-.3356-.8102-.032-1.1307l9.868-10.419c.304-.3204.81-.3337 1.131-.0297.321.304.336.8102.032 1.1306l-9.868 10.419c-.303.3205-.81.3338-1.131.0298ZM93.766 63.1091c-.361-.2554-.4472-.7546-.1924-1.115l12.3714-17.4956c.255-.3604.754-.4455 1.115-.1901.361.2555.447.7547.192 1.115L94.8812 62.9191c-.2548.3604-.7541.4455-1.1152.19Z" fill="#001F5C"/><path fill-rule="evenodd" clip-rule="evenodd" d="M95.1407 88.862a.7999.7999 0 0 0-.8769 1.2711l25.1252 29.7049c.217.257.571.35.886.235a.8014.8014 0 0 0 .525-.751V98.4801a.8002.8002 0 0 0-.534-.7545L95.1407 88.862ZM119.2 117.137 97.3907 91.3524 119.2 99.0462v18.0908Z" fill="#001F5C"/></svg>
