<svg viewBox="0 0 160 160" fill="none" xmlns="http://www.w3.org/2000/svg"><path fill-rule="evenodd" clip-rule="evenodd" d="M80 40.8002c-21.6496 0-39.2 17.5504-39.2 39.2C40.8 101.65 58.3504 119.2 80 119.2c21.65 0 39.2-17.55 39.2-39.1998 0-21.6496-17.55-39.2-39.2-39.2Zm-40.8 39.2c0-22.5332 18.2667-40.8 40.8-40.8 22.533 0 40.8 18.2668 40.8 40.8C120.8 102.533 102.533 120.8 80 120.8c-22.5333 0-40.8-18.267-40.8-40.7998Z" fill="#001F5C"/><path d="m93.466 61.3072-18.8503 8.3992c-1.795.8195-3.2914 2.3556-4.0894 4.1996l-8.1788 19.3583c-.6985 1.536-.2992 3.2779.7979 4.5068.798.8195 1.795 1.2289 2.7927 1.2289.4988 0 1.0971-.1022 1.5959-.3072l18.8503-8.3992c1.795-.8195 3.2914-2.3556 4.0894-4.1996l8.1788-19.3583c.6985-1.536.2992-3.2779-.7979-4.5068-1.1974-1.2289-2.8928-1.5361-4.3887-.9217h.0001Zm-8.0786 22.1237-8.1788-8.3991 14.4617-6.453-6.2829 14.8521Z" fill="#3164FA"/></svg>
