<svg viewBox="0 0 160 160" fill="none" xmlns="http://www.w3.org/2000/svg"><path fill-rule="evenodd" clip-rule="evenodd" d="M87.3521 79.125c0-2.1528 1.7452-3.8981 3.898-3.8981H116c2.153 0 3.898 1.7453 3.898 3.8981v40.125c0 2.153-1.745 3.898-3.898 3.898H40.0001c-2.1528 0-3.898-1.745-3.898-3.898v-12.578c0-2.153 1.7452-3.898 3.898-3.898h20.2656c1.1609 0 2.102-.941 2.102-2.102v-7.4533c0-2.1528 1.7452-3.898 3.898-3.898h18.9844c1.1609 0 2.102-.9411 2.102-2.102V79.125Zm3.898-2.1019c-1.1608 0-2.1019.941-2.1019 2.1019v8.0937c0 2.1529-1.7452 3.8981-3.8981 3.8981H66.2657c-1.1608 0-2.1019.9411-2.1019 2.1019v7.4533c0 2.153-1.7452 3.898-3.8981 3.898H40.0001c-1.1608 0-2.1019.941-2.1019 2.102v12.578c0 1.161.9411 2.102 2.1019 2.102H116c1.161 0 2.102-.941 2.102-2.102V79.125c0-1.1609-.941-2.1019-2.102-2.1019H91.2501Z" fill="#001F5C"/><path d="M105.636 32.3274v43.4873l-4.653-.0003V57.3396H75.8539a2.3279 2.3279 0 0 1-1.9501-1.0647 2.3285 2.3285 0 0 1-.1672-2.2162l4.1184-9.1554-4.0722-8.0624a2.3268 2.3268 0 0 1 .0933-2.3265 2.3263 2.3263 0 0 1 1.9776-1.1053h25.1293v-1.0817c0-1.2854 1.042-2.3274 2.326-2.3274 1.286 0 2.327 1.0419 2.327 2.3274Z" fill="#3164FA"/></svg>
