<svg viewBox="0 0 160 160" fill="none" xmlns="http://www.w3.org/2000/svg"><path d="M86.9235 36.2158c-19.9236 0-36.0764 16.1529-36.0764 36.0765 0 8.0968 2.701 15.5474 7.2059 21.5674L41.4358 110.477c-2.4498 2.45-2.4498 6.422 0 8.872v0c2.4499 2.449 6.4219 2.449 8.8717 0l16.8775-16.878c5.675 3.717 12.448 5.898 19.7385 5.898C106.847 108.369 123 92.2159 123 72.2923c0-19.9236-16.153-36.0765-36.0765-36.0765Zm0 62.7417c-14.7035 0-26.6652-11.9617-26.6652-26.6652 0-14.7035 11.9617-26.6652 26.6652-26.6652 14.7035 0 26.6655 11.9617 26.6655 26.6652 0 14.7035-11.962 26.6652-26.6655 26.6652Z" stroke="#001F5C" stroke-width="1.6" stroke-linecap="round" stroke-linejoin="round"/><path d="M89.6295 53.4697h-5.4112c-1.1046 0-2 .8955-2 2v30.5079c0 1.1046.8954 2 2 2h5.4112c1.1046 0 2-.8954 2-2V55.4697c0-1.1045-.8954-2-2-2ZM77.0812 66.0181h-5.4113c-1.1045 0-2 .8954-2 2v17.9595c0 1.1046.8955 2 2 2h5.4113c1.1045 0 2-.8954 2-2V68.0181c0-1.1046-.8955-2-2-2ZM96.7664 59.7441h5.4116c1.104 0 2 .8955 2 2v24.2338c0 1.1046-.896 2-2 2h-5.4116c-1.1046 0-2-.8954-2-2V61.7441c0-1.1045.8954-2 2-2Z" fill="#3164FA"/></svg>
