<svg viewBox="0 0 160 160" fill="none" xmlns="http://www.w3.org/2000/svg"><path fill-rule="evenodd" clip-rule="evenodd" d="M71.4774 38.9278c1.8365-2.9707 4.9589-4.8259 8.4487-4.8259 3.4898 0 6.6122 1.8552 8.4487 4.8259l.0119.0198L129.43 109.324c.001.001.001.002.002.004 1.849 2.991 1.977 6.698.223 9.722-1.742 3.005-4.988 4.848-8.461 4.848H38.8691c-3.5847 0-6.7229-1.848-8.4618-4.848a9.6635 9.6635 0 0 1 0-9.7l.0012-.002 41.057-70.4004.0119-.0198Zm1.5337.9349L31.9612 110.251a7.869 7.869 0 0 0 0 7.899c1.4187 2.447 3.9659 3.952 6.9079 3.952h82.3249c2.843 0 5.492-1.51 6.908-3.952v-.001c1.4-2.415 1.322-5.402-.183-7.854-.01-.014-.018-.028-.027-.042L86.8411 39.8626c-1.5318-2.4708-4.0917-3.9645-6.915-3.9645-2.8234 0-5.3833 1.4937-6.915 3.9646Z" fill="#001F5C"/><path d="M85.6907 64.6577C85.8965 61.0642 83.0077 58 79.5 58c-3.5078 0-6.3964 2.9587-6.1906 6.6577l1.2393 24.5167c.103 2.7481 2.2698 4.8614 4.9521 4.8614 2.6823 0 4.8491-2.1141 4.952-4.8614l1.2379-24.5167ZM73 105.342c0 3.699 2.8886 6.658 6.5 6.658 3.6112 0 6.5-2.959 6.5-6.658 0-3.699-2.8888-6.6574-6.5-6.6574S73 101.643 73 105.342Z" fill="#3164FA"/></svg>
