<svg viewBox="0 0 400 225" fill="none" xmlns="http://www.w3.org/2000/svg"><path fill-rule="evenodd" clip-rule="evenodd" d="M197.72 74.5579c-.136-.686-.333-1.36-.592-2.0136a11.6095 11.6095 0 0 0-2.498-3.8532 11.6225 11.6225 0 0 0-3.798-2.5828 11.6073 11.6073 0 0 0-9.003 0 11.612 11.612 0 0 0-3.798 2.5828 11.6279 11.6279 0 0 0-2.499 3.8532 11.6042 11.6042 0 0 0-.809 4.5119c.001 1.591.325 2.8567.989 3.8317.671.9847 1.628 1.5849 2.726 1.9506 1.084.361 2.336.5045 3.653.5636 1.022.0459 2.126.0419 3.256.0378l.001-.0001c.327-.0011.655-.0023.985-.0023.33 0 .659.0012.985.0023l.001.0001c1.13.0041 2.234.0081 3.255-.0378 1.317-.0591 2.569-.2026 3.652-.5636 1.097-.3658 2.054-.9662 2.724-1.9509.663-.975.987-2.2406.988-3.8314.006-.3.001-.5997-.016-.8983h2.676c-.017.2986-.022.5983-.015.8983.001 1.5907.324 2.8562.987 3.8312.669.9848 1.626 1.5852 2.723 1.951 1.083.3611 2.334.5046 3.651.5637 1.022.0459 2.125.0419 3.256.0378.328-.0012.657-.0024.987-.0024.331 0 .66.0012.987.0024 1.131.0041 2.236.0081 3.257-.0378 1.318-.0591 2.57-.2026 3.653-.5636 1.098-.3657 2.055-.9661 2.725-1.9508.664-.975.987-2.2407.988-3.8315a11.6042 11.6042 0 0 0-.809-4.5119 11.6123 11.6123 0 0 0-6.296-6.436 11.611 11.611 0 0 0-9.004 0 11.6123 11.6123 0 0 0-6.296 6.436 11.6601 11.6601 0 0 0-.592 2.0136h-3.08ZM186.33 66.8a10.0089 10.0089 0 0 0-9.309 6.3321 10.0115 10.0115 0 0 0-.698 3.8977v.0176c0 1.3876.282 2.3092.711 2.9398.425.6228 1.051 1.0472 1.91 1.3333.873.2909 1.951.4263 3.219.4832.979.044 2.03.0402 3.152.0362.333-.0012.673-.0024 1.018-.0024.346 0 .685.0012 1.018.0024 1.122.004 2.173.0078 3.151-.0362 1.268-.0569 2.345-.1923 3.218-.4831.858-.2861 1.483-.7104 1.907-1.3331.429-.6307.711-1.5523.711-2.9401h.8l-.8-.0176c.006-.2913 0-.5822-.019-.8719h-1.684a.8.8 0 0 1-.8-.8c0-.4419.358-.8.8-.8h1.449a9.9743 9.9743 0 0 0-.444-1.4258 10.0004 10.0004 0 0 0-2.154-3.3221 10.0101 10.0101 0 0 0-7.156-3.01Zm15.871 9.3579h1.231a.8.8 0 0 0 .8-.8c0-.4419-.358-.8-.8-.8h-.995c.111-.4845.26-.9611.443-1.4258a10.015 10.015 0 0 1 2.154-3.3221c.933-.9529 2.046-1.71 3.275-2.2269a10.0052 10.0052 0 0 1 3.881-.7831c1.333 0 2.653.2662 3.881.7831a10.0053 10.0053 0 0 1 3.274 2.2269 10.0022 10.0022 0 0 1 2.155 3.3221c.49 1.2399.727 2.565.698 3.8977l-.001.0176c0 1.3878-.281 2.3094-.71 2.9401-.424.6226-1.05 1.0469-1.909 1.333-.872.2909-1.95.4263-3.219.4832-.979.044-2.03.0402-3.153.0362-.333-.0012-.673-.0024-1.019-.0024-.346 0-.685.0012-1.018.0024-1.124.004-2.174.0078-3.153-.0362-1.268-.0569-2.345-.1923-3.217-.4831-.858-.286-1.483-.7103-1.906-1.3329-.429-.6306-.71-1.5524-.71-2.9403l-.001-.0176c-.006-.2913 0-.5822.019-.8719Z" fill="#001F5C"/></svg>
