<svg viewBox="0 0 400 225" fill="none" xmlns="http://www.w3.org/2000/svg"><path d="M194.832 76.4021h7.467M175 71.8931h20.91v9.882h-10.68a10.5334 10.5334 0 0 1-3.914-.7511c-1.242-.4964-2.369-1.2242-3.319-2.1419-.95-.9177-1.704-2.0073-2.218-3.2064-.514-1.1992-.779-2.4846-.779-3.7826Zm36.774 9.8859h-10.7v-9.8859H222c.001 1.298-.264 2.5835-.777 3.7829-.514 1.1994-1.267 2.2892-2.217 3.2073-.949.918-2.077 1.6463-3.318 2.1431a10.5348 10.5348 0 0 1-3.914.7526Z" stroke="#001F5C" stroke-width="1.6" stroke-linecap="round" stroke-linejoin="round"/></svg>
