<svg viewBox="0 0 400 225" fill="none" xmlns="http://www.w3.org/2000/svg"><path d="M174.173 70.0001a.697.697 0 0 1 .697-.6969h20.968c.384 0 .696.312.696.6969v3.8791h3.785v-3.8791a.697.697 0 0 1 .697-.6969H222c.385 0 .697.3118.697.6966 0 1.4385-.282 2.8631-.833 4.1923a10.9473 10.9473 0 0 1-5.927 5.9294 10.9489 10.9489 0 0 1-4.192.8341h-10.729a.697.697 0 0 1-.697-.6969v-4.7795h-3.785v4.7754c0 .3849-.312.6969-.696.6969h-10.709a10.949 10.949 0 0 1-4.192-.8324 10.9517 10.9517 0 0 1-3.555-2.3737 10.963 10.963 0 0 1-2.375-3.5534 10.9633 10.9633 0 0 1-.834-4.1919Z" fill="#001F5C"/><path d="M190.426 74.868c0-.4276.346-.7742.774-.7742h1.317c.428 0 .774.3466.774.7742v1.317a.7738.7738 0 0 1-.774.7743H191.2a.7738.7738 0 0 1-.774-.7743v-1.317ZM182.603 76.9592a.7745.7745 0 0 0-.774.7743v1.317c0 .4276.347.7743.774.7743h1.317c.428 0 .775-.3467.775-.7743v-1.317c0-.4276-.347-.7743-.775-.7743h-1.317ZM202.662 76.9592a.7745.7745 0 0 0-.774.7743v1.317c0 .4276.347.7743.774.7743h1.317c.428 0 .774-.3467.774-.7743v-1.317a.7738.7738 0 0 0-.774-.7743h-1.317ZM187.56 77.7335c0-.4276.347-.7743.775-.7743h1.317c.427 0 .774.3467.774.7743v1.317a.7745.7745 0 0 1-.774.7743h-1.317c-.428 0-.775-.3467-.775-.7743v-1.317ZM208.393 76.9592a.7745.7745 0 0 0-.774.7743v1.317c0 .4276.347.7743.774.7743h1.317c.428 0 .775-.3467.775-.7743v-1.317c0-.4276-.347-.7743-.775-.7743h-1.317ZM211.259 74.0938a.7737.7737 0 0 0-.774.7742v1.317c0 .4276.346.7743.774.7743h1.317c.428 0 .774-.3467.774-.7743v-1.317a.7737.7737 0 0 0-.774-.7742h-1.317ZM184.695 74.868c0-.4276.346-.7742.774-.7742h1.317c.428 0 .774.3466.774.7742v1.317a.7738.7738 0 0 1-.774.7743h-1.317a.7738.7738 0 0 1-.774-.7743v-1.317ZM205.528 74.0938a.7737.7737 0 0 0-.774.7742v1.317c0 .4276.346.7743.774.7743h1.317c.427 0 .774-.3467.774-.7743v-1.317a.7744.7744 0 0 0-.774-.7742h-1.317Z" fill="white"/></svg>
