<svg viewBox="0 0 400 225" fill="none" xmlns="http://www.w3.org/2000/svg"><path fill-rule="evenodd" clip-rule="evenodd" d="M176.789 84.3455c.361 0 .654.293.654.6544v4.4278c1.505.0718 2.792.5853 3.862 1.5398 1.096.9596 1.755 2.179 1.976 3.6553.044.2427.066.4735.066.6931-.002.9927-.323 1.8515-.963 2.5766-.663.7611-1.601 1.3013-2.811 1.6224l-.001.1902c0 .3229-.107.5899-.321.8039-.213.213-.477.337-.79.371-.303.022-.533-.031-.69-.158-.235.173-.493.259-.773.258-.303 0-.578-.093-.824-.278-.157.138-.398.196-.723.172-.313-.024-.577-.146-.789-.366-.212-.219-.318-.491-.317-.8134v-.2607c-1.121-.3359-1.988-.869-2.603-1.5971-.615-.7286-.922-1.5768-.92-2.5461.001-.2196.024-.4503.069-.6928.216-1.4754.874-2.6972 1.975-3.6651.927-.8122 2.017-1.2978 3.268-1.4562v-4.4767c0-.3614.293-.6544.655-.6544Zm-2.372 12.5272c.47.0009.874-.1967 1.212-.5946.337-.3975.506-.8792.507-1.4446.002-.565-.166-1.0473-.502-1.4453-.335-.3986-.738-.5984-1.209-.5994-.47-.0009-.874.1973-1.211.5946-.337.3965-.507.8782-.508 1.4432-.001.5654.166 1.0479.502 1.4466.335.3993.738.5985 1.209.5995Zm2.048 1.4783c.134.1481.341.2228.621.2234.426.0008.64-.1635.641-.4944 0-.2174-.07-.4452-.21-.6849-.139-.2409-.287-.3608-.444-.3611-.157-.0003-.317.1078-.48.3237-.163.2171-.244.4336-.245.6499 0 .1373.039.2509.117.3434Zm3.113-1.468c.482.001.889-.1966 1.22-.5945.331-.3975.498-.8792.499-1.4446.001-.565-.164-1.0474-.493-1.4453-.33-.3986-.736-.5984-1.218-.5994-.47-.0009-.871.1973-1.203.5946-.332.3965-.498.8782-.499 1.4432-.001.5654.163 1.0479.493 1.4466.33.3993.73.5985 1.201.5994ZM226.395 90.9663c1.097.9599 1.756 2.1797 1.977 3.6565.044.2427.066.4736.066.6933-.002.9931-.323 1.8521-.964 2.5775-.663.7613-1.6 1.3017-2.812 1.6229v.1903c-.001.3232-.108.5902-.321.8042-.213.213-.477.337-.791.371-.303.022-.532-.031-.689-.158-.236.173-.494.259-.774.258-.303 0-.578-.093-.824-.278-.157.138-.398.196-.723.172-.314-.024-.578-.146-.79-.366-.212-.219-.318-.491-.317-.8137v-.2608c-1.121-.336-1.989-.8693-2.604-1.5977-.615-.7288-.922-1.5773-.92-2.5468.001-.2198.024-.4505.069-.6931.216-1.4759.874-2.6981 1.975-3.6663 1.005-.8794 2.199-1.3761 3.583-1.4893v-4.4424a.6545.6545 0 0 1 1.309 0v4.4477c1.372.1242 2.555.6307 3.55 1.5187Zm-6.89 5.9071c.471.001.875-.1968 1.212-.5948.337-.3976.507-.8794.508-1.445.001-.5652-.166-1.0477-.502-1.4458-.336-.3987-.739-.5986-1.21-.5996-.47-.0009-.875.1974-1.212.5948-.337.3967-.506.8785-.507 1.4437-.001.5656.166 1.0482.502 1.4471.335.3994.738.5987 1.209.5996Zm2.049 1.4788c.134.1482.341.2229.621.2235.426.0008.64-.1635.641-.4946 0-.2174-.07-.4453-.209-.6851-.14-.241-.288-.3609-.445-.3612-.157-.0003-.317.1078-.48.3238-.163.2171-.245.4338-.245.6501 0 .1374.038.251.117.3435Zm3.114-1.4684c.482.001.889-.1968 1.22-.5948.331-.3976.498-.8795.499-1.4451.001-.5651-.163-1.0476-.493-1.4457-.33-.3987-.736-.5986-1.218-.5996-.471-.0009-.872.1974-1.203.5948-.332.3967-.499.8785-.5 1.4437-.001.5656.163 1.0482.494 1.447.33.3995.73.5987 1.201.5997Z" fill="#3164FA"/></svg>
