<svg viewBox="0 0 400 225" fill="none" xmlns="http://www.w3.org/2000/svg"><path d="M174.084 88.2178c0-3.0584 1.403-5.4737 3.113-6.373L176.227 80c-2.584 1.359-4.227 4.6249-4.227 8.2178 0 2.3568.699 4.5322 1.881 6.1434 1.181 1.6106 2.899 2.7153 4.893 2.7153 2.649 0 4.683-1.8011 5.064-3.3286l-1.091-1.9523c-.898 2.0557-2.431 3.1965-3.973 3.1965-1.171 0-2.319-.6451-3.212-1.8635-.894-1.2178-1.478-2.9506-1.478-4.9108ZM224.916 88.2178c0-3.0584-1.403-5.4737-3.113-6.373l.97-1.8448c2.584 1.359 4.227 4.6249 4.227 8.2178 0 2.3568-.699 4.5322-1.881 6.1434-1.181 1.6106-2.899 2.7153-4.893 2.7153-2.649 0-4.356-1.8011-5.119-3.3286l1.146-1.9523c.898 2.0557 2.431 3.1965 3.973 3.1965 1.171 0 2.319-.6451 3.212-1.8635.894-1.2178 1.478-2.9506 1.478-4.9108Z" fill="#3164FA"/></svg>
