<svg viewBox="0 0 400 225" fill="none" xmlns="http://www.w3.org/2000/svg"><path fill-rule="evenodd" clip-rule="evenodd" d="M183.829 35.7621c-.158.4128-.62.6199-1.033.4625-2.142-.8168-5.856-1.8022-9.961-2.0688-4.114-.2671-8.53.1929-12.149 2.1759-4.616 2.5298-6.21 5.5704-5.892 8.0967.055.4422.171.8829.346 1.3164 2.056-1.2591 4.604-2.0046 7.55-1.8041 4.536.3088 7.093 2.92 6.738 5.5845-.175 1.3149-1.077 2.4262-2.516 2.9853-1.422.5522-3.341.5651-5.668-.1595-2.935-.9138-5.227-2.4146-6.611-4.2746-.47.3957-.9.8232-1.287 1.2723-2.051 2.3787-2.8 5.2249-2.25 7.0608.205.6856.526 1.3558.936 1.9836.72-.4374 1.491-.7944 2.303-1.0521 3.478-1.1035 6.463-.6636 8.078.5856.82.6333 1.353 1.5459 1.211 2.5827-.139 1.0144-.891 1.8782-2.034 2.5215-2.37 1.3344-5.068.9167-7.271-.3419-.96-.5481-1.85-1.2681-2.609-2.1055-1.539 1.2747-2.688 3.002-3.208 4.822-.411 1.44-.421 2.9075.05 4.239.468 1.3232 1.428 2.5654 3.051 3.5398a.801.801 0 0 1 .274 1.0976.8005.8005 0 0 1-1.098.2741c-1.916-1.1503-3.134-2.6771-3.735-4.3783-.599-1.6929-.568-3.5052-.08-5.2116.611-2.139 1.952-4.1592 3.763-5.6459-.507-.7659-.907-1.593-1.164-2.4516-.761-2.5404.308-5.9395 2.571-8.5644a12.857 12.857 0 0 1 1.668-1.6155c-.305-.6573-.506-1.3469-.596-2.061-.434-3.459 1.816-7.0165 6.711-9.699 3.991-2.1869 8.752-2.6466 13.021-2.3694 4.276.2777 8.147 1.3007 10.428 2.1703.413.1575.62.6197.463 1.0326ZM153.034 59.659c.611.6446 1.317 1.2057 2.078 1.6407 1.878 1.0726 3.958 1.3139 5.693.3369.91-.5125 1.189-1.0193 1.234-1.345.042-.3031-.088-.6998-.604-1.0992-1.056-.8163-3.435-1.3357-6.616-.3263-.624.198-1.221.4664-1.785.7929Zm2.898-12.5231c1.127 1.5122 3.061 2.8386 5.788 3.6874 2.106.6557 3.632.5765 4.613.1957.962-.3739 1.421-1.0365 1.509-1.705.174-1.3022-1.126-3.4955-5.261-3.777-2.606-.1774-4.847.4836-6.649 1.5989ZM161.69 100.796c-2.749 0-4.977-2.2282-4.977-4.9771 0-2.749 2.228-4.9775 4.977-4.9775s4.978 2.2285 4.978 4.9775c0 2.7489-2.229 4.9771-4.978 4.9771Zm-3.377-4.9771c0 1.8653 1.512 3.3774 3.377 3.3774 1.866 0 3.378-1.5121 3.378-3.3774 0-1.8653-1.512-3.3775-3.378-3.3775-1.865 0-3.377 1.5122-3.377 3.3775Z" fill="#3164FA"/><path fill-rule="evenodd" clip-rule="evenodd" d="M152.2 95.8189c0-5.3124 4.307-9.619 9.619-9.619 5.312 0 9.619 4.3066 9.619 9.619 0 5.3121-4.307 9.6191-9.619 9.6191-5.312 0-9.619-4.307-9.619-9.6191Zm9.619-8.019c-4.429 0-8.019 3.5902-8.019 8.019 0 4.4291 3.59 8.0191 8.019 8.0191s8.019-3.59 8.019-8.0191c0-4.4288-3.59-8.019-8.019-8.019Z" fill="#3164FA"/><path d="M235.866 59.1467c-.321-.304-.335-.8102-.032-1.1307l10.221-10.7912c.303-.3205.81-.3338 1.131-.0298.321.304.336.8102.032 1.1307l-10.22 10.7912c-.304.3205-.81.3338-1.132.0298ZM229.335 54.8002c-.361-.2554-.447-.7546-.192-1.115l12.813-18.1209c.255-.3603.754-.4454 1.115-.19s.447.7546.192 1.115L230.45 54.6102c-.255.3603-.754.4454-1.115.19Z" fill="#3164FA"/><path fill-rule="evenodd" clip-rule="evenodd" d="M220.479 100.946a.799.799 0 0 0-.201.951c.155.326.51.507.865.443l39.648-7.202a.8002.8002 0 0 0 .256-1.4804l-18.708-10.7704a.7998.7998 0 0 0-.92.0862l-20.94 17.9726Zm37.876-6.9918-34.595 6.2838 18.272-15.6817 16.323 9.3979Z" fill="#3164FA"/></svg>
